<?xml version="1.0" encoding="utf-8"?>
<!-- Generator: Adobe Illustrator 23.0.1, SVG Export Plug-In . SVG Version: 6.00 Build 0)  -->
<svg version="1.1" id="Layer_1" xmlns="http://www.w3.org/2000/svg" xmlns:xlink="http://www.w3.org/1999/xlink" x="0px" y="0px"
	 viewBox="0 0 303.5 79.3" style="enable-background:new 0 0 303.5 79.3;" xml:space="preserve">
<style type="text/css">
	.st0{fill:#FFFFFF;}
</style>
<g>
	<path class="st0" d="M17.7,27.4h-3.3v-2.1c-0.3,0.2-0.7,0.5-1.2,0.8s-1,0.6-1.5,0.9c-0.6,0.3-1.2,0.5-1.9,0.7s-1.6,0.3-2.5,0.3
		c-1.8,0-3.3-0.6-4.5-1.8S1,23.5,1,21.7C1,20.2,1.3,19,2,18s1.5-1.6,2.7-2.2C5.9,15.3,7.3,15,9,14.8s3.5-0.3,5.4-0.4v-0.5
		c0-0.8-0.1-1.4-0.4-1.9s-0.6-0.9-1.1-1.2c-0.5-0.3-1-0.5-1.7-0.5s-1.3-0.1-2.1-0.1c-0.9,0-1.8,0.1-2.9,0.3s-2.2,0.6-3.3,1H2.7V8.1
		C3.4,8,4.3,7.8,5.5,7.6S8,7.2,9.1,7.2c1.4,0,2.6,0.1,3.6,0.3s1.9,0.6,2.7,1.2c0.7,0.5,1.3,1.2,1.7,2.1s0.6,1.9,0.6,3.2V27.4z
		 M14.4,22.5v-5.5c-1,0.1-2.2,0.1-3.6,0.3s-2.4,0.3-3.2,0.5c-0.9,0.3-1.7,0.7-2.3,1.3s-0.9,1.4-0.9,2.3c0,1.1,0.3,2,1,2.5
		s1.7,0.9,3.1,0.9c1.2,0,2.2-0.2,3.2-0.7S13.6,23.2,14.4,22.5z"/>
	<path class="st0" d="M40,27.4h-3.3V0H40V27.4z"/>
	<path class="st0" d="M50.1,4.4h-3.7V1h3.7V4.4z M49.9,27.4h-3.3V7.7h3.3V27.4z"/>
	<path class="st0" d="M66.7,27.2c-0.6,0.2-1.3,0.3-2,0.4s-1.4,0.2-2,0.2c-2,0-3.5-0.5-4.6-1.6s-1.6-2.8-1.6-5.2V10.5h-2.2V7.7h2.2
		V2.1h3.3v5.6h6.8v2.8h-6.8v8.9c0,1,0,1.8,0.1,2.4s0.2,1.1,0.5,1.6c0.3,0.5,0.6,0.8,1.1,1s1.1,0.3,2.1,0.3c0.5,0,1.1-0.1,1.7-0.2
		s1-0.3,1.3-0.4h0.2V27.2z"/>
	<path class="st0" d="M80.8,27.2c-0.6,0.2-1.3,0.3-2,0.4s-1.4,0.2-2,0.2c-2,0-3.5-0.5-4.6-1.6s-1.6-2.8-1.6-5.2V10.5h-2.2V7.7h2.2
		V2.1H74v5.6h6.8v2.8H74v8.9c0,1,0,1.8,0.1,2.4s0.2,1.1,0.5,1.6c0.3,0.5,0.6,0.8,1.1,1s1.1,0.3,2.1,0.3c0.5,0,1.1-0.1,1.7-0.2
		s1-0.3,1.3-0.4h0.2V27.2z"/>
	<path class="st0" d="M88.2,27.4h-3.3V0h3.3V27.4z"/>
	<path class="st0" d="M111.1,17.9H96.7c0,1.2,0.2,2.3,0.5,3.2s0.9,1.6,1.5,2.2c0.6,0.6,1.3,1,2.2,1.3s1.8,0.4,2.8,0.4
		c1.3,0,2.7-0.3,4-0.8s2.3-1.1,2.9-1.6h0.2v3.6c-1.1,0.5-2.3,0.9-3.4,1.2s-2.4,0.5-3.7,0.5c-3.3,0-5.8-0.9-7.6-2.6s-2.7-4.3-2.7-7.5
		c0-3.2,0.9-5.8,2.6-7.6s4.1-2.8,6.9-2.8c2.6,0,4.7,0.8,6.1,2.3s2.2,3.7,2.2,6.6V17.9z M107.9,15.3c0-1.7-0.4-3.1-1.3-4
		s-2.2-1.4-3.9-1.4c-1.8,0-3.2,0.5-4.2,1.6s-1.6,2.3-1.8,3.9H107.9z"/>
	<path class="st0" d="M121.6,27.4h-4.2v-5h4.2V27.4z"/>
	<path class="st0" d="M134.6,27.4h-4.2v-5h4.2V27.4z"/>
	<path class="st0" d="M147.7,27.4h-4.2v-5h4.2V27.4z"/>
	<path class="st0" d="M160.8,27.4h-4.2v-5h4.2V27.4z"/>
	<path class="st0" d="M42.8,78.4h-6.7l-4.6-13.2H11L6.4,78.4H0l17.2-47.3h8.4L42.8,78.4z M29.5,59.8l-8.3-23.2l-8.3,23.2H29.5z"/>
	<path class="st0" d="M80.7,60.4c0,3-0.4,5.6-1.3,8s-2,4.4-3.4,6c-1.5,1.7-3.2,2.9-5,3.8c-1.8,0.8-3.8,1.3-5.9,1.3
		c-2,0-3.8-0.2-5.3-0.7c-1.5-0.5-3-1.1-4.4-1.9l-0.4,1.7h-5.6V29h6v17.6c1.7-1.4,3.4-2.5,5.3-3.4c1.9-0.9,4-1.3,6.3-1.3
		c4.2,0,7.5,1.6,9.9,4.8C79.5,50,80.7,54.5,80.7,60.4z M74.5,60.5c0-4.2-0.7-7.4-2.1-9.6c-1.4-2.2-3.6-3.3-6.8-3.3
		c-1.7,0-3.5,0.4-5.3,1.1c-1.8,0.8-3.4,1.7-5,2.9v20.3c1.7,0.8,3.1,1.3,4.4,1.6C61,73.8,62.4,74,64,74c3.3,0,5.9-1.1,7.8-3.3
		C73.6,68.5,74.5,65.1,74.5,60.5z"/>
	<path class="st0" d="M120.2,60.6c0,5.8-1.5,10.3-4.4,13.7c-3,3.3-6.9,5-11.9,5c-5,0-9-1.7-11.9-5c-3-3.3-4.4-7.9-4.4-13.7
		s1.5-10.3,4.4-13.7c3-3.4,6.9-5,11.9-5c5,0,8.9,1.7,11.9,5C118.7,50.3,120.2,54.9,120.2,60.6z M114,60.6c0-4.6-0.9-8-2.7-10.2
		c-1.8-2.2-4.3-3.3-7.5-3.3c-3.2,0-5.8,1.1-7.5,3.3c-1.8,2.2-2.7,5.6-2.7,10.2c0,4.4,0.9,7.8,2.7,10.1c1.8,2.3,4.3,3.4,7.5,3.4
		c3.2,0,5.7-1.1,7.5-3.4C113.1,68.5,114,65.1,114,60.6z"/>
	<path class="st0" d="M158.8,78.4h-6v-3.9c-2,1.6-3.9,2.8-5.8,3.7c-1.8,0.8-3.9,1.3-6.1,1.3c-3.7,0-6.6-1.1-8.7-3.4
		c-2.1-2.3-3.1-5.6-3.1-10v-23h6v20.2c0,1.8,0.1,3.3,0.3,4.6c0.2,1.3,0.5,2.4,1.1,3.3c0.6,0.9,1.3,1.6,2.2,2c0.9,0.4,2.2,0.6,4,0.6
		c1.5,0,3.2-0.4,5.1-1.2c1.8-0.8,3.5-1.8,5.1-3.1V42.9h6V78.4z"/>
	<path class="st0" d="M189,78c-1.1,0.3-2.3,0.5-3.7,0.7s-2.5,0.3-3.5,0.3c-3.6,0-6.4-1-8.3-2.9c-1.9-1.9-2.8-5.1-2.8-9.4V47.9h-4v-5
		h4V32.7h6v10.2H189v5h-12.3v16.2c0,1.9,0,3.3,0.1,4.4c0.1,1,0.4,2,0.9,2.9c0.5,0.8,1.1,1.5,1.9,1.9c0.8,0.4,2.1,0.6,3.7,0.6
		c1,0,2-0.1,3-0.4c1.1-0.3,1.8-0.5,2.3-0.7h0.3V78z"/>
	<path class="st0" d="M261.6,78.4h-6.3V37.6l-13.1,27.7h-3.7l-13-27.7v40.7h-5.9V31.1h8.6l12.6,26.3l12.2-26.3h8.7V78.4z"/>
	<path class="st0" d="M303.5,61.2h-26.1c0,2.2,0.3,4.1,1,5.7c0.7,1.6,1.6,2.9,2.7,4c1.1,1,2.4,1.8,3.9,2.3s3.2,0.8,5,0.8
		c2.4,0,4.8-0.5,7.3-1.4c2.4-1,4.2-1.9,5.2-2.8h0.3v6.5c-2,0.8-4.1,1.6-6.2,2.1s-4.3,0.9-6.6,0.9c-5.9,0-10.5-1.6-13.8-4.8
		s-5-7.7-5-13.6c0-5.8,1.6-10.4,4.7-13.8c3.2-3.4,7.3-5.1,12.5-5.1c4.8,0,8.5,1.4,11.1,4.2c2.6,2.8,3.9,6.8,3.9,11.9V61.2z
		 M297.7,56.7c0-3.1-0.8-5.6-2.4-7.3c-1.6-1.7-3.9-2.6-7.1-2.6c-3.2,0-5.7,0.9-7.6,2.8c-1.9,1.9-3,4.2-3.2,7H297.7z"/>
</g>
</svg>
