<?xml version="1.0" encoding="utf-8"?>
<!-- Generator: Adobe Illustrator 23.0.1, SVG Export Plug-In . SVG Version: 6.00 Build 0)  -->
<svg version="1.1" id="Layer_1" xmlns="http://www.w3.org/2000/svg" xmlns:xlink="http://www.w3.org/1999/xlink" x="0px" y="0px"
	 viewBox="0 0 340 76.4" style="enable-background:new 0 0 340 76.4;" xml:space="preserve">
<style type="text/css">
	.st0{fill:#B2B2B2;}
	.st1{fill:#FFFFFF;}
</style>
<path class="st0" d="M-91.1,223.6c-0.3,0.2-0.6,0.4-1,0.7c-0.4,0.3-0.8,0.5-1.1,0.7c-0.5,0.2-1,0.4-1.5,0.5
	c-0.5,0.1-1.1,0.2-1.7,0.2c-1.5,0-2.7-0.5-3.7-1.4s-1.5-2.1-1.5-3.5c0-1.1,0.3-2,0.8-2.7c0.5-0.7,1.2-1.3,2.1-1.7
	c0.9-0.4,2-0.7,3.4-0.9c1.3-0.2,2.7-0.3,4.2-0.4v-0.1c0-0.8-0.3-1.4-1-1.8c-0.7-0.3-1.7-0.5-3.1-0.5c-0.8,0-1.7,0.1-2.6,0.4
	c-0.9,0.3-1.6,0.5-2,0.7h-0.5v-3.7c0.5-0.1,1.4-0.3,2.5-0.5c1.2-0.2,2.3-0.3,3.5-0.3c2.8,0,4.8,0.4,6.1,1.3s1.9,2.2,1.9,4.1v10.4
	h-4.9V223.6z M-91.1,221.3v-3.2c-0.7,0.1-1.4,0.1-2.2,0.2c-0.8,0.1-1.4,0.2-1.8,0.3c-0.5,0.2-0.9,0.4-1.1,0.7
	c-0.3,0.3-0.4,0.7-0.4,1.2c0,0.3,0,0.6,0.1,0.8c0.1,0.2,0.2,0.4,0.4,0.6c0.2,0.2,0.5,0.3,0.8,0.4c0.3,0.1,0.7,0.1,1.4,0.1
	c0.5,0,1-0.1,1.5-0.3C-92,221.8-91.5,221.6-91.1,221.3z"/>
<path class="st0" d="M-67.2,225.3h-4.9V204h4.9V225.3z"/>
<path class="st0" d="M-57.5,207.7h-5.2V204h5.2V207.7z M-57.7,225.3h-4.9v-15.4h4.9V225.3z"/>
<path class="st0" d="M-43.2,225.1c-0.5,0.1-1.1,0.2-1.7,0.3c-0.6,0.1-1.3,0.1-2.2,0.1c-1.9,0-3.3-0.4-4.3-1.2
	c-0.9-0.8-1.4-2.1-1.4-4v-7.2h-2v-3.3h2v-4.4h4.9v4.4h4.6v3.3h-4.6v5.4c0,0.5,0,1,0,1.4c0,0.4,0.1,0.8,0.2,1.1
	c0.1,0.3,0.4,0.6,0.7,0.8c0.3,0.2,0.8,0.3,1.4,0.3c0.3,0,0.6-0.1,1-0.2s0.7-0.2,0.9-0.3h0.4V225.1z"/>
<path class="st0" d="M-30.5,225.1c-0.5,0.1-1.1,0.2-1.7,0.3c-0.6,0.1-1.3,0.1-2.2,0.1c-1.9,0-3.3-0.4-4.3-1.2
	c-0.9-0.8-1.4-2.1-1.4-4v-7.2h-2v-3.3h2v-4.4h4.9v4.4h4.6v3.3H-35v5.4c0,0.5,0,1,0,1.4c0,0.4,0.1,0.8,0.2,1.1
	c0.1,0.3,0.4,0.6,0.7,0.8c0.3,0.2,0.8,0.3,1.4,0.3c0.3,0,0.6-0.1,1-0.2s0.7-0.2,0.9-0.3h0.4V225.1z"/>
<path class="st0" d="M-22.6,225.3h-4.9V204h4.9V225.3z"/>
<path class="st0" d="M-2.8,218.5h-11.3c0.1,1.2,0.5,2.1,1.4,2.8c0.8,0.6,2.1,1,3.7,1c1,0,2-0.2,3-0.6c1-0.4,1.7-0.8,2.3-1.2h0.5v4
	c-1.1,0.4-2.2,0.8-3.1,1s-2.1,0.3-3.3,0.3c-3.1,0-5.4-0.7-7.1-2.1c-1.6-1.4-2.5-3.4-2.5-5.9c0-2.5,0.8-4.5,2.3-6
	c1.6-1.5,3.7-2.2,6.4-2.2c2.5,0,4.4,0.6,5.6,1.9c1.3,1.3,1.9,3.1,1.9,5.4V218.5z M-7.7,215.6c0-1-0.3-1.8-0.8-2.3
	c-0.5-0.5-1.2-0.8-2.3-0.8c-0.9,0-1.7,0.2-2.3,0.7c-0.6,0.5-1,1.3-1,2.4H-7.7z"/>
<path class="st1" d="M51.9,225.3H39.4l-3.3-9.6H18.6l-3.3,9.6H3L20.5,178h14L51.9,225.3z M33.1,207.1l-5.8-16.9l-5.8,16.9H33.1z"/>
<path class="st1" d="M95.3,207c0,5.6-1.5,10.2-4.6,13.7c-3.1,3.5-7,5.3-11.6,5.3c-2,0-3.7-0.2-5.2-0.6s-2.9-1-4.3-1.8l-0.5,1.8h-11
	v-49.4h11.5v17.5c1.8-1.4,3.5-2.5,5.4-3.4c1.8-0.9,3.9-1.3,6.3-1.3c4.5,0,8,1.6,10.4,4.9S95.3,201.2,95.3,207z M83.5,207.2
	c0-3.2-0.5-5.6-1.6-7.3c-1.1-1.7-3-2.6-5.8-2.6c-1.1,0-2.2,0.2-3.3,0.5c-1.1,0.3-2.2,0.8-3.3,1.4v17.9c0.8,0.3,1.6,0.5,2.3,0.6
	s1.6,0.2,2.7,0.2c3,0,5.3-0.9,6.7-2.7C82.8,213.4,83.5,210.7,83.5,207.2z"/>
<path class="st1" d="M140,207.5c0,5.9-1.7,10.5-5.1,13.9s-8.2,5.1-14.4,5.1c-6.2,0-11-1.7-14.4-5.1c-3.4-3.4-5.1-8-5.1-13.9
	c0-5.9,1.7-10.5,5.2-13.9s8.2-5,14.4-5c6.2,0,11,1.7,14.4,5.1C138.3,197,140,201.6,140,207.5z M125.9,216.1c0.7-0.9,1.3-2,1.7-3.3
	c0.4-1.3,0.6-3.1,0.6-5.3c0-2.1-0.2-3.9-0.6-5.3c-0.4-1.4-0.9-2.5-1.6-3.4c-0.7-0.9-1.5-1.5-2.4-1.8c-1-0.4-2-0.5-3.1-0.5
	c-1.1,0-2.1,0.1-2.9,0.4c-0.9,0.3-1.7,0.9-2.5,1.8c-0.7,0.8-1.3,2-1.7,3.4c-0.4,1.4-0.6,3.2-0.6,5.4c0,1.9,0.2,3.6,0.5,5.1
	c0.4,1.4,0.9,2.6,1.6,3.4c0.7,0.8,1.5,1.4,2.4,1.8s2,0.6,3.2,0.6c1,0,2-0.2,3-0.5C124.5,217.5,125.3,217,125.9,216.1z"/>
<path class="st1" d="M183.7,225.3h-11.5v-3.9c-2.1,1.6-4,2.8-5.8,3.7c-1.8,0.8-3.8,1.3-6.3,1.3c-3.9,0-7-1.1-9.1-3.4
	c-2.1-2.3-3.2-5.6-3.2-10v-23.2h11.5v17.7c0,1.8,0.1,3.3,0.2,4.5c0.1,1.2,0.4,2.2,0.8,3c0.4,0.8,1,1.4,1.8,1.7
	c0.8,0.4,2,0.5,3.4,0.5c1,0,2.1-0.2,3.2-0.5c1.2-0.4,2.3-0.9,3.4-1.6v-25.3h11.5V225.3z"/>
<path class="st1" d="M217.3,225c-1.2,0.3-2.5,0.6-3.9,0.7c-1.4,0.2-3.1,0.3-5,0.3c-4.4,0-7.8-0.9-9.9-2.7c-2.2-1.8-3.3-4.9-3.3-9.2
	v-16.7h-4.7v-7.7h4.7v-10.2h11.5v10.2h10.7v7.7h-10.7V210c0,1.3,0,2.3,0,3.3c0,0.9,0.2,1.8,0.5,2.5c0.3,0.7,0.8,1.3,1.6,1.8
	c0.7,0.4,1.8,0.7,3.3,0.7c0.6,0,1.4-0.1,2.3-0.4s1.6-0.5,2-0.7h0.9V225z"/>
<path class="st1" d="M296.5,225.3h-12.1v-31.6l-8.8,20.5h-8.4l-8.8-20.5v31.6h-11.5V178h14.2l10.6,23.7l10.6-23.7h14.2V225.3z"/>
<path class="st1" d="M343,209.6h-26.2c0.2,2.8,1.2,4.9,3.2,6.4c2,1.5,4.8,2.2,8.6,2.2c2.4,0,4.8-0.4,7-1.3c2.3-0.9,4.1-1.8,5.4-2.8
	h1.3v9.2c-2.6,1-5,1.8-7.3,2.3s-4.8,0.7-7.6,0.7c-7.2,0-12.6-1.6-16.4-4.8c-3.8-3.2-5.7-7.8-5.7-13.7c0-5.9,1.8-10.5,5.4-14
	c3.6-3.4,8.6-5.2,14.8-5.2c5.8,0,10.2,1.5,13.1,4.4c2.9,2.9,4.4,7.1,4.4,12.6V209.6z M331.6,202.9c-0.1-2.4-0.7-4.2-1.8-5.4
	c-1.1-1.2-2.9-1.8-5.2-1.8c-2.2,0-4,0.6-5.4,1.7c-1.4,1.1-2.2,3-2.4,5.5H331.6z"/>
<g>
	<path class="st0" d="M10.9,19.6c-0.3,0.2-0.6,0.4-1,0.7c-0.4,0.3-0.8,0.5-1.1,0.7c-0.5,0.2-1,0.4-1.5,0.5c-0.5,0.1-1.1,0.2-1.7,0.2
		c-1.5,0-2.7-0.5-3.7-1.4s-1.5-2.1-1.5-3.5c0-1.1,0.3-2,0.8-2.7c0.5-0.7,1.2-1.3,2.1-1.7c0.9-0.4,2-0.7,3.4-0.9
		c1.3-0.2,2.7-0.3,4.2-0.4v-0.1c0-0.8-0.3-1.4-1-1.8C9.2,9,8.1,8.9,6.8,8.9C6,8.9,5.1,9,4.2,9.3c-0.9,0.3-1.6,0.5-2,0.7H1.8V6.2
		c0.5-0.1,1.4-0.3,2.5-0.5c1.2-0.2,2.3-0.3,3.5-0.3c2.8,0,4.8,0.4,6.1,1.3s1.9,2.2,1.9,4.1v10.4h-4.9V19.6z M10.9,17.3v-3.2
		c-0.7,0.1-1.4,0.1-2.2,0.2c-0.8,0.1-1.4,0.2-1.8,0.3c-0.5,0.2-0.9,0.4-1.1,0.7c-0.3,0.3-0.4,0.7-0.4,1.2c0,0.3,0,0.6,0.1,0.8
		c0.1,0.2,0.2,0.4,0.4,0.6c0.2,0.2,0.5,0.3,0.8,0.4C7,18.3,7.4,18.3,8,18.3c0.5,0,1-0.1,1.5-0.3C10,17.8,10.5,17.6,10.9,17.3z"/>
	<path class="st0" d="M34.8,21.3h-4.9V0h4.9V21.3z"/>
	<path class="st0" d="M44.5,3.7h-5.2V0h5.2V3.7z M44.3,21.3h-4.9V5.9h4.9V21.3z"/>
	<path class="st0" d="M58.8,21.1c-0.5,0.1-1.1,0.2-1.7,0.3c-0.6,0.1-1.3,0.1-2.2,0.1c-1.9,0-3.3-0.4-4.3-1.2c-0.9-0.8-1.4-2.1-1.4-4
		V9.3h-2V5.9h2V1.5h4.9v4.4h4.6v3.3h-4.6v5.4c0,0.5,0,1,0,1.4c0,0.4,0.1,0.8,0.2,1.1c0.1,0.3,0.4,0.6,0.7,0.8
		c0.3,0.2,0.8,0.3,1.4,0.3c0.3,0,0.6-0.1,1-0.2s0.7-0.2,0.9-0.3h0.4V21.1z"/>
	<path class="st0" d="M71.5,21.1c-0.5,0.1-1.1,0.2-1.7,0.3c-0.6,0.1-1.3,0.1-2.2,0.1c-1.9,0-3.3-0.4-4.3-1.2c-0.9-0.8-1.4-2.1-1.4-4
		V9.3h-2V5.9h2V1.5H67v4.4h4.6v3.3H67v5.4c0,0.5,0,1,0,1.4c0,0.4,0.1,0.8,0.2,1.1c0.1,0.3,0.4,0.6,0.7,0.8c0.3,0.2,0.8,0.3,1.4,0.3
		c0.3,0,0.6-0.1,1-0.2s0.7-0.2,0.9-0.3h0.4V21.1z"/>
	<path class="st0" d="M79.4,21.3h-4.9V0h4.9V21.3z"/>
	<path class="st0" d="M99.2,14.5H87.9c0.1,1.2,0.5,2.1,1.4,2.8c0.8,0.6,2.1,1,3.7,1c1,0,2-0.2,3-0.6c1-0.4,1.7-0.8,2.3-1.2h0.5v4
		c-1.1,0.4-2.2,0.8-3.1,1s-2.1,0.3-3.3,0.3c-3.1,0-5.4-0.7-7.1-2.1c-1.6-1.4-2.5-3.4-2.5-5.9c0-2.5,0.8-4.5,2.3-6
		c1.6-1.5,3.7-2.2,6.4-2.2c2.5,0,4.4,0.6,5.6,1.9c1.3,1.3,1.9,3.1,1.9,5.4V14.5z M94.3,11.6c0-1-0.3-1.8-0.8-2.3
		c-0.5-0.5-1.2-0.8-2.3-0.8c-0.9,0-1.7,0.2-2.3,0.7c-0.6,0.5-1,1.3-1,2.4H94.3z"/>
	<path class="st1" d="M48.9,75.3H36.4l-3.3-9.6H15.6l-3.3,9.6H0L17.5,28h14L48.9,75.3z M30.1,57.1l-5.8-16.9l-5.8,16.9H30.1z"/>
	<path class="st1" d="M92.3,57c0,5.6-1.5,10.2-4.6,13.7c-3.1,3.5-7,5.3-11.6,5.3c-2,0-3.7-0.2-5.2-0.6s-2.9-1-4.3-1.8l-0.5,1.8h-11
		V25.9h11.5v17.5c1.8-1.4,3.5-2.5,5.4-3.4c1.8-0.9,3.9-1.3,6.3-1.3c4.5,0,8,1.6,10.4,4.9S92.3,51.2,92.3,57z M80.5,57.2
		c0-3.2-0.5-5.6-1.6-7.3c-1.1-1.7-3-2.6-5.8-2.6c-1.1,0-2.2,0.2-3.3,0.5c-1.1,0.3-2.2,0.8-3.3,1.4v17.9c0.8,0.3,1.6,0.5,2.3,0.6
		s1.6,0.2,2.7,0.2c3,0,5.3-0.9,6.7-2.7C79.8,63.4,80.5,60.7,80.5,57.2z"/>
	<path class="st1" d="M137,57.5c0,5.9-1.7,10.5-5.1,13.9s-8.2,5.1-14.4,5.1c-6.2,0-11-1.7-14.4-5.1c-3.4-3.4-5.1-8-5.1-13.9
		c0-5.9,1.7-10.5,5.2-13.9s8.2-5,14.4-5c6.2,0,11,1.7,14.4,5.1C135.3,47,137,51.6,137,57.5z M122.9,66.1c0.7-0.9,1.3-2,1.7-3.3
		c0.4-1.3,0.6-3.1,0.6-5.3c0-2.1-0.2-3.9-0.6-5.3c-0.4-1.4-0.9-2.5-1.6-3.4c-0.7-0.9-1.5-1.5-2.4-1.8c-1-0.4-2-0.5-3.1-0.5
		c-1.1,0-2.1,0.1-2.9,0.4c-0.9,0.3-1.7,0.9-2.5,1.8c-0.7,0.8-1.3,2-1.7,3.4c-0.4,1.4-0.6,3.2-0.6,5.4c0,1.9,0.2,3.6,0.5,5.1
		c0.4,1.4,0.9,2.6,1.6,3.4c0.7,0.8,1.5,1.4,2.4,1.8s2,0.6,3.2,0.6c1,0,2-0.2,3-0.5C121.5,67.5,122.3,67,122.9,66.1z"/>
	<path class="st1" d="M180.7,75.3h-11.5v-3.9c-2.1,1.6-4,2.8-5.8,3.7c-1.8,0.8-3.8,1.3-6.3,1.3c-3.9,0-7-1.1-9.1-3.4
		c-2.1-2.3-3.2-5.6-3.2-10V39.6h11.5v17.7c0,1.8,0.1,3.3,0.2,4.5c0.1,1.2,0.4,2.2,0.8,3c0.4,0.8,1,1.4,1.8,1.7
		c0.8,0.4,2,0.5,3.4,0.5c1,0,2.1-0.2,3.2-0.5c1.2-0.4,2.3-0.9,3.4-1.6V39.6h11.5V75.3z"/>
	<path class="st1" d="M214.3,75c-1.2,0.3-2.5,0.6-3.9,0.7c-1.4,0.2-3.1,0.3-5,0.3c-4.4,0-7.8-0.9-9.9-2.7c-2.2-1.8-3.3-4.9-3.3-9.2
		V47.4h-4.7v-7.7h4.7V29.4h11.5v10.2h10.7v7.7h-10.7V60c0,1.3,0,2.3,0,3.3c0,0.9,0.2,1.8,0.5,2.5c0.3,0.7,0.8,1.3,1.6,1.8
		c0.7,0.4,1.8,0.7,3.3,0.7c0.6,0,1.4-0.1,2.3-0.4s1.6-0.5,2-0.7h0.9V75z"/>
	<path class="st1" d="M293.5,75.3h-12.1V43.6l-8.8,20.5h-8.4l-8.8-20.5v31.6h-11.5V28h14.2l10.6,23.7L279.3,28h14.2V75.3z"/>
	<path class="st1" d="M340,59.6h-26.2c0.2,2.8,1.2,4.9,3.2,6.4c2,1.5,4.8,2.2,8.6,2.2c2.4,0,4.8-0.4,7-1.3c2.3-0.9,4.1-1.8,5.4-2.8
		h1.3v9.2c-2.6,1-5,1.8-7.3,2.3s-4.8,0.7-7.6,0.7c-7.2,0-12.6-1.6-16.4-4.8c-3.8-3.2-5.7-7.8-5.7-13.7c0-5.9,1.8-10.5,5.4-14
		c3.6-3.4,8.6-5.2,14.8-5.2c5.8,0,10.2,1.5,13.1,4.4c2.9,2.9,4.4,7.1,4.4,12.6V59.6z M328.6,52.9c-0.1-2.4-0.7-4.2-1.8-5.4
		c-1.1-1.2-2.9-1.8-5.2-1.8c-2.2,0-4,0.6-5.4,1.7c-1.4,1.1-2.2,3-2.4,5.5H328.6z"/>
</g>
</svg>
