<?xml version="1.0" encoding="utf-8"?>
<!-- Generator: Adobe Illustrator 23.0.1, SVG Export Plug-In . SVG Version: 6.00 Build 0)  -->
<svg version="1.1" id="Layer_1" xmlns="http://www.w3.org/2000/svg" xmlns:xlink="http://www.w3.org/1999/xlink" x="0px" y="0px"
	 viewBox="0 0 444.6 50.5" style="enable-background:new 0 0 444.6 50.5;" xml:space="preserve">
<style type="text/css">
	.st0{fill:#B2B2B2;}
	.st1{fill:#FFFFFF;}
</style>
<path class="st0" d="M10.4,47.8c-0.3,0.2-0.6,0.4-1,0.7c-0.4,0.3-0.8,0.5-1.1,0.7c-0.5,0.2-1,0.4-1.5,0.5c-0.5,0.1-1.1,0.2-1.7,0.2
	c-1.5,0-2.7-0.5-3.7-1.4S0,46.4,0,45c0-1.1,0.3-2,0.8-2.7C1.3,41.5,2,41,2.9,40.6c0.9-0.4,2-0.7,3.4-0.9c1.3-0.2,2.7-0.3,4.2-0.4
	v-0.1c0-0.8-0.3-1.4-1-1.8C8.7,37.1,7.7,37,6.4,37c-0.8,0-1.7,0.1-2.6,0.4c-0.9,0.3-1.6,0.5-2,0.7H1.3v-3.7c0.5-0.1,1.4-0.3,2.5-0.5
	c1.2-0.2,2.3-0.3,3.5-0.3c2.8,0,4.8,0.4,6.1,1.3s1.9,2.2,1.9,4.1v10.4h-4.9V47.8z M10.4,45.4v-3.2c-0.7,0.1-1.4,0.1-2.2,0.2
	c-0.8,0.1-1.4,0.2-1.8,0.3c-0.5,0.2-0.9,0.4-1.1,0.7C5.1,43.7,5,44.1,5,44.6c0,0.3,0,0.6,0.1,0.8c0.1,0.2,0.2,0.4,0.4,0.6
	c0.2,0.2,0.5,0.3,0.8,0.4c0.3,0.1,0.7,0.1,1.4,0.1c0.5,0,1-0.1,1.5-0.3C9.6,46,10.1,45.7,10.4,45.4z"/>
<path class="st0" d="M34.4,49.4h-4.9V28.1h4.9V49.4z"/>
<path class="st0" d="M44.1,31.8h-5.2v-3.7h5.2V31.8z M43.9,49.4H39V34h4.9V49.4z"/>
<path class="st0" d="M58.4,49.2c-0.5,0.1-1.1,0.2-1.7,0.3c-0.6,0.1-1.3,0.1-2.2,0.1c-1.9,0-3.3-0.4-4.3-1.2c-0.9-0.8-1.4-2.1-1.4-4
	v-7.2h-2V34h2v-4.4h4.9V34h4.6v3.3h-4.6v5.4c0,0.5,0,1,0,1.4c0,0.4,0.1,0.8,0.2,1.1c0.1,0.3,0.4,0.6,0.7,0.8
	c0.3,0.2,0.8,0.3,1.4,0.3c0.3,0,0.6-0.1,1-0.2s0.7-0.2,0.9-0.3h0.4V49.2z"/>
<path class="st0" d="M71.1,49.2c-0.5,0.1-1.1,0.2-1.7,0.3c-0.6,0.1-1.3,0.1-2.2,0.1c-1.9,0-3.3-0.4-4.3-1.2c-0.9-0.8-1.4-2.1-1.4-4
	v-7.2h-2V34h2v-4.4h4.9V34h4.6v3.3h-4.6v5.4c0,0.5,0,1,0,1.4c0,0.4,0.1,0.8,0.2,1.1c0.1,0.3,0.4,0.6,0.7,0.8
	c0.3,0.2,0.8,0.3,1.4,0.3c0.3,0,0.6-0.1,1-0.2s0.7-0.2,0.9-0.3h0.4V49.2z"/>
<path class="st0" d="M79,49.4h-4.9V28.1H79V49.4z"/>
<path class="st0" d="M98.8,42.6H87.5c0.1,1.2,0.5,2.1,1.4,2.8c0.8,0.6,2.1,1,3.7,1c1,0,2-0.2,3-0.6c1-0.4,1.7-0.8,2.3-1.2h0.5v4
	c-1.1,0.4-2.2,0.8-3.1,1s-2.1,0.3-3.3,0.3c-3.1,0-5.4-0.7-7.1-2.1c-1.6-1.4-2.5-3.4-2.5-5.9c0-2.5,0.8-4.5,2.3-6
	c1.6-1.5,3.7-2.2,6.4-2.2c2.5,0,4.4,0.6,5.6,1.9c1.3,1.3,1.9,3.1,1.9,5.4V42.6z M93.9,39.7c0-1-0.3-1.8-0.8-2.3
	c-0.5-0.5-1.2-0.8-2.3-0.8c-0.9,0-1.7,0.2-2.3,0.7c-0.6,0.5-1,1.3-1,2.4H93.9z"/>
<path class="st1" d="M153.5,49.4h-12.6l-3.3-9.6h-17.5l-3.3,9.6h-12.3L122,2.1h14L153.5,49.4z M134.7,31.2l-5.8-16.9l-5.8,16.9
	H134.7z"/>
<path class="st1" d="M196.9,31.1c0,5.6-1.5,10.2-4.6,13.7c-3.1,3.5-7,5.3-11.6,5.3c-2,0-3.7-0.2-5.2-0.6s-2.9-1-4.3-1.8l-0.5,1.8
	h-11V0h11.5v17.5c1.8-1.4,3.5-2.5,5.4-3.4c1.8-0.9,3.9-1.3,6.3-1.3c4.5,0,8,1.6,10.4,4.9S196.9,25.4,196.9,31.1z M185.1,31.3
	c0-3.2-0.5-5.6-1.6-7.3c-1.1-1.7-3-2.6-5.8-2.6c-1.1,0-2.2,0.2-3.3,0.5c-1.1,0.3-2.2,0.8-3.3,1.4v17.9c0.8,0.3,1.6,0.5,2.3,0.6
	s1.6,0.2,2.7,0.2c3,0,5.3-0.9,6.7-2.7C184.4,37.5,185.1,34.9,185.1,31.3z"/>
<path class="st1" d="M241.6,31.6c0,5.9-1.7,10.5-5.1,13.9s-8.2,5.1-14.4,5.1c-6.2,0-11-1.7-14.4-5.1c-3.4-3.4-5.1-8-5.1-13.9
	c0-5.9,1.7-10.5,5.2-13.9s8.2-5,14.4-5c6.2,0,11,1.7,14.4,5.1C239.9,21.1,241.6,25.7,241.6,31.6z M227.5,40.2c0.7-0.9,1.3-2,1.7-3.3
	c0.4-1.3,0.6-3.1,0.6-5.3c0-2.1-0.2-3.9-0.6-5.3c-0.4-1.4-0.9-2.5-1.6-3.4c-0.7-0.9-1.5-1.5-2.4-1.8c-1-0.4-2-0.5-3.1-0.5
	c-1.1,0-2.1,0.1-2.9,0.4c-0.9,0.3-1.7,0.9-2.5,1.8c-0.7,0.8-1.3,2-1.7,3.4c-0.4,1.4-0.6,3.2-0.6,5.4c0,1.9,0.2,3.6,0.5,5.1
	c0.4,1.4,0.9,2.6,1.6,3.4c0.7,0.8,1.5,1.4,2.4,1.8s2,0.6,3.2,0.6c1,0,2-0.2,3-0.5C226.1,41.7,226.9,41.1,227.5,40.2z"/>
<path class="st1" d="M285.3,49.4h-11.5v-3.9c-2.1,1.6-4,2.8-5.8,3.7c-1.8,0.8-3.8,1.3-6.3,1.3c-3.9,0-7-1.1-9.1-3.4
	c-2.1-2.3-3.2-5.6-3.2-10V13.7h11.5v17.7c0,1.8,0.1,3.3,0.2,4.5c0.1,1.2,0.4,2.2,0.8,3c0.4,0.8,1,1.4,1.8,1.7c0.8,0.4,2,0.5,3.4,0.5
	c1,0,2.1-0.2,3.2-0.5c1.2-0.4,2.3-0.9,3.4-1.6V13.7h11.5V49.4z"/>
<path class="st1" d="M318.9,49.1c-1.2,0.3-2.5,0.6-3.9,0.7c-1.4,0.2-3.1,0.3-5,0.3c-4.4,0-7.8-0.9-9.9-2.7c-2.2-1.8-3.3-4.9-3.3-9.2
	V21.5H292v-7.7h4.7V3.6h11.5v10.2h10.7v7.7h-10.7v12.7c0,1.3,0,2.3,0,3.3c0,0.9,0.2,1.8,0.5,2.5c0.3,0.7,0.8,1.3,1.6,1.8
	c0.7,0.4,1.8,0.7,3.3,0.7c0.6,0,1.4-0.1,2.3-0.4s1.6-0.5,2-0.7h0.9V49.1z"/>
<path class="st1" d="M398.1,49.4h-12.1V17.7l-8.8,20.5h-8.4L360,17.7v31.6h-11.5V2.1h14.2l10.6,23.7l10.6-23.7h14.2V49.4z"/>
<path class="st1" d="M444.6,33.7h-26.2c0.2,2.8,1.2,4.9,3.2,6.4c2,1.5,4.8,2.2,8.6,2.2c2.4,0,4.8-0.4,7-1.3c2.3-0.9,4.1-1.8,5.4-2.8
	h1.3v9.2c-2.6,1-5,1.8-7.3,2.3s-4.8,0.7-7.6,0.7c-7.2,0-12.6-1.6-16.4-4.8c-3.8-3.2-5.7-7.8-5.7-13.7c0-5.9,1.8-10.5,5.4-14
	c3.6-3.4,8.6-5.2,14.8-5.2c5.8,0,10.2,1.5,13.1,4.4c2.9,2.9,4.4,7.1,4.4,12.6V33.7z M433.2,27c-0.1-2.4-0.7-4.2-1.8-5.4
	c-1.1-1.2-2.9-1.8-5.2-1.8c-2.2,0-4,0.6-5.4,1.7c-1.4,1.1-2.2,3-2.4,5.5H433.2z"/>
<g>
	<path class="st0" d="M112.4-156.2c-0.3,0.2-0.6,0.4-1,0.7c-0.4,0.3-0.8,0.5-1.1,0.7c-0.5,0.2-1,0.4-1.5,0.5
		c-0.5,0.1-1.1,0.2-1.7,0.2c-1.5,0-2.7-0.5-3.7-1.4s-1.5-2.1-1.5-3.5c0-1.1,0.3-2,0.8-2.7c0.5-0.7,1.2-1.3,2.1-1.7
		c0.9-0.4,2-0.7,3.4-0.9c1.3-0.2,2.7-0.3,4.2-0.4v-0.1c0-0.8-0.3-1.4-1-1.8c-0.7-0.3-1.7-0.5-3.1-0.5c-0.8,0-1.7,0.1-2.6,0.4
		c-0.9,0.3-1.6,0.5-2,0.7h-0.5v-3.7c0.5-0.1,1.4-0.3,2.5-0.5c1.2-0.2,2.3-0.3,3.5-0.3c2.8,0,4.8,0.4,6.1,1.3s1.9,2.2,1.9,4.1v10.4
		h-4.9V-156.2z M112.4-158.6v-3.2c-0.7,0.1-1.4,0.1-2.2,0.2c-0.8,0.1-1.4,0.2-1.8,0.3c-0.5,0.2-0.9,0.4-1.1,0.7
		c-0.3,0.3-0.4,0.7-0.4,1.2c0,0.3,0,0.6,0.1,0.8c0.1,0.2,0.2,0.4,0.4,0.6c0.2,0.2,0.5,0.3,0.8,0.4c0.3,0.1,0.7,0.1,1.4,0.1
		c0.5,0,1-0.1,1.5-0.3C111.6-158,112.1-158.3,112.4-158.6z"/>
	<path class="st0" d="M136.4-154.6h-4.9v-21.3h4.9V-154.6z"/>
	<path class="st0" d="M146.1-172.2h-5.2v-3.7h5.2V-172.2z M145.9-154.6H141V-170h4.9V-154.6z"/>
	<path class="st0" d="M160.4-154.8c-0.5,0.1-1.1,0.2-1.7,0.3c-0.6,0.1-1.3,0.1-2.2,0.1c-1.9,0-3.3-0.4-4.3-1.2
		c-0.9-0.8-1.4-2.1-1.4-4v-7.2h-2v-3.3h2v-4.4h4.9v4.4h4.6v3.3h-4.6v5.4c0,0.5,0,1,0,1.4c0,0.4,0.1,0.8,0.2,1.1
		c0.1,0.3,0.4,0.6,0.7,0.8c0.3,0.2,0.8,0.3,1.4,0.3c0.3,0,0.6-0.1,1-0.2s0.7-0.2,0.9-0.3h0.4V-154.8z"/>
	<path class="st0" d="M173.1-154.8c-0.5,0.1-1.1,0.2-1.7,0.3c-0.6,0.1-1.3,0.1-2.2,0.1c-1.9,0-3.3-0.4-4.3-1.2
		c-0.9-0.8-1.4-2.1-1.4-4v-7.2h-2v-3.3h2v-4.4h4.9v4.4h4.6v3.3h-4.6v5.4c0,0.5,0,1,0,1.4c0,0.4,0.1,0.8,0.2,1.1
		c0.1,0.3,0.4,0.6,0.7,0.8c0.3,0.2,0.8,0.3,1.4,0.3c0.3,0,0.6-0.1,1-0.2s0.7-0.2,0.9-0.3h0.4V-154.8z"/>
	<path class="st0" d="M181-154.6h-4.9v-21.3h4.9V-154.6z"/>
	<path class="st0" d="M200.8-161.4h-11.3c0.1,1.2,0.5,2.1,1.4,2.8c0.8,0.6,2.1,1,3.7,1c1,0,2-0.2,3-0.6c1-0.4,1.7-0.8,2.3-1.2h0.5v4
		c-1.1,0.4-2.2,0.8-3.1,1s-2.1,0.3-3.3,0.3c-3.1,0-5.4-0.7-7.1-2.1c-1.6-1.4-2.5-3.4-2.5-5.9c0-2.5,0.8-4.5,2.3-6
		c1.6-1.5,3.7-2.2,6.4-2.2c2.5,0,4.4,0.6,5.6,1.9c1.3,1.3,1.9,3.1,1.9,5.4V-161.4z M195.9-164.3c0-1-0.3-1.8-0.8-2.3
		c-0.5-0.5-1.2-0.8-2.3-0.8c-0.9,0-1.7,0.2-2.3,0.7c-0.6,0.5-1,1.3-1,2.4H195.9z"/>
	<path class="st1" d="M150.5-100.6h-12.6l-3.3-9.6h-17.5l-3.3,9.6h-12.3l17.5-47.3h14L150.5-100.6z M131.7-118.8l-5.8-16.9
		l-5.8,16.9H131.7z"/>
	<path class="st1" d="M193.9-118.9c0,5.6-1.5,10.2-4.6,13.7c-3.1,3.5-7,5.3-11.6,5.3c-2,0-3.7-0.2-5.2-0.6s-2.9-1-4.3-1.8l-0.5,1.8
		h-11V-150h11.5v17.5c1.8-1.4,3.5-2.5,5.4-3.4c1.8-0.9,3.9-1.3,6.3-1.3c4.5,0,8,1.6,10.4,4.9S193.9-124.6,193.9-118.9z M182.1-118.7
		c0-3.2-0.5-5.6-1.6-7.3c-1.1-1.7-3-2.6-5.8-2.6c-1.1,0-2.2,0.2-3.3,0.5c-1.1,0.3-2.2,0.8-3.3,1.4v17.9c0.8,0.3,1.6,0.5,2.3,0.6
		s1.6,0.2,2.7,0.2c3,0,5.3-0.9,6.7-2.7C181.4-112.5,182.1-115.1,182.1-118.7z"/>
	<path class="st1" d="M238.6-118.4c0,5.9-1.7,10.5-5.1,13.9s-8.2,5.1-14.4,5.1c-6.2,0-11-1.7-14.4-5.1c-3.4-3.4-5.1-8-5.1-13.9
		c0-5.9,1.7-10.5,5.2-13.9s8.2-5,14.4-5c6.2,0,11,1.7,14.4,5.1C236.9-128.9,238.6-124.3,238.6-118.4z M224.5-109.8
		c0.7-0.9,1.3-2,1.7-3.3c0.4-1.3,0.6-3.1,0.6-5.3c0-2.1-0.2-3.9-0.6-5.3c-0.4-1.4-0.9-2.5-1.6-3.4c-0.7-0.9-1.5-1.5-2.4-1.8
		c-1-0.4-2-0.5-3.1-0.5c-1.1,0-2.1,0.1-2.9,0.4c-0.9,0.3-1.7,0.9-2.5,1.8c-0.7,0.8-1.3,2-1.7,3.4c-0.4,1.4-0.6,3.2-0.6,5.4
		c0,1.9,0.2,3.6,0.5,5.1c0.4,1.4,0.9,2.6,1.6,3.4c0.7,0.8,1.5,1.4,2.4,1.8s2,0.6,3.2,0.6c1,0,2-0.2,3-0.5
		C223.1-108.3,223.9-108.9,224.5-109.8z"/>
	<path class="st1" d="M282.3-100.6h-11.5v-3.9c-2.1,1.6-4,2.8-5.8,3.7c-1.8,0.8-3.8,1.3-6.3,1.3c-3.9,0-7-1.1-9.1-3.4
		c-2.1-2.3-3.2-5.6-3.2-10v-23.2h11.5v17.7c0,1.8,0.1,3.3,0.2,4.5c0.1,1.2,0.4,2.2,0.8,3c0.4,0.8,1,1.4,1.8,1.7
		c0.8,0.4,2,0.5,3.4,0.5c1,0,2.1-0.2,3.2-0.5c1.2-0.4,2.3-0.9,3.4-1.6v-25.3h11.5V-100.6z"/>
	<path class="st1" d="M315.9-100.9c-1.2,0.3-2.5,0.6-3.9,0.7c-1.4,0.2-3.1,0.3-5,0.3c-4.4,0-7.8-0.9-9.9-2.7
		c-2.2-1.8-3.3-4.9-3.3-9.2v-16.7H289v-7.7h4.7v-10.2h11.5v10.2h10.7v7.7h-10.7v12.7c0,1.3,0,2.3,0,3.3c0,0.9,0.2,1.8,0.5,2.5
		c0.3,0.7,0.8,1.3,1.6,1.8c0.7,0.4,1.8,0.7,3.3,0.7c0.6,0,1.4-0.1,2.3-0.4s1.6-0.5,2-0.7h0.9V-100.9z"/>
	<path class="st1" d="M395.1-100.6h-12.1v-31.6l-8.8,20.5h-8.4l-8.8-20.5v31.6h-11.5v-47.3h14.2l10.6,23.7l10.6-23.7h14.2V-100.6z"
		/>
	<path class="st1" d="M441.6-116.3h-26.2c0.2,2.8,1.2,4.9,3.2,6.4c2,1.5,4.8,2.2,8.6,2.2c2.4,0,4.8-0.4,7-1.3
		c2.3-0.9,4.1-1.8,5.4-2.8h1.3v9.2c-2.6,1-5,1.8-7.3,2.3s-4.8,0.7-7.6,0.7c-7.2,0-12.6-1.6-16.4-4.8c-3.8-3.2-5.7-7.8-5.7-13.7
		c0-5.9,1.8-10.5,5.4-14c3.6-3.4,8.6-5.2,14.8-5.2c5.8,0,10.2,1.5,13.1,4.4c2.9,2.9,4.4,7.1,4.4,12.6V-116.3z M430.2-123
		c-0.1-2.4-0.7-4.2-1.8-5.4c-1.1-1.2-2.9-1.8-5.2-1.8c-2.2,0-4,0.6-5.4,1.7c-1.4,1.1-2.2,3-2.4,5.5H430.2z"/>
</g>
</svg>
