<?xml version="1.0" encoding="utf-8"?>
<!-- Generator: Adobe Illustrator 23.0.1, SVG Export Plug-In . SVG Version: 6.00 Build 0)  -->
<svg version="1.1" id="Layer_1" xmlns="http://www.w3.org/2000/svg" xmlns:xlink="http://www.w3.org/1999/xlink" x="0px" y="0px"
	 viewBox="0 0 147.7 18.2" style="enable-background:new 0 0 147.7 18.2;" xml:space="preserve">
<style type="text/css">
	.st0{fill:#FFFFFF;}
	.st1{fill:#506F8E;}
</style>
<path class="st0" d="M9.3,75c-1.3,0-2.5-0.2-3.6-0.6s-2-1-2.8-1.7S1.5,71,1,69.9s-0.7-2.4-0.7-3.9c0-1.4,0.2-2.6,0.6-3.8
	s1-2.1,1.8-2.9c0.8-0.8,1.7-1.4,2.8-1.8s2.3-0.6,3.7-0.6c0.7,0,1.4,0,2,0.1s1.1,0.2,1.6,0.3c0.5,0.1,1,0.3,1.4,0.5s0.8,0.4,1.1,0.5
	v4.2h-0.5c-0.2-0.2-0.5-0.4-0.8-0.7s-0.7-0.5-1.1-0.8c-0.4-0.2-0.9-0.5-1.4-0.6c-0.5-0.2-1-0.3-1.6-0.3c-0.6,0-1.2,0.1-1.8,0.3
	s-1.1,0.5-1.6,1c-0.5,0.4-0.8,1-1.1,1.8S5,64.9,5,66c0,1.1,0.2,2,0.5,2.7c0.3,0.7,0.7,1.3,1.2,1.7c0.5,0.4,1,0.7,1.6,0.9
	s1.2,0.3,1.7,0.3c0.5,0,1.1-0.1,1.6-0.2c0.5-0.2,1-0.4,1.5-0.7c0.4-0.2,0.7-0.5,1.1-0.7c0.3-0.3,0.6-0.5,0.8-0.7h0.5v4.2
	c-0.4,0.2-0.9,0.4-1.3,0.6s-0.8,0.3-1.3,0.4c-0.6,0.2-1.1,0.3-1.6,0.4S10.2,75,9.3,75z"/>
<path class="st0" d="M32,68.1c0,2.2-0.6,3.9-1.9,5.1s-3,1.9-5.3,1.9s-4.1-0.6-5.3-1.9s-1.9-3-1.9-5.1c0-2.2,0.6-3.9,1.9-5.1
	s3-1.9,5.3-1.9c2.3,0,4.1,0.6,5.3,1.9S32,65.9,32,68.1z M26.8,71.3c0.3-0.3,0.5-0.7,0.6-1.2s0.2-1.1,0.2-2c0-0.8-0.1-1.4-0.2-1.9
	s-0.3-0.9-0.6-1.3c-0.3-0.3-0.6-0.5-0.9-0.7S25.2,64,24.8,64s-0.8,0.1-1.1,0.2s-0.6,0.3-0.9,0.7c-0.3,0.3-0.5,0.7-0.6,1.3
	s-0.2,1.2-0.2,2c0,0.7,0.1,1.3,0.2,1.9s0.3,1,0.6,1.3c0.3,0.3,0.5,0.5,0.9,0.7s0.7,0.2,1.2,0.2c0.4,0,0.7-0.1,1.1-0.2
	S26.5,71.6,26.8,71.3z"/>
<path class="st0" d="M48.2,74.6H44v-6.5c0-0.5,0-1.1-0.1-1.6s-0.1-0.9-0.3-1.2c-0.2-0.3-0.4-0.5-0.7-0.6s-0.7-0.2-1.3-0.2
	c-0.4,0-0.8,0.1-1.2,0.2s-0.8,0.3-1.3,0.6v9.3H35V61.5h4.2v1.5c0.7-0.6,1.5-1,2.2-1.3s1.5-0.5,2.3-0.5c1.4,0,2.5,0.4,3.3,1.2
	s1.2,2.1,1.2,3.7V74.6z"/>
<path class="st0" d="M60.5,74.5c-0.5,0.1-0.9,0.2-1.4,0.3c-0.5,0.1-1.1,0.1-1.9,0.1c-1.6,0-2.9-0.3-3.7-1s-1.2-1.8-1.2-3.4v-6.2
	h-1.7v-2.9h1.7v-3.8h4.2v3.8h3.9v2.9h-3.9V69c0,0.5,0,0.9,0,1.2s0.1,0.7,0.2,0.9c0.1,0.3,0.3,0.5,0.6,0.7C57.6,72,58,72,58.6,72
	c0.2,0,0.5,0,0.9-0.1s0.6-0.2,0.7-0.3h0.4V74.5z"/>
<path class="st0" d="M71,73.3c-0.2,0.2-0.5,0.4-0.8,0.6s-0.7,0.4-0.9,0.6c-0.4,0.2-0.8,0.3-1.3,0.4S67,75,66.5,75
	c-1.3,0-2.3-0.4-3.1-1.2s-1.3-1.8-1.3-3c0-1,0.2-1.7,0.6-2.4s1-1.1,1.8-1.4c0.8-0.4,1.8-0.6,2.9-0.8s2.4-0.3,3.6-0.3v-0.1
	c0-0.7-0.3-1.2-0.9-1.5S68.7,64,67.5,64c-0.7,0-1.4,0.1-2.2,0.4s-1.4,0.4-1.7,0.6h-0.4v-3.2c0.4-0.1,1.2-0.3,2.2-0.4s2-0.2,3-0.2
	c2.4,0,4.1,0.4,5.2,1.1s1.6,1.9,1.6,3.5v9H71V73.3z M71,71.2v-2.7c-0.6,0-1.2,0.1-1.9,0.2S68,68.8,67.6,69c-0.4,0.1-0.7,0.3-1,0.6
	c-0.2,0.3-0.3,0.6-0.3,1c0,0.3,0,0.5,0.1,0.7s0.2,0.3,0.4,0.5c0.2,0.2,0.4,0.3,0.6,0.3c0.3,0.1,0.6,0.1,1.2,0.1
	c0.4,0,0.8-0.1,1.3-0.3S70.7,71.5,71,71.2z"/>
<path class="st0" d="M85.9,75c-1.1,0-2.2-0.1-3.1-0.4s-1.8-0.7-2.5-1.3c-0.7-0.6-1.2-1.3-1.6-2.2s-0.6-1.9-0.6-3
	c0-1.2,0.2-2.3,0.6-3.2s1-1.6,1.7-2.2c0.7-0.6,1.5-1,2.5-1.2s1.9-0.4,2.9-0.4c0.9,0,1.7,0.1,2.5,0.3s1.5,0.4,2.1,0.8v3.6h-0.6
	c-0.2-0.1-0.4-0.3-0.6-0.5c-0.2-0.2-0.5-0.4-0.8-0.6c-0.3-0.2-0.7-0.3-1.1-0.4s-0.8-0.2-1.3-0.2c-1.1,0-2,0.4-2.6,1.1
	s-0.9,1.7-0.9,2.9c0,1.3,0.3,2.2,0.9,2.9s1.5,1,2.6,1c0.5,0,1-0.1,1.4-0.2c0.4-0.1,0.8-0.3,1.1-0.4c0.3-0.2,0.5-0.3,0.7-0.5
	c0.2-0.2,0.4-0.3,0.6-0.5h0.6V74c-0.7,0.3-1.4,0.6-2.1,0.7S86.8,75,85.9,75z"/>
<path class="st0" d="M101.6,74.5c-0.5,0.1-0.9,0.2-1.4,0.3c-0.5,0.1-1.1,0.1-1.9,0.1c-1.6,0-2.9-0.3-3.7-1s-1.2-1.8-1.2-3.4v-6.2
	h-1.7v-2.9h1.7v-3.8h4.2v3.8h3.9v2.9h-3.9V69c0,0.5,0,0.9,0,1.2s0.1,0.7,0.2,0.9c0.1,0.3,0.3,0.5,0.6,0.7c0.3,0.2,0.7,0.2,1.2,0.2
	c0.2,0,0.5,0,0.9-0.1s0.6-0.2,0.7-0.3h0.4V74.5z"/>
<path class="st1" d="M84.9,94.6h-4.5V83l-3.2,7.6H74L70.8,83v11.7h-4.2V77.2h5.2l3.9,8.8l3.9-8.8h5.2V94.6z"/>
<path class="st1" d="M102,88.8h-9.7c0.1,1,0.5,1.8,1.2,2.4s1.8,0.8,3.2,0.8c0.9,0,1.8-0.2,2.6-0.5s1.5-0.7,2-1h0.5v3.4
	c-1,0.4-1.9,0.7-2.7,0.8S97.3,95,96.3,95c-2.6,0-4.7-0.6-6.1-1.8s-2.1-2.9-2.1-5.1c0-2.2,0.7-3.9,2-5.2s3.2-1.9,5.5-1.9
	c2.1,0,3.8,0.5,4.8,1.6s1.6,2.6,1.6,4.7V88.8z M97.8,86.4c0-0.9-0.2-1.5-0.7-2s-1.1-0.7-1.9-0.7c-0.8,0-1.5,0.2-2,0.6
	s-0.8,1.1-0.9,2H97.8z"/>
<path class="st0" d="M8.9,18.1c-1.3,0-2.5-0.2-3.6-0.6s-2-1-2.8-1.7S1.1,14.1,0.7,13S0,10.6,0,9.1c0-1.4,0.2-2.6,0.6-3.8
	s1-2.1,1.8-2.9c0.8-0.8,1.7-1.4,2.8-1.8S7.6,0,8.9,0c0.7,0,1.4,0,2,0.1s1.1,0.2,1.6,0.3c0.5,0.1,1,0.3,1.4,0.5s0.8,0.4,1.1,0.5v4.2
	h-0.5c-0.2-0.2-0.5-0.4-0.8-0.7S13,4.5,12.6,4.3c-0.4-0.2-0.9-0.5-1.4-0.6c-0.5-0.2-1-0.3-1.6-0.3C9,3.4,8.4,3.5,7.8,3.7
	s-1.1,0.5-1.6,1c-0.5,0.4-0.8,1-1.1,1.8S4.7,8,4.7,9.1c0,1.1,0.2,2,0.5,2.7c0.3,0.7,0.7,1.3,1.2,1.7c0.5,0.4,1,0.7,1.6,0.9
	s1.2,0.3,1.7,0.3c0.5,0,1.1-0.1,1.6-0.2c0.5-0.2,1-0.4,1.5-0.7c0.4-0.2,0.7-0.5,1.1-0.7c0.3-0.3,0.6-0.5,0.8-0.7h0.5v4.2
	c-0.4,0.2-0.9,0.4-1.3,0.6s-0.8,0.3-1.3,0.4C12,17.8,11.5,17.9,11,18S9.8,18.1,8.9,18.1z"/>
<path class="st0" d="M31.6,11.2c0,2.2-0.6,3.9-1.9,5.1s-3,1.9-5.3,1.9s-4.1-0.6-5.3-1.9s-1.9-3-1.9-5.1c0-2.2,0.6-3.9,1.9-5.1
	s3-1.9,5.3-1.9c2.3,0,4.1,0.6,5.3,1.9S31.6,9.1,31.6,11.2z M26.4,14.4c0.3-0.3,0.5-0.7,0.6-1.2s0.2-1.1,0.2-2c0-0.8-0.1-1.4-0.2-1.9
	S26.7,8.4,26.4,8c-0.3-0.3-0.6-0.5-0.9-0.7s-0.7-0.2-1.1-0.2s-0.8,0.1-1.1,0.2S22.7,7.7,22.4,8c-0.3,0.3-0.5,0.7-0.6,1.3
	s-0.2,1.2-0.2,2c0,0.7,0.1,1.3,0.2,1.9s0.3,1,0.6,1.3c0.3,0.3,0.5,0.5,0.9,0.7s0.7,0.2,1.2,0.2c0.4,0,0.7-0.1,1.1-0.2
	S26.2,14.7,26.4,14.4z"/>
<path class="st0" d="M47.8,17.8h-4.2v-6.5c0-0.5,0-1.1-0.1-1.6s-0.1-0.9-0.3-1.2c-0.2-0.3-0.4-0.5-0.7-0.6s-0.7-0.2-1.3-0.2
	c-0.4,0-0.8,0.1-1.2,0.2s-0.8,0.3-1.3,0.6v9.3h-4.2V4.6h4.2v1.5c0.7-0.6,1.5-1,2.2-1.3s1.5-0.5,2.3-0.5c1.4,0,2.5,0.4,3.3,1.2
	s1.2,2.1,1.2,3.7V17.8z"/>
<path class="st0" d="M60.1,17.7c-0.5,0.1-0.9,0.2-1.4,0.3C58.2,18,57.6,18,56.8,18c-1.6,0-2.9-0.3-3.7-1S52,15.3,52,13.6V7.5h-1.7
	V4.6H52V0.9h4.2v3.8h3.9v2.9h-3.9v4.7c0,0.5,0,0.9,0,1.2s0.1,0.7,0.2,0.9c0.1,0.3,0.3,0.5,0.6,0.7c0.3,0.2,0.7,0.2,1.2,0.2
	c0.2,0,0.5,0,0.9-0.1s0.6-0.2,0.7-0.3h0.4V17.7z"/>
<path class="st0" d="M70.6,16.4c-0.2,0.2-0.5,0.4-0.8,0.6s-0.7,0.4-0.9,0.6c-0.4,0.2-0.8,0.3-1.3,0.4s-0.9,0.1-1.5,0.1
	c-1.3,0-2.3-0.4-3.1-1.2s-1.3-1.8-1.3-3c0-1,0.2-1.7,0.6-2.4s1-1.1,1.8-1.4c0.8-0.4,1.8-0.6,2.9-0.8s2.4-0.3,3.6-0.3V9.1
	c0-0.7-0.3-1.2-0.9-1.5s-1.5-0.4-2.6-0.4c-0.7,0-1.4,0.1-2.2,0.4S63.6,8,63.2,8.1h-0.4V4.9C63.3,4.8,64,4.7,65,4.5s2-0.2,3-0.2
	c2.4,0,4.1,0.4,5.2,1.1s1.6,1.9,1.6,3.5v9h-4.2V16.4z M70.6,14.3v-2.7c-0.6,0-1.2,0.1-1.9,0.2s-1.2,0.2-1.5,0.3
	c-0.4,0.1-0.7,0.3-1,0.6c-0.2,0.3-0.3,0.6-0.3,1c0,0.3,0,0.5,0.1,0.7s0.2,0.3,0.4,0.5c0.2,0.2,0.4,0.3,0.6,0.3
	c0.3,0.1,0.6,0.1,1.2,0.1c0.4,0,0.8-0.1,1.3-0.3S70.3,14.6,70.6,14.3z"/>
<path class="st0" d="M85.5,18.1c-1.1,0-2.2-0.1-3.1-0.4s-1.8-0.7-2.5-1.3c-0.7-0.6-1.2-1.3-1.6-2.2s-0.6-1.9-0.6-3
	c0-1.2,0.2-2.3,0.6-3.2s1-1.6,1.7-2.2c0.7-0.6,1.5-1,2.5-1.2s1.9-0.4,2.9-0.4c0.9,0,1.7,0.1,2.5,0.3S89.4,5,90,5.3v3.6h-0.6
	c-0.2-0.1-0.4-0.3-0.6-0.5c-0.2-0.2-0.5-0.4-0.8-0.6c-0.3-0.2-0.7-0.3-1.1-0.4s-0.8-0.2-1.3-0.2c-1.1,0-2,0.4-2.6,1.1
	s-0.9,1.7-0.9,2.9c0,1.3,0.3,2.2,0.9,2.9s1.5,1,2.6,1c0.5,0,1-0.1,1.4-0.2c0.4-0.1,0.8-0.3,1.1-0.4c0.3-0.2,0.5-0.3,0.7-0.5
	c0.2-0.2,0.4-0.3,0.6-0.5H90v3.6c-0.7,0.3-1.4,0.6-2.1,0.7S86.4,18.1,85.5,18.1z"/>
<path class="st0" d="M101.2,17.7c-0.5,0.1-0.9,0.2-1.4,0.3C99.3,18,98.7,18,97.9,18c-1.6,0-2.9-0.3-3.7-1s-1.2-1.8-1.2-3.4V7.5h-1.7
	V4.6h1.7V0.9h4.2v3.8h3.9v2.9h-3.9v4.7c0,0.5,0,0.9,0,1.2s0.1,0.7,0.2,0.9c0.1,0.3,0.3,0.5,0.6,0.7c0.3,0.2,0.7,0.2,1.2,0.2
	c0.2,0,0.5,0,0.9-0.1s0.6-0.2,0.7-0.3h0.4V17.7z"/>
<path class="st1" d="M130.5,17.8H126V6.1l-3.2,7.6h-3.1l-3.2-7.6v11.7h-4.2V0.3h5.2l3.9,8.8l3.9-8.8h5.2V17.8z"/>
<path class="st1" d="M147.7,12H138c0.1,1,0.5,1.8,1.2,2.4s1.8,0.8,3.2,0.8c0.9,0,1.8-0.2,2.6-0.5s1.5-0.7,2-1h0.5v3.4
	c-1,0.4-1.9,0.7-2.7,0.8s-1.8,0.3-2.8,0.3c-2.6,0-4.7-0.6-6.1-1.8s-2.1-2.9-2.1-5.1c0-2.2,0.7-3.9,2-5.2s3.2-1.9,5.5-1.9
	c2.1,0,3.8,0.5,4.8,1.6s1.6,2.6,1.6,4.7V12z M143.5,9.5c0-0.9-0.2-1.5-0.7-2s-1.1-0.7-1.9-0.7c-0.8,0-1.5,0.2-2,0.6s-0.8,1.1-0.9,2
	H143.5z"/>
</svg>
