<?xml version="1.0" encoding="utf-8"?>
<!-- Generator: Adobe Illustrator 23.0.1, SVG Export Plug-In . SVG Version: 6.00 Build 0)  -->
<svg version="1.1" id="Layer_1" xmlns="http://www.w3.org/2000/svg" xmlns:xlink="http://www.w3.org/1999/xlink" x="0px" y="0px"
	 viewBox="0 0 30.6 19.8" style="enable-background:new 0 0 30.6 19.8;" xml:space="preserve">
<style type="text/css">
	.st0{fill:#FBFFAE;}
</style>
<path class="st0" d="M26.8,0h-23C1.7,0,0,1.7,0,3.8V16c0,2.1,1.7,3.8,3.8,3.8h23c2.1,0,3.8-1.7,3.8-3.8V3.8C30.6,1.7,28.9,0,26.8,0z
	 M1.3,4.6l7,5.2l-7,5.3C1.3,15.1,1.3,4.6,1.3,4.6z M29.3,16.4c0,1.1-0.9,2-2,2h-24c-1.1,0-2-0.9-2-2l7.8-5.9l4.4,3.3
	c0.5,0.4,1.2,0.6,1.8,0.6s1.3-0.2,1.8-0.6l4.4-3.3L29.3,16.4L29.3,16.4z M29.3,15.1l-7-5.3l7-5.2V15.1z M16.5,13
	c-0.3,0.3-0.8,0.4-1.2,0.4s-0.9-0.1-1.2-0.4L10,9.9L9.1,9.3L1.3,3.4l0,0c0-1.1,0.9-2,2-2h24c1.1,0,2,0.9,2,2L16.5,13z"/>
</svg>
