<?xml version="1.0" encoding="utf-8"?>
<!-- Generator: Adobe Illustrator 23.0.1, SVG Export Plug-In . SVG Version: 6.00 Build 0)  -->
<svg version="1.1" id="Layer_1" xmlns="http://www.w3.org/2000/svg" xmlns:xlink="http://www.w3.org/1999/xlink" x="0px" y="0px"
	 viewBox="0 0 57.2 49.2" style="enable-background:new 0 0 57.2 49.2;" xml:space="preserve">
<style type="text/css">
	.st0{fill:none;stroke:#E8E8E8;stroke-width:2;stroke-linecap:round;stroke-miterlimit:10;}
	.st1{fill:none;stroke:#C1C1C1;stroke-width:1.206;stroke-linecap:round;stroke-miterlimit:10;}
	.st2{fill:none;stroke:#C1C1C1;stroke-width:0.758;stroke-linecap:round;stroke-miterlimit:10;}
</style>
<g>
	<line class="st0" x1="16" y1="16" x2="41" y2="16"/>
	<line class="st0" x1="16" y1="24" x2="41" y2="24"/>
	<line class="st0" x1="16" y1="32" x2="41" y2="32"/>
</g>
<path class="st1" d="M117.3,70.3H66.6c-1.5,0-2.6-1.2-2.6-2.6V25c0-1.5,1.2-2.6,2.6-2.6h50.7c1.5,0,2.6,1.2,2.6,2.6v42.7
	C119.8,69.1,118.7,70.3,117.3,70.3z"/>
<path class="st2" d="M-12.1,67.3h-54.1c-0.6,0-1-0.5-1-1V20c0-0.6,0.5-1,1-1h54.1c0.6,0,1,0.5,1,1v46.3
	C-11.1,66.8-11.5,67.3-12.1,67.3z"/>
</svg>
