<?xml version="1.0" encoding="utf-8"?>
<!-- Generator: Adobe Illustrator 23.0.1, SVG Export Plug-In . SVG Version: 6.00 Build 0)  -->
<svg version="1.1" id="Layer_1" xmlns="http://www.w3.org/2000/svg" xmlns:xlink="http://www.w3.org/1999/xlink" x="0px" y="0px"
	 viewBox="0 0 27 18" style="enable-background:new 0 0 27 18;" xml:space="preserve">
<style type="text/css">
	.st0{fill:none;stroke:#E8E8E8;stroke-width:2;stroke-linecap:round;stroke-miterlimit:10;}
	.st1{fill:none;stroke:#C1C1C1;stroke-width:1.206;stroke-linecap:round;stroke-miterlimit:10;}
	.st2{fill:none;stroke:#C1C1C1;stroke-width:0.758;stroke-linecap:round;stroke-miterlimit:10;}
</style>
<g>
	<line class="st0" x1="1" y1="1" x2="26" y2="1"/>
	<line class="st0" x1="1" y1="9" x2="26" y2="9"/>
	<line class="st0" x1="1" y1="17" x2="26" y2="17"/>
</g>
<path class="st1" d="M102.3,55.3H51.6c-1.5,0-2.6-1.2-2.6-2.6V10c0-1.5,1.2-2.6,2.6-2.6h50.7c1.5,0,2.6,1.2,2.6,2.6v42.7
	C104.8,54.1,103.7,55.3,102.3,55.3z"/>
<path class="st2" d="M-27.1,52.3h-54.1c-0.6,0-1-0.5-1-1V5c0-0.6,0.5-1,1-1h54.1c0.6,0,1,0.5,1,1v46.3
	C-26.1,51.8-26.5,52.3-27.1,52.3z"/>
</svg>
