<?xml version="1.0" encoding="utf-8"?>
<!-- Generator: Adobe Illustrator 23.0.1, SVG Export Plug-In . SVG Version: 6.00 Build 0)  -->
<svg version="1.1" id="Layer_1" xmlns="http://www.w3.org/2000/svg" xmlns:xlink="http://www.w3.org/1999/xlink" x="0px" y="0px"
	 viewBox="0 0 47.4 33.6" style="enable-background:new 0 0 47.4 33.6;" xml:space="preserve">
<style type="text/css">
	.st0{fill:#384F5E;}
	.st1{fill:#506F8E;}
	.st2{fill:#FFFFFF;}
</style>
<path class="st0" d="M-90.4,98.4h-36.8c-2,0-3.6-1.6-3.6-3.6V55.6c0-2,1.6-3.6,3.6-3.6h36.7c2,0,3.6,1.6,3.6,3.6v39.2
	C-86.8,96.8-88.4,98.4-90.4,98.4z"/>
<path class="st1" d="M-90.2,98.4h-34.7c-1.9,0-3.4-1.6-3.4-3.4V57.9c-0.1-1.9,1.5-3.5,3.4-3.5h34.7c1.8,0,3.4,1.6,3.4,3.5V95
	C-86.8,96.9-88.4,98.4-90.2,98.4z"/>
<g>
	<g>
		<path class="st2" d="M19.5,0L0,15.2h7.1v18.4H12v-12h6.4v12h14.1V15.2h6L19.5,0L19.5,0z"/>
	</g>
</g>
<g>
	<path class="st2" d="M47.3,27.1v1h-3.9v4.5h3.9v1h-8.6v-1h3.8v-4.5h-3.8v-1H47.3z"/>
	<path class="st2" d="M47.4,21.4c0,1.2-0.4,2.2-1.2,2.9c-0.8,0.7-1.9,1.1-3.1,1.1c-1.4,0-2.5-0.4-3.3-1.1s-1.2-1.8-1.2-3.1
		c0-1.2,0.4-2.1,1.2-2.9c0.8-0.7,1.8-1.1,3.1-1.1c1.4,0,2.5,0.4,3.3,1.1C47,19.2,47.4,20.2,47.4,21.4z M39.4,21.3
		c0,0.9,0.3,1.6,1,2.2c0.7,0.6,1.5,0.8,2.6,0.8s1.9-0.3,2.6-0.8c0.6-0.5,1-1.3,1-2.2c0-0.9-0.3-1.7-0.9-2.2s-1.5-0.8-2.6-0.8
		c-1.1,0-2,0.3-2.6,0.8C39.7,19.7,39.4,20.4,39.4,21.3z"/>
	<path class="st2" d="M47.3,6.8v1h-5.8c-0.5,0-1,0-1.7-0.1v0C40.2,7.9,40.5,8,40.6,8l6.6,2.9v0.5l-6.6,2.9c-0.2,0.1-0.5,0.2-0.9,0.3
		v0c0.3,0,0.9,0,1.7,0h5.8v1h-8.6v-1.3l6-2.6c0.5-0.2,0.8-0.3,1-0.4v0c-0.5-0.2-0.8-0.3-1.1-0.4l-6-2.7V6.8H47.3z"/>
	<path class="st2" d="M47.3,0v4.6h-8.6V0.2h0.9v3.4h2.9V0.4h0.9v3.1h3V0H47.3z"/>
</g>
</svg>
