<?xml version="1.0" encoding="utf-8"?>
<!-- Generator: Adobe Illustrator 23.0.1, SVG Export Plug-In . SVG Version: 6.00 Build 0)  -->
<svg version="1.1" id="Layer_1" xmlns="http://www.w3.org/2000/svg" xmlns:xlink="http://www.w3.org/1999/xlink" x="0px" y="0px"
	 viewBox="0 0 44 46.4" style="enable-background:new 0 0 44 46.4;" xml:space="preserve">
<style type="text/css">
	.st0{fill:#384F5E;}
	.st1{fill:#506F8E;}
	.st2{fill:#FFFFFF;}
</style>
<path class="st0" d="M40.4,46.4H3.6c-2,0-3.6-1.6-3.6-3.6V3.6C0,1.6,1.6,0,3.6,0h36.7c2,0,3.6,1.6,3.6,3.6v39.2
	C44,44.8,42.4,46.4,40.4,46.4z"/>
<path class="st1" d="M40.6,46.4H5.9c-1.9,0-3.4-1.6-3.4-3.4V5.9C2.4,4,4,2.4,5.9,2.4h34.7C42.4,2.4,44,4,44,5.9V43
	C44,44.9,42.4,46.4,40.6,46.4z"/>
<g>
	<g>
		<path class="st2" d="M22.8,6L3.3,21.2h7.1v18.4h4.9v-12h6.4v12h14.1V21.2h6L22.8,6L22.8,6z"/>
	</g>
</g>
</svg>
