<?xml version="1.0" encoding="utf-8"?>
<!-- Generator: Adobe Illustrator 23.0.1, SVG Export Plug-In . SVG Version: 6.00 Build 0)  -->
<svg version="1.1" id="Layer_1" xmlns="http://www.w3.org/2000/svg" xmlns:xlink="http://www.w3.org/1999/xlink" x="0px" y="0px"
	 viewBox="0 0 38.5 40.5" style="enable-background:new 0 0 38.5 40.5;" xml:space="preserve">
<style type="text/css">
	.st0{fill:#384F5E;}
	.st1{fill:#506F8E;}
	.st2{fill:#FFFFFF;}
</style>
<path class="st0" d="M-100.8,56.4h-36.8c-2,0-3.6-1.6-3.6-3.6V13.6c0-2,1.6-3.6,3.6-3.6h36.7c2,0,3.6,1.6,3.6,3.6v39.2
	C-97.2,54.8-98.8,56.4-100.8,56.4z"/>
<path class="st1" d="M-100.6,56.4h-34.7c-1.9,0-3.4-1.6-3.4-3.4V15.9c-0.1-1.9,1.5-3.5,3.4-3.5h34.7c1.8,0,3.4,1.6,3.4,3.5V53
	C-97.2,54.9-98.8,56.4-100.6,56.4z"/>
<g>
	<g>
		<path class="st2" d="M19.5,0L0,15.2h7.1v18.4H12v-12h6.4v12h14.1V15.2h6L19.5,0L19.5,0z"/>
	</g>
</g>
<g>
	<path class="st2" d="M12,40.4h-0.8v-3H7.9v3H7.1v-6.5h0.8v2.9h3.4v-2.9H12V40.4z"/>
	<path class="st2" d="M16.4,40.5c-0.9,0-1.7-0.3-2.2-0.9c-0.6-0.6-0.8-1.4-0.8-2.4c0-1.1,0.3-1.9,0.9-2.5c0.6-0.6,1.3-0.9,2.3-0.9
		c0.9,0,1.6,0.3,2.2,0.9c0.6,0.6,0.8,1.4,0.8,2.4c0,1.1-0.3,1.9-0.8,2.5S17.3,40.5,16.4,40.5z M16.5,34.4c-0.7,0-1.2,0.2-1.7,0.7
		c-0.4,0.5-0.6,1.1-0.6,2c0,0.8,0.2,1.5,0.6,1.9c0.4,0.5,1,0.7,1.6,0.7c0.7,0,1.3-0.2,1.7-0.7c0.4-0.5,0.6-1.1,0.6-2
		c0-0.9-0.2-1.5-0.6-2C17.7,34.7,17.2,34.4,16.5,34.4z"/>
	<path class="st2" d="M27.5,40.4h-0.8V36c0-0.3,0-0.8,0.1-1.3h0c-0.1,0.3-0.1,0.5-0.2,0.6l-2.2,5H24l-2.2-5
		c-0.1-0.1-0.1-0.4-0.2-0.7h0c0,0.3,0,0.7,0,1.3v4.4h-0.7v-6.5h1l2,4.6c0.2,0.3,0.3,0.6,0.3,0.8h0c0.1-0.4,0.2-0.6,0.3-0.8l2-4.5h1
		V40.4z"/>
	<path class="st2" d="M32.7,40.4h-3.5v-6.5h3.3v0.7H30v2.2h2.4v0.7H30v2.3h2.7V40.4z"/>
</g>
</svg>
