<?xml version="1.0" encoding="utf-8"?>
<!-- Generator: Adobe Illustrator 23.0.1, SVG Export Plug-In . SVG Version: 6.00 Build 0)  -->
<svg version="1.1" id="Layer_1" xmlns="http://www.w3.org/2000/svg" xmlns:xlink="http://www.w3.org/1999/xlink" x="0px" y="0px"
	 viewBox="0 0 236.3 21.8" style="enable-background:new 0 0 236.3 21.8;" xml:space="preserve">
<style type="text/css">
	.st0{fill:#506F8E;}
	.st1{fill:#FFFFFF;}
</style>
<path class="st0" d="M29.8,0.9l-5.5,20.4h-5.8L14.8,8l-3.6,13.3H5.5L0,0.9h5.5l3.1,14l3.8-14h5.2l3.6,14l3.3-14H29.8z"/>
<path class="st0" d="M48.7,13.6c0,2.5-0.7,4.5-2.2,6C45,21,43,21.8,40.3,21.8c-2.7,0-4.7-0.7-6.2-2.2c-1.5-1.5-2.2-3.4-2.2-6
	c0-2.5,0.7-4.5,2.2-6c1.5-1.4,3.5-2.2,6.2-2.2c2.7,0,4.8,0.7,6.2,2.2C48,9.1,48.7,11.1,48.7,13.6z M42.7,17.3
	c0.3-0.4,0.6-0.9,0.7-1.4c0.2-0.6,0.2-1.3,0.2-2.3c0-0.9-0.1-1.7-0.2-2.3c-0.2-0.6-0.4-1.1-0.7-1.5c-0.3-0.4-0.6-0.6-1.1-0.8
	c-0.4-0.2-0.9-0.2-1.3-0.2c-0.5,0-0.9,0.1-1.3,0.2c-0.4,0.1-0.7,0.4-1.1,0.8c-0.3,0.4-0.5,0.8-0.7,1.5c-0.2,0.6-0.3,1.4-0.3,2.3
	c0,0.8,0.1,1.6,0.2,2.2c0.2,0.6,0.4,1.1,0.7,1.5c0.3,0.4,0.6,0.6,1,0.8c0.4,0.2,0.9,0.2,1.4,0.2c0.4,0,0.9-0.1,1.3-0.2
	C42,17.9,42.4,17.7,42.7,17.3z"/>
<path class="st0" d="M63.4,10.6h-0.4c-0.2-0.1-0.5-0.1-1-0.2c-0.5,0-0.9-0.1-1.2-0.1c-0.7,0-1.3,0-1.9,0.1c-0.5,0.1-1.1,0.2-1.7,0.5
	v10.3h-4.9V5.9h4.9v2.3c1.1-0.9,2-1.5,2.8-1.9c0.8-0.3,1.5-0.5,2.2-0.5c0.2,0,0.4,0,0.6,0c0.2,0,0.4,0,0.6,0V10.6z"/>
<path class="st0" d="M82.5,21.3h-5.7l-4.3-6.7l-1.3,1.6v5h-4.9V0h4.9v12.7l5.3-6.8h5.7l-5.5,6.6L82.5,21.3z"/>
<path class="st1" d="M105.8,21.3H93.9v-3.6h3.3V4.5h-3.3V0.9h11.9v3.6h-3.3v13.1h3.3V21.3z"/>
<path class="st1" d="M125.2,21.3h-4.9v-7.6c0-0.6,0-1.2-0.1-1.9c-0.1-0.6-0.2-1.1-0.3-1.4c-0.2-0.3-0.4-0.6-0.8-0.7
	c-0.4-0.2-0.8-0.2-1.5-0.2c-0.4,0-0.9,0.1-1.4,0.2c-0.5,0.1-1,0.4-1.5,0.7v10.9h-4.9V5.9h4.9v1.7c0.9-0.7,1.7-1.2,2.5-1.6
	c0.8-0.4,1.7-0.5,2.7-0.5c1.7,0,3,0.5,3.9,1.4c0.9,1,1.4,2.4,1.4,4.3V21.3z"/>
<path class="st1" d="M139.6,21.1c-0.5,0.1-1.1,0.2-1.7,0.3c-0.6,0.1-1.3,0.1-2.2,0.1c-1.9,0-3.3-0.4-4.3-1.2c-0.9-0.8-1.4-2.1-1.4-4
	V9.3h-2V5.9h2V1.5h4.9v4.4h4.6v3.3H135v5.4c0,0.5,0,1,0,1.4c0,0.4,0.1,0.8,0.2,1.1c0.1,0.3,0.4,0.6,0.7,0.8c0.3,0.2,0.8,0.3,1.4,0.3
	c0.3,0,0.6-0.1,1-0.2s0.7-0.2,0.9-0.3h0.4V21.1z"/>
<path class="st1" d="M157.6,14.5h-11.3c0.1,1.2,0.5,2.1,1.4,2.8c0.8,0.6,2.1,1,3.7,1c1,0,2-0.2,3-0.6c1-0.4,1.7-0.8,2.3-1.2h0.5v4
	c-1.1,0.4-2.2,0.8-3.1,1s-2.1,0.3-3.3,0.3c-3.1,0-5.4-0.7-7.1-2.1c-1.6-1.4-2.5-3.4-2.5-5.9c0-2.5,0.8-4.5,2.3-6
	c1.6-1.5,3.7-2.2,6.4-2.2c2.5,0,4.4,0.6,5.6,1.9c1.3,1.3,1.9,3.1,1.9,5.4V14.5z M152.7,11.6c0-1-0.3-1.8-0.8-2.3
	c-0.5-0.5-1.2-0.8-2.3-0.8c-0.9,0-1.7,0.2-2.3,0.7c-0.6,0.5-1,1.3-1,2.4H152.7z"/>
<path class="st1" d="M172.2,10.6h-0.4c-0.2-0.1-0.5-0.1-1-0.2c-0.5,0-0.9-0.1-1.2-0.1c-0.7,0-1.3,0-1.9,0.1
	c-0.5,0.1-1.1,0.2-1.7,0.5v10.3h-4.9V5.9h4.9v2.3c1.1-0.9,2-1.5,2.8-1.9c0.8-0.3,1.5-0.5,2.2-0.5c0.2,0,0.4,0,0.6,0
	c0.2,0,0.4,0,0.6,0V10.6z"/>
<path class="st1" d="M190.1,14.5h-11.3c0.1,1.2,0.5,2.1,1.4,2.8c0.8,0.6,2.1,1,3.7,1c1,0,2-0.2,3-0.6c1-0.4,1.7-0.8,2.3-1.2h0.5v4
	c-1.1,0.4-2.2,0.8-3.1,1s-2.1,0.3-3.3,0.3c-3.1,0-5.4-0.7-7.1-2.1c-1.6-1.4-2.5-3.4-2.5-5.9c0-2.5,0.8-4.5,2.3-6
	c1.6-1.5,3.7-2.2,6.4-2.2c2.5,0,4.4,0.6,5.6,1.9c1.3,1.3,1.9,3.1,1.9,5.4V14.5z M185.2,11.6c0-1-0.3-1.8-0.8-2.3
	c-0.5-0.5-1.2-0.8-2.3-0.8c-0.9,0-1.7,0.2-2.3,0.7c-0.6,0.5-1,1.3-1,2.4H185.2z"/>
<path class="st1" d="M207,16.4c0,1.6-0.7,2.9-2.1,3.8s-3.4,1.5-5.8,1.5c-1.4,0-2.6-0.1-3.7-0.4c-1.1-0.3-2-0.5-2.7-0.8v-4h0.5
	c0.2,0.2,0.5,0.4,0.9,0.6c0.3,0.2,0.8,0.4,1.4,0.7c0.5,0.2,1.1,0.4,1.7,0.5c0.6,0.2,1.3,0.2,2.1,0.2c1,0,1.7-0.1,2.1-0.3
	c0.5-0.2,0.7-0.5,0.7-1c0-0.4-0.1-0.6-0.4-0.8c-0.3-0.2-0.8-0.3-1.6-0.5c-0.4-0.1-0.9-0.2-1.5-0.3c-0.6-0.1-1.2-0.2-1.7-0.3
	c-1.4-0.4-2.4-0.9-3.1-1.7c-0.7-0.8-1-1.7-1-2.9c0-1.5,0.7-2.7,2.1-3.7c1.4-1,3.3-1.5,5.7-1.5c1.1,0,2.2,0.1,3.3,0.3
	s1.9,0.5,2.5,0.7v3.9h-0.4c-0.7-0.5-1.6-0.9-2.5-1.2c-0.9-0.3-1.9-0.5-2.8-0.5c-0.8,0-1.5,0.1-2,0.3c-0.5,0.2-0.8,0.5-0.8,0.9
	c0,0.4,0.1,0.6,0.4,0.8s0.8,0.4,1.7,0.6c0.5,0.1,1,0.2,1.6,0.3c0.6,0.1,1.2,0.2,1.7,0.4c1.3,0.3,2.3,0.9,2.9,1.6
	C206.6,14.4,207,15.3,207,16.4z"/>
<path class="st1" d="M220,21.1c-0.5,0.1-1.1,0.2-1.7,0.3c-0.6,0.1-1.3,0.1-2.2,0.1c-1.9,0-3.3-0.4-4.3-1.2c-0.9-0.8-1.4-2.1-1.4-4
	V9.3h-2V5.9h2V1.5h4.9v4.4h4.6v3.3h-4.6v5.4c0,0.5,0,1,0,1.4c0,0.4,0.1,0.8,0.2,1.1c0.1,0.3,0.4,0.6,0.7,0.8s0.8,0.3,1.4,0.3
	c0.3,0,0.6-0.1,1-0.2c0.4-0.1,0.7-0.2,0.9-0.3h0.4V21.1z"/>
<path class="st1" d="M236.3,16.4c0,1.6-0.7,2.9-2.1,3.8s-3.4,1.5-5.8,1.5c-1.4,0-2.6-0.1-3.7-0.4c-1.1-0.3-2-0.5-2.7-0.8v-4h0.5
	c0.2,0.2,0.5,0.4,0.9,0.6c0.3,0.2,0.8,0.4,1.4,0.7c0.5,0.2,1.1,0.4,1.7,0.5c0.6,0.2,1.3,0.2,2.1,0.2c1,0,1.7-0.1,2.1-0.3
	c0.5-0.2,0.7-0.5,0.7-1c0-0.4-0.1-0.6-0.4-0.8c-0.3-0.2-0.8-0.3-1.6-0.5c-0.4-0.1-0.9-0.2-1.5-0.3c-0.6-0.1-1.2-0.2-1.7-0.3
	c-1.4-0.4-2.4-0.9-3.1-1.7c-0.7-0.8-1-1.7-1-2.9c0-1.5,0.7-2.7,2.1-3.7c1.4-1,3.3-1.5,5.7-1.5c1.1,0,2.2,0.1,3.3,0.3
	s1.9,0.5,2.5,0.7v3.9h-0.4c-0.7-0.5-1.6-0.9-2.5-1.2c-0.9-0.3-1.9-0.5-2.8-0.5c-0.8,0-1.5,0.1-2,0.3c-0.5,0.2-0.8,0.5-0.8,0.9
	c0,0.4,0.1,0.6,0.4,0.8s0.8,0.4,1.7,0.6c0.5,0.1,1,0.2,1.6,0.3c0.6,0.1,1.2,0.2,1.7,0.4c1.3,0.3,2.3,0.9,2.9,1.6
	C236,14.4,236.3,15.3,236.3,16.4z"/>
</svg>
