<?xml version="1.0" encoding="utf-8"?>
<!-- Generator: Adobe Illustrator 23.0.1, SVG Export Plug-In . SVG Version: 6.00 Build 0)  -->
<svg version="1.1" id="Layer_1" xmlns="http://www.w3.org/2000/svg" xmlns:xlink="http://www.w3.org/1999/xlink" x="0px" y="0px"
	 viewBox="0 0 358.3 41.1" style="enable-background:new 0 0 358.3 41.1;" xml:space="preserve">
<style type="text/css">
	.st0{fill:#FFFFFF;}
</style>
<g>
	<path class="st0" d="M280.1-148.5h-2.2v-8.2h-8.3v8.2h-2.2v-16.7h2.2v6.6h8.3v-6.6h2.2V-148.5z"/>
	<path class="st0" d="M295-154.6h-9.2c0,0.8,0.1,1.4,0.3,2c0.2,0.6,0.6,1,1,1.4c0.4,0.4,0.9,0.6,1.4,0.8c0.5,0.2,1.1,0.3,1.8,0.3
		c0.9,0,1.7-0.2,2.6-0.5c0.9-0.3,1.5-0.7,1.8-1h0.1v2.3c-0.7,0.3-1.4,0.6-2.2,0.8c-0.7,0.2-1.5,0.3-2.3,0.3c-2.1,0-3.7-0.6-4.9-1.7
		s-1.8-2.7-1.8-4.8c0-2.1,0.6-3.7,1.7-4.9c1.1-1.2,2.6-1.8,4.4-1.8c1.7,0,3,0.5,3.9,1.5c0.9,1,1.4,2.4,1.4,4.2V-154.6z M292.9-156.2
		c0-1.1-0.3-2-0.8-2.6c-0.6-0.6-1.4-0.9-2.5-0.9c-1.1,0-2,0.3-2.7,1c-0.7,0.7-1.1,1.5-1.1,2.5H292.9z"/>
	<path class="st0" d="M300.3-148.5h-2.1V-166h2.1V-148.5z"/>
	<path class="st0" d="M306.6-148.5h-2.1V-166h2.1V-148.5z"/>
	<path class="st0" d="M321.5-154.8c0,2-0.5,3.7-1.6,4.8c-1,1.2-2.5,1.8-4.2,1.8c-1.8,0-3.2-0.6-4.2-1.8c-1-1.2-1.6-2.8-1.6-4.8
		s0.5-3.7,1.6-4.8c1-1.2,2.5-1.8,4.2-1.8c1.8,0,3.2,0.6,4.2,1.8S321.5-156.8,321.5-154.8z M319.3-154.8c0-1.6-0.3-2.8-1-3.6
		c-0.6-0.8-1.5-1.2-2.7-1.2c-1.1,0-2,0.4-2.7,1.2c-0.6,0.8-0.9,2-0.9,3.6c0,1.6,0.3,2.8,1,3.6s1.5,1.2,2.7,1.2c1.1,0,2-0.4,2.6-1.2
		C319-152,319.3-153.2,319.3-154.8z"/>
	<path class="st0" d="M342.6-148.5h-2.1v-1.3c-0.2,0.1-0.4,0.3-0.8,0.5s-0.6,0.4-0.9,0.5c-0.4,0.2-0.8,0.3-1.2,0.4s-1,0.2-1.6,0.2
		c-1.1,0-2.1-0.4-2.9-1.1c-0.8-0.7-1.2-1.7-1.2-2.9c0-1,0.2-1.7,0.6-2.3s1-1,1.7-1.4c0.8-0.3,1.7-0.6,2.8-0.7
		c1.1-0.1,2.2-0.2,3.4-0.3v-0.3c0-0.5-0.1-0.9-0.3-1.2c-0.2-0.3-0.4-0.6-0.7-0.7c-0.3-0.2-0.7-0.3-1.1-0.3c-0.4-0.1-0.9-0.1-1.3-0.1
		c-0.6,0-1.2,0.1-1.9,0.2c-0.7,0.1-1.4,0.4-2.1,0.6H333v-2.1c0.4-0.1,1-0.2,1.8-0.4s1.5-0.2,2.3-0.2c0.9,0,1.7,0.1,2.3,0.2
		c0.7,0.1,1.2,0.4,1.7,0.7c0.5,0.3,0.8,0.8,1.1,1.3c0.2,0.5,0.4,1.2,0.4,2V-148.5z M340.5-151.6v-3.5c-0.6,0-1.4,0.1-2.3,0.2
		c-0.9,0.1-1.6,0.2-2.1,0.3c-0.6,0.2-1.1,0.4-1.5,0.8s-0.6,0.9-0.6,1.5c0,0.7,0.2,1.3,0.7,1.6s1.1,0.5,2,0.5c0.7,0,1.4-0.1,2-0.4
		S340-151.2,340.5-151.6z"/>
	<path class="st0" d="M357.1-148.5H355v-7.1c0-0.6,0-1.1-0.1-1.6c-0.1-0.5-0.2-0.9-0.4-1.2c-0.2-0.3-0.5-0.5-0.8-0.7
		c-0.4-0.2-0.8-0.2-1.4-0.2c-0.6,0-1.2,0.1-1.8,0.4c-0.6,0.3-1.2,0.6-1.8,1.1v9.4h-2.1v-12.5h2.1v1.4c0.7-0.5,1.3-1,2-1.3
		c0.7-0.3,1.4-0.5,2.2-0.5c1.4,0,2.4,0.4,3.1,1.2c0.7,0.8,1.1,2,1.1,3.5V-148.5z"/>
	<path class="st0" d="M371.4-148.5h-2.1v-1.3c-0.6,0.5-1.2,0.9-1.9,1.2s-1.4,0.4-2.1,0.4c-1.5,0-2.7-0.6-3.6-1.7
		c-0.9-1.2-1.3-2.8-1.3-4.8c0-1.1,0.2-2,0.5-2.8c0.3-0.8,0.7-1.5,1.2-2.1c0.5-0.6,1.1-1,1.8-1.3s1.4-0.4,2.1-0.4
		c0.7,0,1.2,0.1,1.8,0.2s1,0.4,1.6,0.6v-5.4h2.1V-148.5z M369.3-151.6v-7.2c-0.6-0.3-1.1-0.4-1.5-0.5c-0.4-0.1-0.9-0.1-1.5-0.1
		c-1.2,0-2.1,0.4-2.8,1.2s-1,2-1,3.5c0,1.5,0.3,2.6,0.8,3.4c0.5,0.8,1.3,1.2,2.4,1.2c0.6,0,1.2-0.1,1.8-0.4S368.7-151.2,369.3-151.6
		z"/>
	<path class="st0" d="M239.5-145.1l-10,38.5h-5.8l-8.1-32l-7.9,32H202l-10.2-38.5h5.3l8.1,32l8-32h5.2l8,32.3l8-32.3H239.5z"/>
	<path class="st0" d="M268.2-120.5h-21.3c0,1.8,0.3,3.3,0.8,4.6c0.5,1.3,1.3,2.4,2.2,3.2c0.9,0.8,2,1.4,3.2,1.9s2.6,0.6,4.1,0.6
		c2,0,3.9-0.4,5.9-1.2c2-0.8,3.4-1.6,4.3-2.3h0.3v5.3c-1.6,0.7-3.3,1.3-5,1.7c-1.7,0.5-3.5,0.7-5.4,0.7c-4.8,0-8.5-1.3-11.2-3.9
		s-4-6.3-4-11.1c0-4.7,1.3-8.5,3.9-11.3c2.6-2.8,6-4.2,10.2-4.2c3.9,0,6.9,1.1,9,3.4c2.1,2.3,3.2,5.5,3.2,9.7V-120.5z M263.5-124.2
		c0-2.6-0.7-4.5-1.9-5.9c-1.3-1.4-3.2-2.1-5.8-2.1c-2.6,0-4.7,0.8-6.2,2.3c-1.5,1.5-2.4,3.4-2.6,5.7H263.5z"/>
	<path class="st0" d="M280.5-106.5h-4.9v-40.3h4.9V-106.5z"/>
	<path class="st0" d="M311.5-108.3c-1.6,0.8-3.2,1.4-4.6,1.8s-3,0.6-4.6,0.6c-2.1,0-4-0.3-5.7-0.9c-1.7-0.6-3.2-1.5-4.5-2.8
		c-1.3-1.2-2.2-2.8-2.9-4.7c-0.7-1.9-1-4.1-1-6.7c0-4.7,1.3-8.4,3.9-11.1c2.6-2.7,6-4,10.3-4c1.7,0,3.3,0.2,4.9,0.7
		c1.6,0.5,3.1,1,4.4,1.7v5.4h-0.3c-1.5-1.2-3-2-4.6-2.7c-1.6-0.6-3.1-0.9-4.6-0.9c-2.8,0-4.9,0.9-6.5,2.8s-2.4,4.6-2.4,8.2
		c0,3.5,0.8,6.2,2.3,8s3.8,2.8,6.6,2.8c1,0,2-0.1,3-0.4c1-0.3,1.9-0.6,2.7-1c0.7-0.4,1.4-0.7,2-1.2s1.1-0.8,1.5-1h0.3V-108.3z"/>
	<path class="st0" d="M342.4-121c0,4.7-1.2,8.4-3.6,11.2c-2.4,2.7-5.7,4.1-9.7,4.1c-4.1,0-7.3-1.4-9.7-4.1
		c-2.4-2.7-3.6-6.4-3.6-11.2s1.2-8.4,3.6-11.2c2.4-2.7,5.7-4.1,9.7-4.1c4.1,0,7.3,1.4,9.7,4.1C341.2-129.4,342.4-125.7,342.4-121z
		 M337.4-121c0-3.7-0.7-6.5-2.2-8.3s-3.5-2.7-6.1-2.7c-2.6,0-4.7,0.9-6.1,2.7s-2.2,4.6-2.2,8.3c0,3.6,0.7,6.4,2.2,8.2
		c1.5,1.9,3.5,2.8,6.1,2.8c2.6,0,4.6-0.9,6.1-2.8C336.6-114.6,337.4-117.3,337.4-121z"/>
	<path class="st0" d="M392.1-106.5h-4.9V-123c0-1.2-0.1-2.4-0.2-3.6c-0.1-1.2-0.3-2.1-0.7-2.8c-0.4-0.7-1-1.3-1.7-1.7
		c-0.7-0.4-1.8-0.6-3.2-0.6c-1.4,0-2.7,0.3-4.1,1c-1.4,0.7-2.7,1.5-4.1,2.6c0.1,0.4,0.1,0.9,0.1,1.4c0,0.5,0.1,1,0.1,1.6v18.5h-4.9
		V-123c0-1.3-0.1-2.5-0.2-3.6c-0.1-1.1-0.3-2.1-0.7-2.8c-0.4-0.7-1-1.3-1.7-1.7c-0.7-0.4-1.8-0.6-3.2-0.6c-1.3,0-2.7,0.3-4,1
		c-1.3,0.7-2.7,1.5-4,2.5v21.6h-4.9v-28.9h4.9v3.2c1.5-1.3,3-2.2,4.5-3c1.5-0.7,3.1-1.1,4.8-1.1c2,0,3.6,0.4,5,1.2
		c1.4,0.8,2.4,2,3.1,3.4c2-1.7,3.8-2.9,5.4-3.6c1.6-0.7,3.4-1.1,5.2-1.1c3.2,0,5.5,1,7,2.9c1.5,1.9,2.3,4.6,2.3,8.1V-106.5z"/>
	<path class="st0" d="M425.7-120.5h-21.3c0,1.8,0.3,3.3,0.8,4.6c0.5,1.3,1.3,2.4,2.2,3.2c0.9,0.8,2,1.4,3.2,1.9s2.6,0.6,4.1,0.6
		c2,0,3.9-0.4,5.9-1.2c2-0.8,3.4-1.6,4.3-2.3h0.3v5.3c-1.6,0.7-3.3,1.3-5,1.7c-1.7,0.5-3.5,0.7-5.4,0.7c-4.8,0-8.5-1.3-11.2-3.9
		s-4-6.3-4-11.1c0-4.7,1.3-8.5,3.9-11.3c2.6-2.8,6-4.2,10.2-4.2c3.9,0,6.9,1.1,9,3.4c2.1,2.3,3.2,5.5,3.2,9.7V-120.5z M420.9-124.2
		c0-2.6-0.7-4.5-1.9-5.9c-1.3-1.4-3.2-2.1-5.8-2.1c-2.6,0-4.7,0.8-6.2,2.3c-1.5,1.5-2.4,3.4-2.6,5.7H420.9z"/>
	<path class="st0" d="M441.6-145.1l-0.7,27.9h-4.4l-0.7-27.9H441.6z M441.3-106.5h-5.3v-5.5h5.3V-106.5z"/>
</g>
<g>
	<path class="st0" d="M12.8,40.3h-2.2v-8.2H2.2v8.2H0V23.5h2.2v6.6h8.3v-6.6h2.2V40.3z"/>
	<path class="st0" d="M27.6,34.2h-9.2c0,0.8,0.1,1.4,0.3,2c0.2,0.6,0.6,1,1,1.4c0.4,0.4,0.9,0.6,1.4,0.8c0.5,0.2,1.1,0.3,1.8,0.3
		c0.9,0,1.7-0.2,2.6-0.5c0.9-0.3,1.5-0.7,1.8-1h0.1v2.3c-0.7,0.3-1.4,0.6-2.2,0.8c-0.7,0.2-1.5,0.3-2.3,0.3c-2.1,0-3.7-0.6-4.9-1.7
		s-1.8-2.7-1.8-4.8c0-2.1,0.6-3.7,1.7-4.9c1.1-1.2,2.6-1.8,4.4-1.8c1.7,0,3,0.5,3.9,1.5c0.9,1,1.4,2.4,1.4,4.2V34.2z M25.6,32.6
		c0-1.1-0.3-2-0.8-2.6c-0.6-0.6-1.4-0.9-2.5-0.9c-1.1,0-2,0.3-2.7,1c-0.7,0.7-1.1,1.5-1.1,2.5H25.6z"/>
	<path class="st0" d="M33,40.3h-2.1V22.8H33V40.3z"/>
	<path class="st0" d="M39.3,40.3h-2.1V22.8h2.1V40.3z"/>
	<path class="st0" d="M54.1,34c0,2-0.5,3.7-1.6,4.8c-1,1.2-2.5,1.8-4.2,1.8c-1.8,0-3.2-0.6-4.2-1.8c-1-1.2-1.6-2.8-1.6-4.8
		s0.5-3.7,1.6-4.8c1-1.2,2.5-1.8,4.2-1.8c1.8,0,3.2,0.6,4.2,1.8S54.1,32,54.1,34z M52,34c0-1.6-0.3-2.8-1-3.6s-1.5-1.2-2.7-1.2
		c-1.1,0-2,0.4-2.7,1.2c-0.6,0.8-0.9,2-0.9,3.6c0,1.6,0.3,2.8,1,3.6s1.5,1.2,2.7,1.2c1.1,0,2-0.4,2.6-1.2C51.6,36.8,52,35.6,52,34z"
		/>
	<path class="st0" d="M75.2,40.3h-2.1v-1.3c-0.2,0.1-0.4,0.3-0.8,0.5c-0.3,0.2-0.6,0.4-0.9,0.5c-0.4,0.2-0.8,0.3-1.2,0.4
		s-1,0.2-1.6,0.2c-1.1,0-2.1-0.4-2.9-1.1c-0.8-0.7-1.2-1.7-1.2-2.9c0-1,0.2-1.7,0.6-2.3c0.4-0.6,1-1,1.7-1.4
		c0.8-0.3,1.7-0.6,2.8-0.7s2.2-0.2,3.4-0.3v-0.3c0-0.5-0.1-0.9-0.3-1.2c-0.2-0.3-0.4-0.6-0.7-0.7c-0.3-0.2-0.7-0.3-1.1-0.3
		s-0.9-0.1-1.3-0.1c-0.6,0-1.2,0.1-1.9,0.2c-0.7,0.1-1.4,0.4-2.1,0.6h-0.1V28c0.4-0.1,1-0.2,1.8-0.4s1.5-0.2,2.3-0.2
		c0.9,0,1.7,0.1,2.3,0.2c0.7,0.1,1.2,0.4,1.7,0.7c0.5,0.3,0.8,0.8,1.1,1.3c0.2,0.5,0.4,1.2,0.4,2V40.3z M73.1,37.2v-3.5
		c-0.6,0-1.4,0.1-2.3,0.2c-0.9,0.1-1.6,0.2-2.1,0.3c-0.6,0.2-1.1,0.4-1.5,0.8s-0.6,0.9-0.6,1.5c0,0.7,0.2,1.3,0.7,1.6s1.1,0.5,2,0.5
		c0.7,0,1.4-0.1,2-0.4S72.6,37.6,73.1,37.2z"/>
	<path class="st0" d="M89.8,40.3h-2.1v-7.1c0-0.6,0-1.1-0.1-1.6c-0.1-0.5-0.2-0.9-0.4-1.2c-0.2-0.3-0.5-0.5-0.8-0.7
		s-0.8-0.2-1.4-0.2c-0.6,0-1.2,0.1-1.8,0.4c-0.6,0.3-1.2,0.6-1.8,1.1v9.4h-2.1V27.7h2.1v1.4c0.7-0.5,1.3-1,2-1.3
		c0.7-0.3,1.4-0.5,2.2-0.5c1.4,0,2.4,0.4,3.1,1.2c0.7,0.8,1.1,2,1.1,3.5V40.3z"/>
	<path class="st0" d="M104,40.3h-2.1V39c-0.6,0.5-1.2,0.9-1.9,1.2s-1.4,0.4-2.1,0.4c-1.5,0-2.7-0.6-3.6-1.7
		c-0.9-1.2-1.3-2.8-1.3-4.8c0-1.1,0.2-2,0.5-2.8c0.3-0.8,0.7-1.5,1.2-2.1c0.5-0.6,1.1-1,1.8-1.3s1.4-0.4,2.1-0.4
		c0.7,0,1.2,0.1,1.8,0.2s1,0.4,1.6,0.6v-5.4h2.1V40.3z M101.9,37.2V30c-0.6-0.3-1.1-0.4-1.5-0.5c-0.4-0.1-0.9-0.1-1.5-0.1
		c-1.2,0-2.1,0.4-2.8,1.2s-1,2-1,3.5c0,1.5,0.3,2.6,0.8,3.4c0.5,0.8,1.3,1.2,2.4,1.2c0.6,0,1.2-0.1,1.8-0.4S101.4,37.6,101.9,37.2z"
		/>
	<path class="st0" d="M156.1,1.7l-10,38.5h-5.8l-8.1-32l-7.9,32h-5.6L108.5,1.7h5.3l8.1,32l8-32h5.2l8,32.3l8-32.3H156.1z"/>
	<path class="st0" d="M184.9,26.3h-21.3c0,1.8,0.3,3.3,0.8,4.6c0.5,1.3,1.3,2.4,2.2,3.2c0.9,0.8,2,1.4,3.2,1.9s2.6,0.6,4.1,0.6
		c2,0,3.9-0.4,5.9-1.2c2-0.8,3.4-1.6,4.3-2.3h0.3v5.3c-1.6,0.7-3.3,1.3-5,1.7c-1.7,0.5-3.5,0.7-5.4,0.7c-4.8,0-8.5-1.3-11.2-3.9
		s-4-6.3-4-11.1c0-4.7,1.3-8.5,3.9-11.3c2.6-2.8,6-4.2,10.2-4.2c3.9,0,6.9,1.1,9,3.4c2.1,2.3,3.2,5.5,3.2,9.7V26.3z M180.2,22.6
		c0-2.6-0.7-4.5-1.9-5.9c-1.3-1.4-3.2-2.1-5.8-2.1c-2.6,0-4.7,0.8-6.2,2.3c-1.5,1.5-2.4,3.4-2.6,5.7H180.2z"/>
	<path class="st0" d="M197.2,40.3h-4.9V0h4.9V40.3z"/>
	<path class="st0" d="M228.2,38.5c-1.6,0.8-3.2,1.4-4.6,1.8s-3,0.6-4.6,0.6c-2.1,0-4-0.3-5.7-0.9c-1.7-0.6-3.2-1.5-4.5-2.8
		c-1.3-1.2-2.2-2.8-2.9-4.7c-0.7-1.9-1-4.1-1-6.7c0-4.7,1.3-8.4,3.9-11.1c2.6-2.7,6-4,10.3-4c1.7,0,3.3,0.2,4.9,0.7
		c1.6,0.5,3.1,1,4.4,1.7v5.4h-0.3c-1.5-1.2-3-2-4.6-2.7c-1.6-0.6-3.1-0.9-4.6-0.9c-2.8,0-4.9,0.9-6.5,2.8s-2.4,4.6-2.4,8.2
		c0,3.5,0.8,6.2,2.3,8s3.8,2.8,6.6,2.8c1,0,2-0.1,3-0.4c1-0.3,1.9-0.6,2.7-1c0.7-0.4,1.4-0.7,2-1.2s1.1-0.8,1.5-1h0.3V38.5z"/>
	<path class="st0" d="M259.1,25.8c0,4.7-1.2,8.4-3.6,11.2c-2.4,2.7-5.7,4.1-9.7,4.1c-4.1,0-7.3-1.4-9.7-4.1
		c-2.4-2.7-3.6-6.4-3.6-11.2s1.2-8.4,3.6-11.2c2.4-2.7,5.7-4.1,9.7-4.1c4.1,0,7.3,1.4,9.7,4.1C257.9,17.4,259.1,21.1,259.1,25.8z
		 M254.1,25.8c0-3.7-0.7-6.5-2.2-8.3c-1.5-1.8-3.5-2.7-6.1-2.7c-2.6,0-4.7,0.9-6.1,2.7s-2.2,4.6-2.2,8.3c0,3.6,0.7,6.4,2.2,8.2
		c1.5,1.9,3.5,2.8,6.1,2.8c2.6,0,4.6-0.9,6.1-2.8C253.3,32.2,254.1,29.5,254.1,25.8z"/>
	<path class="st0" d="M308.8,40.3h-4.9V23.8c0-1.2-0.1-2.4-0.2-3.6c-0.1-1.2-0.3-2.1-0.7-2.8c-0.4-0.7-1-1.3-1.7-1.7
		c-0.7-0.4-1.8-0.6-3.2-0.6c-1.4,0-2.7,0.3-4.1,1c-1.4,0.7-2.7,1.5-4.1,2.6c0.1,0.4,0.1,0.9,0.1,1.4c0,0.5,0.1,1,0.1,1.6v18.5h-4.9
		V23.8c0-1.3-0.1-2.5-0.2-3.6c-0.1-1.1-0.3-2.1-0.7-2.8c-0.4-0.7-1-1.3-1.7-1.7c-0.7-0.4-1.8-0.6-3.2-0.6c-1.3,0-2.7,0.3-4,1
		c-1.3,0.7-2.7,1.5-4,2.5v21.6h-4.9V11.4h4.9v3.2c1.5-1.3,3-2.2,4.5-3c1.5-0.7,3.1-1.1,4.8-1.1c2,0,3.6,0.4,5,1.2
		c1.4,0.8,2.4,2,3.1,3.4c2-1.7,3.8-2.9,5.4-3.6c1.6-0.7,3.4-1.1,5.2-1.1c3.2,0,5.5,1,7,2.9c1.5,1.9,2.3,4.6,2.3,8.1V40.3z"/>
	<path class="st0" d="M342.4,26.3h-21.3c0,1.8,0.3,3.3,0.8,4.6c0.5,1.3,1.3,2.4,2.2,3.2c0.9,0.8,2,1.4,3.2,1.9s2.6,0.6,4.1,0.6
		c2,0,3.9-0.4,5.9-1.2c2-0.8,3.4-1.6,4.3-2.3h0.3v5.3c-1.6,0.7-3.3,1.3-5,1.7c-1.7,0.5-3.5,0.7-5.4,0.7c-4.8,0-8.5-1.3-11.2-3.9
		s-4-6.3-4-11.1c0-4.7,1.3-8.5,3.9-11.3c2.6-2.8,6-4.2,10.2-4.2c3.9,0,6.9,1.1,9,3.4c2.1,2.3,3.2,5.5,3.2,9.7V26.3z M337.6,22.6
		c0-2.6-0.7-4.5-1.9-5.9c-1.3-1.4-3.2-2.1-5.8-2.1c-2.6,0-4.7,0.8-6.2,2.3c-1.5,1.5-2.4,3.4-2.6,5.7H337.6z"/>
	<path class="st0" d="M358.3,1.7l-0.7,27.9h-4.4l-0.7-27.9H358.3z M358,40.3h-5.3v-5.5h5.3V40.3z"/>
</g>
</svg>
