<?xml version="1.0" encoding="utf-8"?>
<!-- Generator: Adobe Illustrator 23.0.1, SVG Export Plug-In . SVG Version: 6.00 Build 0)  -->
<svg version="1.1" id="Layer_1" xmlns="http://www.w3.org/2000/svg" xmlns:xlink="http://www.w3.org/1999/xlink" x="0px" y="0px"
	 viewBox="0 0 388.6 42" style="enable-background:new 0 0 388.6 42;" xml:space="preserve">
<style type="text/css">
	.st0{fill:#B2B2B2;}
	.st1{fill:#FFFFFF;}
</style>
<path class="st0" d="M12.4,41H8.8v-6.1H3.6V41H0V27.2h3.6v5.1h5.3v-5.1h3.6V41z"/>
<path class="st0" d="M26,36.4h-7.6c0,0.8,0.4,1.4,0.9,1.9c0.6,0.4,1.4,0.6,2.5,0.6c0.7,0,1.4-0.1,2-0.4c0.7-0.3,1.2-0.5,1.6-0.8h0.4
	v2.7c-0.8,0.3-1.5,0.5-2.1,0.7s-1.4,0.2-2.2,0.2c-2.1,0-3.7-0.5-4.8-1.4c-1.1-0.9-1.7-2.3-1.7-4c0-1.7,0.5-3.1,1.6-4.1
	c1.1-1,2.5-1.5,4.3-1.5c1.7,0,3,0.4,3.8,1.3c0.9,0.9,1.3,2.1,1.3,3.7V36.4z M22.7,34.5c0-0.7-0.2-1.2-0.5-1.6s-0.8-0.5-1.5-0.5
	c-0.6,0-1.2,0.2-1.6,0.5s-0.6,0.9-0.7,1.6H22.7z"/>
<path class="st0" d="M31.7,41h-3.3V26.6h3.3V41z"/>
<path class="st0" d="M38.2,41h-3.3V26.6h3.3V41z"/>
<path class="st0" d="M52,35.8c0,1.7-0.5,3.1-1.5,4c-1,1-2.4,1.5-4.2,1.5c-1.8,0-3.2-0.5-4.2-1.5c-1-1-1.5-2.3-1.5-4
	c0-1.7,0.5-3.1,1.5-4.1c1-1,2.4-1.5,4.2-1.5c1.8,0,3.2,0.5,4.2,1.5C51.5,32.8,52,34.1,52,35.8z M47.9,38.4c0.2-0.3,0.4-0.6,0.5-1
	c0.1-0.4,0.2-0.9,0.2-1.6c0-0.6-0.1-1.1-0.2-1.5c-0.1-0.4-0.3-0.7-0.5-1c-0.2-0.3-0.4-0.4-0.7-0.5c-0.3-0.1-0.6-0.2-0.9-0.2
	c-0.3,0-0.6,0-0.9,0.1c-0.3,0.1-0.5,0.3-0.7,0.5c-0.2,0.2-0.4,0.6-0.5,1c-0.1,0.4-0.2,0.9-0.2,1.6c0,0.6,0.1,1.1,0.2,1.5
	c0.1,0.4,0.3,0.8,0.5,1c0.2,0.2,0.4,0.4,0.7,0.5C45.6,39,46,39,46.3,39c0.3,0,0.6-0.1,0.9-0.2C47.4,38.8,47.7,38.6,47.9,38.4z"/>
<path class="st0" d="M67.2,39.9c-0.2,0.1-0.4,0.3-0.7,0.5c-0.3,0.2-0.5,0.3-0.8,0.5c-0.3,0.1-0.7,0.3-1,0.3
	c-0.4,0.1-0.7,0.1-1.2,0.1c-1,0-1.8-0.3-2.5-0.9s-1-1.4-1-2.3c0-0.8,0.2-1.4,0.5-1.9c0.3-0.5,0.8-0.9,1.4-1.1
	c0.6-0.3,1.4-0.5,2.3-0.6c0.9-0.1,1.9-0.2,2.8-0.3v-0.1c0-0.6-0.2-1-0.7-1.2c-0.5-0.2-1.2-0.3-2.1-0.3c-0.6,0-1.1,0.1-1.8,0.3
	c-0.6,0.2-1.1,0.3-1.3,0.5H61v-2.5c0.4-0.1,0.9-0.2,1.7-0.3c0.8-0.1,1.6-0.2,2.4-0.2c1.9,0,3.3,0.3,4.1,0.9c0.8,0.6,1.3,1.5,1.3,2.8
	V41h-3.3V39.9z M67.2,38.3v-2.2c-0.5,0-0.9,0.1-1.5,0.2c-0.5,0.1-0.9,0.1-1.2,0.2c-0.3,0.1-0.6,0.3-0.8,0.5
	c-0.2,0.2-0.3,0.5-0.3,0.8c0,0.2,0,0.4,0.1,0.5s0.1,0.3,0.3,0.4c0.1,0.1,0.3,0.2,0.5,0.3c0.2,0.1,0.5,0.1,0.9,0.1
	c0.3,0,0.7-0.1,1-0.2C66.6,38.7,66.9,38.5,67.2,38.3z"/>
<path class="st0" d="M84,41h-3.3v-5.2c0-0.4,0-0.8-0.1-1.3c0-0.4-0.1-0.7-0.2-0.9c-0.1-0.2-0.3-0.4-0.5-0.5c-0.2-0.1-0.6-0.2-1-0.2
	c-0.3,0-0.6,0-0.9,0.1c-0.3,0.1-0.7,0.3-1,0.5V41h-3.3V30.6h3.3v1.2c0.6-0.5,1.2-0.8,1.7-1.1c0.5-0.2,1.2-0.4,1.8-0.4
	c1.1,0,2,0.3,2.6,1c0.6,0.7,1,1.6,1,2.9V41z"/>
<path class="st0" d="M97.2,41h-3.3v-1.1c-0.6,0.5-1.1,0.8-1.6,1c-0.5,0.2-1.1,0.3-1.7,0.3c-1.3,0-2.3-0.5-3-1.5
	c-0.8-1-1.1-2.3-1.1-4c0-0.9,0.1-1.7,0.4-2.4c0.3-0.7,0.6-1.3,1.1-1.8c0.4-0.5,0.9-0.8,1.5-1.1c0.6-0.3,1.2-0.4,1.8-0.4
	c0.6,0,1.1,0.1,1.5,0.2c0.4,0.1,0.8,0.3,1.2,0.5v-4.4h3.3V41z M93.9,38.2V33c-0.2-0.1-0.5-0.2-0.7-0.2c-0.3,0-0.5-0.1-0.7-0.1
	c-0.9,0-1.5,0.3-2,0.8c-0.4,0.5-0.7,1.3-0.7,2.3c0,1,0.2,1.8,0.5,2.2c0.4,0.5,0.9,0.7,1.7,0.7c0.3,0,0.6-0.1,1-0.2
	S93.6,38.3,93.9,38.2z"/>
<path class="st1" d="M154.3,1.8L143.7,41h-11.2l-7-25.6L118.6,41h-11.2L96.9,1.8h10.6l6,27l7.2-27h10.1l6.9,27l6.3-27H154.3z"/>
<path class="st1" d="M189.7,28H168c0.1,2.3,1,4.1,2.7,5.3c1.6,1.2,4,1.8,7.2,1.8c2,0,3.9-0.4,5.8-1.1c1.9-0.7,3.4-1.5,4.5-2.3h1.1
	v7.6c-2.1,0.9-4.2,1.5-6.1,1.9s-4,0.6-6.3,0.6c-5.9,0-10.5-1.3-13.7-4c-3.2-2.7-4.7-6.5-4.7-11.4c0-4.9,1.5-8.8,4.5-11.6
	c3-2.9,7.1-4.3,12.3-4.3c4.8,0,8.4,1.2,10.9,3.7c2.4,2.4,3.6,5.9,3.6,10.5V28z M180.3,22.4c-0.1-2-0.5-3.5-1.5-4.5s-2.4-1.5-4.4-1.5
	c-1.8,0-3.3,0.5-4.5,1.4s-1.8,2.5-2,4.6H180.3z"/>
<path class="st1" d="M205.9,41h-9.5V0h9.5V41z"/>
<path class="st1" d="M230.3,41.8c-2.6,0-4.9-0.3-7.1-0.9c-2.1-0.6-4-1.6-5.6-2.8c-1.6-1.3-2.8-2.9-3.6-4.9s-1.3-4.2-1.3-6.9
	c0-2.8,0.5-5.1,1.4-7.1c0.9-2,2.2-3.7,3.9-5c1.6-1.2,3.4-2.2,5.5-2.7s4.3-0.9,6.5-0.9c2,0,3.9,0.2,5.6,0.7c1.7,0.4,3.3,1,4.8,1.7
	v8.1H239c-0.4-0.3-0.8-0.7-1.3-1.1c-0.5-0.4-1.2-0.8-1.9-1.2c-0.7-0.4-1.5-0.7-2.4-1c-0.9-0.3-1.9-0.4-3-0.4c-2.5,0-4.5,0.8-5.8,2.4
	s-2,3.8-2,6.6c0,2.8,0.7,5,2.1,6.5s3.4,2.2,5.9,2.2c1.2,0,2.3-0.1,3.2-0.4c1-0.3,1.8-0.6,2.4-1c0.6-0.4,1.1-0.7,1.6-1.1
	c0.5-0.4,0.9-0.8,1.3-1.1h1.3v8.1c-1.5,0.7-3.1,1.3-4.7,1.7S232.2,41.8,230.3,41.8z"/>
<path class="st1" d="M276.9,26.2c0,4.9-1.4,8.7-4.3,11.5c-2.8,2.8-6.8,4.2-12,4.2s-9.1-1.4-12-4.2c-2.8-2.8-4.3-6.6-4.3-11.5
	c0-4.9,1.4-8.8,4.3-11.5c2.9-2.8,6.8-4.2,11.9-4.2c5.2,0,9.2,1.4,12,4.2C275.5,17.5,276.9,21.4,276.9,26.2z M265.2,33.4
	c0.6-0.8,1.1-1.7,1.4-2.7c0.3-1.1,0.5-2.5,0.5-4.4c0-1.7-0.2-3.2-0.5-4.4c-0.3-1.2-0.8-2.1-1.3-2.8c-0.6-0.7-1.2-1.2-2-1.5
	c-0.8-0.3-1.6-0.4-2.6-0.4s-1.7,0.1-2.4,0.4c-0.7,0.2-1.4,0.7-2,1.5c-0.6,0.7-1,1.6-1.4,2.8c-0.3,1.2-0.5,2.7-0.5,4.5
	c0,1.6,0.1,3,0.4,4.2s0.7,2.1,1.3,2.9c0.6,0.7,1.2,1.2,2,1.5c0.8,0.3,1.7,0.5,2.7,0.5c0.9,0,1.7-0.1,2.5-0.4S264.7,34.1,265.2,33.4z
	"/>
<path class="st1" d="M312.6,20v21h-9.5V26.2c0-1.4,0-2.7-0.1-3.7c-0.1-1-0.3-1.8-0.6-2.5s-0.8-1.1-1.4-1.4s-1.5-0.4-2.7-0.4
	c-0.9,0-1.8,0.2-2.7,0.6c-0.9,0.4-1.7,0.8-2.4,1.2v21h-9.5V11.4h9.5v3.3c1.6-1.3,3.2-2.3,4.7-3c1.5-0.7,3.1-1.1,5-1.1
	c1.9,0,3.7,0.4,5.2,1.3s2.7,2.1,3.5,3.8c1.9-1.6,3.7-2.9,5.5-3.8c1.8-0.9,3.5-1.4,5.3-1.4c3.2,0,5.6,1,7.3,2.9
	c1.7,1.9,2.5,4.7,2.5,8.3V41h-9.5V26.2c0-1.5,0-2.7-0.1-3.7s-0.3-1.8-0.6-2.5c-0.3-0.6-0.8-1.1-1.4-1.4s-1.6-0.4-2.7-0.4
	c-0.8,0-1.6,0.1-2.3,0.4C314.6,19,313.7,19.4,312.6,20z"/>
<path class="st1" d="M370,28h-21.7c0.1,2.3,1,4.1,2.7,5.3c1.6,1.2,4,1.8,7.2,1.8c2,0,3.9-0.4,5.8-1.1c1.9-0.7,3.4-1.5,4.5-2.3h1.1
	v7.6c-2.1,0.9-4.2,1.5-6.1,1.9s-4,0.6-6.3,0.6c-5.9,0-10.5-1.3-13.7-4c-3.2-2.7-4.7-6.5-4.7-11.4c0-4.9,1.5-8.8,4.5-11.6
	c3-2.9,7.1-4.3,12.3-4.3c4.8,0,8.4,1.2,10.9,3.7c2.4,2.4,3.6,5.9,3.6,10.5V28z M360.5,22.4c-0.1-2-0.5-3.5-1.5-4.5s-2.4-1.5-4.4-1.5
	c-1.8,0-3.3,0.5-4.5,1.4s-1.8,2.5-2,4.6H360.5z"/>
<path class="st1" d="M388.6,1.8l-1.2,27.9h-8.6l-1.2-27.9H388.6z M388.4,41h-10.7v-7h10.7V41z"/>
<path class="st0" d="M216.4-186h-3.6v-6.1h-5.3v6.1H204v-13.8h3.6v5.1h5.3v-5.1h3.6V-186z"/>
<path class="st0" d="M230-190.6h-7.6c0,0.8,0.4,1.4,0.9,1.9c0.6,0.4,1.4,0.6,2.5,0.6c0.7,0,1.4-0.1,2-0.4c0.7-0.3,1.2-0.5,1.6-0.8
	h0.4v2.7c-0.8,0.3-1.5,0.5-2.1,0.7s-1.4,0.2-2.2,0.2c-2.1,0-3.7-0.5-4.8-1.4c-1.1-0.9-1.7-2.3-1.7-4c0-1.7,0.5-3.1,1.6-4.1
	c1.1-1,2.5-1.5,4.3-1.5c1.7,0,3,0.4,3.8,1.3c0.9,0.9,1.3,2.1,1.3,3.7V-190.6z M226.7-192.5c0-0.7-0.2-1.2-0.5-1.6s-0.8-0.5-1.5-0.5
	c-0.6,0-1.2,0.2-1.6,0.5s-0.6,0.9-0.7,1.6H226.7z"/>
<path class="st0" d="M235.7-186h-3.3v-14.4h3.3V-186z"/>
<path class="st0" d="M242.2-186h-3.3v-14.4h3.3V-186z"/>
<path class="st0" d="M256-191.2c0,1.7-0.5,3.1-1.5,4c-1,1-2.4,1.5-4.2,1.5c-1.8,0-3.2-0.5-4.2-1.5c-1-1-1.5-2.3-1.5-4
	c0-1.7,0.5-3.1,1.5-4.1c1-1,2.4-1.5,4.2-1.5c1.8,0,3.2,0.5,4.2,1.5C255.5-194.2,256-192.9,256-191.2z M251.9-188.6
	c0.2-0.3,0.4-0.6,0.5-1c0.1-0.4,0.2-0.9,0.2-1.6c0-0.6-0.1-1.1-0.2-1.5c-0.1-0.4-0.3-0.7-0.5-1c-0.2-0.3-0.4-0.4-0.7-0.5
	c-0.3-0.1-0.6-0.2-0.9-0.2c-0.3,0-0.6,0-0.9,0.1c-0.3,0.1-0.5,0.3-0.7,0.5c-0.2,0.2-0.4,0.6-0.5,1c-0.1,0.4-0.2,0.9-0.2,1.6
	c0,0.6,0.1,1.1,0.2,1.5c0.1,0.4,0.3,0.8,0.5,1c0.2,0.2,0.4,0.4,0.7,0.5c0.3,0.1,0.6,0.2,0.9,0.2c0.3,0,0.6-0.1,0.9-0.2
	C251.4-188.2,251.7-188.4,251.9-188.6z"/>
<path class="st0" d="M271.2-187.1c-0.2,0.1-0.4,0.3-0.7,0.5c-0.3,0.2-0.5,0.3-0.8,0.5c-0.3,0.1-0.7,0.3-1,0.3
	c-0.4,0.1-0.7,0.1-1.2,0.1c-1,0-1.8-0.3-2.5-0.9s-1-1.4-1-2.3c0-0.8,0.2-1.4,0.5-1.9c0.3-0.5,0.8-0.9,1.4-1.1
	c0.6-0.3,1.4-0.5,2.3-0.6c0.9-0.1,1.9-0.2,2.8-0.3v-0.1c0-0.6-0.2-1-0.7-1.2c-0.5-0.2-1.2-0.3-2.1-0.3c-0.6,0-1.1,0.1-1.8,0.3
	c-0.6,0.2-1.1,0.3-1.3,0.5H265v-2.5c0.4-0.1,0.9-0.2,1.7-0.3c0.8-0.1,1.6-0.2,2.4-0.2c1.9,0,3.3,0.3,4.1,0.9
	c0.8,0.6,1.3,1.5,1.3,2.8v7.1h-3.3V-187.1z M271.2-188.7v-2.2c-0.5,0-0.9,0.1-1.5,0.2c-0.5,0.1-0.9,0.1-1.2,0.2
	c-0.3,0.1-0.6,0.3-0.8,0.5c-0.2,0.2-0.3,0.5-0.3,0.8c0,0.2,0,0.4,0.1,0.5s0.1,0.3,0.3,0.4c0.1,0.1,0.3,0.2,0.5,0.3
	c0.2,0.1,0.5,0.1,0.9,0.1c0.3,0,0.7-0.1,1-0.2C270.6-188.3,270.9-188.5,271.2-188.7z"/>
<path class="st0" d="M288-186h-3.3v-5.2c0-0.4,0-0.8-0.1-1.3c0-0.4-0.1-0.7-0.2-0.9c-0.1-0.2-0.3-0.4-0.5-0.5
	c-0.2-0.1-0.6-0.2-1-0.2c-0.3,0-0.6,0-0.9,0.1c-0.3,0.1-0.7,0.3-1,0.5v7.4h-3.3v-10.4h3.3v1.2c0.6-0.5,1.2-0.8,1.7-1.1
	c0.5-0.2,1.2-0.4,1.8-0.4c1.1,0,2,0.3,2.6,1c0.6,0.7,1,1.6,1,2.9V-186z"/>
<path class="st0" d="M301.2-186h-3.3v-1.1c-0.6,0.5-1.1,0.8-1.6,1c-0.5,0.2-1.1,0.3-1.7,0.3c-1.3,0-2.3-0.5-3-1.5
	c-0.8-1-1.1-2.3-1.1-4c0-0.9,0.1-1.7,0.4-2.4c0.3-0.7,0.6-1.3,1.1-1.8c0.4-0.5,0.9-0.8,1.5-1.1c0.6-0.3,1.2-0.4,1.8-0.4
	c0.6,0,1.1,0.1,1.5,0.2c0.4,0.1,0.8,0.3,1.2,0.5v-4.4h3.3V-186z M297.9-188.8v-5.1c-0.2-0.1-0.5-0.2-0.7-0.2c-0.3,0-0.5-0.1-0.7-0.1
	c-0.9,0-1.5,0.3-2,0.8c-0.4,0.5-0.7,1.3-0.7,2.3c0,1,0.2,1.8,0.5,2.2c0.4,0.5,0.9,0.7,1.7,0.7c0.3,0,0.6-0.1,1-0.2
	S297.6-188.7,297.9-188.8z"/>
<path class="st1" d="M162.3-181.2L151.7-142h-11.2l-7-25.6l-6.9,25.6h-11.2l-10.6-39.3h10.6l6,27l7.2-27h10.1l6.9,27l6.3-27H162.3z"
	/>
<path class="st1" d="M197.7-155H176c0.1,2.3,1,4.1,2.7,5.3c1.6,1.2,4,1.8,7.2,1.8c2,0,3.9-0.4,5.8-1.1c1.9-0.7,3.4-1.5,4.5-2.3h1.1
	v7.6c-2.1,0.9-4.2,1.5-6.1,1.9s-4,0.6-6.3,0.6c-5.9,0-10.5-1.3-13.7-4c-3.2-2.7-4.7-6.5-4.7-11.4c0-4.9,1.5-8.8,4.5-11.6
	c3-2.9,7.1-4.3,12.3-4.3c4.8,0,8.4,1.2,10.9,3.7c2.4,2.4,3.6,5.9,3.6,10.5V-155z M188.3-160.6c-0.1-2-0.5-3.5-1.5-4.5
	s-2.4-1.5-4.4-1.5c-1.8,0-3.3,0.5-4.5,1.4s-1.8,2.5-2,4.6H188.3z"/>
<path class="st1" d="M213.9-142h-9.5v-41h9.5V-142z"/>
<path class="st1" d="M238.3-141.2c-2.6,0-4.9-0.3-7.1-0.9c-2.1-0.6-4-1.6-5.6-2.8c-1.6-1.3-2.8-2.9-3.6-4.9s-1.3-4.2-1.3-6.9
	c0-2.8,0.5-5.1,1.4-7.1c0.9-2,2.2-3.7,3.9-5c1.6-1.2,3.4-2.2,5.5-2.7s4.3-0.9,6.5-0.9c2,0,3.9,0.2,5.6,0.7c1.7,0.4,3.3,1,4.8,1.7
	v8.1H247c-0.4-0.3-0.8-0.7-1.3-1.1c-0.5-0.4-1.2-0.8-1.9-1.2c-0.7-0.4-1.5-0.7-2.4-1c-0.9-0.3-1.9-0.4-3-0.4c-2.5,0-4.5,0.8-5.8,2.4
	s-2,3.8-2,6.6c0,2.8,0.7,5,2.1,6.5s3.4,2.2,5.9,2.2c1.2,0,2.3-0.1,3.2-0.4c1-0.3,1.8-0.6,2.4-1c0.6-0.4,1.1-0.7,1.6-1.1
	c0.5-0.4,0.9-0.8,1.3-1.1h1.3v8.1c-1.5,0.7-3.1,1.3-4.7,1.7S240.2-141.2,238.3-141.2z"/>
<path class="st1" d="M284.9-156.8c0,4.9-1.4,8.7-4.3,11.5c-2.8,2.8-6.8,4.2-12,4.2s-9.1-1.4-12-4.2c-2.8-2.8-4.3-6.6-4.3-11.5
	c0-4.9,1.4-8.8,4.3-11.5c2.9-2.8,6.8-4.2,11.9-4.2c5.2,0,9.2,1.4,12,4.2C283.5-165.5,284.9-161.6,284.9-156.8z M273.2-149.6
	c0.6-0.8,1.1-1.7,1.4-2.7c0.3-1.1,0.5-2.5,0.5-4.4c0-1.7-0.2-3.2-0.5-4.4c-0.3-1.2-0.8-2.1-1.3-2.8c-0.6-0.7-1.2-1.2-2-1.5
	c-0.8-0.3-1.6-0.4-2.6-0.4s-1.7,0.1-2.4,0.4c-0.7,0.2-1.4,0.7-2,1.5c-0.6,0.7-1,1.6-1.4,2.8c-0.3,1.2-0.5,2.7-0.5,4.5
	c0,1.6,0.1,3,0.4,4.2s0.7,2.1,1.3,2.9c0.6,0.7,1.2,1.2,2,1.5c0.8,0.3,1.7,0.5,2.7,0.5c0.9,0,1.7-0.1,2.5-0.4
	S272.7-148.9,273.2-149.6z"/>
<path class="st1" d="M320.6-163v21h-9.5v-14.8c0-1.4,0-2.7-0.1-3.7c-0.1-1-0.3-1.8-0.6-2.5s-0.8-1.1-1.4-1.4s-1.5-0.4-2.7-0.4
	c-0.9,0-1.8,0.2-2.7,0.6c-0.9,0.4-1.7,0.8-2.4,1.2v21h-9.5v-29.6h9.5v3.3c1.6-1.3,3.2-2.3,4.7-3c1.5-0.7,3.1-1.1,5-1.1
	c1.9,0,3.7,0.4,5.2,1.3s2.7,2.1,3.5,3.8c1.9-1.6,3.7-2.9,5.5-3.8c1.8-0.9,3.5-1.4,5.3-1.4c3.2,0,5.6,1,7.3,2.9
	c1.7,1.9,2.5,4.7,2.5,8.3v19.3h-9.5v-14.8c0-1.5,0-2.7-0.1-3.7s-0.3-1.8-0.6-2.5c-0.3-0.6-0.8-1.1-1.4-1.4s-1.6-0.4-2.7-0.4
	c-0.8,0-1.6,0.1-2.3,0.4C322.6-164,321.7-163.6,320.6-163z"/>
<path class="st1" d="M378-155h-21.7c0.1,2.3,1,4.1,2.7,5.3c1.6,1.2,4,1.8,7.2,1.8c2,0,3.9-0.4,5.8-1.1c1.9-0.7,3.4-1.5,4.5-2.3h1.1
	v7.6c-2.1,0.9-4.2,1.5-6.1,1.9s-4,0.6-6.3,0.6c-5.9,0-10.5-1.3-13.7-4c-3.2-2.7-4.7-6.5-4.7-11.4c0-4.9,1.5-8.8,4.5-11.6
	c3-2.9,7.1-4.3,12.3-4.3c4.8,0,8.4,1.2,10.9,3.7c2.4,2.4,3.6,5.9,3.6,10.5V-155z M368.5-160.6c-0.1-2-0.5-3.5-1.5-4.5
	s-2.4-1.5-4.4-1.5c-1.8,0-3.3,0.5-4.5,1.4s-1.8,2.5-2,4.6H368.5z"/>
<path class="st1" d="M396.6-181.2l-1.2,27.9h-8.6l-1.2-27.9H396.6z M396.4-142h-10.7v-7h10.7V-142z"/>
</svg>
