<?xml version="1.0" encoding="utf-8"?>
<!-- Generator: Adobe Illustrator 23.0.1, SVG Export Plug-In . SVG Version: 6.00 Build 0)  -->
<svg version="1.1" id="Layer_1" xmlns="http://www.w3.org/2000/svg" xmlns:xlink="http://www.w3.org/1999/xlink" x="0px" y="0px"
	 viewBox="0 0 249.8 60.3" style="enable-background:new 0 0 249.8 60.3;" xml:space="preserve">
<style type="text/css">
	.st0{fill:#FFFFFF;}
</style>
<g>
	<path class="st0" d="M88.3,17.5h-2.2V9.3h-8.3v8.2h-2.2V0.8h2.2v6.6h8.3V0.8h2.2V17.5z"/>
	<path class="st0" d="M103.2,11.4h-9.2c0,0.8,0.1,1.4,0.3,2c0.2,0.6,0.6,1,1,1.4c0.4,0.4,0.9,0.6,1.4,0.8c0.5,0.2,1.1,0.3,1.8,0.3
		c0.9,0,1.7-0.2,2.6-0.5c0.9-0.3,1.5-0.7,1.8-1h0.1v2.3c-0.7,0.3-1.4,0.6-2.2,0.8c-0.7,0.2-1.5,0.3-2.3,0.3c-2.1,0-3.7-0.6-4.9-1.7
		s-1.8-2.7-1.8-4.8c0-2.1,0.6-3.7,1.7-4.9c1.1-1.2,2.6-1.8,4.4-1.8c1.7,0,3,0.5,3.9,1.5c0.9,1,1.4,2.4,1.4,4.2V11.4z M101.1,9.8
		c0-1.1-0.3-2-0.8-2.6c-0.6-0.6-1.4-0.9-2.5-0.9c-1.1,0-2,0.3-2.7,1C94.4,8,94,8.8,93.9,9.8H101.1z"/>
	<path class="st0" d="M108.5,17.5h-2.1V0h2.1V17.5z"/>
	<path class="st0" d="M114.8,17.5h-2.1V0h2.1V17.5z"/>
	<path class="st0" d="M129.7,11.2c0,2-0.5,3.7-1.6,4.8c-1,1.2-2.5,1.8-4.2,1.8c-1.8,0-3.2-0.6-4.2-1.8c-1-1.2-1.6-2.8-1.6-4.8
		s0.5-3.7,1.6-4.8c1-1.2,2.5-1.8,4.2-1.8c1.8,0,3.2,0.6,4.2,1.8S129.7,9.2,129.7,11.2z M127.5,11.2c0-1.6-0.3-2.8-1-3.6
		c-0.6-0.8-1.5-1.2-2.7-1.2c-1.1,0-2,0.4-2.7,1.2c-0.6,0.8-0.9,2-0.9,3.6c0,1.6,0.3,2.8,1,3.6s1.5,1.2,2.7,1.2c1.1,0,2-0.4,2.6-1.2
		C127.2,14,127.5,12.8,127.5,11.2z"/>
	<path class="st0" d="M150.8,17.5h-2.1v-1.3c-0.2,0.1-0.4,0.3-0.8,0.5s-0.6,0.4-0.9,0.5c-0.4,0.2-0.8,0.3-1.2,0.4s-1,0.2-1.6,0.2
		c-1.1,0-2.1-0.4-2.9-1.1c-0.8-0.7-1.2-1.7-1.2-2.9c0-1,0.2-1.7,0.6-2.3s1-1,1.7-1.4c0.8-0.3,1.7-0.6,2.8-0.7
		c1.1-0.1,2.2-0.2,3.4-0.3V8.9c0-0.5-0.1-0.9-0.3-1.2c-0.2-0.3-0.4-0.6-0.7-0.7c-0.3-0.2-0.7-0.3-1.1-0.3c-0.4-0.1-0.9-0.1-1.3-0.1
		c-0.6,0-1.2,0.1-1.9,0.2c-0.7,0.1-1.4,0.4-2.1,0.6h-0.1V5.2c0.4-0.1,1-0.2,1.8-0.4s1.5-0.2,2.3-0.2c0.9,0,1.7,0.1,2.3,0.2
		c0.7,0.1,1.2,0.4,1.7,0.7c0.5,0.3,0.8,0.8,1.1,1.3c0.2,0.5,0.4,1.2,0.4,2V17.5z M148.7,14.4v-3.5c-0.6,0-1.4,0.1-2.3,0.2
		c-0.9,0.1-1.6,0.2-2.1,0.3c-0.6,0.2-1.1,0.4-1.5,0.8s-0.6,0.9-0.6,1.5c0,0.7,0.2,1.3,0.7,1.6s1.1,0.5,2,0.5c0.7,0,1.4-0.1,2-0.4
		S148.1,14.8,148.7,14.4z"/>
	<path class="st0" d="M165.3,17.5h-2.1v-7.1c0-0.6,0-1.1-0.1-1.6c-0.1-0.5-0.2-0.9-0.4-1.2c-0.2-0.3-0.5-0.5-0.8-0.7
		c-0.4-0.2-0.8-0.2-1.4-0.2c-0.6,0-1.2,0.1-1.8,0.4c-0.6,0.3-1.2,0.6-1.8,1.1v9.4h-2.1V4.9h2.1v1.4c0.7-0.5,1.3-1,2-1.3
		c0.7-0.3,1.4-0.5,2.2-0.5c1.4,0,2.4,0.4,3.1,1.2c0.7,0.8,1.1,2,1.1,3.5V17.5z"/>
	<path class="st0" d="M179.6,17.5h-2.1v-1.3c-0.6,0.5-1.2,0.9-1.9,1.2s-1.4,0.4-2.1,0.4c-1.5,0-2.7-0.6-3.6-1.7
		c-0.9-1.2-1.3-2.8-1.3-4.8c0-1.1,0.2-2,0.5-2.8c0.3-0.8,0.7-1.5,1.2-2.1c0.5-0.6,1.1-1,1.8-1.3s1.4-0.4,2.1-0.4
		c0.7,0,1.2,0.1,1.8,0.2s1,0.4,1.6,0.6V0h2.1V17.5z M177.5,14.4V7.2c-0.6-0.3-1.1-0.4-1.5-0.5c-0.4-0.1-0.9-0.1-1.5-0.1
		c-1.2,0-2.1,0.4-2.8,1.2s-1,2-1,3.5c0,1.5,0.3,2.6,0.8,3.4c0.5,0.8,1.3,1.2,2.4,1.2c0.6,0,1.2-0.1,1.8-0.4S176.9,14.8,177.5,14.4z"
		/>
	<path class="st0" d="M47.6,20.9l-10,38.5h-5.8l-8.1-32l-7.9,32h-5.6L0,20.9h5.3l8.1,32l8-32h5.2l8,32.3l8-32.3H47.6z"/>
	<path class="st0" d="M76.4,45.5H55.1c0,1.8,0.3,3.3,0.8,4.6c0.5,1.3,1.3,2.4,2.2,3.2c0.9,0.8,2,1.4,3.2,1.9s2.6,0.6,4.1,0.6
		c2,0,3.9-0.4,5.9-1.2c2-0.8,3.4-1.6,4.3-2.3h0.3v5.3c-1.6,0.7-3.3,1.3-5,1.7c-1.7,0.5-3.5,0.7-5.4,0.7c-4.8,0-8.5-1.3-11.2-3.9
		s-4-6.3-4-11.1c0-4.7,1.3-8.5,3.9-11.3c2.6-2.8,6-4.2,10.2-4.2c3.9,0,6.9,1.1,9,3.4c2.1,2.3,3.2,5.5,3.2,9.7V45.5z M71.7,41.8
		c0-2.6-0.7-4.5-1.9-5.9c-1.3-1.4-3.2-2.1-5.8-2.1c-2.6,0-4.7,0.8-6.2,2.3c-1.5,1.5-2.4,3.4-2.6,5.7H71.7z"/>
	<path class="st0" d="M88.7,59.5h-4.9V19.2h4.9V59.5z"/>
	<path class="st0" d="M119.7,57.7c-1.6,0.8-3.2,1.4-4.6,1.8s-3,0.6-4.6,0.6c-2.1,0-4-0.3-5.7-0.9c-1.7-0.6-3.2-1.5-4.5-2.8
		c-1.3-1.2-2.2-2.8-2.9-4.7c-0.7-1.9-1-4.1-1-6.7c0-4.7,1.3-8.4,3.9-11.1c2.6-2.7,6-4,10.3-4c1.7,0,3.3,0.2,4.9,0.7
		c1.6,0.5,3.1,1,4.4,1.7v5.4h-0.3c-1.5-1.2-3-2-4.6-2.7c-1.6-0.6-3.1-0.9-4.6-0.9c-2.8,0-4.9,0.9-6.5,2.8s-2.4,4.6-2.4,8.2
		c0,3.5,0.8,6.2,2.3,8s3.8,2.8,6.6,2.8c1,0,2-0.1,3-0.4c1-0.3,1.9-0.6,2.7-1c0.7-0.4,1.4-0.7,2-1.2s1.1-0.8,1.5-1h0.3V57.7z"/>
	<path class="st0" d="M150.6,45c0,4.7-1.2,8.4-3.6,11.2c-2.4,2.7-5.7,4.1-9.7,4.1c-4.1,0-7.3-1.4-9.7-4.1c-2.4-2.7-3.6-6.4-3.6-11.2
		s1.2-8.4,3.6-11.2c2.4-2.7,5.7-4.1,9.7-4.1c4.1,0,7.3,1.4,9.7,4.1C149.4,36.6,150.6,40.3,150.6,45z M145.6,45
		c0-3.7-0.7-6.5-2.2-8.3s-3.5-2.7-6.1-2.7c-2.6,0-4.7,0.9-6.1,2.7s-2.2,4.6-2.2,8.3c0,3.6,0.7,6.4,2.2,8.2c1.5,1.9,3.5,2.8,6.1,2.8
		c2.6,0,4.6-0.9,6.1-2.8C144.8,51.4,145.6,48.7,145.6,45z"/>
	<path class="st0" d="M200.3,59.5h-4.9V43c0-1.2-0.1-2.4-0.2-3.6c-0.1-1.2-0.3-2.1-0.7-2.8c-0.4-0.7-1-1.3-1.7-1.7
		c-0.7-0.4-1.8-0.6-3.2-0.6c-1.4,0-2.7,0.3-4.1,1c-1.4,0.7-2.7,1.5-4.1,2.6c0.1,0.4,0.1,0.9,0.1,1.4c0,0.5,0.1,1,0.1,1.6v18.5h-4.9
		V43c0-1.3-0.1-2.5-0.2-3.6c-0.1-1.1-0.3-2.1-0.7-2.8c-0.4-0.7-1-1.3-1.7-1.7c-0.7-0.4-1.8-0.6-3.2-0.6c-1.3,0-2.7,0.3-4,1
		c-1.3,0.7-2.7,1.5-4,2.5v21.6h-4.9V30.6h4.9v3.2c1.5-1.3,3-2.2,4.5-3c1.5-0.7,3.1-1.1,4.8-1.1c2,0,3.6,0.4,5,1.2
		c1.4,0.8,2.4,2,3.1,3.4c2-1.7,3.8-2.9,5.4-3.6c1.6-0.7,3.4-1.1,5.2-1.1c3.2,0,5.5,1,7,2.9c1.5,1.9,2.3,4.6,2.3,8.1V59.5z"/>
	<path class="st0" d="M233.9,45.5h-21.3c0,1.8,0.3,3.3,0.8,4.6c0.5,1.3,1.3,2.4,2.2,3.2c0.9,0.8,2,1.4,3.2,1.9s2.6,0.6,4.1,0.6
		c2,0,3.9-0.4,5.9-1.2c2-0.8,3.4-1.6,4.3-2.3h0.3v5.3c-1.6,0.7-3.3,1.3-5,1.7c-1.7,0.5-3.5,0.7-5.4,0.7c-4.8,0-8.5-1.3-11.2-3.9
		s-4-6.3-4-11.1c0-4.7,1.3-8.5,3.9-11.3c2.6-2.8,6-4.2,10.2-4.2c3.9,0,6.9,1.1,9,3.4c2.1,2.3,3.2,5.5,3.2,9.7V45.5z M229.1,41.8
		c0-2.6-0.7-4.5-1.9-5.9c-1.3-1.4-3.2-2.1-5.8-2.1c-2.6,0-4.7,0.8-6.2,2.3c-1.5,1.5-2.4,3.4-2.6,5.7H229.1z"/>
	<path class="st0" d="M249.8,20.9l-0.7,27.9h-4.4L244,20.9H249.8z M249.5,59.5h-5.3V54h5.3V59.5z"/>
</g>
<rect x="-249.5" y="166" style="fill:none;" width="262" height="70"/>
<text transform="matrix(1 0 0 1 -172.709 183.4746)"><tspan x="0" y="0" style="font-family:'Verdana'; font-size:23px;">Hello and</tspan><tspan x="-7.1" y="42" style="font-family:'Verdana'; font-size:53px;">Wel</tspan><tspan x="91.4" y="42" style="font-family:'Verdana'; font-size:53px;">-</tspan></text>
</svg>
