<?xml version="1.0" encoding="utf-8"?>
<!-- Generator: Adobe Illustrator 23.0.1, SVG Export Plug-In . SVG Version: 6.00 Build 0)  -->
<svg version="1.1" id="Layer_1" xmlns="http://www.w3.org/2000/svg" xmlns:xlink="http://www.w3.org/1999/xlink" x="0px" y="0px"
	 viewBox="0 0 291.7 59.4" style="enable-background:new 0 0 291.7 59.4;" xml:space="preserve">
<style type="text/css">
	.st0{fill:#B2B2B2;}
	.st1{fill:#FFFFFF;}
	.st2{fill:#506F8E;}
</style>
<path class="st0" d="M-92.5,241.4H-96v-6.1h-5.3v6.1h-3.6v-13.8h3.6v5.1h5.3v-5.1h3.6V241.4z"/>
<path class="st0" d="M-78.9,236.8h-7.6c0,0.8,0.4,1.4,0.9,1.9c0.6,0.4,1.4,0.6,2.5,0.6c0.7,0,1.4-0.1,2-0.4c0.7-0.3,1.2-0.5,1.6-0.8
	h0.4v2.7c-0.8,0.3-1.5,0.5-2.1,0.7s-1.4,0.2-2.2,0.2c-2.1,0-3.7-0.5-4.8-1.4c-1.1-0.9-1.7-2.3-1.7-4c0-1.7,0.5-3.1,1.6-4.1
	c1.1-1,2.5-1.5,4.3-1.5c1.7,0,3,0.4,3.8,1.3c0.9,0.9,1.3,2.1,1.3,3.7V236.8z M-82.2,234.9c0-0.7-0.2-1.2-0.5-1.6s-0.8-0.5-1.5-0.5
	c-0.6,0-1.2,0.2-1.6,0.5s-0.6,0.9-0.7,1.6H-82.2z"/>
<path class="st0" d="M-73.2,241.4h-3.3V227h3.3V241.4z"/>
<path class="st0" d="M-66.7,241.4H-70V227h3.3V241.4z"/>
<path class="st0" d="M-52.9,236.2c0,1.7-0.5,3.1-1.5,4c-1,1-2.4,1.5-4.2,1.5c-1.8,0-3.2-0.5-4.2-1.5c-1-1-1.5-2.3-1.5-4
	c0-1.7,0.5-3.1,1.5-4.1c1-1,2.4-1.5,4.2-1.5c1.8,0,3.2,0.5,4.2,1.5C-53.4,233.2-52.9,234.5-52.9,236.2z M-57,238.8
	c0.2-0.3,0.4-0.6,0.5-1c0.1-0.4,0.2-0.9,0.2-1.6c0-0.6-0.1-1.1-0.2-1.5c-0.1-0.4-0.3-0.7-0.5-1c-0.2-0.3-0.4-0.4-0.7-0.5
	c-0.3-0.1-0.6-0.2-0.9-0.2c-0.3,0-0.6,0-0.9,0.1c-0.3,0.1-0.5,0.3-0.7,0.5c-0.2,0.2-0.4,0.6-0.5,1c-0.1,0.4-0.2,0.9-0.2,1.6
	c0,0.6,0.1,1.1,0.2,1.5c0.1,0.4,0.3,0.8,0.5,1c0.2,0.2,0.4,0.4,0.7,0.5c0.3,0.1,0.6,0.2,0.9,0.2c0.3,0,0.6-0.1,0.9-0.2
	C-57.4,239.2-57.2,239-57,238.8z"/>
<path class="st0" d="M-37.7,240.3c-0.2,0.1-0.4,0.3-0.7,0.5c-0.3,0.2-0.5,0.3-0.8,0.5c-0.3,0.1-0.7,0.3-1,0.3
	c-0.4,0.1-0.7,0.1-1.2,0.1c-1,0-1.8-0.3-2.5-0.9s-1-1.4-1-2.3c0-0.8,0.2-1.4,0.5-1.9c0.3-0.5,0.8-0.9,1.4-1.1
	c0.6-0.3,1.4-0.5,2.3-0.6c0.9-0.1,1.9-0.2,2.8-0.3v-0.1c0-0.6-0.2-1-0.7-1.2c-0.5-0.2-1.2-0.3-2.1-0.3c-0.6,0-1.1,0.1-1.8,0.3
	c-0.6,0.2-1.1,0.3-1.3,0.5h-0.3v-2.5c0.4-0.1,0.9-0.2,1.7-0.3c0.8-0.1,1.6-0.2,2.4-0.2c1.9,0,3.3,0.3,4.1,0.9
	c0.8,0.6,1.3,1.5,1.3,2.8v7.1h-3.3V240.3z M-37.7,238.7v-2.2c-0.5,0-0.9,0.1-1.5,0.2c-0.5,0.1-0.9,0.1-1.2,0.2
	c-0.3,0.1-0.6,0.3-0.8,0.5c-0.2,0.2-0.3,0.5-0.3,0.8c0,0.2,0,0.4,0.1,0.5s0.1,0.3,0.3,0.4c0.1,0.1,0.3,0.2,0.5,0.3
	c0.2,0.1,0.5,0.1,0.9,0.1c0.3,0,0.7-0.1,1-0.2C-38.2,239.1-37.9,238.9-37.7,238.7z"/>
<path class="st0" d="M-20.8,241.4h-3.3v-5.2c0-0.4,0-0.8-0.1-1.3c0-0.4-0.1-0.7-0.2-0.9c-0.1-0.2-0.3-0.4-0.5-0.5
	c-0.2-0.1-0.6-0.2-1-0.2c-0.3,0-0.6,0-0.9,0.1c-0.3,0.1-0.7,0.3-1,0.5v7.4h-3.3V231h3.3v1.2c0.6-0.5,1.2-0.8,1.7-1.1
	c0.5-0.2,1.2-0.4,1.8-0.4c1.1,0,2,0.3,2.6,1c0.6,0.7,1,1.6,1,2.9V241.4z"/>
<path class="st0" d="M-7.6,241.4H-11v-1.1c-0.6,0.5-1.1,0.8-1.6,1c-0.5,0.2-1.1,0.3-1.7,0.3c-1.3,0-2.3-0.5-3-1.5
	c-0.8-1-1.1-2.3-1.1-4c0-0.9,0.1-1.7,0.4-2.4c0.3-0.7,0.6-1.3,1.1-1.8c0.4-0.5,0.9-0.8,1.5-1.1c0.6-0.3,1.2-0.4,1.8-0.4
	c0.6,0,1.1,0.1,1.5,0.2c0.4,0.1,0.8,0.3,1.2,0.5V227h3.3V241.4z M-11,238.6v-5.1c-0.2-0.1-0.5-0.2-0.7-0.2c-0.3,0-0.5-0.1-0.7-0.1
	c-0.9,0-1.5,0.3-2,0.8c-0.4,0.5-0.7,1.3-0.7,2.3c0,1,0.2,1.8,0.5,2.2c0.4,0.5,0.9,0.7,1.7,0.7c0.3,0,0.6-0.1,1-0.2
	S-11.2,238.8-11,238.6z"/>
<path class="st1" d="M49.5,202.2l-10.6,39.3H27.7l-7-25.6l-6.9,25.6H2.6L-8,202.2H2.6l6,27l7.2-27h10.1l6.9,27l6.3-27H49.5z"/>
<path class="st1" d="M84.8,228.4H63.1c0.1,2.3,1,4.1,2.7,5.3c1.6,1.2,4,1.8,7.2,1.8c2,0,3.9-0.4,5.8-1.1c1.9-0.7,3.4-1.5,4.5-2.3
	h1.1v7.6c-2.1,0.9-4.2,1.5-6.1,1.9s-4,0.6-6.3,0.6c-5.9,0-10.5-1.3-13.7-4c-3.2-2.7-4.7-6.5-4.7-11.4c0-4.9,1.5-8.8,4.5-11.6
	c3-2.9,7.1-4.3,12.3-4.3c4.8,0,8.4,1.2,10.9,3.7c2.4,2.4,3.6,5.9,3.6,10.5V228.4z M75.4,222.8c-0.1-2-0.5-3.5-1.5-4.5
	s-2.4-1.5-4.4-1.5c-1.8,0-3.3,0.5-4.5,1.4s-1.8,2.5-2,4.6H75.4z"/>
<path class="st1" d="M101.1,241.4h-9.5v-41h9.5V241.4z"/>
<path class="st1" d="M125.4,242.2c-2.6,0-4.9-0.3-7.1-0.9c-2.1-0.6-4-1.6-5.6-2.8c-1.6-1.3-2.8-2.9-3.6-4.9s-1.3-4.2-1.3-6.9
	c0-2.8,0.5-5.1,1.4-7.1c0.9-2,2.2-3.7,3.9-5c1.6-1.2,3.4-2.2,5.5-2.7s4.3-0.9,6.5-0.9c2,0,3.9,0.2,5.6,0.7c1.7,0.4,3.3,1,4.8,1.7
	v8.1h-1.3c-0.4-0.3-0.8-0.7-1.3-1.1c-0.5-0.4-1.2-0.8-1.9-1.2c-0.7-0.4-1.5-0.7-2.4-1c-0.9-0.3-1.9-0.4-3-0.4
	c-2.5,0-4.5,0.8-5.8,2.4s-2,3.8-2,6.6c0,2.8,0.7,5,2.1,6.5s3.4,2.2,5.9,2.2c1.2,0,2.3-0.1,3.2-0.4c1-0.3,1.8-0.6,2.4-1
	c0.6-0.4,1.1-0.7,1.6-1.1c0.5-0.4,0.9-0.8,1.3-1.1h1.3v8.1c-1.5,0.7-3.1,1.3-4.7,1.7S127.4,242.2,125.4,242.2z"/>
<path class="st1" d="M172,226.6c0,4.9-1.4,8.7-4.3,11.5c-2.8,2.8-6.8,4.2-12,4.2s-9.1-1.4-12-4.2c-2.8-2.8-4.3-6.6-4.3-11.5
	c0-4.9,1.4-8.8,4.3-11.5c2.9-2.8,6.8-4.2,11.9-4.2c5.2,0,9.2,1.4,12,4.2C170.6,217.9,172,221.8,172,226.6z M160.4,233.8
	c0.6-0.8,1.1-1.7,1.4-2.7c0.3-1.1,0.5-2.5,0.5-4.4c0-1.7-0.2-3.2-0.5-4.4c-0.3-1.2-0.8-2.1-1.3-2.8c-0.6-0.7-1.2-1.2-2-1.5
	c-0.8-0.3-1.6-0.4-2.6-0.4s-1.7,0.1-2.4,0.4c-0.7,0.2-1.4,0.7-2,1.5c-0.6,0.7-1,1.6-1.4,2.8c-0.3,1.2-0.5,2.7-0.5,4.5
	c0,1.6,0.1,3,0.4,4.2s0.7,2.1,1.3,2.9c0.6,0.7,1.2,1.2,2,1.5c0.8,0.3,1.7,0.5,2.7,0.5c0.9,0,1.7-0.1,2.5-0.4
	S159.8,234.5,160.4,233.8z"/>
<path class="st1" d="M207.8,220.4v21h-9.5v-14.8c0-1.4,0-2.7-0.1-3.7c-0.1-1-0.3-1.8-0.6-2.5s-0.8-1.1-1.4-1.4s-1.5-0.4-2.7-0.4
	c-0.9,0-1.8,0.2-2.7,0.6c-0.9,0.4-1.7,0.8-2.4,1.2v21h-9.5v-29.6h9.5v3.3c1.6-1.3,3.2-2.3,4.7-3c1.5-0.7,3.1-1.1,5-1.1
	c1.9,0,3.7,0.4,5.2,1.3s2.7,2.1,3.5,3.8c1.9-1.6,3.7-2.9,5.5-3.8c1.8-0.9,3.5-1.4,5.3-1.4c3.2,0,5.6,1,7.3,2.9
	c1.7,1.9,2.5,4.7,2.5,8.3v19.3h-9.5v-14.8c0-1.5,0-2.7-0.1-3.7s-0.3-1.8-0.6-2.5c-0.3-0.6-0.8-1.1-1.4-1.4s-1.6-0.4-2.7-0.4
	c-0.8,0-1.6,0.1-2.3,0.4C209.8,219.4,208.9,219.8,207.8,220.4z"/>
<path class="st1" d="M265.1,228.4h-21.7c0.1,2.3,1,4.1,2.7,5.3c1.6,1.2,4,1.8,7.2,1.8c2,0,3.9-0.4,5.8-1.1c1.9-0.7,3.4-1.5,4.5-2.3
	h1.1v7.6c-2.1,0.9-4.2,1.5-6.1,1.9s-4,0.6-6.3,0.6c-5.9,0-10.5-1.3-13.7-4c-3.2-2.7-4.7-6.5-4.7-11.4c0-4.9,1.5-8.8,4.5-11.6
	c3-2.9,7.1-4.3,12.3-4.3c4.8,0,8.4,1.2,10.9,3.7c2.4,2.4,3.6,5.9,3.6,10.5V228.4z M255.7,222.8c-0.1-2-0.5-3.5-1.5-4.5
	s-2.4-1.5-4.4-1.5c-1.8,0-3.3,0.5-4.5,1.4s-1.8,2.5-2,4.6H255.7z"/>
<path class="st1" d="M283.7,202.2l-1.2,27.9h-8.6l-1.2-27.9H283.7z M283.5,241.4h-10.7v-7h10.7V241.4z"/>
<path class="st2" d="M111.5,14.4H108V8.3h-5.3v6.1h-3.6V0.6h3.6v5.1h5.3V0.6h3.6V14.4z"/>
<path class="st2" d="M125.1,9.8h-7.6c0,0.8,0.4,1.4,0.9,1.9c0.6,0.4,1.4,0.6,2.5,0.6c0.7,0,1.4-0.1,2-0.4c0.7-0.3,1.2-0.5,1.6-0.8
	h0.4v2.7c-0.8,0.3-1.5,0.5-2.1,0.7s-1.4,0.2-2.2,0.2c-2.1,0-3.7-0.5-4.8-1.4c-1.1-0.9-1.7-2.3-1.7-4c0-1.7,0.5-3.1,1.6-4.1
	c1.1-1,2.5-1.5,4.3-1.5c1.7,0,3,0.4,3.8,1.3c0.9,0.9,1.3,2.1,1.3,3.7V9.8z M121.8,7.9c0-0.7-0.2-1.2-0.5-1.6s-0.8-0.5-1.5-0.5
	c-0.6,0-1.2,0.2-1.6,0.5s-0.6,0.9-0.7,1.6H121.8z"/>
<path class="st2" d="M130.8,14.4h-3.3V0h3.3V14.4z"/>
<path class="st2" d="M137.3,14.4H134V0h3.3V14.4z"/>
<path class="st2" d="M151.1,9.2c0,1.7-0.5,3.1-1.5,4c-1,1-2.4,1.5-4.2,1.5c-1.8,0-3.2-0.5-4.2-1.5c-1-1-1.5-2.3-1.5-4
	c0-1.7,0.5-3.1,1.5-4.1c1-1,2.4-1.5,4.2-1.5c1.8,0,3.2,0.5,4.2,1.5C150.6,6.2,151.1,7.5,151.1,9.2z M147,11.8c0.2-0.3,0.4-0.6,0.5-1
	c0.1-0.4,0.2-0.9,0.2-1.6c0-0.6-0.1-1.1-0.2-1.5c-0.1-0.4-0.3-0.7-0.5-1c-0.2-0.3-0.4-0.4-0.7-0.5C146,6.1,145.7,6,145.4,6
	c-0.3,0-0.6,0-0.9,0.1c-0.3,0.1-0.5,0.3-0.7,0.5c-0.2,0.2-0.4,0.6-0.5,1c-0.1,0.4-0.2,0.9-0.2,1.6c0,0.6,0.1,1.1,0.2,1.5
	c0.1,0.4,0.3,0.8,0.5,1c0.2,0.2,0.4,0.4,0.7,0.5c0.3,0.1,0.6,0.2,0.9,0.2c0.3,0,0.6-0.1,0.9-0.2C146.6,12.2,146.8,12,147,11.8z"/>
<path class="st2" d="M166.3,13.3c-0.2,0.1-0.4,0.3-0.7,0.5c-0.3,0.2-0.5,0.3-0.8,0.5c-0.3,0.1-0.7,0.3-1,0.3
	c-0.4,0.1-0.7,0.1-1.2,0.1c-1,0-1.8-0.3-2.5-0.9s-1-1.4-1-2.3c0-0.8,0.2-1.4,0.5-1.9c0.3-0.5,0.8-0.9,1.4-1.1
	c0.6-0.3,1.4-0.5,2.3-0.6c0.9-0.1,1.9-0.2,2.8-0.3V7.5c0-0.6-0.2-1-0.7-1.2c-0.5-0.2-1.2-0.3-2.1-0.3c-0.6,0-1.1,0.1-1.8,0.3
	c-0.6,0.2-1.1,0.3-1.3,0.5h-0.3V4.2c0.4-0.1,0.9-0.2,1.7-0.3c0.8-0.1,1.6-0.2,2.4-0.2c1.9,0,3.3,0.3,4.1,0.9
	c0.8,0.6,1.3,1.5,1.3,2.8v7.1h-3.3V13.3z M166.3,11.7V9.5c-0.5,0-0.9,0.1-1.5,0.2c-0.5,0.1-0.9,0.1-1.2,0.2
	c-0.3,0.1-0.6,0.3-0.8,0.5c-0.2,0.2-0.3,0.5-0.3,0.8c0,0.2,0,0.4,0.1,0.5s0.1,0.3,0.3,0.4c0.1,0.1,0.3,0.2,0.5,0.3
	c0.2,0.1,0.5,0.1,0.9,0.1c0.3,0,0.7-0.1,1-0.2C165.8,12.1,166.1,11.9,166.3,11.7z"/>
<path class="st2" d="M183.2,14.4h-3.3V9.3c0-0.4,0-0.8-0.1-1.3c0-0.4-0.1-0.7-0.2-0.9c-0.1-0.2-0.3-0.4-0.5-0.5
	c-0.2-0.1-0.6-0.2-1-0.2c-0.3,0-0.6,0-0.9,0.1c-0.3,0.1-0.7,0.3-1,0.5v7.4h-3.3V4h3.3v1.2c0.6-0.5,1.2-0.8,1.7-1.1
	c0.5-0.2,1.2-0.4,1.8-0.4c1.1,0,2,0.3,2.6,1c0.6,0.7,1,1.6,1,2.9V14.4z"/>
<path class="st2" d="M196.4,14.4H193v-1.1c-0.6,0.5-1.1,0.8-1.6,1c-0.5,0.2-1.1,0.3-1.7,0.3c-1.3,0-2.3-0.5-3-1.5
	c-0.8-1-1.1-2.3-1.1-4c0-0.9,0.1-1.7,0.4-2.4c0.3-0.7,0.6-1.3,1.1-1.8c0.4-0.5,0.9-0.8,1.5-1.1c0.6-0.3,1.2-0.4,1.8-0.4
	c0.6,0,1.1,0.1,1.5,0.2c0.4,0.1,0.8,0.3,1.2,0.5V0h3.3V14.4z M193,11.6V6.4c-0.2-0.1-0.5-0.2-0.7-0.2c-0.3,0-0.5-0.1-0.7-0.1
	c-0.9,0-1.5,0.3-2,0.8c-0.4,0.5-0.7,1.3-0.7,2.3c0,1,0.2,1.8,0.5,2.2c0.4,0.5,0.9,0.7,1.7,0.7c0.3,0,0.6-0.1,1-0.2
	S192.8,11.8,193,11.6z"/>
<path class="st1" d="M57.5,19.2L46.9,58.4H35.7l-7-25.6l-6.9,25.6H10.6L0,19.2h10.6l6,27l7.2-27h10.1l6.9,27l6.3-27H57.5z"/>
<path class="st1" d="M92.8,45.4H71.1c0.1,2.3,1,4.1,2.7,5.3c1.6,1.2,4,1.8,7.2,1.8c2,0,3.9-0.4,5.8-1.1c1.9-0.7,3.4-1.5,4.5-2.3h1.1
	v7.6c-2.1,0.9-4.2,1.5-6.1,1.9s-4,0.6-6.3,0.6c-5.9,0-10.5-1.3-13.7-4c-3.2-2.7-4.7-6.5-4.7-11.4c0-4.9,1.5-8.8,4.5-11.6
	c3-2.9,7.1-4.3,12.3-4.3c4.8,0,8.4,1.2,10.9,3.7c2.4,2.4,3.6,5.9,3.6,10.5V45.4z M83.4,39.8c-0.1-2-0.5-3.5-1.5-4.5
	s-2.4-1.5-4.4-1.5c-1.8,0-3.3,0.5-4.5,1.4s-1.8,2.5-2,4.6H83.4z"/>
<path class="st1" d="M109.1,58.4h-9.5v-41h9.5V58.4z"/>
<path class="st1" d="M133.4,59.2c-2.6,0-4.9-0.3-7.1-0.9c-2.1-0.6-4-1.6-5.6-2.8c-1.6-1.3-2.8-2.9-3.6-4.9s-1.3-4.2-1.3-6.9
	c0-2.8,0.5-5.1,1.4-7.1c0.9-2,2.2-3.7,3.9-5c1.6-1.2,3.4-2.2,5.5-2.7s4.3-0.9,6.5-0.9c2,0,3.9,0.2,5.6,0.7c1.7,0.4,3.3,1,4.8,1.7
	v8.1h-1.3c-0.4-0.3-0.8-0.7-1.3-1.1c-0.5-0.4-1.2-0.8-1.9-1.2c-0.7-0.4-1.5-0.7-2.4-1c-0.9-0.3-1.9-0.4-3-0.4
	c-2.5,0-4.5,0.8-5.8,2.4s-2,3.8-2,6.6c0,2.8,0.7,5,2.1,6.5s3.4,2.2,5.9,2.2c1.2,0,2.3-0.1,3.2-0.4c1-0.3,1.8-0.6,2.4-1
	c0.6-0.4,1.1-0.7,1.6-1.1c0.5-0.4,0.9-0.8,1.3-1.1h1.3v8.1c-1.5,0.7-3.1,1.3-4.7,1.7S135.4,59.2,133.4,59.2z"/>
<path class="st1" d="M180,43.6c0,4.9-1.4,8.7-4.3,11.5c-2.8,2.8-6.8,4.2-12,4.2s-9.1-1.4-12-4.2c-2.8-2.8-4.3-6.6-4.3-11.5
	c0-4.9,1.4-8.8,4.3-11.5c2.9-2.8,6.8-4.2,11.9-4.2c5.2,0,9.2,1.4,12,4.2C178.6,34.9,180,38.8,180,43.6z M168.4,50.8
	c0.6-0.8,1.1-1.7,1.4-2.7c0.3-1.1,0.5-2.5,0.5-4.4c0-1.7-0.2-3.2-0.5-4.4c-0.3-1.2-0.8-2.1-1.3-2.8c-0.6-0.7-1.2-1.2-2-1.5
	c-0.8-0.3-1.6-0.4-2.6-0.4s-1.7,0.1-2.4,0.4c-0.7,0.2-1.4,0.7-2,1.5c-0.6,0.7-1,1.6-1.4,2.8c-0.3,1.2-0.5,2.7-0.5,4.5
	c0,1.6,0.1,3,0.4,4.2s0.7,2.1,1.3,2.9c0.6,0.7,1.2,1.2,2,1.5c0.8,0.3,1.7,0.5,2.7,0.5c0.9,0,1.7-0.1,2.5-0.4S167.8,51.5,168.4,50.8z
	"/>
<path class="st1" d="M215.8,37.4v21h-9.5V43.6c0-1.4,0-2.7-0.1-3.7c-0.1-1-0.3-1.8-0.6-2.5s-0.8-1.1-1.4-1.4s-1.5-0.4-2.7-0.4
	c-0.9,0-1.8,0.2-2.7,0.6c-0.9,0.4-1.7,0.8-2.4,1.2v21h-9.5V28.8h9.5v3.3c1.6-1.3,3.2-2.3,4.7-3c1.5-0.7,3.1-1.1,5-1.1
	c1.9,0,3.7,0.4,5.2,1.3s2.7,2.1,3.5,3.8c1.9-1.6,3.7-2.9,5.5-3.8c1.8-0.9,3.5-1.4,5.3-1.4c3.2,0,5.6,1,7.3,2.9
	c1.7,1.9,2.5,4.7,2.5,8.3v19.3h-9.5V43.6c0-1.5,0-2.7-0.1-3.7s-0.3-1.8-0.6-2.5c-0.3-0.6-0.8-1.1-1.4-1.4s-1.6-0.4-2.7-0.4
	c-0.8,0-1.6,0.1-2.3,0.4C217.8,36.4,216.9,36.8,215.8,37.4z"/>
<path class="st1" d="M273.1,45.4h-21.7c0.1,2.3,1,4.1,2.7,5.3c1.6,1.2,4,1.8,7.2,1.8c2,0,3.9-0.4,5.8-1.1c1.9-0.7,3.4-1.5,4.5-2.3
	h1.1v7.6c-2.1,0.9-4.2,1.5-6.1,1.9s-4,0.6-6.3,0.6c-5.9,0-10.5-1.3-13.7-4c-3.2-2.7-4.7-6.5-4.7-11.4c0-4.9,1.5-8.8,4.5-11.6
	c3-2.9,7.1-4.3,12.3-4.3c4.8,0,8.4,1.2,10.9,3.7c2.4,2.4,3.6,5.9,3.6,10.5V45.4z M263.7,39.8c-0.1-2-0.5-3.5-1.5-4.5
	s-2.4-1.5-4.4-1.5c-1.8,0-3.3,0.5-4.5,1.4s-1.8,2.5-2,4.6H263.7z"/>
<path class="st1" d="M291.7,19.2l-1.2,27.9h-8.6l-1.2-27.9H291.7z M291.5,58.4h-10.7v-7h10.7V58.4z"/>
</svg>
