<?xml version="1.0" encoding="utf-8"?>
<!-- Generator: Adobe Illustrator 23.0.1, SVG Export Plug-In . SVG Version: 6.00 Build 0)  -->
<svg version="1.1" id="Lager_1" xmlns="http://www.w3.org/2000/svg" xmlns:xlink="http://www.w3.org/1999/xlink" x="0px" y="0px"
	 viewBox="0 0 128 128" style="enable-background:new 0 0 128 128;" xml:space="preserve">
<style type="text/css">
	.st0{fill:#F0DB4F;}
	.st1{fill:#323330;}
	.st2{fill:none;}
	.st3{font-family:'Verdana';}
	.st4{font-size:12.6691px;}
</style>
<g>
	<g>
		<g>
			<circle class="st0" cx="63" cy="54.6" r="52.8"/>
		</g>
	</g>
	<g id="Layer_1_1_">
		<g>
			<g>
				<path class="st1" d="M46.6,34.1h9.2V60c0,11.6-5.6,15.7-14.5,15.7c-2.2,0-5-0.3-6.8-1l1.1-7.5c1.3,0.4,3,0.7,4.8,0.7
					c3.9,0,6.3-1.8,6.3-8L46.6,34.1L46.6,34.1z"/>
				<path class="st1" d="M63.9,65.6c2.4,1.3,6.3,2.5,10.2,2.5c4.2,0,6.4-1.8,6.4-4.5c0-2.5-1.9-4-6.9-5.7
					c-6.8-2.4-11.3-6.2-11.3-12.2c0-6.9,5.9-12.1,15.5-12.1c4.6,0,8,1,10.5,2.1L86.3,43c-1.6-0.7-4.5-1.9-8.4-1.9
					c-4,0-5.9,1.9-5.9,3.9c0,2.6,2.2,3.8,7.6,5.8c7.2,2.6,10.6,6.4,10.6,12.2c0,6.9-5.2,12.7-16.5,12.7c-4.6,0-9.3-1.3-11.6-2.5
					L63.9,65.6z"/>
			</g>
		</g>
	</g>
</g>
<rect x="25.3" y="114.3" class="st2" width="100" height="16.5"/>
<text transform="matrix(1 0 0 1 25.3187 123.9755)" class="st3 st4">JAVASCRIPT</text>
</svg>
