<?xml version="1.0" encoding="utf-8"?>
<!-- Generator: Adobe Illustrator 23.0.1, SVG Export Plug-In . SVG Version: 6.00 Build 0)  -->
<svg version="1.1"
	 id="svg2" xmlns:cc="http://creativecommons.org/ns#" xmlns:dc="http://purl.org/dc/elements/1.1/" xmlns:inkscape="http://www.inkscape.org/namespaces/inkscape" xmlns:rdf="http://www.w3.org/1999/02/22-rdf-syntax-ns#" xmlns:sodipodi="http://sodipodi.sourceforge.net/DTD/sodipodi-0.dtd" xmlns:svg="http://www.w3.org/2000/svg"
	 xmlns="http://www.w3.org/2000/svg" xmlns:xlink="http://www.w3.org/1999/xlink" x="0px" y="0px" viewBox="0 0 491 407"
	 style="enable-background:new 0 0 491 407;" xml:space="preserve">
<style type="text/css">
	.st0{fill:#498CBA;}
</style>
<path id="rect2995-4" class="st0" d="M49.1,0C21.9,0,0,18.2,0,40.7v325.6C0,388.8,21.9,407,49.1,407h392.8
	c27.2,0,49.1-18.2,49.1-40.7V40.7C491,18.2,469.1,0,441.9,0H49.1z M138.4,51.8c18.8,0,34.1,15.5,34.1,34.7s-15.3,34.8-34.1,34.8
	s-34.1-15.6-34.1-34.8S119.5,51.8,138.4,51.8z M317,142.2c3.9,0,7.8,0.2,13.1,0.5c25.7,1.6,54.4,22.1,55.2,70
	c0.7,39.5,0.5,102.1,0.5,125.1h-58.5c0-23.6,0.2-72.3,0.2-106.7c0-15.7-6.9-36.8-31.5-36.8c-27.1,0-33.7,25.6-33.7,36.8
	c0,33.1-0.3,85.8-0.3,106.7h-58.1c0-35.3,0.4-156.7,0.4-190.9c30,0,44.4-0.1,55.4-0.1c0,11.2-0.1,18.7-0.1,26.9
	c9.2-18.9,34.2-30.7,44.9-31.2C309.4,142.4,313.1,142.2,317,142.2z M109.2,147.8h58.3v190.1h-58.3V147.8z"/>
</svg>
