<?xml version="1.0" encoding="utf-8"?>
<!-- Generator: Adobe Illustrator 23.0.1, SVG Export Plug-In . SVG Version: 6.00 Build 0)  -->
<svg version="1.1" id="Layer_1" xmlns="http://www.w3.org/2000/svg" xmlns:xlink="http://www.w3.org/1999/xlink" x="0px" y="0px"
	 viewBox="0 0 64.1 11.3" style="enable-background:new 0 0 64.1 11.3;" xml:space="preserve">
<style type="text/css">
	.st0{fill:#FFFFFF;}
</style>
<g>
	<path class="st0" d="M5.5,9.1H0V0.4h1.2v7.7h4.4V9.1z"/>
	<path class="st0" d="M12.2,5.8c0,1.1-0.3,1.9-0.8,2.5s-1.3,0.9-2.2,0.9C8.2,9.3,7.5,9,6.9,8.4S6.1,6.9,6.1,5.8s0.3-1.9,0.8-2.5
		s1.3-0.9,2.2-0.9c0.9,0,1.7,0.3,2.2,0.9S12.2,4.8,12.2,5.8z M11,5.8C11,5,10.9,4.4,10.5,4S9.7,3.3,9.2,3.3C8.6,3.3,8.1,3.5,7.8,4
		S7.3,5,7.3,5.8c0,0.8,0.2,1.4,0.5,1.9s0.8,0.6,1.4,0.6c0.6,0,1-0.2,1.4-0.6S11,6.7,11,5.8z"/>
	<path class="st0" d="M19.3,9.1h-1.1V5.4c0-0.3,0-0.6-0.1-0.8S18.1,4.1,18,3.9c-0.1-0.2-0.2-0.3-0.4-0.4s-0.4-0.1-0.7-0.1
		c-0.3,0-0.6,0.1-0.9,0.2S15.3,4,15,4.2v4.9h-1.1V2.6H15v0.7C15.3,3,15.7,2.8,16,2.6s0.7-0.2,1.1-0.2c0.7,0,1.2,0.2,1.6,0.6
		s0.6,1,0.6,1.8V9.1z"/>
	<path class="st0" d="M26.8,9.1h-1.1V8.4c-0.3,0.3-0.6,0.5-1,0.6S24,9.3,23.6,9.3c-0.8,0-1.4-0.3-1.9-0.9S21,7,21,5.9
		c0-0.6,0.1-1,0.2-1.5s0.4-0.8,0.6-1.1c0.3-0.3,0.6-0.5,0.9-0.7s0.7-0.2,1.1-0.2c0.3,0,0.6,0,0.9,0.1s0.5,0.2,0.8,0.3V0h1.1V9.1z
		 M25.7,7.5V3.8c-0.3-0.1-0.6-0.2-0.8-0.3s-0.5-0.1-0.8-0.1c-0.6,0-1.1,0.2-1.4,0.6s-0.5,1-0.5,1.8c0,0.8,0.1,1.4,0.4,1.8
		s0.7,0.6,1.3,0.6c0.3,0,0.6-0.1,0.9-0.2S25.4,7.7,25.7,7.5z"/>
	<path class="st0" d="M34.5,5.8c0,1.1-0.3,1.9-0.8,2.5s-1.3,0.9-2.2,0.9c-0.9,0-1.7-0.3-2.2-0.9s-0.8-1.5-0.8-2.5s0.3-1.9,0.8-2.5
		s1.3-0.9,2.2-0.9c0.9,0,1.7,0.3,2.2,0.9S34.5,4.8,34.5,5.8z M33.4,5.8c0-0.8-0.2-1.5-0.5-1.9s-0.8-0.6-1.4-0.6
		c-0.6,0-1.1,0.2-1.4,0.6s-0.5,1-0.5,1.9c0,0.8,0.2,1.4,0.5,1.9s0.8,0.6,1.4,0.6c0.6,0,1-0.2,1.4-0.6S33.4,6.7,33.4,5.8z"/>
	<path class="st0" d="M41.7,9.1h-1.1V5.4c0-0.3,0-0.6-0.1-0.8s-0.1-0.5-0.2-0.6c-0.1-0.2-0.2-0.3-0.4-0.4s-0.4-0.1-0.7-0.1
		c-0.3,0-0.6,0.1-0.9,0.2S37.6,4,37.3,4.2v4.9h-1.1V2.6h1.1v0.7C37.7,3,38,2.8,38.4,2.6s0.7-0.2,1.1-0.2c0.7,0,1.2,0.2,1.6,0.6
		s0.6,1,0.6,1.8V9.1z"/>
	<path class="st0" d="M46.1,7.4l-1.7,3.8h-0.9l1-3.8H46.1z"/>
	<path class="st0" d="M54.8,5.6c0,0.6-0.1,1.2-0.2,1.7S54.3,8.1,54,8.4c-0.3,0.3-0.7,0.5-1.1,0.7S52,9.3,51.5,9.3
		c-0.5,0-1-0.1-1.4-0.2s-0.7-0.4-1-0.6c-0.3-0.3-0.5-0.7-0.7-1.2s-0.2-1-0.2-1.7V0.4h1.2v5.3c0,0.5,0,0.8,0.1,1.1s0.2,0.5,0.3,0.7
		c0.2,0.3,0.4,0.4,0.7,0.6s0.6,0.2,1.1,0.2c0.4,0,0.8-0.1,1.1-0.2s0.5-0.3,0.7-0.6c0.2-0.2,0.3-0.5,0.3-0.8s0.1-0.6,0.1-1.1V0.4h1.2
		V5.6z"/>
	<path class="st0" d="M64.1,9.1h-1.5l-3.5-3.9l-0.9,0.9v3h-1.2V0.4h1.2v4.6l4.2-4.6h1.4L60,4.5L64.1,9.1z"/>
</g>
</svg>
