<?xml version="1.0" encoding="utf-8"?>
<!-- Generator: Adobe Illustrator 23.0.1, SVG Export Plug-In . SVG Version: 6.00 Build 0)  -->
<svg version="1.1" id="Layer_1" xmlns="http://www.w3.org/2000/svg" xmlns:xlink="http://www.w3.org/1999/xlink" x="0px" y="0px"
	 viewBox="0 0 41.8 19.7" style="enable-background:new 0 0 41.8 19.7;" xml:space="preserve">
<style type="text/css">
	.st0{fill:#FFFFFF;}
</style>
<g>
	<path class="st0" d="M71.4-75h-5.5v-8.7h1.2v7.7h4.4L71.4-75L71.4-75z"/>
	<path class="st0" d="M78.1-78.3c0,1.1-0.3,1.9-0.8,2.5s-1.3,1-2.3,1c-0.9,0-1.7-0.3-2.2-0.9S72-77.2,72-78.3s0.3-1.9,0.8-2.5
		s1.3-0.9,2.2-0.9c0.9,0,1.7,0.3,2.2,0.9S78.1-79.3,78.1-78.3z M76.9-78.3c0-0.8-0.2-1.5-0.5-1.9s-0.8-0.6-1.4-0.6s-1.1,0.2-1.4,0.6
		s-0.5,1-0.5,1.9c0,0.8,0.2,1.4,0.5,1.9s0.8,0.6,1.4,0.6s1-0.2,1.4-0.6S76.9-77.4,76.9-78.3z"/>
	<path class="st0" d="M85.2-75h-1.1v-3.7c0-0.3,0-0.6-0.1-0.8s0-0.5-0.1-0.7s-0.2-0.3-0.4-0.4s-0.4-0.1-0.7-0.1
		c-0.3,0-0.6,0.1-0.9,0.2s-0.6,0.3-0.9,0.6v4.9h-1.1v-6.5H81v0.7c0.3-0.3,0.7-0.5,1.1-0.7s0.7-0.2,1.1-0.2c0.7,0,1.2,0.2,1.6,0.6
		s0.6,1,0.6,1.8v4.3H85.2z"/>
	<path class="st0" d="M92.7-75h-1.1v-0.7c-0.3,0.3-0.6,0.5-1,0.6s-0.7,0.2-1.1,0.2c-0.8,0-1.4-0.3-1.9-0.9s-0.7-1.4-0.7-2.5
		c0-0.6,0.1-1,0.2-1.5s0.4-0.8,0.6-1.1c0.3-0.3,0.6-0.5,0.9-0.7s0.7-0.2,1.1-0.2c0.3,0,0.6,0,0.9,0.1s0.5,0.2,0.8,0.3v-2.8h1.1v9.2
		H92.7z M91.6-76.6v-3.8c-0.3-0.1-0.6-0.2-0.8-0.3s-0.5-0.1-0.8-0.1c-0.6,0-1.1,0.2-1.4,0.6S88-79,88-78.3c0,0.8,0.1,1.4,0.4,1.8
		s0.7,0.6,1.3,0.6c0.3,0,0.6-0.1,0.9-0.2S91.3-76.4,91.6-76.6z"/>
	<path class="st0" d="M100.4-78.3c0,1.1-0.3,1.9-0.8,2.5s-1.3,0.9-2.2,0.9c-0.9,0-1.7-0.3-2.2-0.9s-0.8-1.5-0.8-2.5s0.3-1.9,0.8-2.5
		s1.3-0.9,2.2-0.9c0.9,0,1.7,0.3,2.2,0.9S100.4-79.3,100.4-78.3z M99.3-78.3c0-0.8-0.2-1.5-0.5-1.9s-0.8-0.6-1.4-0.6
		s-1.1,0.2-1.4,0.6s-0.5,1-0.5,1.9c0,0.8,0.2,1.4,0.5,1.9s0.8,0.6,1.4,0.6s1-0.2,1.4-0.6S99.3-77.4,99.3-78.3z"/>
	<path class="st0" d="M107.6-75h-1.1v-3.7c0-0.3,0-0.6-0.1-0.8s-0.1-0.5-0.2-0.6c-0.1-0.2-0.2-0.3-0.4-0.4s-0.4-0.1-0.7-0.1
		c-0.3,0-0.6,0.1-0.9,0.2s-0.6,0.3-0.9,0.6v4.9h-1.1v-6.5h1.1v0.7c0.3-0.3,0.7-0.5,1.1-0.7s0.7-0.2,1.1-0.2c0.7,0,1.2,0.2,1.6,0.6
		s0.6,1,0.6,1.8L107.6-75L107.6-75z"/>
	<path class="st0" d="M112-76.7l-1.7,3.8h-0.9l1-3.8H112z"/>
	<path class="st0" d="M120.7-78.5c0,0.6-0.1,1.2-0.2,1.7s-0.4,0.9-0.7,1.2c-0.3,0.3-0.7,0.5-1.1,0.7s-0.9,0.2-1.4,0.2
		s-1-0.1-1.4-0.2s-0.7-0.4-1-0.6c-0.3-0.3-0.5-0.7-0.7-1.2s-0.2-1-0.2-1.7v-5.2h1.2v5.3c0,0.5,0,0.8,0.1,1.1s0.2,0.5,0.3,0.7
		c0.2,0.3,0.4,0.4,0.7,0.6s0.6,0.2,1.1,0.2c0.4,0,0.8-0.1,1.1-0.2s0.5-0.3,0.7-0.6c0.2-0.2,0.3-0.5,0.3-0.8s0.1-0.6,0.1-1.1v-5.3
		h1.2L120.7-78.5L120.7-78.5z"/>
	<path class="st0" d="M130-75h-1.5l-3.5-3.9l-0.9,0.9v3H123v-8.7h1.2v4.6l4.2-4.6h1.4l-3.9,4.1L130-75z"/>
</g>
<path class="st0" d="M5.5,9.1H0V0.4h1.2v7.7h4.4v1H5.5z"/>
<path class="st0" d="M12.2,5.8c0,1.1-0.3,1.9-0.8,2.5s-1.3,0.9-2.2,0.9C8.3,9.3,7.5,9,7,8.4S6.2,6.9,6.2,5.8S6.5,3.9,7,3.3
	s1.3-0.9,2.2-0.9s1.7,0.3,2.2,0.9S12.2,4.8,12.2,5.8z M11.1,5.8c0-0.8-0.2-1.4-0.5-1.8S9.8,3.3,9.2,3.3C8.6,3.3,8.1,3.5,7.8,4
	C7.5,4.5,7.3,5,7.3,5.8s0.2,1.4,0.5,1.9s0.8,0.6,1.4,0.6s1-0.2,1.4-0.6S11.1,6.7,11.1,5.8z"/>
<path class="st0" d="M19.4,9.1h-1.1V5.4c0-0.3,0-0.6-0.1-0.8S18.1,4.1,18,4c-0.1-0.2-0.2-0.3-0.4-0.4s-0.4-0.2-0.7-0.2
	S16.3,3.5,16,3.6S15.3,4,15,4.2v4.9h-1.1V2.6H15v0.7c0.3-0.3,0.7-0.5,1.1-0.7c0.4-0.2,0.7-0.2,1.1-0.2c0.7,0,1.2,0.2,1.6,0.6
	s0.6,1,0.6,1.8C19.4,4.8,19.4,9.1,19.4,9.1z"/>
<path class="st0" d="M26.8,9.1h-1.1V8.4c-0.3,0.3-0.6,0.5-1,0.6S24,9.2,23.6,9.2c-0.8,0-1.4-0.3-1.9-0.9S21,7,21,5.9
	c0-0.6,0.1-1,0.2-1.5s0.4-0.8,0.6-1.1c0.4-0.3,0.7-0.5,1.1-0.7s0.7-0.2,1.1-0.2c0.3,0,0.6,0,0.9,0.1s0.5,0.2,0.8,0.3V0h1.1V9.1z
	 M25.7,7.5V3.8c-0.3-0.1-0.6-0.2-0.8-0.3s-0.5-0.1-0.8-0.1c-0.6,0-1.1,0.2-1.4,0.6s-0.5,1-0.5,1.8s0.1,1.4,0.4,1.8
	c0.3,0.4,0.7,0.6,1.3,0.6c0.3,0,0.6-0.1,0.9-0.2S25.4,7.7,25.7,7.5z"/>
<path class="st0" d="M34.6,5.8c0,1.1-0.3,1.9-0.8,2.5s-1.3,0.9-2.2,0.9c-0.9,0-1.7-0.3-2.2-0.9s-0.8-1.5-0.8-2.5s0.3-1.9,0.8-2.5
	s1.3-0.9,2.2-0.9c0.9,0,1.7,0.3,2.2,0.9S34.6,4.8,34.6,5.8z M33.4,5.8c0-0.8-0.2-1.4-0.5-1.8s-0.8-0.6-1.4-0.6
	c-0.6,0-1.1,0.2-1.4,0.6s-0.5,1-0.5,1.9c0,0.8,0.2,1.4,0.5,1.9s0.8,0.6,1.4,0.6c0.6,0,1-0.2,1.4-0.6S33.4,6.7,33.4,5.8z"/>
<path class="st0" d="M41.7,9.1h-1.1V5.4c0-0.3,0-0.6-0.1-0.8S40.4,4.1,40.3,4c-0.1-0.2-0.2-0.3-0.4-0.4s-0.4-0.1-0.7-0.1
	s-0.6,0.1-0.9,0.2S37.7,4,37.4,4.2v4.9h-1.1V2.6h1.1v0.7c0.3-0.3,0.7-0.5,1.1-0.7s0.7-0.2,1.1-0.2c0.7,0,1.2,0.2,1.6,0.6
	s0.6,1,0.6,1.8L41.7,9.1L41.7,9.1z"/>
<path class="st0" d="M32.6,15.9c0,0.6-0.1,1.2-0.2,1.7c-0.1,0.5-0.4,0.9-0.7,1.2c-0.3,0.3-0.7,0.5-1.1,0.7c-0.4,0.2-0.9,0.2-1.4,0.2
	s-1-0.1-1.4-0.2s-0.7-0.4-1-0.6c-0.3-0.3-0.5-0.7-0.7-1.2c-0.2-0.5-0.2-1.1-0.2-1.8v-5.2h1.2V16c0,0.5,0,0.8,0.1,1.1
	s0.2,0.5,0.3,0.7c0.2,0.3,0.4,0.4,0.7,0.6s0.6,0.2,1.1,0.2c0.4,0,0.8-0.1,1.1-0.2c0.3-0.1,0.5-0.3,0.7-0.6c0.2-0.2,0.3-0.5,0.3-0.8
	s0.1-0.6,0.1-1.1v-5.3h1.2L32.6,15.9L32.6,15.9z"/>
<path class="st0" d="M41.8,19.4h-1.5l-3.4-3.9L36,16.4v3h-1.2v-8.7H36v4.6l4.2-4.6h1.4l-3.9,4.1L41.8,19.4z"/>
</svg>
