<?xml version="1.0" encoding="utf-8"?>
<!-- Generator: Adobe Illustrator 23.0.1, SVG Export Plug-In . SVG Version: 6.00 Build 0)  -->
<svg version="1.1" id="Layer_1" xmlns="http://www.w3.org/2000/svg" xmlns:xlink="http://www.w3.org/1999/xlink" x="0px" y="0px"
	 viewBox="0 0 36.9 22.9" style="enable-background:new 0 0 36.9 22.9;" xml:space="preserve">
<style type="text/css">
	.st0{fill:#FFFFFF;}
</style>
<path class="st0" d="M4.9,8H0V0h1.5v6.7h3.4V8z"/>
<path class="st0" d="M8.2,8.1c-0.9,0-1.5-0.3-2-0.9S5.5,5.8,5.5,5c0-0.9,0.3-1.6,0.8-2.2S7.5,2,8.3,2c0.8,0,1.4,0.3,2,0.8
	S11,4.1,11,5c0,0.9-0.3,1.7-0.8,2.3S9,8.1,8.2,8.1z M8.3,7c0.9,0,1.3-0.7,1.3-2c0-0.6-0.1-1.1-0.3-1.4s-0.5-0.5-1-0.5
	c-0.5,0-0.8,0.2-1,0.5S6.9,4.4,6.9,5c0,0.6,0.1,1.1,0.4,1.5S7.9,7,8.3,7z"/>
<path class="st0" d="M17.2,8h-1.3V4.3c0-0.4-0.1-0.7-0.3-0.9s-0.4-0.3-0.7-0.3c-0.3,0-0.7,0.2-0.9,0.5S13.6,4.3,13.6,5v3h-1.3V2.1
	h1.2v1.4c0.4-1,1-1.5,1.8-1.5c0.5,0,1,0.2,1.3,0.5s0.6,0.9,0.6,1.7V8z"/>
<path class="st0" d="M23.6,8h-1.2V6.8c-0.3,0.9-0.9,1.3-1.7,1.3c-0.7,0-1.3-0.3-1.7-0.9S18.4,5.9,18.4,5c0-0.8,0.2-1.6,0.6-2.2
	s1-0.9,1.7-0.9c0.8,0,1.3,0.3,1.6,1V0h1.3V8z M22.3,4.5c0-0.5-0.1-0.9-0.3-1.1S21.4,3,21,3c-0.4,0-0.7,0.2-0.9,0.5S19.8,4.4,19.8,5
	c0,1.3,0.4,2,1.2,2c0.3,0,0.6-0.1,0.9-0.4s0.4-0.6,0.4-1.1V4.5z"/>
<path class="st0" d="M27.5,8.1c-0.9,0-1.5-0.3-2-0.9S24.8,5.8,24.8,5c0-0.9,0.3-1.6,0.8-2.2s1.2-0.9,2-0.9c0.8,0,1.4,0.3,2,0.8
	s0.8,1.3,0.8,2.2c0,0.9-0.3,1.7-0.8,2.3S28.3,8.1,27.5,8.1z M27.6,7c0.9,0,1.3-0.7,1.3-2c0-0.6-0.1-1.1-0.3-1.4s-0.5-0.5-1-0.5
	c-0.5,0-0.8,0.2-1,0.5S26.3,4.4,26.3,5c0,0.6,0.1,1.1,0.4,1.5S27.2,7,27.6,7z"/>
<path class="st0" d="M36.5,8h-1.3V4.3c0-0.4-0.1-0.7-0.3-0.9s-0.4-0.3-0.7-0.3c-0.3,0-0.7,0.2-0.9,0.5S32.9,4.3,32.9,5v3h-1.3V2.1
	h1.2v1.4c0.4-1,1-1.5,1.8-1.5c0.5,0,1,0.2,1.3,0.5s0.6,0.9,0.6,1.7V8z"/>
<path class="st0" d="M29,14.8v5.1c0,0.7-0.1,1.2-0.2,1.6s-0.5,0.7-0.9,1s-1,0.4-1.6,0.4c-0.7,0-1.2-0.1-1.6-0.4s-0.7-0.6-0.9-1
	s-0.3-0.9-0.3-1.6v-5.2h1.5v5.1c0,0.7,0.1,1.2,0.4,1.4s0.6,0.3,1,0.3c0.4,0,0.8-0.1,1.1-0.4s0.4-0.7,0.4-1.4v-5.1H29z"/>
<path class="st0" d="M36.9,22.8h-1.6l-1.7-4.1l-1.5,2.1v2h-1.4v-8h1.4V19c0.2-0.3,0.3-0.5,0.4-0.6l2.7-3.6h1.5l-1.9,2.6L36.9,22.8z"
	/>
</svg>
