<?xml version="1.0" encoding="utf-8"?>
<!-- Generator: Adobe Illustrator 23.0.1, SVG Export Plug-In . SVG Version: 6.00 Build 0)  -->
<svg version="1.1" id="Layer_1" xmlns="http://www.w3.org/2000/svg" xmlns:xlink="http://www.w3.org/1999/xlink" x="0px" y="0px"
	 viewBox="0 0 41.8 23.7" style="enable-background:new 0 0 41.8 23.7;" xml:space="preserve">
<style type="text/css">
	.st0{fill:#FFFFFF;}
</style>
<g>
	<path class="st0" d="M71.4-75h-5.5v-8.7h1.2v7.7h4.4V-75z"/>
	<path class="st0" d="M78.1-78.3c0,1.1-0.3,1.9-0.8,2.5S76-74.8,75-74.8c-0.9,0-1.7-0.3-2.2-0.9S72-77.2,72-78.3s0.3-1.9,0.8-2.5
		s1.3-0.9,2.2-0.9c0.9,0,1.7,0.3,2.2,0.9S78.1-79.3,78.1-78.3z M76.9-78.3c0-0.8-0.2-1.5-0.5-1.9s-0.8-0.6-1.4-0.6
		c-0.6,0-1.1,0.2-1.4,0.6s-0.5,1-0.5,1.9c0,0.8,0.2,1.4,0.5,1.9s0.8,0.6,1.4,0.6c0.6,0,1-0.2,1.4-0.6S76.9-77.4,76.9-78.3z"/>
	<path class="st0" d="M85.2-75h-1.1v-3.7c0-0.3,0-0.6-0.1-0.8S84-80,83.9-80.2c-0.1-0.2-0.2-0.3-0.4-0.4s-0.4-0.1-0.7-0.1
		c-0.3,0-0.6,0.1-0.9,0.2s-0.6,0.3-0.9,0.6v4.9h-1.1v-6.5h1.1v0.7c0.3-0.3,0.7-0.5,1.1-0.7s0.7-0.2,1.1-0.2c0.7,0,1.2,0.2,1.6,0.6
		s0.6,1,0.6,1.8V-75z"/>
	<path class="st0" d="M92.7-75h-1.1v-0.7c-0.3,0.3-0.6,0.5-1,0.6s-0.7,0.2-1.1,0.2c-0.8,0-1.4-0.3-1.9-0.9s-0.7-1.4-0.7-2.5
		c0-0.6,0.1-1,0.2-1.5s0.4-0.8,0.6-1.1c0.3-0.3,0.6-0.5,0.9-0.7s0.7-0.2,1.1-0.2c0.3,0,0.6,0,0.9,0.1s0.5,0.2,0.8,0.3v-2.8h1.1V-75z
		 M91.6-76.6v-3.8c-0.3-0.1-0.6-0.2-0.8-0.3s-0.5-0.1-0.8-0.1c-0.6,0-1.1,0.2-1.4,0.6S88-79,88-78.3c0,0.8,0.1,1.4,0.4,1.8
		s0.7,0.6,1.3,0.6c0.3,0,0.6-0.1,0.9-0.2S91.3-76.4,91.6-76.6z"/>
	<path class="st0" d="M100.4-78.3c0,1.1-0.3,1.9-0.8,2.5s-1.3,0.9-2.2,0.9c-0.9,0-1.7-0.3-2.2-0.9s-0.8-1.5-0.8-2.5s0.3-1.9,0.8-2.5
		s1.3-0.9,2.2-0.9c0.9,0,1.7,0.3,2.2,0.9S100.4-79.3,100.4-78.3z M99.3-78.3c0-0.8-0.2-1.5-0.5-1.9s-0.8-0.6-1.4-0.6
		c-0.6,0-1.1,0.2-1.4,0.6s-0.5,1-0.5,1.9c0,0.8,0.2,1.4,0.5,1.9s0.8,0.6,1.4,0.6c0.6,0,1-0.2,1.4-0.6S99.3-77.4,99.3-78.3z"/>
	<path class="st0" d="M107.6-75h-1.1v-3.7c0-0.3,0-0.6-0.1-0.8s-0.1-0.5-0.2-0.6c-0.1-0.2-0.2-0.3-0.4-0.4s-0.4-0.1-0.7-0.1
		c-0.3,0-0.6,0.1-0.9,0.2s-0.6,0.3-0.9,0.6v4.9h-1.1v-6.5h1.1v0.7c0.3-0.3,0.7-0.5,1.1-0.7s0.7-0.2,1.1-0.2c0.7,0,1.2,0.2,1.6,0.6
		s0.6,1,0.6,1.8V-75z"/>
	<path class="st0" d="M112-76.7l-1.7,3.8h-0.9l1-3.8H112z"/>
	<path class="st0" d="M120.7-78.5c0,0.6-0.1,1.2-0.2,1.7s-0.4,0.9-0.7,1.2c-0.3,0.3-0.7,0.5-1.1,0.7s-0.9,0.2-1.4,0.2
		c-0.5,0-1-0.1-1.4-0.2s-0.7-0.4-1-0.6c-0.3-0.3-0.5-0.7-0.7-1.2s-0.2-1-0.2-1.7v-5.2h1.2v5.3c0,0.5,0,0.8,0.1,1.1s0.2,0.5,0.3,0.7
		c0.2,0.3,0.4,0.4,0.7,0.6s0.6,0.2,1.1,0.2c0.4,0,0.8-0.1,1.1-0.2s0.5-0.3,0.7-0.6c0.2-0.2,0.3-0.5,0.3-0.8s0.1-0.6,0.1-1.1v-5.3
		h1.2V-78.5z"/>
	<path class="st0" d="M130-75h-1.5l-3.5-3.9l-0.9,0.9v3H123v-8.7h1.2v4.6l4.2-4.6h1.4l-3.9,4.1L130-75z"/>
</g>
<g>
	<path class="st0" d="M5.6,9.1H0.1V0.4h1.2v7.7h4.4V9.1z"/>
	<path class="st0" d="M12.3,5.8c0,1.1-0.3,1.9-0.8,2.5s-1.3,0.9-2.2,0.9C8.4,9.3,7.6,9,7.1,8.4S6.3,6.9,6.3,5.8s0.3-1.9,0.8-2.5
		s1.3-0.9,2.2-0.9c0.9,0,1.7,0.3,2.2,0.9S12.3,4.8,12.3,5.8z M11.2,5.8C11.2,5,11,4.4,10.7,4S9.9,3.3,9.3,3.3C8.7,3.3,8.2,3.5,7.9,4
		S7.4,5,7.4,5.8c0,0.8,0.2,1.4,0.5,1.9s0.8,0.6,1.4,0.6c0.6,0,1-0.2,1.4-0.6S11.2,6.7,11.2,5.8z"/>
	<path class="st0" d="M19.5,9.1h-1.1V5.4c0-0.3,0-0.6-0.1-0.8s-0.1-0.5-0.2-0.6c-0.1-0.2-0.2-0.3-0.4-0.4S17.3,3.4,17,3.4
		c-0.3,0-0.6,0.1-0.9,0.2S15.4,4,15.1,4.2v4.9H14V2.6h1.1v0.7c0.3-0.3,0.7-0.5,1.1-0.7s0.7-0.2,1.1-0.2c0.7,0,1.2,0.2,1.6,0.6
		s0.6,1,0.6,1.8V9.1z"/>
	<path class="st0" d="M26.9,9.1h-1.1V8.4c-0.3,0.3-0.6,0.5-1,0.6s-0.7,0.2-1.1,0.2c-0.8,0-1.4-0.3-1.9-0.9S21.1,7,21.1,5.9
		c0-0.6,0.1-1,0.2-1.5s0.4-0.8,0.6-1.1C22.3,3,22.6,2.8,23,2.6s0.7-0.2,1.1-0.2c0.3,0,0.6,0,0.9,0.1s0.5,0.2,0.8,0.3V0h1.1V9.1z
		 M25.8,7.5V3.8c-0.3-0.1-0.6-0.2-0.8-0.3s-0.5-0.1-0.8-0.1c-0.6,0-1.1,0.2-1.4,0.6s-0.5,1-0.5,1.8c0,0.8,0.1,1.4,0.4,1.8
		s0.7,0.6,1.3,0.6c0.3,0,0.6-0.1,0.9-0.2S25.5,7.7,25.8,7.5z"/>
	<path class="st0" d="M34.7,5.8c0,1.1-0.3,1.9-0.8,2.5s-1.3,0.9-2.2,0.9c-0.9,0-1.7-0.3-2.2-0.9s-0.8-1.5-0.8-2.5s0.3-1.9,0.8-2.5
		s1.3-0.9,2.2-0.9c0.9,0,1.7,0.3,2.2,0.9S34.7,4.8,34.7,5.8z M33.5,5.8C33.5,5,33.3,4.4,33,4s-0.8-0.6-1.4-0.6
		c-0.6,0-1.1,0.2-1.4,0.6s-0.5,1-0.5,1.9c0,0.8,0.2,1.4,0.5,1.9s0.8,0.6,1.4,0.6c0.6,0,1-0.2,1.4-0.6S33.5,6.7,33.5,5.8z"/>
	<path class="st0" d="M41.8,9.1h-1.1V5.4c0-0.3,0-0.6-0.1-0.8s-0.1-0.5-0.2-0.6c-0.1-0.2-0.2-0.3-0.4-0.4s-0.4-0.1-0.7-0.1
		c-0.3,0-0.6,0.1-0.9,0.2S37.8,4,37.5,4.2v4.9h-1.1V2.6h1.1v0.7c0.3-0.3,0.7-0.5,1.1-0.7s0.7-0.2,1.1-0.2c0.7,0,1.2,0.2,1.6,0.6
		s0.6,1,0.6,1.8V9.1z"/>
	<path class="st0" d="M6.7,20c0,0.6-0.1,1.2-0.2,1.7s-0.4,0.9-0.7,1.2c-0.3,0.3-0.7,0.5-1.1,0.7s-0.9,0.2-1.4,0.2
		c-0.5,0-1-0.1-1.4-0.2s-0.7-0.4-1-0.6c-0.3-0.3-0.5-0.7-0.7-1.2S0,20.7,0,20v-5.2h1.2v5.3c0,0.5,0,0.8,0.1,1.1s0.2,0.5,0.3,0.7
		c0.2,0.3,0.4,0.4,0.7,0.6s0.6,0.2,1.1,0.2c0.4,0,0.8-0.1,1.1-0.2s0.5-0.3,0.7-0.6c0.2-0.2,0.3-0.5,0.3-0.8s0.1-0.6,0.1-1.1v-5.3
		h1.2V20z"/>
	<path class="st0" d="M15.9,23.5h-1.5L11,19.6l-0.9,0.9v3H8.9v-8.7h1.2v4.6l4.2-4.6h1.4l-3.9,4.1L15.9,23.5z"/>
</g>
</svg>
