<?xml version="1.0" encoding="utf-8"?>
<!-- Generator: Adobe Illustrator 23.0.1, SVG Export Plug-In . SVG Version: 6.00 Build 0)  -->
<svg version="1.1" id="Layer_1" xmlns="http://www.w3.org/2000/svg" xmlns:xlink="http://www.w3.org/1999/xlink" x="0px" y="0px"
	 viewBox="0 0 19.9 19.8" style="enable-background:new 0 0 19.9 19.8;" xml:space="preserve">
<style type="text/css">
	.st0{fill:none;}
	.st1{fill:#898989;}
	.st2{fill:#638BBA;}
</style>
<g>
	<path class="st0" d="M4.9,12.4c-0.7,0.2-1.3,0.5-1.7,0.9c-0.4,0.4-0.7,1-0.7,1.7c0,0.8,0.3,1.5,0.8,1.9c0.5,0.4,1.3,0.6,2.3,0.6
		c0.9,0,1.6-0.2,2.4-0.5c0.7-0.3,1.4-0.7,2-1.2v-4.1c-0.7,0-1.6,0.1-2.6,0.2C6.3,12.1,5.5,12.2,4.9,12.4z"/>
	<path class="st1" d="M8,17c-0.7,0.3-1.5,0.5-2.4,0.5c-1,0-1.8-0.2-2.3-0.6c-0.5-0.4-0.8-1.1-0.8-1.9c0-0.7,0.2-1.3,0.7-1.7
		c0.4-0.4,1-0.7,1.7-0.9c0.6-0.2,1.4-0.3,2.4-0.4c1-0.1,1.9-0.1,2.6-0.2v-2c-1.4,0.1-2.8,0.2-4,0.3c-1.2,0.1-2.3,0.4-3.2,0.8
		c-0.9,0.4-1.6,0.9-2,1.6C0.2,13.2,0,14.1,0,15.2c0,1.3,0.5,2.5,1.4,3.3c0.9,0.9,2,1.3,3.3,1.3c0.7,0,1.3-0.1,1.9-0.2
		c0.5-0.1,1-0.3,1.4-0.5c0.3-0.2,0.7-0.4,1.1-0.6c0.4-0.3,0.7-0.5,0.9-0.6v-2C9.3,16.3,8.7,16.7,8,17z"/>
	<path class="st2" d="M19.9,2V0h-7.7v2h2.5v15.5h-2.4V9.5c0-0.9-0.1-1.7-0.4-2.4c-0.3-0.6-0.7-1.2-1.3-1.6c-0.6-0.4-1.2-0.7-2-0.9
		C8,4.6,7.1,4.5,6,4.5c-0.9,0-1.8,0.1-2.7,0.2C2.5,4.9,1.8,5,1.3,5.2v2.5h0.1c0.8-0.3,1.7-0.6,2.5-0.7C4.7,6.8,5.4,6.7,6,6.7
		c0.5,0,1,0,1.5,0.1C8,6.8,8.5,7,8.8,7.2C9.2,7.4,9.5,7.7,9.6,8c0.2,0.4,0.3,0.8,0.3,1.4v0.4v2v4.1v2v1.6h10v-2h-2.5V2H19.9z"/>
</g>
</svg>
