<?xml version="1.0" encoding="utf-8"?>
<!-- Generator: Adobe Illustrator 23.0.1, SVG Export Plug-In . SVG Version: 6.00 Build 0)  -->
<svg version="1.1" id="Layer_1" xmlns="http://www.w3.org/2000/svg" xmlns:xlink="http://www.w3.org/1999/xlink" x="0px" y="0px"
	 viewBox="0 0 308.5 59.9" style="enable-background:new 0 0 308.5 59.9;" xml:space="preserve">
<style type="text/css">
	.st0{fill:#FFFFFF;}
	.st1{fill:#506F8E;}
</style>
<g>
	<path class="st0" d="M32.8,36h-6.9l-2.9-8.6H9.1L6.3,36H0.7L12.7,0h8L32.8,36z M21.2,22.2L16,6.2l-5.2,16.1H21.2z"/>
	<path class="st0" d="M55.4,36h-5.6v-5.4c-1.5,4-4.2,5.9-7.9,5.9c-3.3,0-5.8-1.4-7.5-4.1c-1.7-2.7-2.6-6.1-2.6-10.2
		c0-3.8,0.9-7,2.7-9.8c1.8-2.8,4.4-4.2,7.7-4.2c3.4,0,5.8,1.6,7.1,4.7V0h6V36z M49.4,20.3c0-2.2-0.5-3.8-1.5-5c-1-1.2-2.4-1.8-4-1.8
		c-1.8,0-3.2,0.8-4.2,2.3c-1,1.5-1.5,3.9-1.5,6.9c0,5.9,1.9,8.9,5.6,8.9c1.5,0,2.8-0.6,3.9-1.9s1.7-2.9,1.7-4.9V20.3z"/>
	<path class="st0" d="M65.6,36h-6V9.4H65v6.4c0.8-2.5,1.8-4.3,3.2-5.4c1.4-1.1,2.7-1.7,4.2-1.7c0.2,0,0.5,0,0.8,0v6.5
		c-3.1,0-5.1,1-6.1,2.9c-1,2-1.5,3.8-1.5,5.7V36z"/>
	<path class="st0" d="M80.5,6.2h-6V0h6V6.2z M80.5,36h-6V9.4h6V36z"/>
	<path class="st0" d="M107.6,36h-5.7c-0.5-1.6-0.8-3.4-0.9-5.4c-1.6,4-4.6,5.9-9,5.9c-2.7,0-4.8-0.8-6.4-2.3s-2.4-3.5-2.4-5.9
		c0-6.1,5.4-9.2,16.1-9.2c0.4,0,1,0,1.7,0v-2c0-2.8-1.9-4.1-5.6-4.1c-3.7,0-5.7,1.4-6.2,4.1l-5.1-0.8c0.3-2.2,1.4-4,3.4-5.5
		c2-1.4,4.9-2.1,8.7-2.1c2.1,0,3.7,0.2,5,0.5c1.3,0.3,2.4,0.9,3.3,1.7s1.5,1.7,1.9,2.7c0.3,1,0.5,2.6,0.5,4.9v12
		C106.8,32.4,107,34.1,107.6,36z M100.9,22.4c-7.8,0-11.7,1.9-11.7,5.6c0,1.1,0.4,2.1,1.2,2.8c0.8,0.8,2,1.2,3.5,1.2
		c2.3,0,4-0.7,5.2-2.2c1.2-1.5,1.8-3.1,1.8-4.9V22.4z"/>
	<path class="st0" d="M133,36h-6V19.4c0-1.8-0.4-3.1-1.2-4c-0.8-0.9-1.8-1.3-2.9-1.3c-1.6,0-2.9,0.7-4.1,2.1
		c-1.2,1.4-1.8,3.4-1.8,6.2V36h-6V9.4h5.5v6.2c1.9-4.5,4.6-6.7,8.1-6.7c2.3,0,4.3,0.7,6,2.2s2.5,4.1,2.5,7.8V36z"/>
	<path class="st0" d="M154.6,36h-6.5V0h6.5V36z"/>
	<path class="st0" d="M182,36h-5.7c-0.5-1.6-0.8-3.4-0.9-5.4c-1.6,4-4.6,5.9-9,5.9c-2.7,0-4.8-0.8-6.4-2.3s-2.4-3.5-2.4-5.9
		c0-6.1,5.4-9.2,16.1-9.2c0.4,0,1,0,1.7,0v-2c0-2.8-1.9-4.1-5.6-4.1c-3.7,0-5.7,1.4-6.2,4.1l-5.1-0.8c0.3-2.2,1.4-4,3.4-5.5
		c2-1.4,4.9-2.1,8.7-2.1c2.1,0,3.7,0.2,5,0.5c1.3,0.3,2.4,0.9,3.3,1.7s1.5,1.7,1.9,2.7c0.3,1,0.5,2.6,0.5,4.9v12
		C181.2,32.4,181.5,34.1,182,36z M175.4,22.4c-7.8,0-11.7,1.9-11.7,5.6c0,1.1,0.4,2.1,1.2,2.8c0.8,0.8,2,1.2,3.5,1.2
		c2.3,0,4-0.7,5.2-2.2c1.2-1.5,1.8-3.1,1.8-4.9V22.4z"/>
	<path class="st0" d="M200.8,26.2l5.2,0.5c-0.7,3.3-2,5.8-3.9,7.4c-1.9,1.6-4.2,2.4-6.9,2.4c-3.7,0-6.5-1.3-8.5-4s-3-6-3-9.8
		c0-4,1.1-7.3,3.2-9.9c2.2-2.6,5-3.9,8.6-3.9c5.8,0,9.3,3.1,10.4,9.2l-5.2,0.7c-0.5-3.3-2.1-5-4.9-5c-2,0-3.5,0.9-4.4,2.7
		c-0.9,1.8-1.4,3.9-1.4,6.5c0,2.7,0.5,4.8,1.4,6.2c1,1.5,2.3,2.2,4,2.2C198.2,31.3,200,29.6,200.8,26.2z"/>
	<path class="st0" d="M229.5,36H224v-5.7c-1.5,4.2-4.3,6.3-8.4,6.3c-2.4,0-4.4-0.8-5.8-2.3s-2.1-3.6-2.1-6.3V9.4h6.1v17.3
		c0,1.9,0.4,3.2,1.3,3.8c0.8,0.6,1.7,0.9,2.5,0.9c1.3,0,2.6-0.6,4-1.8c1.4-1.2,2-3.7,2-7.5V9.4h6V36z"/>
	<path class="st0" d="M244.2,36.5c-3.9,0-6.9-1.4-9-4.2c-2.1-2.8-3.1-6.1-3.1-9.7c0-3.9,1.1-7.2,3.4-9.8c2.3-2.6,5.3-3.9,9.1-3.9
		c3.6,0,6.5,1.3,8.8,3.8c2.3,2.5,3.4,5.9,3.4,9.9c0,4.2-1.2,7.6-3.6,10.1C250.9,35.3,247.9,36.5,244.2,36.5z M244.4,31.6
		c4,0,6.1-3,6.1-9c0-2.7-0.5-4.9-1.5-6.4c-1-1.6-2.5-2.4-4.5-2.4c-2.1,0-3.6,0.8-4.6,2.4c-1,1.6-1.5,3.8-1.5,6.5
		c0,2.9,0.5,5.1,1.6,6.6C241.1,30.8,242.6,31.6,244.4,31.6z"/>
	<path class="st0" d="M281.4,36h-6V19.4c0-1.8-0.4-3.1-1.2-4c-0.8-0.9-1.8-1.3-2.9-1.3c-1.6,0-2.9,0.7-4.1,2.1
		c-1.2,1.4-1.8,3.4-1.8,6.2V36h-6V9.4h5.5v6.2c1.9-4.5,4.6-6.7,8.1-6.7c2.3,0,4.3,0.7,6,2.2c1.7,1.5,2.5,4.1,2.5,7.8V36z"/>
	<path class="st0" d="M302.6,27.5l5.4,0.7c-0.7,2.4-2.1,4.4-4.1,6c-2,1.6-4.6,2.3-7.7,2.3c-3.7,0-6.7-1.2-8.9-3.7
		c-2.3-2.5-3.4-5.8-3.4-10.1c0-4,1.1-7.4,3.4-10s5.3-4,9.2-4c3.8,0,6.7,1.3,8.8,3.9c2.1,2.6,3.1,5.9,3.1,10l0,0.7h-18.3
		c0,1.8,0.2,3.3,0.5,4.4c0.3,1.1,1,2,2,2.8c1,0.8,2.3,1.2,3.8,1.2C299.5,31.8,301.5,30.4,302.6,27.5z M302.2,19.5
		c0-1.9-0.6-3.5-1.7-4.7c-1.1-1.2-2.5-1.8-4.2-1.8c-1.7,0-3,0.6-4.1,1.7s-1.8,2.7-2,4.8H302.2z"/>
</g>
<g>
	<path class="st1" d="M0,52.3l2.9-0.5c0.4,1.1,1.4,1.6,3,1.6c1.9,0,2.9-0.5,2.9-1.6c0-0.4-0.2-0.6-0.5-0.9c-0.3-0.2-0.7-0.4-1.1-0.5
		l-2.5-0.5C2,49.4,0.6,48.1,0.6,46c0-1.2,0.4-2.2,1.3-3c0.9-0.8,2.2-1.2,4-1.2c2.9,0,4.7,1,5.4,3.1l-2.8,0.5c-0.3-1-1.1-1.5-2.5-1.5
		c-1.7,0-2.5,0.5-2.5,1.5c0,0.7,0.7,1.2,2,1.4l3,0.6c2.3,0.5,3.5,1.7,3.5,3.8c0,1.5-0.6,2.6-1.8,3.3c-1.2,0.7-2.6,1.1-4.3,1.1
		c-1.4,0-2.7-0.3-3.8-0.8C1,54.3,0.3,53.4,0,52.3z"/>
	<path class="st1" d="M18.5,55.6c-2.1,0-3.6-0.7-4.7-2.1c-1.1-1.4-1.6-3-1.6-4.9c0-2,0.6-3.6,1.8-4.9c1.2-1.3,2.8-2,4.7-2
		c1.9,0,3.4,0.6,4.6,1.9c1.2,1.3,1.8,2.9,1.8,5c0,2.1-0.6,3.8-1.9,5.1C22,55,20.4,55.6,18.5,55.6z M18.6,53.2c2.1,0,3.2-1.5,3.2-4.5
		c0-1.4-0.3-2.4-0.8-3.2c-0.5-0.8-1.3-1.2-2.3-1.2c-1.1,0-1.9,0.4-2.4,1.2c-0.5,0.8-0.8,1.9-0.8,3.2c0,1.5,0.3,2.6,0.8,3.3
		S17.7,53.2,18.6,53.2z"/>
	<path class="st1" d="M30.1,55.4h-3v-11H25V42h2.1v-0.7c0-1.3,0.3-2.3,1-3.1s2-1.2,4-1.2c0.3,0,0.7,0,1.1,0v2.4c-0.4,0-0.7,0-0.8,0
		c-0.8,0-1.3,0.1-1.6,0.3c-0.3,0.2-0.5,0.4-0.6,0.7c-0.1,0.3-0.1,0.8-0.1,1.6h3.1v2.3h-3.1V55.4z"/>
	<path class="st1" d="M41.1,53v2.3c-0.9,0.2-1.7,0.3-2.2,0.3c-0.8,0-1.6-0.2-2.2-0.5c-0.6-0.3-1-0.8-1.3-1.3
		c-0.3-0.6-0.4-1.4-0.4-2.6v-6.9h-1.7V42h1.9l0.3-3.5l2.6-0.2V42h2.8v2.3h-2.8v6.5c0,0.8,0.2,1.4,0.5,1.7c0.3,0.3,0.9,0.5,1.8,0.5
		C40.6,53,40.8,53,41.1,53z"/>
	<path class="st1" d="M59.8,42l-4.1,13.3h-2.8L50.4,46l-2.5,9.3H45L40.8,42h3.3l2.7,9l2.4-9h2.8l2.4,9l2.7-9H59.8z"/>
	<path class="st1" d="M72.2,55.4h-3c-0.3-0.8-0.4-1.7-0.5-2.7c-0.8,2-2.4,3-4.7,3c-1.4,0-2.5-0.4-3.3-1.2c-0.8-0.8-1.3-1.8-1.3-2.9
		c0-3.1,2.8-4.6,8.4-4.6c0.2,0,0.5,0,0.9,0v-1c0-1.4-1-2.1-2.9-2.1c-1.9,0-3,0.7-3.2,2.1l-2.7-0.4c0.1-1.1,0.7-2,1.8-2.7
		c1-0.7,2.6-1.1,4.5-1.1c1.1,0,1.9,0.1,2.6,0.3c0.7,0.2,1.3,0.5,1.7,0.9c0.5,0.4,0.8,0.9,1,1.3c0.2,0.5,0.3,1.3,0.3,2.4v6
		C71.8,53.5,71.9,54.4,72.2,55.4z M68.8,48.6c-4.1,0-6.1,0.9-6.1,2.8c0,0.6,0.2,1,0.6,1.4c0.4,0.4,1,0.6,1.9,0.6
		c1.2,0,2.1-0.4,2.7-1.1c0.6-0.7,0.9-1.5,0.9-2.5V48.6z"/>
	<path class="st1" d="M77.3,55.4h-3.1V42H77v3.2c0.4-1.2,1-2.1,1.7-2.7c0.7-0.6,1.4-0.9,2.2-0.9c0.1,0,0.2,0,0.4,0v3.2
		c-1.6,0-2.7,0.5-3.2,1.5s-0.8,1.9-0.8,2.8V55.4z"/>
	<path class="st1" d="M91,51.1l2.8,0.4c-0.4,1.2-1.1,2.2-2.1,3c-1.1,0.8-2.4,1.2-4,1.2c-1.9,0-3.5-0.6-4.6-1.9s-1.8-2.9-1.8-5
		c0-2,0.6-3.7,1.8-5c1.2-1.3,2.8-2,4.8-2c2,0,3.5,0.7,4.6,2c1.1,1.3,1.6,3,1.6,5l0,0.3h-9.5c0,0.9,0.1,1.6,0.3,2.2
		c0.2,0.5,0.5,1,1.1,1.4c0.5,0.4,1.2,0.6,2,0.6C89.4,53.3,90.4,52.6,91,51.1z M90.8,47.1c0-1-0.3-1.7-0.9-2.3s-1.3-0.9-2.2-0.9
		c-0.9,0-1.6,0.3-2.2,0.8c-0.6,0.6-0.9,1.4-1,2.4H90.8z"/>
	<path class="st1" d="M112.6,55.4h-2.9v-2.7c-0.8,2-2.2,3-4.1,3c-1.7,0-3-0.7-3.9-2s-1.4-3.1-1.4-5.1c0-1.9,0.5-3.5,1.4-4.9
		c0.9-1.4,2.3-2.1,4-2.1c1.8,0,3,0.8,3.7,2.3v-6.5h3.1V55.4z M109.5,47.5c0-1.1-0.3-1.9-0.8-2.5c-0.5-0.6-1.2-0.9-2.1-0.9
		c-0.9,0-1.7,0.4-2.2,1.2c-0.5,0.8-0.8,1.9-0.8,3.5c0,3,1,4.5,2.9,4.5c0.8,0,1.5-0.3,2-1c0.6-0.6,0.9-1.5,0.9-2.4V47.5z"/>
	<path class="st1" d="M123.8,51.1l2.8,0.4c-0.4,1.2-1.1,2.2-2.1,3c-1.1,0.8-2.4,1.2-4,1.2c-1.9,0-3.5-0.6-4.6-1.9s-1.8-2.9-1.8-5
		c0-2,0.6-3.7,1.8-5c1.2-1.3,2.8-2,4.8-2c2,0,3.5,0.7,4.6,2c1.1,1.3,1.6,3,1.6,5l0,0.3h-9.5c0,0.9,0.1,1.6,0.3,2.2
		c0.2,0.5,0.5,1,1.1,1.4s1.2,0.6,2,0.6C122.2,53.3,123.3,52.6,123.8,51.1z M123.6,47.1c0-1-0.3-1.7-0.9-2.3
		c-0.6-0.6-1.3-0.9-2.2-0.9c-0.9,0-1.6,0.3-2.2,0.8c-0.6,0.6-0.9,1.4-1,2.4H123.6z"/>
	<path class="st1" d="M138.5,42l-4.7,13.3h-2.6L126.3,42h3.3l3.2,9l3.2-9H138.5z"/>
	<path class="st1" d="M147.7,51.1l2.8,0.4c-0.4,1.2-1.1,2.2-2.1,3c-1.1,0.8-2.4,1.2-4,1.2c-1.9,0-3.5-0.6-4.6-1.9s-1.8-2.9-1.8-5
		c0-2,0.6-3.7,1.8-5c1.2-1.3,2.8-2,4.8-2c2,0,3.5,0.7,4.6,2c1.1,1.3,1.6,3,1.6,5l0,0.3h-9.5c0,0.9,0.1,1.6,0.3,2.2
		c0.2,0.5,0.5,1,1.1,1.4c0.5,0.4,1.2,0.6,2,0.6C146.2,53.3,147.2,52.6,147.7,51.1z M147.6,47.1c0-1-0.3-1.7-0.9-2.3
		s-1.3-0.9-2.2-0.9c-0.9,0-1.6,0.3-2.2,0.8c-0.6,0.6-0.9,1.4-1,2.4H147.6z"/>
	<path class="st1" d="M155.4,55.4h-3.1v-18h3.1V55.4z"/>
	<path class="st1" d="M163.2,55.6c-2.1,0-3.6-0.7-4.7-2.1s-1.6-3-1.6-4.9c0-2,0.6-3.6,1.8-4.9c1.2-1.3,2.8-2,4.7-2
		c1.9,0,3.4,0.6,4.6,1.9s1.8,2.9,1.8,5c0,2.1-0.6,3.8-1.9,5.1C166.7,55,165.2,55.6,163.2,55.6z M163.4,53.2c2.1,0,3.2-1.5,3.2-4.5
		c0-1.4-0.3-2.4-0.8-3.2c-0.5-0.8-1.3-1.2-2.3-1.2c-1.1,0-1.9,0.4-2.4,1.2c-0.5,0.8-0.8,1.9-0.8,3.2c0,1.5,0.3,2.6,0.8,3.3
		S162.4,53.2,163.4,53.2z"/>
	<path class="st1" d="M174.5,59.9h-3.2V42h3v2.3c1-1.7,2.4-2.6,4.3-2.6c1.5,0,2.8,0.6,3.7,1.9c0.9,1.3,1.4,2.9,1.4,4.9
		c0,1.9-0.4,3.5-1.3,4.9s-2.2,2.1-3.9,2.1c-1.8,0-3.1-0.7-3.9-2.1V59.9z M174.5,49.9c0,1,0.3,1.8,0.9,2.4c0.6,0.6,1.3,1,2,1
		c1,0,1.7-0.4,2.2-1.3c0.5-0.8,0.7-1.9,0.7-3.2c0-1.4-0.2-2.5-0.7-3.3c-0.5-0.8-1.2-1.3-2.1-1.3c-0.8,0-1.5,0.3-2.1,1
		c-0.6,0.7-0.9,1.6-0.9,2.7V49.9z"/>
	<path class="st1" d="M193.9,51.1l2.8,0.4c-0.4,1.2-1.1,2.2-2.1,3s-2.4,1.2-4,1.2c-1.9,0-3.5-0.6-4.6-1.9s-1.8-2.9-1.8-5
		c0-2,0.6-3.7,1.8-5s2.8-2,4.8-2c2,0,3.5,0.7,4.6,2s1.6,3,1.6,5l0,0.3h-9.5c0,0.9,0.1,1.6,0.3,2.2c0.2,0.5,0.5,1,1.1,1.4
		s1.2,0.6,2,0.6C192.4,53.3,193.4,52.6,193.9,51.1z M193.8,47.1c0-1-0.3-1.7-0.9-2.3c-0.6-0.6-1.3-0.9-2.2-0.9
		c-0.9,0-1.6,0.3-2.2,0.8c-0.6,0.6-0.9,1.4-1,2.4H193.8z"/>
	<path class="st1" d="M201.6,55.4h-3.1V42h2.8v3.2c0.4-1.2,1-2.1,1.7-2.7s1.4-0.9,2.2-0.9c0.1,0,0.2,0,0.4,0v3.2
		c-1.6,0-2.7,0.5-3.2,1.5c-0.5,1-0.8,1.9-0.8,2.8V55.4z"/>
</g>
</svg>
