<?xml version="1.0" encoding="utf-8"?>
<!-- Generator: Adobe Illustrator 23.0.1, SVG Export Plug-In . SVG Version: 6.00 Build 0)  -->
<svg version="1.1" id="Layer_1" xmlns="http://www.w3.org/2000/svg" xmlns:xlink="http://www.w3.org/1999/xlink" x="0px" y="0px"
	 viewBox="0 0 517.9 38.9" style="enable-background:new 0 0 517.9 38.9;" xml:space="preserve">
<style type="text/css">
	.st0{fill:#FFFFFF;}
	.st1{fill:#506F8E;}
</style>
<g>
	<path class="st0" d="M32,36h-6.9l-2.9-8.6H8.4L5.5,36H0L11.9,0h8L32,36z M20.5,22.2l-5.3-16l-5.2,16H20.5z"/>
	<path class="st0" d="M54.6,36H49v-5.4c-1.5,4-4.2,5.9-7.9,5.9c-3.3,0-5.8-1.4-7.5-4.1c-1.7-2.7-2.6-6.1-2.6-10.2
		c0-3.8,0.9-7,2.7-9.8s4.4-4.2,7.7-4.2c3.4,0,5.8,1.6,7.1,4.7V0h6v36H54.6z M48.6,20.3c0-2.2-0.5-3.8-1.5-5s-2.4-1.8-4-1.8
		c-1.8,0-3.2,0.8-4.2,2.3s-1.5,3.9-1.5,6.9c0,5.9,1.9,8.9,5.6,8.9c1.5,0,2.8-0.6,3.9-1.9s1.7-2.9,1.7-4.9V20.3z"/>
	<path class="st0" d="M64.9,36h-6V9.4h5.4v6.4c0.8-2.5,1.8-4.3,3.2-5.4c1.4-1.1,2.7-1.7,4.2-1.7c0.2,0,0.5,0,0.8,0v6.5
		c-3.1,0-5.1,1-6.1,2.9c-1,2-1.5,3.8-1.5,5.7V36z"/>
	<path class="st0" d="M79.8,6.2h-6V0h6V6.2z M79.8,36h-6V9.4h6V36z"/>
	<path class="st0" d="M106.8,36h-5.7c-0.5-1.6-0.8-3.4-0.9-5.4c-1.6,4-4.6,5.9-9,5.9c-2.7,0-4.8-0.8-6.4-2.3s-2.4-3.5-2.4-5.9
		c0-6.1,5.4-9.2,16.1-9.2c0.4,0,1,0,1.7,0v-2c0-2.8-1.9-4.1-5.6-4.1s-5.7,1.4-6.2,4.1l-5.1-0.8c0.3-2.2,1.4-4,3.4-5.5
		c2-1.4,4.9-2.1,8.7-2.1c2.1,0,3.7,0.2,5,0.5s2.4,0.9,3.3,1.7s1.5,1.7,1.9,2.7c0.3,1,0.5,2.6,0.5,4.9v12
		C106,32.4,106.3,34.1,106.8,36z M100.2,22.4c-7.8,0-11.7,1.9-11.7,5.6c0,1.1,0.4,2.1,1.2,2.8c0.8,0.8,2,1.2,3.5,1.2
		c2.3,0,4-0.7,5.2-2.2s1.8-3.1,1.8-4.9V22.4z"/>
	<path class="st0" d="M132.3,36h-6V19.4c0-1.8-0.4-3.1-1.2-4c-0.8-0.9-1.8-1.3-2.9-1.3c-1.6,0-2.9,0.7-4.1,2.1s-1.8,3.4-1.8,6.2V36
		h-6V9.4h5.5v6.2c1.9-4.5,4.6-6.7,8.1-6.7c2.3,0,4.3,0.7,6,2.2s2.5,4.1,2.5,7.8L132.3,36L132.3,36z"/>
	<path class="st0" d="M153.9,36h-6.5V0h6.5V36z"/>
	<path class="st0" d="M181.3,36h-5.7c-0.5-1.6-0.8-3.4-0.9-5.4c-1.6,4-4.6,5.9-9,5.9c-2.7,0-4.8-0.8-6.4-2.3s-2.4-3.5-2.4-5.9
		c0-6.1,5.4-9.2,16.1-9.2c0.4,0,1,0,1.7,0v-2c0-2.8-1.9-4.1-5.6-4.1c-3.7,0-5.7,1.4-6.2,4.1l-5.1-0.8c0.3-2.2,1.4-4,3.4-5.5
		c2-1.4,4.9-2.1,8.7-2.1c2.1,0,3.7,0.2,5,0.5s2.4,0.9,3.3,1.7s1.5,1.7,1.9,2.7c0.3,1,0.5,2.6,0.5,4.9v12
		C180.5,32.4,180.7,34.1,181.3,36z M174.6,22.4c-7.8,0-11.7,1.9-11.7,5.6c0,1.1,0.4,2.1,1.2,2.8c0.8,0.8,2,1.2,3.5,1.2
		c2.3,0,4-0.7,5.2-2.2s1.8-3.1,1.8-4.9V22.4z"/>
	<path class="st0" d="M200.1,26.2l5.2,0.5c-0.7,3.3-2,5.8-3.9,7.4c-1.9,1.6-4.2,2.4-6.9,2.4c-3.7,0-6.5-1.3-8.5-4s-3-6-3-9.8
		c0-4,1.1-7.3,3.2-9.9c2.2-2.6,5-3.9,8.6-3.9c5.8,0,9.3,3.1,10.4,9.2l-5.2,0.7c-0.5-3.3-2.1-5-4.9-5c-2,0-3.5,0.9-4.4,2.7
		c-0.9,1.8-1.4,3.9-1.4,6.5c0,2.7,0.5,4.8,1.4,6.2c1,1.5,2.3,2.2,4,2.2C197.5,31.3,199.2,29.6,200.1,26.2z"/>
	<path class="st0" d="M228.8,36h-5.6v-5.7c-1.5,4.2-4.3,6.3-8.4,6.3c-2.4,0-4.4-0.8-5.8-2.3s-2.1-3.6-2.1-6.3V9.4h6.1v17.3
		c0,1.9,0.4,3.2,1.3,3.8c0.8,0.6,1.7,0.9,2.5,0.9c1.3,0,2.6-0.6,4-1.8c1.4-1.2,2-3.7,2-7.5V9.4h6V36z"/>
	<path class="st0" d="M243.5,36.5c-3.9,0-6.9-1.4-9-4.2s-3.1-6.1-3.1-9.7c0-3.9,1.1-7.2,3.4-9.8c2.3-2.6,5.3-3.9,9.1-3.9
		c3.6,0,6.5,1.3,8.8,3.8s3.4,5.9,3.4,9.9c0,4.2-1.2,7.6-3.6,10.1C250.1,35.3,247.1,36.5,243.5,36.5z M243.7,31.6c4,0,6.1-3,6.1-9
		c0-2.7-0.5-4.9-1.5-6.4c-1-1.6-2.5-2.4-4.5-2.4c-2.1,0-3.6,0.8-4.6,2.4s-1.5,3.8-1.5,6.5c0,2.9,0.5,5.1,1.6,6.6
		C240.4,30.8,241.8,31.6,243.7,31.6z"/>
	<path class="st0" d="M280.7,36h-6V19.4c0-1.8-0.4-3.1-1.2-4c-0.8-0.9-1.8-1.3-2.9-1.3c-1.6,0-2.9,0.7-4.1,2.1s-1.8,3.4-1.8,6.2V36
		h-6V9.4h5.5v6.2c1.9-4.5,4.6-6.7,8.1-6.7c2.3,0,4.3,0.7,6,2.2s2.5,4.1,2.5,7.8V36H280.7z"/>
	<path class="st0" d="M301.8,27.5l5.4,0.7c-0.7,2.4-2.1,4.4-4.1,6s-4.6,2.3-7.7,2.3c-3.7,0-6.7-1.2-8.9-3.7
		c-2.3-2.5-3.4-5.8-3.4-10.1c0-4,1.1-7.4,3.4-10s5.3-4,9.2-4c3.8,0,6.7,1.3,8.8,3.9c2.1,2.6,3.1,5.9,3.1,10v0.7h-18.3
		c0,1.8,0.2,3.3,0.5,4.4s1,2,2,2.8s2.3,1.2,3.8,1.2C298.8,31.8,300.8,30.4,301.8,27.5z M301.5,19.5c0-1.9-0.6-3.5-1.7-4.7
		s-2.5-1.8-4.2-1.8s-3,0.6-4.1,1.7s-1.8,2.7-2,4.8H301.5z"/>
</g>
<g>
	<path class="st1" d="M312.3,31.3l2.9-0.5c0.4,1.1,1.4,1.6,3,1.6c1.9,0,2.9-0.5,2.9-1.6c0-0.4-0.2-0.6-0.5-0.9
		c-0.3-0.2-0.7-0.4-1.1-0.5l-2.5-0.5c-2.8-0.5-4.2-1.8-4.2-3.9c0-1.2,0.4-2.2,1.3-3s2.2-1.2,4-1.2c2.9,0,4.7,1,5.4,3.1l-2.8,0.5
		c-0.3-1-1.1-1.5-2.5-1.5c-1.7,0-2.5,0.5-2.5,1.5c0,0.7,0.7,1.2,2,1.4l3,0.6c2.3,0.5,3.5,1.7,3.5,3.8c0,1.5-0.6,2.6-1.8,3.3
		c-1.2,0.7-2.6,1.1-4.3,1.1c-1.4,0-2.7-0.3-3.8-0.8C313.3,33.3,312.6,32.4,312.3,31.3z"/>
	<path class="st1" d="M330.8,34.6c-2.1,0-3.6-0.7-4.7-2.1c-1.1-1.4-1.6-3-1.6-4.9c0-2,0.6-3.6,1.8-4.9c1.2-1.3,2.8-2,4.7-2
		c1.9,0,3.4,0.6,4.6,1.9s1.8,2.9,1.8,5s-0.6,3.8-1.9,5.1C334.3,34,332.7,34.6,330.8,34.6z M330.9,32.2c2.1,0,3.2-1.5,3.2-4.5
		c0-1.4-0.3-2.4-0.8-3.2c-0.5-0.8-1.3-1.2-2.3-1.2c-1.1,0-1.9,0.4-2.4,1.2c-0.5,0.8-0.8,1.9-0.8,3.2c0,1.5,0.3,2.6,0.8,3.3
		S329.9,32.2,330.9,32.2z"/>
	<path class="st1" d="M342.4,34.4h-3v-11h-2.1V21h2.1v-0.7c0-1.3,0.3-2.3,1-3.1s2-1.2,4-1.2c0.3,0,0.7,0,1.1,0v2.4
		c-0.4,0-0.7,0-0.8,0c-0.8,0-1.3,0.1-1.6,0.3c-0.3,0.2-0.5,0.4-0.6,0.7c-0.1,0.3-0.1,0.8-0.1,1.6h3.1v2.3h-3.1V34.4z"/>
	<path class="st1" d="M353.4,32v2.3c-0.9,0.2-1.7,0.3-2.2,0.3c-0.8,0-1.6-0.2-2.2-0.5s-1-0.8-1.3-1.3c-0.3-0.6-0.4-1.4-0.4-2.6v-6.9
		h-1.7V21h1.9l0.3-3.5l2.6-0.2V21h2.8v2.3h-2.8v6.5c0,0.8,0.2,1.4,0.5,1.7c0.3,0.3,0.9,0.5,1.8,0.5C352.8,32,353.1,32,353.4,32z"/>
	<path class="st1" d="M372.1,21L368,34.4h-2.8l-2.5-9.3l-2.5,9.3h-2.9L353,21h3.3l2.7,9l2.4-9h2.8l2.4,9l2.7-9H372.1z"/>
	<path class="st1" d="M384.5,34.4h-3c-0.3-0.8-0.4-1.7-0.5-2.7c-0.8,2-2.4,3-4.7,3c-1.4,0-2.5-0.4-3.3-1.2s-1.3-1.8-1.3-2.9
		c0-3.1,2.8-4.6,8.4-4.6c0.2,0,0.5,0,0.9,0v-1c0-1.4-1-2.1-2.9-2.1s-3,0.7-3.2,2.1l-2.7-0.4c0.1-1.1,0.7-2,1.8-2.7s2.6-1.1,4.5-1.1
		c1.1,0,1.9,0.1,2.6,0.3c0.7,0.2,1.3,0.5,1.7,0.9c0.5,0.4,0.8,0.9,1,1.3c0.2,0.5,0.3,1.3,0.3,2.4v6
		C384.1,32.5,384.2,33.4,384.5,34.4z M381,27.6c-4.1,0-6.1,0.9-6.1,2.8c0,0.6,0.2,1,0.6,1.4c0.4,0.4,1,0.6,1.9,0.6
		c1.2,0,2.1-0.4,2.7-1.1s0.9-1.5,0.9-2.5V27.6z"/>
	<path class="st1" d="M389.6,34.4h-3.1V21h2.8v3.2c0.4-1.2,1-2.1,1.7-2.7s1.4-0.9,2.2-0.9c0.1,0,0.2,0,0.4,0v3.2
		c-1.6,0-2.7,0.5-3.2,1.5s-0.8,1.9-0.8,2.8V34.4z"/>
	<path class="st1" d="M403.2,30.1l2.8,0.4c-0.4,1.2-1.1,2.2-2.1,3c-1.1,0.8-2.4,1.2-4,1.2c-1.9,0-3.5-0.6-4.6-1.9s-1.8-2.9-1.8-5
		c0-2,0.6-3.7,1.8-5c1.2-1.3,2.8-2,4.8-2s3.5,0.7,4.6,2s1.6,3,1.6,5v0.3h-9.5c0,0.9,0.1,1.6,0.3,2.2c0.2,0.5,0.5,1,1.1,1.4
		c0.5,0.4,1.2,0.6,2,0.6C401.6,32.3,402.7,31.6,403.2,30.1z M403,26.1c0-1-0.3-1.7-0.9-2.3s-1.3-0.9-2.2-0.9c-0.9,0-1.6,0.3-2.2,0.9
		s-0.9,1.4-1,2.4h6.3V26.1z"/>
	<path class="st1" d="M424.9,34.4H422v-2.7c-0.8,2-2.2,3-4.1,3c-1.7,0-3-0.7-3.9-2s-1.4-3.1-1.4-5.1c0-1.9,0.5-3.5,1.4-4.9
		s2.3-2.1,4-2.1c1.8,0,3,0.8,3.7,2.3v-6.5h3.1L424.9,34.4L424.9,34.4z M421.7,26.5c0-1.1-0.3-1.9-0.8-2.5s-1.2-0.9-2.1-0.9
		s-1.7,0.4-2.2,1.2c-0.5,0.8-0.8,1.9-0.8,3.5c0,3,1,4.5,2.9,4.5c0.8,0,1.5-0.3,2-1c0.6-0.6,0.9-1.5,0.9-2.4v-2.4H421.7z"/>
	<path class="st1" d="M436.1,30.1l2.8,0.4c-0.4,1.2-1.1,2.2-2.1,3c-1.1,0.8-2.4,1.2-4,1.2c-1.9,0-3.5-0.6-4.6-1.9s-1.8-2.9-1.8-5
		c0-2,0.6-3.7,1.8-5c1.2-1.3,2.8-2,4.8-2s3.5,0.7,4.6,2s1.6,3,1.6,5v0.3h-9.5c0,0.9,0.1,1.6,0.3,2.2c0.2,0.5,0.5,1,1.1,1.4
		s1.2,0.6,2,0.6C434.5,32.3,435.5,31.6,436.1,30.1z M435.9,26.1c0-1-0.3-1.7-0.9-2.3c-0.6-0.6-1.3-0.9-2.2-0.9
		c-0.9,0-1.6,0.3-2.2,0.9s-0.9,1.4-1,2.4h6.3V26.1z"/>
	<path class="st1" d="M450.7,21L446,34.4h-2.6L438.6,21h3.3l3.2,9l3.2-9H450.7z"/>
	<path class="st1" d="M460,30.1l2.8,0.4c-0.4,1.2-1.1,2.2-2.1,3c-1.1,0.8-2.4,1.2-4,1.2c-1.9,0-3.5-0.6-4.6-1.9s-1.8-2.9-1.8-5
		c0-2,0.6-3.7,1.8-5c1.2-1.3,2.8-2,4.8-2s3.5,0.7,4.6,2s1.6,3,1.6,5v0.3h-9.5c0,0.9,0.1,1.6,0.3,2.2c0.2,0.5,0.5,1,1.1,1.4
		c0.5,0.4,1.2,0.6,2,0.6C458.4,32.3,459.5,31.6,460,30.1z M459.8,26.1c0-1-0.3-1.7-0.9-2.3s-1.3-0.9-2.2-0.9c-0.9,0-1.6,0.3-2.2,0.9
		s-0.9,1.4-1,2.4h6.3V26.1z"/>
	<path class="st1" d="M467.7,34.4h-3.1v-18h3.1V34.4z"/>
	<path class="st1" d="M475.5,34.6c-2.1,0-3.6-0.7-4.7-2.1s-1.6-3-1.6-4.9c0-2,0.6-3.6,1.8-4.9c1.2-1.3,2.8-2,4.7-2
		c1.9,0,3.4,0.6,4.6,1.9s1.8,2.9,1.8,5s-0.6,3.8-1.9,5.1C479,34,477.4,34.6,475.5,34.6z M475.6,32.2c2.1,0,3.2-1.5,3.2-4.5
		c0-1.4-0.3-2.4-0.8-3.2c-0.5-0.8-1.3-1.2-2.3-1.2c-1.1,0-1.9,0.4-2.4,1.2s-0.8,1.9-0.8,3.2c0,1.5,0.3,2.6,0.8,3.3
		S474.7,32.2,475.6,32.2z"/>
	<path class="st1" d="M486.8,38.9h-3.2V21h3v2.3c1-1.7,2.4-2.6,4.3-2.6c1.5,0,2.8,0.6,3.7,1.9c0.9,1.3,1.4,2.9,1.4,4.9
		c0,1.9-0.4,3.5-1.3,4.9c-0.9,1.4-2.2,2.1-3.9,2.1c-1.8,0-3.1-0.7-3.9-2.1v6.5H486.8z M486.8,28.9c0,1,0.3,1.8,0.9,2.4s1.3,1,2,1
		c1,0,1.7-0.4,2.2-1.3c0.5-0.8,0.7-1.9,0.7-3.2c0-1.4-0.2-2.5-0.7-3.3s-1.2-1.3-2.1-1.3c-0.8,0-1.5,0.3-2.1,1s-0.9,1.6-0.9,2.7V28.9
		z"/>
	<path class="st1" d="M506.2,30.1l2.8,0.4c-0.4,1.2-1.1,2.2-2.1,3s-2.4,1.2-4,1.2c-1.9,0-3.5-0.6-4.6-1.9s-1.8-2.9-1.8-5
		c0-2,0.6-3.7,1.8-5s2.8-2,4.8-2s3.5,0.7,4.6,2s1.6,3,1.6,5v0.3h-9.5c0,0.9,0.1,1.6,0.3,2.2c0.2,0.5,0.5,1,1.1,1.4s1.2,0.6,2,0.6
		C504.6,32.3,505.7,31.6,506.2,30.1z M506,26.1c0-1-0.3-1.7-0.9-2.3c-0.6-0.6-1.3-0.9-2.2-0.9c-0.9,0-1.6,0.3-2.2,0.9
		s-0.9,1.4-1,2.4h6.3V26.1z"/>
	<path class="st1" d="M513.9,34.4h-3.1V21h2.8v3.2c0.4-1.2,1-2.1,1.7-2.7s1.4-0.9,2.2-0.9c0.1,0,0.2,0,0.4,0v3.2
		c-1.6,0-2.7,0.5-3.2,1.5s-0.8,1.9-0.8,2.8L513.9,34.4L513.9,34.4z"/>
</g>
</svg>
