<?xml version="1.0" encoding="utf-8"?>
<!-- Generator: Adobe Illustrator 23.0.1, SVG Export Plug-In . SVG Version: 6.00 Build 0)  -->
<svg version="1.1" id="Layer_1" xmlns="http://www.w3.org/2000/svg" xmlns:xlink="http://www.w3.org/1999/xlink" x="0px" y="0px"
	 viewBox="0 0 307.7 36.5" style="enable-background:new 0 0 307.7 36.5;" xml:space="preserve">
<style type="text/css">
	.st0{fill:#FFFFFF;}
</style>
<g>
	<path class="st0" d="M32,36h-6.9l-2.9-8.6H8.4L5.5,36H0L11.9,0h8L32,36z M20.5,22.2L15.2,6.2L10,22.2H20.5z"/>
	<path class="st0" d="M54.6,36H49v-5.4c-1.5,4-4.2,5.9-7.9,5.9c-3.3,0-5.8-1.4-7.5-4.1c-1.7-2.7-2.6-6.1-2.6-10.2
		c0-3.8,0.9-7,2.7-9.8c1.8-2.8,4.4-4.2,7.7-4.2c3.4,0,5.8,1.6,7.1,4.7V0h6V36z M48.6,20.3c0-2.2-0.5-3.8-1.5-5c-1-1.2-2.4-1.8-4-1.8
		c-1.8,0-3.2,0.8-4.2,2.3c-1,1.5-1.5,3.9-1.5,6.9c0,5.9,1.9,8.9,5.6,8.9c1.5,0,2.8-0.6,3.9-1.9s1.7-2.9,1.7-4.9V20.3z"/>
	<path class="st0" d="M64.9,36h-6V9.4h5.4v6.4c0.8-2.5,1.8-4.3,3.2-5.4c1.4-1.1,2.7-1.7,4.2-1.7c0.2,0,0.5,0,0.8,0v6.5
		c-3.1,0-5.1,1-6.1,2.9c-1,2-1.5,3.8-1.5,5.7V36z"/>
	<path class="st0" d="M79.8,6.2h-6V0h6V6.2z M79.8,36h-6V9.4h6V36z"/>
	<path class="st0" d="M106.8,36h-5.7c-0.5-1.6-0.8-3.4-0.9-5.4c-1.6,4-4.6,5.9-9,5.9c-2.7,0-4.8-0.8-6.4-2.3s-2.4-3.5-2.4-5.9
		c0-6.1,5.4-9.2,16.1-9.2c0.4,0,1,0,1.7,0v-2c0-2.8-1.9-4.1-5.6-4.1c-3.7,0-5.7,1.4-6.2,4.1l-5.1-0.8c0.3-2.2,1.4-4,3.4-5.5
		c2-1.4,4.9-2.1,8.7-2.1c2.1,0,3.7,0.2,5,0.5c1.3,0.3,2.4,0.9,3.3,1.7s1.5,1.7,1.9,2.7c0.3,1,0.5,2.6,0.5,4.9v12
		C106,32.4,106.3,34.1,106.8,36z M100.2,22.4c-7.8,0-11.7,1.9-11.7,5.6c0,1.1,0.4,2.1,1.2,2.8c0.8,0.8,2,1.2,3.5,1.2
		c2.3,0,4-0.7,5.2-2.2c1.2-1.5,1.8-3.1,1.8-4.9V22.4z"/>
	<path class="st0" d="M132.3,36h-6V19.4c0-1.8-0.4-3.1-1.2-4c-0.8-0.9-1.8-1.3-2.9-1.3c-1.6,0-2.9,0.7-4.1,2.1
		c-1.2,1.4-1.8,3.4-1.8,6.2V36h-6V9.4h5.5v6.2c1.9-4.5,4.6-6.7,8.1-6.7c2.3,0,4.3,0.7,6,2.2s2.5,4.1,2.5,7.8V36z"/>
	<path class="st0" d="M153.9,36h-6.5V0h6.5V36z"/>
	<path class="st0" d="M181.3,36h-5.7c-0.5-1.6-0.8-3.4-0.9-5.4c-1.6,4-4.6,5.9-9,5.9c-2.7,0-4.8-0.8-6.4-2.3s-2.4-3.5-2.4-5.9
		c0-6.1,5.4-9.2,16.1-9.2c0.4,0,1,0,1.7,0v-2c0-2.8-1.9-4.1-5.6-4.1c-3.7,0-5.7,1.4-6.2,4.1l-5.1-0.8c0.3-2.2,1.4-4,3.4-5.5
		c2-1.4,4.9-2.1,8.7-2.1c2.1,0,3.7,0.2,5,0.5c1.3,0.3,2.4,0.9,3.3,1.7s1.5,1.7,1.9,2.7c0.3,1,0.5,2.6,0.5,4.9v12
		C180.5,32.4,180.7,34.1,181.3,36z M174.6,22.4c-7.8,0-11.7,1.9-11.7,5.6c0,1.1,0.4,2.1,1.2,2.8c0.8,0.8,2,1.2,3.5,1.2
		c2.3,0,4-0.7,5.2-2.2c1.2-1.5,1.8-3.1,1.8-4.9V22.4z"/>
	<path class="st0" d="M200.1,26.2l5.2,0.5c-0.7,3.3-2,5.8-3.9,7.4c-1.9,1.6-4.2,2.4-6.9,2.4c-3.7,0-6.5-1.3-8.5-4s-3-6-3-9.8
		c0-4,1.1-7.3,3.2-9.9c2.2-2.6,5-3.9,8.6-3.9c5.8,0,9.3,3.1,10.4,9.2l-5.2,0.7c-0.5-3.3-2.1-5-4.9-5c-2,0-3.5,0.9-4.4,2.7
		c-0.9,1.8-1.4,3.9-1.4,6.5c0,2.7,0.5,4.8,1.4,6.2c1,1.5,2.3,2.2,4,2.2C197.5,31.3,199.2,29.6,200.1,26.2z"/>
	<path class="st0" d="M228.8,36h-5.6v-5.7c-1.5,4.2-4.3,6.3-8.4,6.3c-2.4,0-4.4-0.8-5.8-2.3s-2.1-3.6-2.1-6.3V9.4h6.1v17.3
		c0,1.9,0.4,3.2,1.3,3.8c0.8,0.6,1.7,0.9,2.5,0.9c1.3,0,2.6-0.6,4-1.8c1.4-1.2,2-3.7,2-7.5V9.4h6V36z"/>
	<path class="st0" d="M243.5,36.5c-3.9,0-6.9-1.4-9-4.2c-2.1-2.8-3.1-6.1-3.1-9.7c0-3.9,1.1-7.2,3.4-9.8c2.3-2.6,5.3-3.9,9.1-3.9
		c3.6,0,6.5,1.3,8.8,3.8c2.3,2.5,3.4,5.9,3.4,9.9c0,4.2-1.2,7.6-3.6,10.1C250.1,35.3,247.1,36.5,243.5,36.5z M243.7,31.6
		c4,0,6.1-3,6.1-9c0-2.7-0.5-4.9-1.5-6.4c-1-1.6-2.5-2.4-4.5-2.4c-2.1,0-3.6,0.8-4.6,2.4c-1,1.6-1.5,3.8-1.5,6.5
		c0,2.9,0.5,5.1,1.6,6.6C240.4,30.8,241.8,31.6,243.7,31.6z"/>
	<path class="st0" d="M280.7,36h-6V19.4c0-1.8-0.4-3.1-1.2-4c-0.8-0.9-1.8-1.3-2.9-1.3c-1.6,0-2.9,0.7-4.1,2.1
		c-1.2,1.4-1.8,3.4-1.8,6.2V36h-6V9.4h5.5v6.2c1.9-4.5,4.6-6.7,8.1-6.7c2.3,0,4.3,0.7,6,2.2c1.7,1.5,2.5,4.1,2.5,7.8V36z"/>
	<path class="st0" d="M301.8,27.5l5.4,0.7c-0.7,2.4-2.1,4.4-4.1,6c-2,1.6-4.6,2.3-7.7,2.3c-3.7,0-6.7-1.2-8.9-3.7
		c-2.3-2.5-3.4-5.8-3.4-10.1c0-4,1.1-7.4,3.4-10s5.3-4,9.2-4c3.8,0,6.7,1.3,8.8,3.9c2.1,2.6,3.1,5.9,3.1,10l0,0.7h-18.3
		c0,1.8,0.2,3.3,0.5,4.4c0.3,1.1,1,2,2,2.8c1,0.8,2.3,1.2,3.8,1.2C298.8,31.8,300.8,30.4,301.8,27.5z M301.5,19.5
		c0-1.9-0.6-3.5-1.7-4.7c-1.1-1.2-2.5-1.8-4.2-1.8c-1.7,0-3,0.6-4.1,1.7s-1.8,2.7-2,4.8H301.5z"/>
</g>
<text transform="matrix(1.0432 0 0 1 489.0674 142.3545)" style="fill:#506F8E; font-family:'FranklinGothic-Medium'; font-size:27px; letter-spacing:-1;">software developer</text>
</svg>
