<?xml version="1.0" encoding="utf-8"?>
<!-- Generator: Adobe Illustrator 23.0.1, SVG Export Plug-In . SVG Version: 6.00 Build 0)  -->
<svg version="1.1" id="Layer_1" xmlns="http://www.w3.org/2000/svg" xmlns:xlink="http://www.w3.org/1999/xlink" x="0px" y="0px"
	 viewBox="0 0 205.6 22.8" style="enable-background:new 0 0 205.6 22.8;" xml:space="preserve">
<style type="text/css">
	.st0{fill:#FFFFFF;}
	.st1{fill:#506F8E;}
</style>
<g>
	<path class="st0" d="M-457.2-88.1h-6.9l-2.9-8.6h-13.8l-2.8,8.6h-5.5l11.9-36h8L-457.2-88.1z M-468.8-101.8l-5.2-16.1l-5.2,16.1
		H-468.8z"/>
	<path class="st0" d="M-434.6-88.1h-5.6v-5.4c-1.5,4-4.2,5.9-7.9,5.9c-3.3,0-5.8-1.4-7.5-4.1c-1.7-2.7-2.6-6.1-2.6-10.2
		c0-3.8,0.9-7,2.7-9.8c1.8-2.8,4.4-4.2,7.7-4.2c3.4,0,5.8,1.6,7.1,4.7v-13h6V-88.1z M-440.6-103.8c0-2.2-0.5-3.8-1.5-5
		c-1-1.2-2.4-1.8-4-1.8c-1.8,0-3.2,0.8-4.2,2.3c-1,1.5-1.5,3.9-1.5,6.9c0,5.9,1.9,8.9,5.6,8.9c1.5,0,2.8-0.6,3.9-1.9
		s1.7-2.9,1.7-4.9V-103.8z"/>
	<path class="st0" d="M-424.4-88.1h-6v-26.6h5.4v6.4c0.8-2.5,1.8-4.3,3.2-5.4c1.4-1.1,2.7-1.7,4.2-1.7c0.2,0,0.5,0,0.8,0v6.5
		c-3.1,0-5.1,1-6.1,2.9c-1,2-1.5,3.8-1.5,5.7V-88.1z"/>
	<path class="st0" d="M-409.5-117.8h-6v-6.2h6V-117.8z M-409.5-88.1h-6v-26.6h6V-88.1z"/>
	<path class="st0" d="M-382.4-88.1h-5.7c-0.5-1.6-0.8-3.4-0.9-5.4c-1.6,4-4.6,5.9-9,5.9c-2.7,0-4.8-0.8-6.4-2.3s-2.4-3.5-2.4-5.9
		c0-6.1,5.4-9.2,16.1-9.2c0.4,0,1,0,1.7,0v-2c0-2.8-1.9-4.1-5.6-4.1c-3.7,0-5.7,1.4-6.2,4.1l-5.1-0.8c0.3-2.2,1.4-4,3.4-5.5
		c2-1.4,4.9-2.1,8.7-2.1c2.1,0,3.7,0.2,5,0.5c1.3,0.3,2.4,0.9,3.3,1.7s1.5,1.7,1.9,2.7c0.3,1,0.5,2.6,0.5,4.9v12
		C-383.2-91.7-383-89.9-382.4-88.1z M-389.1-101.6c-7.8,0-11.7,1.9-11.7,5.6c0,1.1,0.4,2.1,1.2,2.8c0.8,0.8,2,1.2,3.5,1.2
		c2.3,0,4-0.7,5.2-2.2c1.2-1.5,1.8-3.1,1.8-4.9V-101.6z"/>
	<path class="st0" d="M-357-88.1h-6v-16.6c0-1.8-0.4-3.1-1.2-4c-0.8-0.9-1.8-1.3-2.9-1.3c-1.6,0-2.9,0.7-4.1,2.1
		c-1.2,1.4-1.8,3.4-1.8,6.2v13.7h-6v-26.6h5.5v6.2c1.9-4.5,4.6-6.7,8.1-6.7c2.3,0,4.3,0.7,6,2.2s2.5,4.1,2.5,7.8V-88.1z"/>
	<path class="st0" d="M-335.4-88.1h-6.5v-36h6.5V-88.1z"/>
	<path class="st0" d="M-308-88.1h-5.7c-0.5-1.6-0.8-3.4-0.9-5.4c-1.6,4-4.6,5.9-9,5.9c-2.7,0-4.8-0.8-6.4-2.3s-2.4-3.5-2.4-5.9
		c0-6.1,5.4-9.2,16.1-9.2c0.4,0,1,0,1.7,0v-2c0-2.8-1.9-4.1-5.6-4.1c-3.7,0-5.7,1.4-6.2,4.1l-5.1-0.8c0.3-2.2,1.4-4,3.4-5.5
		c2-1.4,4.9-2.1,8.7-2.1c2.1,0,3.7,0.2,5,0.5c1.3,0.3,2.4,0.9,3.3,1.7s1.5,1.7,1.9,2.7c0.3,1,0.5,2.6,0.5,4.9v12
		C-308.8-91.7-308.5-89.9-308-88.1z M-314.6-101.6c-7.8,0-11.7,1.9-11.7,5.6c0,1.1,0.4,2.1,1.2,2.8c0.8,0.8,2,1.2,3.5,1.2
		c2.3,0,4-0.7,5.2-2.2c1.2-1.5,1.8-3.1,1.8-4.9V-101.6z"/>
	<path class="st0" d="M-289.2-97.8l5.2,0.5c-0.7,3.3-2,5.8-3.9,7.4c-1.9,1.6-4.2,2.4-6.9,2.4c-3.7,0-6.5-1.3-8.5-4s-3-6-3-9.8
		c0-4,1.1-7.3,3.2-9.9c2.2-2.6,5-3.9,8.6-3.9c5.8,0,9.3,3.1,10.4,9.2l-5.2,0.7c-0.5-3.3-2.1-5-4.9-5c-2,0-3.5,0.9-4.4,2.7
		c-0.9,1.8-1.4,3.9-1.4,6.5c0,2.7,0.5,4.8,1.4,6.2c1,1.5,2.3,2.2,4,2.2C-291.8-92.8-290-94.5-289.2-97.8z"/>
	<path class="st0" d="M-260.5-88.1h-5.6v-5.7c-1.5,4.2-4.3,6.3-8.4,6.3c-2.4,0-4.4-0.8-5.8-2.3s-2.1-3.6-2.1-6.3v-18.6h6.1v17.3
		c0,1.9,0.4,3.2,1.3,3.8c0.8,0.6,1.7,0.9,2.5,0.9c1.3,0,2.6-0.6,4-1.8c1.4-1.2,2-3.7,2-7.5v-12.8h6V-88.1z"/>
	<path class="st0" d="M-245.8-87.5c-3.9,0-6.9-1.4-9-4.2c-2.1-2.8-3.1-6.1-3.1-9.7c0-3.9,1.1-7.2,3.4-9.8c2.3-2.6,5.3-3.9,9.1-3.9
		c3.6,0,6.5,1.3,8.8,3.8c2.3,2.5,3.4,5.9,3.4,9.9c0,4.2-1.2,7.6-3.6,10.1C-239.1-88.8-242.1-87.5-245.8-87.5z M-245.6-92.5
		c4,0,6.1-3,6.1-9c0-2.7-0.5-4.9-1.5-6.4c-1-1.6-2.5-2.4-4.5-2.4c-2.1,0-3.6,0.8-4.6,2.4c-1,1.6-1.5,3.8-1.5,6.5
		c0,2.9,0.5,5.1,1.6,6.6C-248.9-93.2-247.4-92.5-245.6-92.5z"/>
	<path class="st0" d="M-208.6-88.1h-6v-16.6c0-1.8-0.4-3.1-1.2-4c-0.8-0.9-1.8-1.3-2.9-1.3c-1.6,0-2.9,0.7-4.1,2.1
		c-1.2,1.4-1.8,3.4-1.8,6.2v13.7h-6v-26.6h5.5v6.2c1.9-4.5,4.6-6.7,8.1-6.7c2.3,0,4.3,0.7,6,2.2c1.7,1.5,2.5,4.1,2.5,7.8V-88.1z"/>
	<path class="st0" d="M-187.4-96.6l5.4,0.7c-0.7,2.4-2.1,4.4-4.1,6c-2,1.6-4.6,2.3-7.7,2.3c-3.7,0-6.7-1.2-8.9-3.7
		c-2.3-2.5-3.4-5.8-3.4-10.1c0-4,1.1-7.4,3.4-10s5.3-4,9.2-4c3.8,0,6.7,1.3,8.8,3.9c2.1,2.6,3.1,5.9,3.1,10l0,0.7h-18.3
		c0,1.8,0.2,3.3,0.5,4.4c0.3,1.1,1,2,2,2.8c1,0.8,2.3,1.2,3.8,1.2C-190.5-92.2-188.5-93.7-187.4-96.6z M-187.8-104.5
		c0-1.9-0.6-3.5-1.7-4.7c-1.1-1.2-2.5-1.8-4.2-1.8c-1.7,0-3,0.6-4.1,1.7s-1.8,2.7-2,4.8H-187.8z"/>
</g>
<g>
	<path class="st1" d="M0,15.2l2.9-0.5c0.4,1.1,1.4,1.6,3,1.6c1.9,0,2.9-0.5,2.9-1.6c0-0.4-0.2-0.6-0.5-0.9c-0.3-0.2-0.7-0.4-1.1-0.5
		l-2.5-0.5C2,12.4,0.6,11,0.6,8.9c0-1.2,0.4-2.2,1.3-3c0.9-0.8,2.2-1.2,4-1.2c2.9,0,4.7,1,5.4,3.1L8.5,8.3C8.2,7.3,7.3,6.8,6,6.8
		c-1.7,0-2.5,0.5-2.5,1.5c0,0.7,0.7,1.2,2,1.4l3,0.6c2.3,0.5,3.5,1.7,3.5,3.8c0,1.5-0.6,2.6-1.8,3.3c-1.2,0.7-2.6,1.1-4.3,1.1
		c-1.4,0-2.7-0.3-3.8-0.8C1,17.2,0.3,16.4,0,15.2z"/>
	<path class="st1" d="M18.5,18.6c-2.1,0-3.6-0.7-4.7-2.1c-1.1-1.4-1.6-3-1.6-4.9c0-2,0.6-3.6,1.8-4.9c1.2-1.3,2.8-2,4.7-2
		c1.9,0,3.4,0.6,4.6,1.9c1.2,1.3,1.8,2.9,1.8,5c0,2.1-0.6,3.8-1.9,5.1C22,17.9,20.4,18.6,18.5,18.6z M18.6,16.1
		c2.1,0,3.2-1.5,3.2-4.5c0-1.4-0.3-2.4-0.8-3.2c-0.5-0.8-1.3-1.2-2.3-1.2c-1.1,0-1.9,0.4-2.4,1.2c-0.5,0.8-0.8,1.9-0.8,3.2
		c0,1.5,0.3,2.6,0.8,3.3S17.7,16.1,18.6,16.1z"/>
	<path class="st1" d="M30.1,18.3h-3v-11H25V5h2.1V4.3c0-1.3,0.3-2.3,1-3.1s2-1.2,4-1.2c0.3,0,0.7,0,1.1,0v2.4c-0.4,0-0.7,0-0.8,0
		c-0.8,0-1.3,0.1-1.6,0.3c-0.3,0.2-0.5,0.4-0.6,0.7c-0.1,0.3-0.1,0.8-0.1,1.6h3.1v2.3h-3.1V18.3z"/>
	<path class="st1" d="M41.1,16v2.3c-0.9,0.2-1.7,0.3-2.2,0.3c-0.8,0-1.6-0.2-2.2-0.5c-0.6-0.3-1-0.8-1.3-1.3
		c-0.3-0.6-0.4-1.4-0.4-2.6V7.3h-1.7V5h1.9l0.3-3.5l2.6-0.2V5h2.8v2.3h-2.8v6.5c0,0.8,0.2,1.4,0.5,1.7c0.3,0.3,0.9,0.5,1.8,0.5
		C40.6,16,40.8,16,41.1,16z"/>
	<path class="st1" d="M59.8,5l-4.1,13.3h-2.8L50.4,9l-2.5,9.3H45L40.8,5h3.3l2.7,9l2.4-9h2.8l2.4,9l2.7-9H59.8z"/>
	<path class="st1" d="M72.2,18.3h-3c-0.3-0.8-0.4-1.7-0.5-2.7c-0.8,2-2.4,3-4.7,3c-1.4,0-2.5-0.4-3.3-1.2c-0.8-0.8-1.3-1.8-1.3-2.9
		c0-3.1,2.8-4.6,8.4-4.6c0.2,0,0.5,0,0.9,0v-1c0-1.4-1-2.1-2.9-2.1c-1.9,0-3,0.7-3.2,2.1l-2.7-0.4c0.1-1.1,0.7-2,1.8-2.7
		c1-0.7,2.6-1.1,4.5-1.1c1.1,0,1.9,0.1,2.6,0.3c0.7,0.2,1.3,0.5,1.7,0.9c0.5,0.4,0.8,0.9,1,1.3c0.2,0.5,0.3,1.3,0.3,2.4v6
		C71.8,16.5,71.9,17.4,72.2,18.3z M68.8,11.5c-4.1,0-6.1,0.9-6.1,2.8c0,0.6,0.2,1,0.6,1.4c0.4,0.4,1,0.6,1.9,0.6
		c1.2,0,2.1-0.4,2.7-1.1c0.6-0.7,0.9-1.5,0.9-2.5V11.5z"/>
	<path class="st1" d="M77.3,18.3h-3.1V5H77v3.2c0.4-1.2,1-2.1,1.7-2.7c0.7-0.6,1.4-0.9,2.2-0.9c0.1,0,0.2,0,0.4,0v3.2
		c-1.6,0-2.7,0.5-3.2,1.5s-0.8,1.9-0.8,2.8V18.3z"/>
	<path class="st1" d="M91,14.1l2.8,0.4c-0.4,1.2-1.1,2.2-2.1,3c-1.1,0.8-2.4,1.2-4,1.2c-1.9,0-3.5-0.6-4.6-1.9s-1.8-2.9-1.8-5
		c0-2,0.6-3.7,1.8-5c1.2-1.3,2.8-2,4.8-2c2,0,3.5,0.7,4.6,2c1.1,1.3,1.6,3,1.6,5l0,0.3h-9.5c0,0.9,0.1,1.6,0.3,2.2
		c0.2,0.5,0.5,1,1.1,1.4c0.5,0.4,1.2,0.6,2,0.6C89.4,16.2,90.4,15.5,91,14.1z M90.8,10.1c0-1-0.3-1.7-0.9-2.3s-1.3-0.9-2.2-0.9
		c-0.9,0-1.6,0.3-2.2,0.8c-0.6,0.6-0.9,1.4-1,2.4H90.8z"/>
	<path class="st1" d="M112.6,18.3h-2.9v-2.7c-0.8,2-2.2,3-4.1,3c-1.7,0-3-0.7-3.9-2s-1.4-3.1-1.4-5.1c0-1.9,0.5-3.5,1.4-4.9
		c0.9-1.4,2.3-2.1,4-2.1c1.8,0,3,0.8,3.7,2.3V0.3h3.1V18.3z M109.5,10.4c0-1.1-0.3-1.9-0.8-2.5c-0.5-0.6-1.2-0.9-2.1-0.9
		c-0.9,0-1.7,0.4-2.2,1.2c-0.5,0.8-0.8,1.9-0.8,3.5c0,3,1,4.5,2.9,4.5c0.8,0,1.5-0.3,2-1c0.6-0.6,0.9-1.5,0.9-2.4V10.4z"/>
	<path class="st1" d="M123.8,14.1l2.8,0.4c-0.4,1.2-1.1,2.2-2.1,3c-1.1,0.8-2.4,1.2-4,1.2c-1.9,0-3.5-0.6-4.6-1.9s-1.8-2.9-1.8-5
		c0-2,0.6-3.7,1.8-5c1.2-1.3,2.8-2,4.8-2c2,0,3.5,0.7,4.6,2c1.1,1.3,1.6,3,1.6,5l0,0.3h-9.5c0,0.9,0.1,1.6,0.3,2.2
		c0.2,0.5,0.5,1,1.1,1.4s1.2,0.6,2,0.6C122.2,16.2,123.3,15.5,123.8,14.1z M123.6,10.1c0-1-0.3-1.7-0.9-2.3
		c-0.6-0.6-1.3-0.9-2.2-0.9c-0.9,0-1.6,0.3-2.2,0.8c-0.6,0.6-0.9,1.4-1,2.4H123.6z"/>
	<path class="st1" d="M138.5,5l-4.7,13.3h-2.6L126.3,5h3.3l3.2,9l3.2-9H138.5z"/>
	<path class="st1" d="M147.7,14.1l2.8,0.4c-0.4,1.2-1.1,2.2-2.1,3c-1.1,0.8-2.4,1.2-4,1.2c-1.9,0-3.5-0.6-4.6-1.9s-1.8-2.9-1.8-5
		c0-2,0.6-3.7,1.8-5c1.2-1.3,2.8-2,4.8-2c2,0,3.5,0.7,4.6,2c1.1,1.3,1.6,3,1.6,5l0,0.3h-9.5c0,0.9,0.1,1.6,0.3,2.2
		c0.2,0.5,0.5,1,1.1,1.4c0.5,0.4,1.2,0.6,2,0.6C146.2,16.2,147.2,15.5,147.7,14.1z M147.6,10.1c0-1-0.3-1.7-0.9-2.3
		s-1.3-0.9-2.2-0.9c-0.9,0-1.6,0.3-2.2,0.8c-0.6,0.6-0.9,1.4-1,2.4H147.6z"/>
	<path class="st1" d="M155.4,18.3h-3.1v-18h3.1V18.3z"/>
	<path class="st1" d="M163.2,18.6c-2.1,0-3.6-0.7-4.7-2.1s-1.6-3-1.6-4.9c0-2,0.6-3.6,1.8-4.9c1.2-1.3,2.8-2,4.7-2
		c1.9,0,3.4,0.6,4.6,1.9s1.8,2.9,1.8,5c0,2.1-0.6,3.8-1.9,5.1C166.7,17.9,165.2,18.6,163.2,18.6z M163.4,16.1c2.1,0,3.2-1.5,3.2-4.5
		c0-1.4-0.3-2.4-0.8-3.2c-0.5-0.8-1.3-1.2-2.3-1.2c-1.1,0-1.9,0.4-2.4,1.2c-0.5,0.8-0.8,1.9-0.8,3.2c0,1.5,0.3,2.6,0.8,3.3
		S162.4,16.1,163.4,16.1z"/>
	<path class="st1" d="M174.5,22.8h-3.2V5h3v2.3c1-1.7,2.4-2.6,4.3-2.6c1.5,0,2.8,0.6,3.7,1.9c0.9,1.3,1.4,2.9,1.4,4.9
		c0,1.9-0.4,3.5-1.3,4.9s-2.2,2.1-3.9,2.1c-1.8,0-3.1-0.7-3.9-2.1V22.8z M174.5,12.8c0,1,0.3,1.8,0.9,2.4c0.6,0.6,1.3,1,2,1
		c1,0,1.7-0.4,2.2-1.3c0.5-0.8,0.7-1.9,0.7-3.2c0-1.4-0.2-2.5-0.7-3.3c-0.5-0.8-1.2-1.3-2.1-1.3c-0.8,0-1.5,0.3-2.1,1
		c-0.6,0.7-0.9,1.6-0.9,2.7V12.8z"/>
	<path class="st1" d="M193.9,14.1l2.8,0.4c-0.4,1.2-1.1,2.2-2.1,3s-2.4,1.2-4,1.2c-1.9,0-3.5-0.6-4.6-1.9s-1.8-2.9-1.8-5
		c0-2,0.6-3.7,1.8-5s2.8-2,4.8-2c2,0,3.5,0.7,4.6,2s1.6,3,1.6,5l0,0.3h-9.5c0,0.9,0.1,1.6,0.3,2.2c0.2,0.5,0.5,1,1.1,1.4
		s1.2,0.6,2,0.6C192.4,16.2,193.4,15.5,193.9,14.1z M193.8,10.1c0-1-0.3-1.7-0.9-2.3c-0.6-0.6-1.3-0.9-2.2-0.9
		c-0.9,0-1.6,0.3-2.2,0.8c-0.6,0.6-0.9,1.4-1,2.4H193.8z"/>
	<path class="st1" d="M201.6,18.3h-3.1V5h2.8v3.2c0.4-1.2,1-2.1,1.7-2.7s1.4-0.9,2.2-0.9c0.1,0,0.2,0,0.4,0v3.2
		c-1.6,0-2.7,0.5-3.2,1.5c-0.5,1-0.8,1.9-0.8,2.8V18.3z"/>
</g>
</svg>
