<?xml version="1.0" encoding="utf-8"?>
<!-- Generator: Adobe Illustrator 23.0.1, SVG Export Plug-In . SVG Version: 6.00 Build 0)  -->
<svg version="1.1" id="Layer_1" xmlns="http://www.w3.org/2000/svg" xmlns:xlink="http://www.w3.org/1999/xlink" x="0px" y="0px"
	 viewBox="0 0 561.8 592.8" style="enable-background:new 0 0 561.8 592.8;" xml:space="preserve">
<style type="text/css">
	.st0{fill:#00D8FF;}
	.st1{fill:none;}
	.st2{font-family:'Verdana';}
	.st3{font-size:80px;}
</style>
<circle class="st0" cx="280.9" cy="255" r="47.7"/>
<g>
	<path class="st0" d="M280.9,364.2c-66.9,0-125.5-7.9-169.3-22.9c-28.4-9.6-52.5-22.5-69.7-37.3C23.7,288.4,14,271.4,14,255
		c0-31.5,34.6-62.4,92.6-82.5c47.5-16.6,109.4-25.7,174.2-25.7c63.6,0,124.7,9,171.9,25.2c27.6,9.5,50.9,21.9,67.4,35.5
		c17.9,15,27.4,31.5,27.4,47.5c0,32.7-38.6,66-101,86.6C402.5,356.1,343.7,364.2,280.9,364.2z M280.9,169.5
		c-61.4,0-122.3,9-166.7,24.5c-53.3,18.6-77.3,44.1-77.3,61c0,17.6,25.7,45.4,82.1,64.8c41.4,14.2,97.4,21.7,161.9,21.7
		c60.4,0,116.7-7.6,158.6-21.6c58.6-19.4,85.4-47.3,85.4-64.9c0-9.1-6.8-19.6-19.3-30c-14.3-11.9-35.2-22.9-60.2-31.5
		C400.5,178,342.1,169.5,280.9,169.5z"/>
</g>
<g>
	<path class="st0" d="M172.7,492.6c-9.7,0-18.2-2.1-25.4-6.3c-27.2-15.8-36.8-61.1-25.2-121.5c9.4-49.5,32.4-107.6,64.8-163.8
		c31.8-55.1,70-103.5,107.7-136.3c22-19.2,44.4-33.2,64.5-40.6C381,16,400,16,413.9,24c28.4,16.4,37.8,66.4,24.5,130.7
		c-9.4,45.5-31.8,100.6-63.2,155c-33.4,58-69.5,104.7-104.4,135.2c-22.6,19.7-45.8,34.2-67.1,41.7
		C192.4,490.6,182,492.6,172.7,492.6z M196.6,206.8l9.9,5.7c-30.7,53.2-53.3,110.2-62.1,156.7c-10.5,55.6-0.4,89,14.3,97.4
		c3.6,2.1,8.4,3.3,14.2,3.3c18.9,0,48.6-11.9,83-42c32.9-28.8,67.4-73.6,99.7-129.4c30.2-52.4,51.7-105,60.6-148.2
		c12.4-60.5,1.7-97.5-13.6-106.4c-7.8-4.4-20.4-3.9-35.6,1.7c-17.5,6.5-37.5,19.1-57.4,36.5c-35.8,31.2-72.4,77.5-102.9,130.5
		L196.6,206.8z"/>
</g>
<g>
	<path class="st0" d="M389,492.9c-25.8,0-58.6-15.6-92.8-45.1C258,415,219.2,366.1,186.7,310l0,0c-31.9-55.1-54.7-112.4-64.3-161.5
		c-5.6-28.7-6.6-55-3.1-76.2c3.9-23.1,13.4-39.5,27.3-47.6c28.3-16.5,76.5,0.5,125.5,44.1c34.8,30.9,71.3,77.8,102.6,132.1
		c33.5,58,56,112.6,65,157.9c5.8,29.5,6.7,56.8,2.7,79.1c-4.3,23.7-14.3,40.4-28.5,48.7C406.9,490.8,398.5,492.9,389,492.9z
		 M206.5,298.6c30.8,53.2,68.9,101.4,104.7,132c42.8,36.9,76.8,44.9,91.6,36.3c15.3-8.9,26.5-45.1,14.9-103.5
		c-8.6-42.9-30.1-95.1-62.4-150.9c-30.3-52.4-65.2-97.2-98.1-126.5c-46.1-41-83.6-50.3-98.9-41.4c-7.8,4.4-13.6,15.8-16.4,31.7
		c-3.2,18.4-2.2,42,3,67.9C154,190.8,175.9,245.5,206.5,298.6L206.5,298.6z"/>
</g>
<rect x="147.5" y="518.8" class="st1" width="272" height="63"/>
<text transform="matrix(1 0 0 1 147.5 579.5873)" class="st0 st2 st3">REACT</text>
</svg>
