<?xml version="1.0" encoding="utf-8"?>
<!-- Generator: Adobe Illustrator 23.0.1, SVG Export Plug-In . SVG Version: 6.00 Build 0)  -->
<svg version="1.1" id="Layer_1" xmlns="http://www.w3.org/2000/svg" xmlns:xlink="http://www.w3.org/1999/xlink" x="0px" y="0px"
	 viewBox="0 0 2362.9 1028.2" style="enable-background:new 0 0 2362.9 1028.2;" xml:space="preserve">
<style type="text/css">
	.st0{display:none;}
	.st1{display:inline;fill:#E2E2E2;}
	.st2{display:inline;fill:#4A94C6;}
	.st3{fill:none;stroke:#000000;stroke-width:1.9408;stroke-miterlimit:10;}
	.st4{stroke:#000000;stroke-width:1.9408;stroke-miterlimit:10;}
	.st5{fill:none;}
	.st6{fill:#4389AF;stroke:#000000;stroke-width:1.6017;stroke-miterlimit:10;}
	.st7{fill:#B7B7B7;}
	.st8{stroke:#000000;stroke-width:3.8815;stroke-miterlimit:10;}
	.st9{fill:#B7B7B7;stroke:#000000;stroke-width:1.9408;stroke-miterlimit:10;}
	.st10{fill:#E8E8E8;}
	.st11{fill:#E2E2E2;stroke:#000000;stroke-width:1.9408;stroke-miterlimit:10;}
	.st12{fill:#5891B7;}
	.st13{fill:#FFFFFF;}
	.st14{fill:#4C4C4C;}
	.st15{display:inline;fill:none;stroke:#000000;stroke-width:1.9408;stroke-miterlimit:10;}
	.st16{display:inline;stroke:#000000;stroke-width:1.9408;stroke-miterlimit:10;}
	.st17{display:inline;fill:#4389AF;}
	.st18{display:inline;}
	.st19{fill:#53B2DB;}
</style>
<g class="st0">
	
		<image style="display:inline;overflow:visible;enable-background:new    ;" width="495" height="263" xlink:href="../../../../../../fetch-gameshark/src/images/shark/46-469681_jaws-movie-image-with-logo-and-character-if.png"  transform="matrix(1.7535 0 0 1.7535 -4084.6052 -2797.4631)">
	</image>
</g>
<g class="st0">
	<rect x="-4672" y="-2862.9" class="st1" width="1565.1" height="823.6"/>
	<path class="st2" d="M-3766.5-2357.7c-1.4-4-2.3-7.7-3.2-11.3h-0.2c-0.9,3.7-1.9,7.5-3.1,11.2l-6.1,17.9h18.7L-3766.5-2357.7z
		 M-3718.9-2370.2c-3.5,0-6.2,0.3-7.5,0.6v24.1c1.7,0.5,4,0.7,6.6,0.7c9.7,0,15.5-4.7,15.5-13.3
		C-3704.3-2366.2-3710.1-2370.2-3718.9-2370.2z M-3718.9-2370.2c-3.5,0-6.2,0.3-7.5,0.6v24.1c1.7,0.5,4,0.7,6.6,0.7
		c9.7,0,15.5-4.7,15.5-13.3C-3704.3-2366.2-3710.1-2370.2-3718.9-2370.2z M-3766.5-2357.7c-1.4-4-2.3-7.7-3.2-11.3h-0.2
		c-0.9,3.7-1.9,7.5-3.1,11.2l-6.1,17.9h18.7L-3766.5-2357.7z M-3766.5-2357.7c-1.4-4-2.3-7.7-3.2-11.3h-0.2
		c-0.9,3.7-1.9,7.5-3.1,11.2l-6.1,17.9h18.7L-3766.5-2357.7z M-3718.9-2370.2c-3.5,0-6.2,0.3-7.5,0.6v24.1c1.7,0.5,4,0.7,6.6,0.7
		c9.7,0,15.5-4.7,15.5-13.3C-3704.3-2366.2-3710.1-2370.2-3718.9-2370.2z M-3718.9-2370.2c-3.5,0-6.2,0.3-7.5,0.6v24.1
		c1.7,0.5,4,0.7,6.6,0.7c9.7,0,15.5-4.7,15.5-13.3C-3704.3-2366.2-3710.1-2370.2-3718.9-2370.2z M-3766.5-2357.7
		c-1.4-4-2.3-7.7-3.2-11.3h-0.2c-0.9,3.7-1.9,7.5-3.1,11.2l-6.1,17.9h18.7L-3766.5-2357.7z M-3766.5-2357.7c-1.4-4-2.3-7.7-3.2-11.3
		h-0.2c-0.9,3.7-1.9,7.5-3.1,11.2l-6.1,17.9h18.7L-3766.5-2357.7z M-3718.9-2370.2c-3.5,0-6.2,0.3-7.5,0.6v24.1
		c1.7,0.5,4,0.7,6.6,0.7c9.7,0,15.5-4.7,15.5-13.3C-3704.3-2366.2-3710.1-2370.2-3718.9-2370.2z M-3555.9-2357.7
		c-1.4-4-2.3-7.7-3.2-11.3h-0.2c-0.9,3.7-1.9,7.5-3.1,11.2l-6.1,17.9h18.7L-3555.9-2357.7z M-3507.9-2370.4c-3.9,0-6.6,0.4-7.9,0.7
		v22.6h8.2c8.6,0,14-4.7,14-11.8C-3493.7-2366.8-3499.5-2370.3-3507.9-2370.4z M-3507.9-2370.4c-3.9,0-6.6,0.4-7.9,0.7v22.6h8.2
		c8.6,0,14-4.7,14-11.8C-3493.7-2366.8-3499.5-2370.3-3507.9-2370.4z M-3555.9-2357.7c-1.4-4-2.3-7.7-3.2-11.3h-0.2
		c-0.9,3.7-1.9,7.5-3.1,11.2l-6.1,17.9h18.7L-3555.9-2357.7z M-3718.9-2370.2c-3.5,0-6.2,0.3-7.5,0.6v24.1c1.7,0.5,4,0.7,6.6,0.7
		c9.7,0,15.5-4.7,15.5-13.3C-3704.3-2366.2-3710.1-2370.2-3718.9-2370.2z M-3766.5-2357.7c-1.4-4-2.3-7.7-3.2-11.3h-0.2
		c-0.9,3.7-1.9,7.5-3.1,11.2l-6.1,17.9h18.7L-3766.5-2357.7z M-4455.5-2661.1v388.1h157.4c30-83.5,108.8-253.4,279.7-365.3
		c0,0-33.6,249.8,39.4,365.3h714v-388.1H-4455.5L-4455.5-2661.1z M-3920.7-2319.8c4.9,0,9.9-1,13.1-2.6l1.6,6.3
		c-2.9,1.5-8.8,2.9-16.4,2.9c-17.5,0-30.6-11-30.6-31.4c0-19.4,13.2-32.6,32.4-32.6c7.7,0,12.6,1.7,14.7,2.8l-1.9,6.5
		c-3-1.5-7.4-2.6-12.5-2.6c-14.5,0-24.2,9.3-24.2,25.6C-3944.6-2329.6-3935.8-2319.8-3920.7-2319.8z M-3849.9-2314.1h-8.1v-29.1h-30
		v29.1h-8v-62h8v25.9h30v-25.9h8.1V-2314.1z M-3801.1-2314.1h-34.9v-62h33.5v6.7h-25.5v19.6h24.1v6.6h-24.1v22.4h26.9V-2314.1z
		 M-3752.1-2314.1l-6.6-19.5h-22l-6.4,19.5h-8.3l21.1-62h9.7l21.2,62H-3752.1z M-3701-2345.1c-4.2,4.5-11.1,6.8-19,6.8
		c-2.4,0-4.6-0.1-6.4-0.6v24.8h-8v-61.3c3.9-0.6,8.9-1.2,15.4-1.2c7.9,0,13.7,1.8,17.4,5.2c3.4,2.9,5.4,7.5,5.4,13
		C-3696.3-2352.8-3697.9-2348.4-3701-2345.1z M-3672.8-2313.1c-6,0-12.5-1.7-15.8-3.9l2-6.7c3.6,2.2,8.8,4,14.4,4
		c8.2,0,13-4.3,13-10.6c0-5.8-3.3-9.1-11.7-12.3c-10.1-3.6-16.4-8.8-16.4-17.6c0-9.7,8-16.8,20.1-16.8c6.3,0,10.9,1.5,13.7,3
		l-2.2,6.5c-2-1.1-6.2-2.9-11.8-2.9c-8.5,0-11.7,5.1-11.7,9.3c0,5.8,3.8,8.6,12.3,12c10.5,4.1,15.8,9.1,15.8,18.2
		C-3651.1-2321.4-3658.2-2313.1-3672.8-2313.1z M-3594.1-2314.1h-8.1v-29.1h-30v29.1h-8v-62h8v25.9h30v-25.9h8.1V-2314.1z
		 M-3541.5-2314.1l-6.6-19.5h-22l-6.4,19.5h-8.3l21.1-62h9.7l21.2,62H-3541.5z M-3491.8-2314.1c-1-1.7-2.4-7.1-4.1-14.8
		c-1.8-8.5-5.1-11.8-12.4-12h-7.6v26.9h-8v-61.2c4.1-0.8,9.8-1.3,15.4-1.3c8.6,0,14.1,1.6,17.9,5.1c3.1,2.8,4.9,7,4.9,11.8
		c0,8.2-5.2,13.6-11.7,15.8v0.3c4.8,1.7,7.6,6.1,9.1,12.5c2,8.7,3.5,14.6,4.8,17h-8.3V-2314.1z M-3440-2314.1l-20.4-30.5l-5.9,6.8
		v23.6h-8v-62h8v29.9h0.3c1.7-2.4,3.3-4.6,4.9-6.6l19-23.3h9.9l-22.4,26.3l24.2,35.7L-3440-2314.1L-3440-2314.1z M-3493.7-2358.8
		c0-8-5.8-11.5-14.3-11.6c-3.9,0-6.6,0.4-7.9,0.7v22.6h8.2C-3499.1-2347-3493.7-2351.7-3493.7-2358.8z M-3559.1-2369h-0.2
		c-0.9,3.7-1.9,7.5-3.1,11.2l-6.1,17.9h18.7l-6.1-17.8C-3557.3-2361.7-3558.2-2365.4-3559.1-2369z M-3718.9-2370.2
		c-3.5,0-6.2,0.3-7.5,0.6v24.1c1.7,0.5,4,0.7,6.6,0.7c9.7,0,15.5-4.7,15.5-13.3C-3704.3-2366.2-3710.1-2370.2-3718.9-2370.2z
		 M-3769.7-2369h-0.2c-0.9,3.7-1.9,7.5-3.1,11.2l-6.1,17.9h18.7l-6.1-17.8C-3767.8-2361.7-3768.8-2365.4-3769.7-2369z
		 M-3766.5-2357.7c-1.4-4-2.3-7.7-3.2-11.3h-0.2c-0.9,3.7-1.9,7.5-3.1,11.2l-6.1,17.9h18.7L-3766.5-2357.7z M-3718.9-2370.2
		c-3.5,0-6.2,0.3-7.5,0.6v24.1c1.7,0.5,4,0.7,6.6,0.7c9.7,0,15.5-4.7,15.5-13.3C-3704.3-2366.2-3710.1-2370.2-3718.9-2370.2z
		 M-3555.9-2357.7c-1.4-4-2.3-7.7-3.2-11.3h-0.2c-0.9,3.7-1.9,7.5-3.1,11.2l-6.1,17.9h18.7L-3555.9-2357.7z M-3555.9-2357.7
		c-1.4-4-2.3-7.7-3.2-11.3h-0.2c-0.9,3.7-1.9,7.5-3.1,11.2l-6.1,17.9h18.7L-3555.9-2357.7z M-3718.9-2370.2c-3.5,0-6.2,0.3-7.5,0.6
		v24.1c1.7,0.5,4,0.7,6.6,0.7c9.7,0,15.5-4.7,15.5-13.3C-3704.3-2366.2-3710.1-2370.2-3718.9-2370.2z M-3766.5-2357.7
		c-1.4-4-2.3-7.7-3.2-11.3h-0.2c-0.9,3.7-1.9,7.5-3.1,11.2l-6.1,17.9h18.7L-3766.5-2357.7z M-3766.5-2357.7c-1.4-4-2.3-7.7-3.2-11.3
		h-0.2c-0.9,3.7-1.9,7.5-3.1,11.2l-6.1,17.9h18.7L-3766.5-2357.7z M-3718.9-2370.2c-3.5,0-6.2,0.3-7.5,0.6v24.1
		c1.7,0.5,4,0.7,6.6,0.7c9.7,0,15.5-4.7,15.5-13.3C-3704.3-2366.2-3710.1-2370.2-3718.9-2370.2z M-3718.9-2370.2
		c-3.5,0-6.2,0.3-7.5,0.6v24.1c1.7,0.5,4,0.7,6.6,0.7c9.7,0,15.5-4.7,15.5-13.3C-3704.3-2366.2-3710.1-2370.2-3718.9-2370.2z
		 M-3766.5-2357.7c-1.4-4-2.3-7.7-3.2-11.3h-0.2c-0.9,3.7-1.9,7.5-3.1,11.2l-6.1,17.9h18.7L-3766.5-2357.7z M-3766.5-2357.7
		c-1.4-4-2.3-7.7-3.2-11.3h-0.2c-0.9,3.7-1.9,7.5-3.1,11.2l-6.1,17.9h18.7L-3766.5-2357.7z M-3766.5-2357.7c-1.4-4-2.3-7.7-3.2-11.3
		h-0.2c-0.9,3.7-1.9,7.5-3.1,11.2l-6.1,17.9h18.7L-3766.5-2357.7z"/>
</g>
<path class="st3" d="M-2287.8-1765.8"/>
<path class="st3" d="M-2186-1756.5"/>
<path class="st3" d="M-2427.1-1570.9"/>
<path class="st4" d="M-2287.8-1765.8"/>
<path class="st4" d="M-2186-1756.5"/>
<path class="st3" d="M-2463.1-1638.1"/>
<path class="st3" d="M-2463.1-1770c-2.6-1.5-5.4-2.1-8.3-2.2"/>
<path class="st3" d="M-2504.9-1756.5L-2504.9-1756.5"/>
<path class="st3" d="M-2474.6-1704.5L-2474.6-1704.5"/>
<path class="st3" d="M-2308-1587.6c-3.5-20.3-14.6-92.6,1-119.5"/>
<path class="st5" d="M-1938.5-3888.7"/>
<path class="st5" d="M-1613.6-4032.2"/>
<path class="st5" d="M-1584.8-3821.3"/>
<path class="st5" d="M-1525.2-4006.3"/>
<path class="st5" d="M-1482.9-3812"/>
<path class="st5" d="M-1465.5-3964.4"/>
<path class="st5" d="M-1443.9-3866.8"/>
<path class="st5" d="M-1724-3626.4"/>
<path d="M-1584.8-3821.3"/>
<path d="M-1525.2-4006.3"/>
<rect x="-3560.9" y="-1752.5" class="st6" width="1913.5" height="610.1"/>
<path d="M-1482.9-3812"/>
<path d="M-1465.5-3964.4"/>
<path d="M-1443.9-3866.8"/>
<path class="st7" d="M-1881.8-4106.2c23.1-2.4,34.4-7.3,35.1-7.6L-1881.8-4106.2z M-1868.2-3889.2c0.6,0.2,1.1,0.4,1.7,0.5
	C-1867.1-3888.9-1867.6-3889.1-1868.2-3889.2z"/>
<path class="st5" d="M-1948.7-3900.8"/>
<path class="st5" d="M-1760.1-3693.6"/>
<path class="st5" d="M-1906.5-3898.2"/>
<path class="st5" d="M-1908.1-3898.2"/>
<path class="st5" d="M-1934.4-3900.8"/>
<path class="st5" d="M-1933.9-3896"/>
<path class="st5" d="M-1897.1-3896.5"/>
<path class="st5" d="M-1896.8-3896.5"/>
<path class="st5" d="M-1868.2-3889.3"/>
<path class="st5" d="M-1890.1-3882.1"/>
<path class="st5" d="M-1862.4-3856.1C-1862.5-3856.1-1862.5-3856.1-1862.4-3856.1"/>
<path class="st5" d="M-1857.1-3871.5"/>
<path class="st5" d="M-1760.1-3825.5c-2.6-1.5-5.4-2.1-8.3-2.2"/>
<path class="st5" d="M-1801.9-3812.1C-1801.9-3812-1801.9-3812-1801.9-3812.1"/>
<line class="st5" x1="-1783.3" y1="-3847" x2="-1785.2" y2="-3843.4"/>
<path class="st5" d="M-1771.5-3760L-1771.5-3760"/>
<path class="st7" d="M-1088.7-4029.9c-171.4-153.7-368.9-48.5-418.6-41.4c-29.1,4.2-233.3-15.1-259.5-38.5c-0.4-0.4-0.6-0.6-0.6-0.6
	c-23.7-23.7-63.9-9.5-63.9-9.5l-15.4,5.9c-153.8-33.8-187.9,3.6-187.9,3.6s-29.7,65.7,85.9,209.5c0,0,5.2-0.4,14.3-0.1l0.7,0.1
	l1.3,10.8c0,0,8.3-6.8,18.7-8.9l7.3,0.7c3.1,0.5,6.4,1,9.7,1.7l0.3,0.1l-2.1,20.3c0,0,9.1-12.1,22.8-15l7.5,1.9
	c0.6,0.1,1.1,0.3,1.7,0.5c4.5,1.5,9.1,3.1,13.7,4.9l-9.7,27.7c0.4-0.3,17.9-17.6,34-16.5c0.4,0.1,0.7,0.3,1,0.5
	c3.1,1.6,6.3,3.4,9.4,5.3l0,0l-2.8,6.9l-9.9,24.5c0,0,28.1-22,35.8-15.9c3.3,2.5,6.6,5.1,9.8,7.9l-16.7,31.4
	c0.5-0.5,18.2-16.2,33.5-15.7c2,2.1,4.1,4.3,6.1,6.5l-24.9,31.9c0,0,34.6-20.5,43.6-8.7c0.1,0.1,0.1,0.2,0.2,0.3
	c0.1,0.1,0.2,0.2,0.3,0.4c1.1,1.6,2.3,3.2,3.4,4.8l-31.7,32.6c0.8-0.4,32.7-15.5,47.5-6.6c1.2,2.2,2.3,4.4,3.5,6.6
	c0.6,1.2,1.2,2.5,1.9,3.7l-34.1,23.4c0,0,27.9-4.2,44.2-0.5c0.1,0.1,0.1,0.3,0.2,0.4c0,0,10,32.4-51.6,39.4l0,0
	c0.5,1.3,23.1,54.5,155.1,50.5c0.5,2.6,0.8,4.3,0.9,5c0,0.1,0,0.2,0,0.2c0,0.1,0,0.1,0,0.1c17.7,105.4,85,204.2,85,204.2
	c28-183.5,51.9-175.3,51.9-175.3c180.3-23.5,164.7,136.7,164.7,136.7l-24.9,33.1l9.3,5.7c2,72-97.3,49.6-97.3,49.6l-193.4-60.9
	c-138-19.3-190.8,40.5-190.8,40.5l80,36l30.1-15.8c109.1,23.8,238.2,103.8,238.2,103.8c52.7-3.2,45.3,1.4,45.3,1.4
	c-4.3,6.2-25.5,12.2-25.5,12.2c26.1,22.4,43.9,77.4,51.9,99c6.9,18.7,11,119.6,11,119.6c62.1-47.9,75.2-116.3,75.2-116.3
	c-10.3-74-7.4-116.5-7.4-116.5c27.8-70.3,66.9-89.9,66.9-89.9c19.3-1.4,32.3,16.5,32.3,16.5c6.8-11.6,9.1-61.3,9.1-61.3
	c81.7-109.1,71.8-220.7,71.8-220.7c-2.4-74.4-35.5-154.9-97-223.4c-61.5-68.6-46.1-92.2-46.1-92.2
	C-1170.1-4052.5-1090.3-4030.3-1088.7-4029.9z M-1881.8-4106.2l35.1-7.6C-1847.3-4113.5-1858.7-4108.6-1881.8-4106.2z
	 M-1793.9-4032.3c-9.7,0-17.5-7.9-17.5-17.5c0-9.7,7.8-17.5,17.5-17.5c9.6,0,17.5,7.8,17.5,17.5
	C-1776.4-4040.2-1784.3-4032.3-1793.9-4032.3z M-1391.5-3780.2l-108.6-167C-1500.1-3947.2-1377.6-3888.3-1391.5-3780.2z
	 M-1360-3813.1l-63.4-113.3C-1422.4-3925.7-1353.4-3877.5-1360-3813.1z M-1377.8-3913c0,0,35.1,17.9,36.5,55.2L-1377.8-3913z"/>
<path class="st5" d="M-1605-3643.2c-3.5-20.3-14.6-92.6,1-119.5"/>
<path class="st5" d="M-1766.8-4109.7c3.7,3.4,23.6,22,32.8,25.5"/>
<path class="st3" d="M-3080.6-3994.3"/>
<path class="st3" d="M-2918.6-4155.4c0,9.6-7.8,17.5-17.5,17.5s-17.5-7.9-17.5-17.5c0-9.7,7.8-17.5,17.5-17.5
	S-2918.6-4165.1-2918.6-4155.4z"/>
<path class="st3" d="M-2755.8-4137.8"/>
<path class="st3" d="M-2726.9-3926.8"/>
<path class="st3" d="M-2667.4-4111.9"/>
<path class="st3" d="M-2625.1-3917.6"/>
<path class="st3" d="M-2607.6-4070"/>
<path class="st3" d="M-2586.1-3972.4"/>
<path class="st3" d="M-2866.2-3732"/>
<path class="st8" d="M-2918.6-4155.4c0,9.6-7.8,17.5-17.5,17.5s-17.5-7.9-17.5-17.5c0-9.7,7.8-17.5,17.5-17.5
	S-2918.6-4165.1-2918.6-4155.4z"/>
<path class="st4" d="M-2726.9-3926.8"/>
<path class="st4" d="M-2667.4-4111.9"/>
<path class="st4" d="M-2625.1-3917.6"/>
<path class="st4" d="M-2607.6-4070"/>
<path class="st4" d="M-2586.1-3972.4"/>
<path class="st9" d="M-3010.3-3994.8c0.6,0.2,1.1,0.4,1.7,0.5C-3009.2-3994.5-3009.8-3994.7-3010.3-3994.8z M-3023.9-4211.8
	c23.1-2.4,34.4-7.3,35.1-7.6L-3023.9-4211.8z M-2642.2-4052.8l108.6,167C-2519.7-3993.9-2642.2-4052.8-2642.2-4052.8z M-2565.5-4032
	l63.4,113.3C-2495.5-3983.1-2564.5-4031.3-2565.5-4032z M-2520-4018.6l36.5,55.2C-2484.9-4000.7-2520-4018.6-2520-4018.6z"/>
<path class="st3" d="M-3090.8-4006.4"/>
<path class="st3" d="M-2902.2-3799.2"/>
<rect x="-969.8" y="-4949.9" class="st10" width="3547.2" height="2301.8"/>
<path class="st11" d="M-2533.6-3885.8l-108.6-167C-2642.2-4052.8-2519.7-3993.9-2533.6-3885.8z"/>
<path class="st11" d="M-2502.2-3918.7l-63.4-113.3C-2564.5-4031.3-2495.5-3983.1-2502.2-3918.7z"/>
<path class="st11" d="M-2483.4-3963.4l-36.5-55.2C-2520-4018.6-2484.9-4000.7-2483.4-3963.4z"/>
<path class="st3" d="M-3048.6-4003.8"/>
<path class="st3" d="M-3050.2-4003.8"/>
<path class="st3" d="M-3076.6-4006.3"/>
<path class="st3" d="M-3076-4001.6"/>
<path class="st3" d="M-3039.2-4002.1"/>
<path class="st12" d="M2154.2-3578.3h-2247c-41.3,0-74.7-33.5-74.7-74.7v-190.9c0-41.3,33.5-74.7,74.7-74.7h2247
	c41.3,0,74.7,33.5,74.7,74.7v190.9C2228.9-3611.8,2195.4-3578.3,2154.2-3578.3z"/>
<path class="st3" d="M-3038.9-4002.1"/>
<path class="st3" d="M-3010.3-3994.8"/>
<path class="st3" d="M-3032.3-3987.6"/>
<path class="st3" d="M-3004.6-3961.7L-3004.6-3961.7"/>
<path class="st3" d="M-2999.2-3977.1"/>
<path class="st3" d="M-2902.2-3931.1c-2.6-1.5-5.4-2.1-8.3-2.2"/>
<path class="st3" d="M-2944-3917.6L-2944-3917.6"/>
<line class="st3" x1="-2925.4" y1="-3952.6" x2="-2927.3" y2="-3949"/>
<path class="st3" d="M-2913.7-3865.6L-2913.7-3865.6"/>
<path class="st9" d="M-2230.9-4135.4c-171.4-153.7-368.9-48.5-418.6-41.4c-29.1,4.2-233.3-15.1-259.5-38.5c-0.4-0.4-0.6-0.6-0.6-0.6
	c-23.7-23.7-63.9-9.5-63.9-9.5l-15.4,5.9c-153.8-33.8-187.9,3.6-187.9,3.6s-29.7,65.7,85.9,209.5c0,0,5.2-0.4,14.3-0.1l0.7,0.1
	l1.3,10.8c0,0,8.3-6.8,18.7-8.9l7.3,0.7c3.1,0.5,6.3,1,9.7,1.7l0.3,0.1l-2.1,20.3c0,0,9.1-12.1,22.8-15l7.5,1.9
	c0.6,0.1,1.1,0.3,1.7,0.5c4.5,1.5,9.1,3.1,13.7,4.9l-9.7,27.6c0.4-0.3,17.9-17.6,34-16.5c0.4,0.1,0.7,0.3,1,0.5
	c3.1,1.7,6.3,3.4,9.4,5.3l0,0l-2.8,6.9l-9.9,24.5c0,0,28.1-22,35.8-15.9c3.3,2.5,6.5,5.1,9.8,7.9l-16.7,31.4
	c0.5-0.5,18.2-16.2,33.5-15.7c2,2.1,4.1,4.3,6.1,6.5l-24.9,31.9c0,0,34.6-20.5,43.6-8.7c0.1,0.1,0.1,0.2,0.2,0.3
	c0.1,0.1,0.2,0.2,0.3,0.4c1.2,1.6,2.3,3.2,3.4,4.8l-31.7,32.6c0.8-0.4,32.7-15.5,47.5-6.6c1.2,2.2,2.3,4.4,3.5,6.6
	c0.6,1.2,1.2,2.5,1.9,3.7l-34.1,23.4c0,0,27.9-4.2,44.2-0.5c0.1,0.1,0.1,0.3,0.2,0.4c0,0,10,32.4-51.6,39.4l0,0
	c0.5,1.3,23.1,54.5,155.1,50.5c0.4,2.6,0.8,4.3,0.9,5c0,0.1,0,0.2,0,0.2c0,0.1,0,0.1,0,0.1c17.7,105.4,85,204.2,85,204.2
	c28-183.5,51.9-175.3,51.9-175.3c180.3-23.5,164.7,136.7,164.7,136.7l-24.9,33.1l9.3,5.7c2,72-97.3,49.6-97.3,49.6l-193.4-60.9
	c-138-19.3-190.8,40.5-190.8,40.5l80,36l30.1-15.8c109.2,23.8,238.2,103.8,238.2,103.8c52.7-3.2,45.3,1.4,45.3,1.4
	c-4.3,6.2-25.5,12.2-25.5,12.2c26.1,22.4,43.9,77.4,51.9,99c6.9,18.7,11,119.6,11,119.6c62.1-47.9,75.1-116.3,75.1-116.3
	c-10.3-74-7.4-116.5-7.4-116.5c27.8-70.3,66.9-89.9,66.9-89.9c19.3-1.4,32.3,16.5,32.3,16.5c6.8-11.6,9.1-61.3,9.1-61.3
	c81.7-109.2,71.8-220.7,71.8-220.7c-2.4-74.4-35.5-154.9-97-223.4c-61.5-68.6-46.1-92.2-46.1-92.2
	C-2312.2-4158.1-2232.5-4135.9-2230.9-4135.4z M-3023.9-4211.8l35.1-7.6C-2989.5-4219.1-3000.8-4214.2-3023.9-4211.8z
	 M-2936.1-4137.8c-9.7,0-17.5-7.9-17.5-17.5c0-9.7,7.8-17.5,17.5-17.5c9.6,0,17.5,7.8,17.5,17.5
	C-2918.6-4145.8-2926.4-4137.8-2936.1-4137.8z M-2533.6-3885.8l-108.6-167C-2642.2-4052.8-2519.7-3993.9-2533.6-3885.8z
	 M-2502.2-3918.7l-63.4-113.3C-2564.5-4031.3-2495.5-3983.1-2502.2-3918.7z M-2520-4018.6c0,0,35.1,17.9,36.5,55.2L-2520-4018.6z"/>
<path class="st3" d="M-2747.1-3748.7c-3.5-20.3-14.6-92.6,1-119.5"/>
<path class="st11" d="M-2988.8-4219.4c-0.7,0.3-12,5.2-35.1,7.6L-2988.8-4219.4z"/>
<path class="st3" d="M-2908.9-4215.3c3.6,3.4,23.6,22,32.8,25.5"/>
<path class="st3" d="M-3158.9-4047.9"/>
<g>
	<path class="st3" d="M-4219.6-3978.6"/>
	<path class="st3" d="M-4057.6-4139.7c0,9.6-7.8,17.5-17.5,17.5s-17.5-7.9-17.5-17.5c0-9.7,7.8-17.5,17.5-17.5
		C-4065.5-4157.2-4057.6-4149.4-4057.6-4139.7z"/>
	<path class="st3" d="M-3894.8-4122.1"/>
	<path class="st3" d="M-3865.9-3911.1"/>
	<path class="st3" d="M-3806.4-4096.2"/>
	<path class="st3" d="M-3764.1-3901.9"/>
	<path class="st3" d="M-3746.6-4054.3"/>
	<path class="st3" d="M-3725.1-3956.7"/>
	<path class="st3" d="M-4005.2-3716.3"/>
	<path class="st8" d="M-4057.6-4139.7c0,9.6-7.8,17.5-17.5,17.5s-17.5-7.9-17.5-17.5c0-9.7,7.8-17.5,17.5-17.5
		C-4065.5-4157.2-4057.6-4149.4-4057.6-4139.7z"/>
	<path class="st4" d="M-3865.9-3911.1"/>
	<path class="st4" d="M-3806.4-4096.2"/>
	<path class="st4" d="M-3764.1-3901.9"/>
	<path class="st4" d="M-3746.6-4054.3"/>
	<path class="st4" d="M-3725.1-3956.7"/>
	<path class="st3" d="M-3401.8-3726.1c-2.4-74.4-35.5-154.9-97-223.4c-61.5-68.6-46.1-92.2-46.1-92.2c94.6-101.7,175-78,175-78
		c-171.4-153.7-368.9-48.5-418.6-41.4c-29.3,4.2-236.5-15.4-260.1-39c-23.7-23.7-63.9-9.5-63.9-9.5l-15.4,5.9
		c-153.8-33.8-187.9,3.6-187.9,3.6s-29.7,65.7,85.9,209.5 M-3885.6-3730.2c17,106.4,85.4,206.7,85.4,206.7
		c28-183.5,51.9-175.3,51.9-175.3c180.3-23.5,164.7,136.7,164.7,136.7l-24.9,33.1l9.3,5.7c2,72-97.3,49.6-97.3,49.6l-193.4-60.9
		c-138-19.3-190.8,40.5-190.8,40.5l80,36l30.1-15.8c109.1,23.8,238.2,103.8,238.2,103.8c52.7-3.2,45.3,1.4,45.3,1.4
		c-4.3,6.2-25.5,12.2-25.5,12.2c26.1,22.4,43.9,77.4,51.9,99c6.9,18.7,11,119.6,11,119.6c62.1-47.9,75.1-116.3,75.1-116.3
		c-10.2-74-7.4-116.5-7.4-116.5c27.8-70.3,66.9-89.9,66.9-89.9c19.3-1.4,32.3,16.5,32.3,16.5c6.8-11.6,9.1-61.2,9.1-61.2
		c81.7-109.1,71.8-220.7,71.8-220.7 M-4041.2-3783.5c0,0,21.5,54.5,155.1,50.5 M-4229.9-3990.6c0,0,167.8-13.6,240.3,167.8
		c0,0,10,32.4-51.6,39.4 M-4075.1-4122.1c-9.7,0-17.5-7.9-17.5-17.5c0-9.7,7.8-17.5,17.5-17.5c9.6,0,17.5,7.8,17.5,17.5
		C-4057.6-4130.1-4065.5-4122.1-4075.1-4122.1z"/>
	<path class="st3" d="M-4229.9-3990.6"/>
	<path class="st3" d="M-4041.2-3783.5"/>
	<path class="st11" d="M-3672.7-3870.1c13.9-108.1-108.6-167-108.6-167"/>
	<path class="st11" d="M-3704.6-4016.3c0,0,70.1,48.5,63.4,113.3"/>
	<path class="st11" d="M-3659-4002.9c0,0,35,17.9,36.5,55.2"/>
	<path class="st3" d="M-4215.6-3990.6l1.4,12.1c0,0,17.9-11,26.5-9.5"/>
	<path class="st3" d="M-4177.9-3986.4l-2.6,22.8c0,0,18.4-20.6,32.9-15"/>
	<path class="st3" d="M-4134-3973.6l-9.7,27.6c0,0,24.6-21.9,35-16"/>
	<path class="st3" d="M-4099.2-3956.7l-12.7,31.4c0,0,28.1-22,35.8-15.8"/>
	<path class="st3" d="M-4070.7-3936.8l-18.6,35c0,0,25.2-22.8,41.8-13.5"/>
	<path class="st3" d="M-4043.5-3911.1l-24.9,31.9c0,0,35.8-21.2,44-8.1"/>
	<path class="st3" d="M-4021-3882.5l-31.7,32.6c0,0,32.5-15.6,47.5-6.6"/>
	<path class="st3" d="M-4001.8-3849.9l-39.5,27.1c0,0,39.6-6,52.1,2.6"/>
	<path class="st3" d="M-3885.2-3727.6c0,0-18.1-93.4,0-124.9"/>
	<path class="st11" d="M-4127.8-4203.7c0,0-11.3,5.1-35.2,7.6"/>
	<path class="st3" d="M-4048.5-4200.2c0,0,23.2,22.2,33.4,26"/>
	<path class="st3" d="M-4264.2-4037.1"/>
</g>
<path class="st7" d="M-1702.6-1595.9c-189.7-170.1-408.3-53.7-463.3-45.8c-32.2,4.6-258.2-16.7-287.2-42.6c-0.4-0.4-0.6-0.6-0.6-0.6
	c-26.2-26.2-70.7-10.5-70.7-10.5l-17,6.5c-170.2-37.4-208,4-208,4s-32.9,72.7,95,231.9c0,0,5.8-0.5,15.8-0.1l0.8,0.1l1.4,12
	c0,0,9.2-7.5,20.7-9.9l8.1,0.8c3.4,0.5,7,1.2,10.7,1.9l0.3,0.1l-2.3,22.4c0,0,10.1-13.3,25.2-16.6l8.3,2.1c0.6,0.2,1.3,0.4,1.9,0.6
	c5,1.6,10,3.4,15.2,5.5l-10.7,30.6c0.4-0.4,19.8-19.5,37.6-18.2c0.4,0.1,0.8,0.3,1.1,0.5c3.5,1.8,6.9,3.8,10.4,5.8l0,0l-3.1,7.7
	l-11,27.1c0,0,31.1-24.3,39.6-17.5c3.6,2.8,7.2,5.7,10.8,8.7l-18.5,34.7c0.6-0.5,20.1-17.9,37.1-17.4c2.2,2.3,4.5,4.7,6.7,7.2
	l-27.5,35.3c0,0,38.3-22.7,48.2-9.7c0.1,0.1,0.2,0.2,0.2,0.3c0.1,0.1,0.2,0.3,0.3,0.4c1.3,1.8,2.5,3.5,3.8,5.4l-35.1,36.1
	c0.9-0.4,36.2-17.2,52.5-7.3c1.3,2.4,2.6,4.8,3.8,7.3c0.7,1.4,1.4,2.7,2,4.1l-37.7,25.9c0,0,30.8-4.7,49-0.6
	c0.1,0.2,0.1,0.3,0.2,0.5c0,0,11,35.9-57.1,43.6l0,0c0.6,1.4,25.6,60.3,171.7,55.9c0.5,2.8,0.9,4.8,1,5.6c0,0.1,0,0.2,0,0.3
	c0,0.1,0,0.1,0,0.1c19.6,116.7,94,226,94,226c31-203.1,57.4-194,57.4-194c199.6-26,182.3,151.3,182.3,151.3l-27.6,36.7l10.3,6.3
	c2.2,79.7-107.7,54.9-107.7,54.9l-214-67.4c-152.8-21.3-211.2,44.8-211.2,44.8l88.5,39.9l33.3-17.5
	c120.8,26.4,263.6,114.9,263.6,114.9c58.3-3.5,50.2,1.5,50.2,1.5c-4.7,6.9-28.3,13.5-28.3,13.5c28.9,24.7,48.6,85.7,57.5,109.6
	c7.6,20.7,12.2,132.4,12.2,132.4c68.7-53,83.2-128.7,83.2-128.7c-11.3-81.9-8.2-129-8.2-129c30.8-77.8,74.1-99.5,74.1-99.5
	c21.3-1.5,35.7,18.2,35.7,18.2c7.6-12.9,10-67.8,10-67.8c90.4-120.8,79.5-244.3,79.5-244.3c-2.7-82.4-39.3-171.4-107.3-247.3
	c-68.1-75.9-51-102.1-51-102.1C-1792.7-1621-1704.4-1596.4-1702.6-1595.9z M-2580.4-1680.5l38.9-8.4
	C-2542.2-1688.5-2554.8-1683.1-2580.4-1680.5z M-2483.1-1598.6c-10.7,0-19.4-8.8-19.4-19.4c0-10.7,8.7-19.4,19.4-19.4
	s19.3,8.7,19.3,19.4C-2463.8-1607.3-2472.5-1598.6-2483.1-1598.6z M-2037.7-1319.6l-120.2-184.9
	C-2157.9-1504.5-2022.3-1439.3-2037.7-1319.6z M-2002.9-1356l-70.1-125.4C-2071.9-1480.6-1995.5-1427.3-2002.9-1356z
	 M-2022.6-1466.6c0,0,38.8,19.8,40.4,61.1L-2022.6-1466.6z"/>
<rect class="st12" width="2362.9" height="1028.2"/>
<rect x="-3474.2" y="-1356" class="st5" width="1070.6" height="307.1"/>
<text transform="matrix(1 0 0 1 -3474.1589 -1265.5215)" class="st7" style="font-family:'Verdana-Bold'; font-size:119px;">CHEAPSHARK</text>
<rect x="64.5" y="-3797" class="st5" width="1285.8" height="386"/>
<text transform="matrix(1 0 0 1 64.5394 -3679.9705)" class="st13" style="font-family:'Verdana-Bold'; font-size:154px;">CHEAPSHARK</text>
<path class="st7" d="M1818.2-4389.3c-225.3-47.5-343.8,142.3-383.2,173.3c-23.1,18.2-209.6,103.5-244,96.3c-0.5-0.1-0.8-0.2-0.8-0.2
	c-32.3-8.7-60.1,23.7-60.1,23.7l-10.4,12.8c-150.1,47.6-161,97-161,97s7.1,71.8,179.1,138.6c0,0,4.3-3,12.3-7.2l0.6-0.3l6.5,8.7
	c0,0,3.8-10,11.7-17.1l6.7-3c2.9-1.1,6-2.3,9.2-3.4l0.3-0.1l8.3,18.6c0,0,1.9-15,12.3-24.4l7.5-2.1c0.6-0.2,1.1-0.3,1.7-0.4
	c4.6-1,9.4-1.9,14.4-2.6l5.4,28.8c0.2-0.5,6.7-24.2,21.2-31.2c0.4-0.1,0.8-0.1,1.1-0.1c3.5-0.1,7.1-0.2,10.8-0.1l0,0l1,7.4l3.6,26.1
	c0,0,13.4-33.1,23.1-31.6c4.1,0.5,8.2,1.2,12.4,1.9l1.2,35.5c0.2-0.7,7.6-23.1,21.2-30.4c2.8,0.8,5.7,1.7,8.5,2.6l-5.6,40.1
	c0,0,19.8-35.1,33.4-29.3c0.1,0,0.2,0.1,0.3,0.1c0.1,0.1,0.3,0.1,0.4,0.2c1.8,0.8,3.6,1.6,5.4,2.5l-11.2,44.1
	c0.5-0.7,20.6-29.8,37.8-29.4c2.1,1.3,4.2,2.6,6.3,4c1.2,0.8,2.3,1.5,3.5,2.3l-17.8,37.3c0,0,22-17.6,38-22.6
	c0.1,0.1,0.2,0.2,0.4,0.3c0,0,24.8,23.1-25,59.9l0,0c1.1,0.8,47.2,35.6,159.6-33.8c1.7,2,2.8,3.3,3.3,3.9c0,0.1,0.1,0.1,0.2,0.2
	c0,0.1,0.1,0.1,0.1,0.1c68,82.5,175.6,134.4,175.6,134.4c-67.4-173-42.7-177.8-42.7-177.8c144.5-110.5,211,36.1,211,36.1l-5,41.2
	l10.9,0.3c37.7,61.4-59.5,91.6-59.5,91.6l-198,43.9c-129.2,52.3-145,130.4-145,130.4l87.3-8.8l18.2-28.8
	c106.5-33.9,258.2-29.1,258.2-29.1c44.1-29.1,40-21.5,40-21.5c-0.6,7.5-16,23.3-16,23.3c33.8,6.3,76.7,45.1,94.4,59.8
	c15.3,12.8,69.3,98.1,69.3,98.1c29.9-72.5,7-138.3,7-138.3c-45.8-59-64.6-97.3-64.6-97.3c-11.1-74.8,13-111.3,13-111.3
	c16-10.8,36.2-1.9,36.2-1.9c0.1-13.5-22.7-57.6-22.7-57.6c16.2-135.4-48.1-227.1-48.1-227.1c-39.3-63.3-108.1-116.4-195.6-145.1
	c-87.6-28.7-86-56.8-86-56.8C1736.4-4368.3,1816.6-4388.9,1818.2-4389.3z M1093.1-4059.2l26.6-24.1
	C1119.3-4082.7,1111.9-4072.8,1093.1-4059.2z M1206.2-4039c-8.4,4.8-19.1,1.9-24-6.4c-4.8-8.4-2-19.1,6.4-24
	c8.3-4.8,19.1-1.9,23.9,6.5C1217.3-4054.6,1214.5-4043.8,1206.2-4039z M1680.7-4021.8l-177.5-90.4
	C1503.2-4112.2,1638.7-4122.4,1680.7-4021.8z M1691.5-4066l-111.5-66.5C1581.2-4132.4,1665.1-4125.1,1691.5-4066z M1626.2-4143.6
	c0,0,39.3-2,59.2,29.5L1626.2-4143.6z"/>
<path class="st12" d="M3099.2-557.3H848.3c-40.2,0-72.8-32.6-72.8-72.8v-852.3c0-40.2,32.6-72.8,72.8-72.8h2250.9
	c40.2,0,72.8,32.6,72.8,72.8v852.3C3172-589.9,3139.4-557.3,3099.2-557.3z"/>
<g>
	<path class="st13" d="M966.5-812.9c-9.9,0-19.1-1.5-27.5-4.4s-15.6-7.3-21.7-13.1c-6.1-5.8-10.8-13.1-14.1-21.8s-5-18.7-5-30.1
		c0-10.6,1.6-20.2,4.8-28.8s7.8-16,13.8-22.2c5.8-5.9,13-10.5,21.6-13.7c8.6-3.2,18-4.9,28.2-4.9c5.6,0,10.7,0.3,15.2,0.9
		c4.5,0.6,8.7,1.5,12.5,2.5c4,1.1,7.7,2.4,10.9,3.8c3.3,1.4,6.1,2.7,8.6,3.9v32.4h-4c-1.7-1.4-3.8-3.1-6.3-5.1s-5.4-3.9-8.7-5.8
		c-3.3-1.9-6.9-3.5-10.7-4.8c-3.8-1.3-7.9-2-12.3-2c-4.9,0-9.5,0.8-13.8,2.3c-4.4,1.5-8.4,4-12.1,7.6c-3.5,3.4-6.4,7.9-8.6,13.5
		s-3.3,12.4-3.3,20.4c0,8.4,1.2,15.4,3.5,21c2.4,5.6,5.3,10,8.9,13.3c3.7,3.3,7.7,5.6,12.2,7s8.9,2.1,13.3,2.1
		c4.2,0,8.3-0.6,12.4-1.9c4.1-1.3,7.9-2.9,11.4-5.1c2.9-1.7,5.7-3.6,8.2-5.5s4.6-3.7,6.2-5.1h3.6v32c-3.4,1.5-6.6,2.9-9.6,4.2
		c-3.1,1.3-6.3,2.5-9.6,3.4c-4.4,1.3-8.5,2.2-12.3,2.9C978.5-813.2,973.2-812.9,966.5-812.9z"/>
	<path class="st13" d="M1159.1-815.5h-34.5v-58.9h-50.9v58.9h-34.5v-133.8h34.5v49h50.9v-49h34.5V-815.5z"/>
	<path class="st13" d="M1290-815.5h-96.8v-133.8h96.8v25.9h-62.4v23.1h57.9v25.9h-57.9v33.1h62.4V-815.5z"/>
	<path class="st13" d="M1442.6-815.5H1407l-9.3-27h-49.5l-9.3,27h-34.8l49.4-133.8h39.7L1442.6-815.5z M1389.3-867.1l-16.5-47.9
		l-16.5,47.9H1389.3z"/>
	<path class="st13" d="M1572.2-907.1c0,6-1,11.8-3.1,17.6c-2.1,5.7-5.1,10.5-9,14.4c-5.3,5.3-11.3,9.3-17.8,11.9s-14.7,4-24.5,4
		h-21.5v43.6h-34.5v-133.7h56.8c8.5,0,15.7,0.7,21.5,2.2c5.8,1.5,11,3.7,15.5,6.6c5.4,3.5,9.5,8.1,12.4,13.6
		C1570.8-921.4,1572.2-914.8,1572.2-907.1z M1536.5-906.3c0-3.8-1-7-3.1-9.7c-2-2.7-4.4-4.6-7.1-5.7c-3.6-1.4-7.1-2.2-10.5-2.4
		c-3.4-0.1-8-0.2-13.7-0.2h-5.9v40h9.9c5.9,0,10.7-0.4,14.5-1.1c3.8-0.7,7-2.2,9.6-4.3c2.2-1.9,3.8-4.2,4.8-6.9
		S1536.5-902.5,1536.5-906.3z"/>
	<path class="st13" d="M1703.7-857.6c0,13.2-5.6,23.9-16.8,32.1c-11.2,8.2-26.3,12.4-45.5,12.4c-11.1,0-20.7-1-29-2.9
		c-8.2-1.9-15.9-4.4-23.1-7.4v-32.1h3.8c7.1,5.7,15.1,10.1,23.9,13.1c8.8,3.1,17.3,4.6,25.5,4.6c2.1,0,4.9-0.2,8.3-0.5
		c3.4-0.3,6.2-1,8.4-1.8c2.6-1.1,4.8-2.4,6.5-4c1.7-1.6,2.6-4,2.6-7.2c0-2.9-1.2-5.5-3.7-7.6s-6.1-3.8-10.9-4.9
		c-5-1.2-10.3-2.3-15.9-3.4c-5.6-1-10.9-2.4-15.8-4c-11.3-3.7-19.4-8.6-24.3-14.9c-4.9-6.3-7.4-14-7.4-23.3
		c0-12.5,5.6-22.6,16.8-30.5c11.2-7.9,25.5-11.8,43.1-11.8c8.8,0,17.5,0.9,26.1,2.6c8.6,1.7,16,3.8,22.3,6.4v30.8h-3.7
		c-5.4-4.3-12-7.9-19.8-10.8c-7.8-2.9-15.8-4.4-23.9-4.4c-2.9,0-5.7,0.2-8.6,0.6c-2.8,0.4-5.6,1.1-8.2,2.2c-2.3,0.9-4.3,2.3-6,4.1
		c-1.7,1.8-2.5,3.9-2.5,6.2c0,3.5,1.3,6.2,4,8.1c2.7,1.9,7.8,3.6,15.3,5.2c4.9,1,9.6,2,14.2,3c4.5,1,9.4,2.3,14.6,4
		c10.2,3.4,17.8,7.9,22.7,13.7C1701.3-874.3,1703.7-866.8,1703.7-857.6z"/>
	<path class="st13" d="M1847.3-815.5h-34.5v-58.9h-50.9v58.9h-34.5v-133.8h34.5v49h50.9v-49h34.5V-815.5z"/>
	<path class="st13" d="M2005.1-815.5h-35.6l-9.3-27h-49.5l-9.3,27h-34.8l49.4-133.8h39.7L2005.1-815.5z M1951.8-867.1l-16.5-47.9
		l-16.5,47.9H1951.8z"/>
	<path class="st13" d="M2153.1-815.5H2111l-36.4-49.1h-16v49.1h-34.3v-133.8h57.9c7.9,0,14.7,0.4,20.4,1.3c5.7,0.9,11,2.8,16,5.8
		s9,6.9,12,11.6s4.4,10.7,4.4,17.9c0,9.9-2.3,17.9-6.9,24.2c-4.6,6.2-11.1,11.4-19.6,15.5L2153.1-815.5z M2099.3-908.3
		c0-3.4-0.7-6.2-2.1-8.6c-1.4-2.4-3.7-4.3-7.1-5.7c-2.3-1-5.1-1.5-8.2-1.8c-3.1-0.2-6.7-0.3-10.9-0.3h-12.5v36h10.6
		c5.5,0,10.1-0.3,13.8-0.8c3.7-0.5,6.8-1.8,9.3-3.7c2.4-1.9,4.1-3.9,5.3-6.2C2098.8-901.5,2099.3-904.6,2099.3-908.3z"/>
	<path class="st13" d="M2293.1-815.5h-42.4l-40-53.5l-8,9.9v43.7h-34.5v-133.9h34.5v60.6l47.8-60.6h40l-52.3,61.9L2293.1-815.5z"/>
</g>
<path class="st14" d="M3040.9-695.6c-45.9-59-64.6-97.3-64.6-97.3c-11.1-74.8,13.1-111.3,13.1-111.3c16-10.8,36.2-1.9,36.2-1.9
	c0.1-13.5-22.7-57.6-22.7-57.6c16.2-135.4-48.1-227.1-48.1-227.1c-39.3-63.3-108.1-116.4-195.6-145.1c-87.6-28.7-86-56.8-86-56.8
	c30.8-134,111-154.6,112.6-155c-225.3-47.5-343.8,142.3-383.2,173.3c-23.1,18.1-209.6,103.5-244,96.3c-0.5-0.1-0.8-0.2-0.8-0.2
	c-32.3-8.7-60.1,23.7-60.1,23.7l-10.4,12.8c-150.1,47.6-161,97-161,97s7.1,71.8,179.1,138.6c0,0,4.3-3,12.3-7.2l0.6-0.3l6.5,8.7
	c0,0,3.8-10,11.7-17.1l6.7-3c2.9-1.1,6-2.3,9.2-3.4l0.3-0.1l8.4,18.6c0,0,1.9-15,12.3-24.4l7.5-2.1c0.6-0.2,1.1-0.3,1.7-0.4
	c4.6-1,9.4-1.9,14.4-2.6l5.4,28.8c0.1-0.5,6.7-24.2,21.2-31.2c0.4-0.1,0.8-0.1,1.1-0.1c3.5-0.1,7.1-0.2,10.8-0.1l0,0l1,7.4l3.6,26.1
	c0,0,13.4-33.1,23.1-31.6c4.1,0.5,8.2,1.2,12.4,1.9l1.2,35.5c0.2-0.7,7.6-23.1,21.2-30.3c2.8,0.8,5.7,1.7,8.5,2.6l-5.6,40.1
	c0,0,19.8-35,33.4-29.3c0.1,0,0.2,0.1,0.3,0.1c0.1,0,0.3,0.1,0.4,0.2c1.8,0.8,3.6,1.6,5.4,2.5l-11.2,44.1
	c0.5-0.7,20.6-29.8,37.8-29.4c2.1,1.3,4.2,2.6,6.3,4c1.2,0.8,2.3,1.5,3.5,2.3l-17.8,37.3c0,0,22-17.6,38-22.6
	c0.1,0.1,0.2,0.2,0.4,0.3c0,0,24.8,23.1-25,59.9l0,0c1.1,0.8,47.2,35.6,159.6-33.8c1.7,2,2.8,3.3,3.3,3.9c0.1,0.1,0.1,0.1,0.1,0.2
	c0.1,0.1,0.1,0.1,0.1,0.1c68,82.5,175.6,134.4,175.6,134.4c-67.4-173-42.7-177.8-42.7-177.8c144.4-110.5,211,36.1,211,36.1l-5,41.2
	l10.9,0.3c37.8,61.4-59.5,91.6-59.5,91.6l-198,43.8c-129.2,52.3-145,130.4-145,130.4l87.3-8.8l18.2-28.8
	c106.5-33.9,258.2-29.1,258.2-29.1c44.1-29.1,40-21.4,40-21.4c-0.6,7.5-16,23.3-16,23.3c33.8,6.3,76.7,45.1,94.4,59.8
	c15.3,12.8,69.3,98.1,69.3,98.1C3063.8-629.8,3040.9-695.6,3040.9-695.6z M2060.5-1217.5l26.6-24.1
	C2086.7-1241,2079.3-1231.1,2060.5-1217.5z"/>
<ellipse transform="matrix(9.853754e-02 -0.9951 0.9951 9.853754e-02 2100.6387 206.3641)" class="st13" cx="1164.2" cy="-1056.3" rx="29.7" ry="29.7"/>
<circle class="st13" cx="1087.7" cy="-1181.4" r="46.8"/>
<circle class="st13" cx="1222.9" cy="-1287.3" r="70.1"/>
<g>
	<path class="st13" d="M232.3,757.7c-9.9,0-19.1-1.5-27.5-4.4c-8.4-2.9-15.6-7.3-21.7-13.1c-6.1-5.8-10.8-13.1-14.1-21.8
		c-3.3-8.7-5-18.7-5-30.1c0-10.6,1.6-20.2,4.8-28.8c3.2-8.6,7.8-16,13.8-22.2c5.8-5.9,13-10.5,21.6-13.7s18-4.9,28.2-4.9
		c5.6,0,10.7,0.3,15.2,0.9c4.5,0.6,8.7,1.5,12.5,2.5c4,1.1,7.7,2.4,10.9,3.8c3.3,1.4,6.1,2.7,8.6,3.9v32.4h-4
		c-1.7-1.4-3.8-3.1-6.3-5.1s-5.4-3.9-8.7-5.8c-3.3-1.9-6.9-3.5-10.7-4.8s-7.9-2-12.3-2c-4.9,0-9.5,0.8-13.8,2.3
		c-4.4,1.5-8.4,4-12.1,7.6c-3.5,3.4-6.4,7.9-8.6,13.5s-3.3,12.4-3.3,20.4c0,8.4,1.2,15.4,3.5,21c2.4,5.6,5.3,10,8.9,13.3
		c3.7,3.3,7.7,5.6,12.2,7s8.9,2.1,13.3,2.1c4.2,0,8.3-0.6,12.4-1.9c4.1-1.3,7.9-2.9,11.4-5.1c2.9-1.7,5.7-3.6,8.2-5.5
		s4.6-3.7,6.2-5.1h3.6v32c-3.4,1.5-6.6,2.9-9.6,4.2c-3.1,1.3-6.3,2.5-9.6,3.4c-4.4,1.3-8.5,2.2-12.3,2.9
		C244.3,757.4,239,757.7,232.3,757.7z"/>
	<path class="st13" d="M424.9,755.1h-34.5v-58.9h-50.9v58.9H305V621.3h34.5v49h50.9v-49h34.5V755.1z"/>
	<path class="st13" d="M555.8,755.1H459V621.3h96.8v25.9h-62.4v23.1h57.9v25.9h-57.9v33.1h62.4V755.1z"/>
	<path class="st13" d="M708.4,755.1h-35.6l-9.3-27H614l-9.3,27h-34.8l49.4-133.8H659L708.4,755.1z M655.1,703.5l-16.5-47.9
		l-16.5,47.9H655.1z"/>
	<path class="st13" d="M838,663.5c0,6-1,11.8-3.1,17.6c-2.1,5.7-5.1,10.5-9,14.4c-5.3,5.3-11.3,9.3-17.8,11.9s-14.7,4-24.5,4h-21.5
		V755h-34.5V621.3h56.8c8.5,0,15.7,0.7,21.5,2.2s11,3.7,15.5,6.6c5.4,3.5,9.5,8.1,12.4,13.6C836.6,649.2,838,655.8,838,663.5z
		 M802.3,664.3c0-3.8-1-7-3.1-9.7c-2-2.7-4.4-4.6-7.1-5.7c-3.6-1.4-7.1-2.2-10.5-2.4c-3.4-0.1-8-0.2-13.7-0.2H762v40h9.9
		c5.9,0,10.7-0.4,14.5-1.1c3.8-0.7,7-2.2,9.6-4.3c2.2-1.9,3.8-4.2,4.8-6.9S802.3,668.1,802.3,664.3z"/>
	<path class="st13" d="M969.5,713c0,13.2-5.6,23.9-16.8,32.1c-11.2,8.2-26.3,12.4-45.5,12.4c-11.1,0-20.7-1-29-2.9
		c-8.2-1.9-15.9-4.4-23.1-7.4v-32.1h3.8c7.1,5.7,15.1,10.1,23.9,13.1c8.8,3.1,17.3,4.6,25.5,4.6c2.1,0,4.9-0.2,8.3-0.5
		s6.2-1,8.4-1.8c2.6-1.1,4.8-2.4,6.5-4s2.6-4,2.6-7.2c0-2.9-1.2-5.5-3.7-7.6s-6.1-3.8-10.9-4.9c-5-1.2-10.3-2.3-15.9-3.4
		c-5.6-1-10.9-2.4-15.8-4c-11.3-3.7-19.4-8.6-24.3-14.9c-4.9-6.3-7.4-14-7.4-23.3c0-12.5,5.6-22.6,16.8-30.5s25.5-11.8,43.1-11.8
		c8.8,0,17.5,0.9,26.1,2.6c8.6,1.7,16,3.8,22.3,6.4v30.8h-3.7c-5.4-4.3-12-7.9-19.8-10.8c-7.8-2.9-15.8-4.4-23.9-4.4
		c-2.9,0-5.7,0.2-8.6,0.6c-2.8,0.4-5.6,1.1-8.2,2.2c-2.3,0.9-4.3,2.3-6,4.1s-2.5,3.9-2.5,6.2c0,3.5,1.3,6.2,4,8.1s7.8,3.6,15.3,5.2
		c4.9,1,9.6,2,14.2,3c4.5,1,9.4,2.3,14.6,4c10.2,3.4,17.8,7.9,22.7,13.7C967.1,696.3,969.5,703.8,969.5,713z"/>
	<path class="st13" d="M1113.1,755.1h-34.5v-58.9h-50.9v58.9h-34.5V621.3h34.5v49h50.9v-49h34.5V755.1z"/>
	<path class="st13" d="M1270.9,755.1h-35.6l-9.3-27h-49.5l-9.3,27h-34.8l49.4-133.8h39.7L1270.9,755.1z M1217.6,703.5l-16.5-47.9
		l-16.5,47.9H1217.6z"/>
	<path class="st13" d="M1418.9,755.1h-42.1l-36.4-49.1h-16v49.1h-34.3V621.3h57.9c7.9,0,14.7,0.4,20.4,1.3c5.7,0.9,11,2.8,16,5.8
		s9,6.9,12,11.6s4.4,10.7,4.4,17.9c0,9.9-2.3,17.9-6.9,24.2c-4.6,6.2-11.1,11.4-19.6,15.5L1418.9,755.1z M1365.1,662.3
		c0-3.4-0.7-6.2-2.1-8.6c-1.4-2.4-3.7-4.3-7.1-5.7c-2.3-1-5.1-1.5-8.2-1.8c-3.1-0.2-6.7-0.3-10.9-0.3h-12.5v36h10.6
		c5.5,0,10.1-0.3,13.8-0.8c3.7-0.5,6.8-1.8,9.3-3.7c2.4-1.9,4.1-3.9,5.3-6.2C1364.6,669.1,1365.1,666,1365.1,662.3z"/>
	<path class="st13" d="M1558.9,755.1h-42.4l-40-53.5l-8,9.9v43.7H1434V621.3h34.5v60.6l47.8-60.6h40l-52.3,61.9L1558.9,755.1z"/>
</g>
<path class="st14" d="M2306.7,875c-45.9-59-64.6-97.3-64.6-97.3c-11.1-74.8,13.1-111.3,13.1-111.3c16-10.8,36.2-1.9,36.2-1.9
	c0.1-13.5-22.7-57.6-22.7-57.6c16.2-135.4-48.1-227.1-48.1-227.1c-39.3-63.3-108.1-116.4-195.6-145.1c-87.6-28.7-86-56.8-86-56.8
	c30.8-134,111-154.6,112.6-155c-225.3-47.5-343.8,142.3-383.2,173.3c-23.1,18.1-209.6,103.5-244,96.3c-0.5-0.1-0.8-0.2-0.8-0.2
	c-32.3-8.7-60.1,23.7-60.1,23.7l-10.4,12.8c-150.1,47.6-161,97-161,97s7.1,71.8,179.1,138.6c0,0,4.3-3,12.3-7.2l0.6-0.3l6.5,8.7
	c0,0,3.8-10,11.7-17.1l6.7-3c2.9-1.1,6-2.3,9.2-3.4l0.3-0.1l8.4,18.6c0,0,1.9-15,12.3-24.4l7.5-2.1c0.6-0.2,1.1-0.3,1.7-0.4
	c4.6-1,9.4-1.9,14.4-2.6l5.4,28.8c0.1-0.5,6.7-24.2,21.2-31.2c0.4-0.1,0.8-0.1,1.1-0.1c3.5-0.1,7.1-0.2,10.8-0.1l0,0l1,7.4l3.6,26.1
	c0,0,13.4-33.1,23.1-31.6c4.1,0.5,8.2,1.2,12.4,1.9l1.2,35.5c0.2-0.7,7.6-23.1,21.2-30.3c2.8,0.8,5.7,1.7,8.5,2.6l-5.6,40.1
	c0,0,19.8-35,33.4-29.3c0.1,0,0.2,0.1,0.3,0.1c0.1,0,0.3,0.1,0.4,0.2c1.8,0.8,3.6,1.6,5.4,2.5l-11.2,44.1
	c0.5-0.7,20.6-29.8,37.8-29.4c2.1,1.3,4.2,2.6,6.3,4c1.2,0.8,2.3,1.5,3.5,2.3l-17.8,37.3c0,0,22-17.6,38-22.6
	c0.1,0.1,0.2,0.2,0.4,0.3c0,0,24.8,23.1-25,59.9l0,0c1.1,0.8,47.2,35.6,159.6-33.8c1.7,2,2.8,3.3,3.3,3.9c0.1,0.1,0.1,0.1,0.1,0.2
	c0.1,0.1,0.1,0.1,0.1,0.1c68,82.5,175.6,134.4,175.6,134.4c-67.4-173-42.7-177.8-42.7-177.8c144.4-110.5,211,36.1,211,36.1l-5,41.2
	l10.9,0.3c37.8,61.4-59.5,91.6-59.5,91.6l-198,43.8c-129.2,52.3-145,130.4-145,130.4l87.3-8.8l18.2-28.8
	c106.5-33.9,258.2-29.1,258.2-29.1c44.1-29.1,40-21.4,40-21.4c-0.6,7.5-16,23.3-16,23.3c33.8,6.3,76.7,45.1,94.4,59.8
	c15.3,12.8,69.3,98.1,69.3,98.1C2329.6,940.8,2306.7,875,2306.7,875z M1326.3,353.1l26.6-24.1
	C1352.5,329.6,1345.1,339.5,1326.3,353.1z"/>
<ellipse transform="matrix(9.853754e-02 -0.9951 0.9951 9.853754e-02 -124.1645 891.5452)" class="st13" cx="430" cy="514.3" rx="29.7" ry="29.7"/>
<circle class="st13" cx="353.5" cy="389.2" r="46.8"/>
<circle class="st13" cx="488.7" cy="283.3" r="70.1"/>
<g id="Layer_4" class="st0">
	<path class="st15" d="M-2219.1-410.6"/>
	<path class="st15" d="M-2117.3-401.4"/>
	<path class="st15" d="M-2358.4-215.8"/>
	<path class="st16" d="M-2219.1-410.6"/>
	<path class="st16" d="M-2117.3-401.4"/>
	<path class="st15" d="M-2394.4-283"/>
	<path class="st15" d="M-2394.4-414.9c-2.6-1.5-5.4-2.1-8.3-2.2"/>
	<path class="st15" d="M-2436.2-401.4C-2436.3-401.4-2436.3-401.4-2436.2-401.4"/>
	<path class="st15" d="M-2405.9-349.4L-2405.9-349.4"/>
	<path class="st17" d="M-2414.4-282.2c10.7,0,19.3,8.7,19.3,19.4c0,10.7-8.7,19.4-19.3,19.4c-10.7,0-19.4-8.8-19.4-19.4
		C-2433.8-273.6-2425.2-282.2-2414.4-282.2z"/>
	<path class="st17" d="M-1969,35.6l-120.2-184.9C-2089.2-149.3-1953.7-84.1-1969,35.6z"/>
	<path class="st17" d="M-1934.2-0.8l-70.1-125.4C-2003.2-125.5-1926.8-72.1-1934.2-0.8z"/>
	<path class="st17" d="M-1913.5-50.3l-40.5-61.1C-1953.9-111.4-1915.1-91.6-1913.5-50.3z"/>
	<path class="st17" d="M-3092.5,25.3l-10.7,31h21.3L-3092.5,25.3z M-2988.7,24.6c-1.3-1.8-2.8-3-4.6-3.7c-2.3-0.9-4.6-1.4-6.8-1.5
		s-5.2-0.2-8.8-0.2h-3.8v25.9h6.4c3.8,0,6.9-0.2,9.4-0.7s4.5-1.4,6.2-2.8c1.4-1.2,2.5-2.7,3.1-4.4s1-3.8,1-6.3
		C-2986.7,28.5-2987.3,26.4-2988.7,24.6z M-2988.7,24.6c-1.3-1.8-2.8-3-4.6-3.7c-2.3-0.9-4.6-1.4-6.8-1.5s-5.2-0.2-8.8-0.2h-3.8
		v25.9h6.4c3.8,0,6.9-0.2,9.4-0.7s4.5-1.4,6.2-2.8c1.4-1.2,2.5-2.7,3.1-4.4s1-3.8,1-6.3C-2986.7,28.5-2987.3,26.4-2988.7,24.6z
		 M-3092.5,25.3l-10.7,31h21.3L-3092.5,25.3z M-3092.5,25.3l-10.7,31h21.3L-3092.5,25.3z M-2988.7,24.6c-1.3-1.8-2.8-3-4.6-3.7
		c-2.3-0.9-4.6-1.4-6.8-1.5s-5.2-0.2-8.8-0.2h-3.8v25.9h6.4c3.8,0,6.9-0.2,9.4-0.7s4.5-1.4,6.2-2.8c1.4-1.2,2.5-2.7,3.1-4.4
		s1-3.8,1-6.3C-2986.7,28.5-2987.3,26.4-2988.7,24.6z M-2988.7,24.6c-1.3-1.8-2.8-3-4.6-3.7c-2.3-0.9-4.6-1.4-6.8-1.5
		s-5.2-0.2-8.8-0.2h-3.8v25.9h6.4c3.8,0,6.9-0.2,9.4-0.7s4.5-1.4,6.2-2.8c1.4-1.2,2.5-2.7,3.1-4.4s1-3.8,1-6.3
		C-2986.7,28.5-2987.3,26.4-2988.7,24.6z M-3092.5,25.3l-10.7,31h21.3L-3092.5,25.3z M-3092.5,25.3l-10.7,31h21.3L-3092.5,25.3z
		 M-2988.7,24.6c-1.3-1.8-2.8-3-4.6-3.7c-2.3-0.9-4.6-1.4-6.8-1.5s-5.2-0.2-8.8-0.2h-3.8v25.9h6.4c3.8,0,6.9-0.2,9.4-0.7
		s4.5-1.4,6.2-2.8c1.4-1.2,2.5-2.7,3.1-4.4s1-3.8,1-6.3C-2986.7,28.5-2987.3,26.4-2988.7,24.6z M-2728.7,25.3l-10.7,31h21.3
		L-2728.7,25.3z M-2624,24c-0.9-1.6-2.4-2.8-4.6-3.7c-1.5-0.6-3.3-1-5.3-1.1s-4.4-0.2-7-0.2h-8.1v23.3h6.9c3.6,0,6.6-0.2,8.9-0.5
		c2.4-0.4,4.4-1.2,6-2.4c1.6-1.2,2.7-2.5,3.4-4c0.7-1.4,1.1-3.4,1.1-5.8C-2622.7,27.4-2623.2,25.6-2624,24z M-2728.7,25.3l-10.7,31
		h21.3L-2728.7,25.3z M-2624,24c-0.9-1.6-2.4-2.8-4.6-3.7c-1.5-0.6-3.3-1-5.3-1.1s-4.4-0.2-7-0.2h-8.1v23.3h6.9
		c3.6,0,6.6-0.2,8.9-0.5c2.4-0.4,4.4-1.2,6-2.4c1.6-1.2,2.7-2.5,3.4-4c0.7-1.4,1.1-3.4,1.1-5.8C-2622.7,27.4-2623.2,25.6-2624,24z
		 M-2988.7,24.6c-1.3-1.8-2.8-3-4.6-3.7c-2.3-0.9-4.6-1.4-6.8-1.5s-5.2-0.2-8.8-0.2h-3.8v25.9h6.4c3.8,0,6.9-0.2,9.4-0.7
		s4.5-1.4,6.2-2.8c1.4-1.2,2.5-2.7,3.1-4.4s1-3.8,1-6.3C-2986.7,28.5-2987.3,26.4-2988.7,24.6z M-3092.5,25.3l-10.7,31h21.3
		L-3092.5,25.3z M-3492.3-397.4v610.1h1291.8c-1.4-6.5-2.7-13-3.8-19.5c0,0,0,0,0-0.1s0-0.2,0-0.3c-0.2-0.8-0.5-2.7-1-5.6
		c-146.1,4.4-171.1-54.5-171.7-55.9c0,0,0,0,0.1,0c68.2-7.7,57.1-43.6,57.1-43.6c-0.1-0.2-0.1-0.3-0.2-0.5
		c-18.1-4.1-48.9,0.6-48.9,0.6l37.7-25.9c-0.7-1.4-1.4-2.7-2.1-4.1c-1.3-2.5-2.5-4.9-3.8-7.3c-16.3-9.9-51.7,6.9-52.5,7.3l35.1-36.1
		c-1.2-1.8-2.5-3.6-3.8-5.4c-0.1-0.1-0.2-0.3-0.3-0.4c-0.1-0.1-0.1-0.2-0.2-0.3c-9.9-13-48.2,9.7-48.2,9.7l27.6-35.3
		c-2.2-2.5-4.5-4.8-6.7-7.2c-17-0.5-36.5,16.9-37.1,17.4l18.5-34.7c-3.6-3.1-7.2-6-10.8-8.7c-8.5-6.8-39.6,17.5-39.6,17.5l11-27.1
		l3.1-7.7l0,0c-3.5-2.1-6.9-4-10.4-5.8c-0.4-0.2-0.7-0.4-1.1-0.5c-17.8-1.3-37.2,17.9-37.6,18.2l10.7-30.6c-5.1-2-10.2-3.8-15.2-5.5
		c-0.6-0.2-1.2-0.4-1.9-0.6l-8.3-2.1c-15.1,3.2-25.2,16.6-25.2,16.6l2.3-22.4l-0.3-0.1c-3.7-0.7-7.3-1.3-10.7-1.9l-8.1-0.8
		c-11.5,2.4-20.7,9.9-20.7,9.9l-1.4-12l-0.8-0.1c-10-0.3-15.8,0.1-15.8,0.1c-127.9-159.1-95-231.9-95-231.9s37.8-41.3,208-3.9
		l17-6.5c0,0,44.5-15.7,70.7,10.5c0,0,0.2,0.2,0.6,0.6c14.2,12.7,75.4,24.2,138.1,32.2c65.5,8.3,132.6,12.7,149.1,10.4
		c55-7.9,273.6-124.3,463.3,45.8c-1.8-0.5-90-25.1-193.6,86.4c0,0-17,26.1,51.1,102.1c68.1,75.9,104.6,164.9,107.3,247.3
		c0,0,0.6,6.4,0.4,17.8h90.1v-610.1H-3492.3z M-2578.1,3.1h22.3v39.2l30.9-39.2h25.9l-33.8,40l35.5,46.5h-27.4l-25.9-34.6l-5.2,6.4
		v28.2h-22.3V3.1z M-3324.7,29.6h-2.6c-1.1-0.9-2.5-2-4.1-3.3s-3.5-2.5-5.6-3.8c-2.1-1.2-4.4-2.3-6.9-3.1c-2.5-0.8-5.1-1.3-8-1.3
		c-3.1,0-6.1,0.5-8.9,1.5s-5.4,2.6-7.8,4.9c-2.3,2.2-4.1,5.1-5.5,8.8c-1.4,3.6-2.1,8-2.1,13.2c0,5.4,0.8,9.9,2.3,13.6
		c1.5,3.6,3.5,6.5,5.8,8.6c2.4,2.1,5,3.6,7.9,4.6c2.9,0.9,5.8,1.4,8.6,1.4c2.7,0,5.4-0.4,8-1.2c2.7-0.8,5.1-1.9,7.4-3.3
		c1.9-1.1,3.7-2.3,5.3-3.6c1.6-1.3,3-2.4,4-3.3h2.3V84c-2.2,1-4.2,1.9-6.2,2.7c-2,0.9-4,1.6-6.2,2.2c-2.8,0.8-5.5,1.4-8,1.9
		c-2.5,0.4-5.9,0.6-10.2,0.6c-6.4,0-12.4-1-17.8-2.8c-5.4-1.9-10.1-4.7-14-8.5s-6.9-8.4-9.1-14.1c-2.1-5.6-3.2-12.1-3.2-19.5
		c0-6.9,1-13.1,3.1-18.7s5-10.4,8.9-14.4c3.8-3.8,8.4-6.8,14-8.9s11.6-3.1,18.2-3.1c3.6,0,6.9,0.2,9.8,0.6s5.6,0.9,8.1,1.6
		c2.6,0.7,4.9,1.6,7.1,2.5c2.1,0.9,4,1.8,5.5,2.5L-3324.7,29.6L-3324.7,29.6z M-3230.8,89.6h-22.3V51.5h-32.9v38.1h-22.3V3.1h22.3
		v31.7h32.9V3.1h22.3V89.6z M-3146.1,19.8h-40.4v14.9h37.5v16.7h-37.5v21.4h40.4v16.7h-62.6V3h62.6L-3146.1,19.8L-3146.1,19.8z
		 M-3070.5,89.6l-6-17.5h-32l-6,17.5h-22.5l32-86.5h25.7l32,86.5H-3070.5z M-2965.6,41.8c-1.4,3.7-3.3,6.8-5.8,9.3
		c-3.4,3.4-7.3,6-11.5,7.7s-9.5,2.6-15.8,2.6h-13.9v28.2h-22.3V3.1h36.7c5.5,0,10.1,0.5,13.9,1.4s7.1,2.4,10,4.3
		c3.5,2.3,6.1,5.2,8,8.8c1.8,3.6,2.8,7.8,2.8,12.8C-2963.6,34.3-2964.3,38.1-2965.6,41.8z M-2889.4,83.2c-7.2,5.3-17,8-29.4,8
		c-7.2,0-13.4-0.6-18.7-1.9s-10.3-2.9-15-4.8V63.8h2.4c4.6,3.7,9.8,6.5,15.5,8.5s11.2,3,16.5,3c1.4,0,3.1-0.1,5.3-0.3
		c2.2-0.2,4-0.6,5.4-1.2c1.7-0.7,3.1-1.6,4.2-2.6c1.1-1,1.7-2.6,1.7-4.7c0-1.9-0.8-3.5-2.4-4.9c-1.6-1.4-4-2.4-7.1-3.2
		c-3.3-0.8-6.7-1.5-10.3-2.2s-7-1.5-10.2-2.6c-7.3-2.4-12.5-5.6-15.7-9.6c-3.2-4.1-4.8-9.1-4.8-15.1c0-8.1,3.6-14.6,10.8-19.7
		s16.5-7.6,27.9-7.6c5.7,0,11.3,0.6,16.9,1.7c5.6,1.1,10.4,2.5,14.4,4.2v19.9h-2.4c-3.5-2.8-7.8-5.1-12.8-7
		c-5.1-1.9-10.2-2.8-15.5-2.8c-1.9,0-3.7,0.1-5.6,0.4c-1.8,0.3-3.6,0.7-5.3,1.4c-1.5,0.6-2.8,1.5-3.9,2.7c-1.1,1.2-1.6,2.5-1.6,4
		c0,2.3,0.9,4,2.6,5.3c1.7,1.3,5,2.3,9.9,3.3c3.2,0.7,6.2,1.3,9.1,1.9c2.9,0.6,6.1,1.5,9.4,2.6c6.6,2.2,11.5,5.1,14.7,8.9
		c3.2,3.7,4.7,8.6,4.7,14.5C-2878.5,71-2882.2,77.9-2889.4,83.2z M-2785.7,89.6h-22.3V51.5h-33v38.1h-22.3V3.1h22.3v31.7h33V3.1
		h22.3V89.6z M-2671.2,3.1h37.4c5.1,0,9.5,0.3,13.2,0.9s7.1,1.8,10.3,3.8c3.3,1.9,5.8,4.4,7.8,7.5c1.9,3.1,2.9,6.9,2.9,11.6
		c0,6.4-1.5,11.6-4.4,15.6c-3,4-7.2,7.4-12.7,10.1l28.9,37.1h-27.3l-23.5-31.7h-10.3v31.7h-22.2L-2671.2,3.1L-2671.2,3.1z
		 M-2683.7,89.6h-23l-6-17.5h-32l-6,17.5h-22.5l31.9-86.5h25.7L-2683.7,89.6z M-2633.2,41.8c2.4-0.4,4.4-1.2,6-2.4
		c1.6-1.2,2.7-2.5,3.4-4c0.7-1.4,1.1-3.4,1.1-5.8c0-2.2-0.4-4-1.3-5.6c-0.9-1.6-2.4-2.8-4.6-3.7c-1.5-0.6-3.3-1-5.3-1.1
		s-4.4-0.2-7-0.2h-8.1v23.3h6.9C-2638.6,42.3-2635.6,42.1-2633.2,41.8z M-2739.4,56.3h21.3l-10.6-31L-2739.4,56.3z M-2993.2,20.9
		c-2.3-0.9-4.6-1.4-6.8-1.5s-5.2-0.2-8.8-0.2h-3.8v25.9h6.4c3.8,0,6.9-0.2,9.4-0.7s4.5-1.4,6.2-2.8c1.4-1.2,2.5-2.7,3.1-4.4
		s1-3.8,1-6.3c0-2.4-0.7-4.5-2-6.3C-2990,22.9-2991.5,21.6-2993.2,20.9z M-3103.2,56.3h21.3l-10.6-31L-3103.2,56.3z M-3092.5,25.3
		l-10.7,31h21.3L-3092.5,25.3z M-2988.7,24.6c-1.3-1.8-2.8-3-4.6-3.7c-2.3-0.9-4.6-1.4-6.8-1.5s-5.2-0.2-8.8-0.2h-3.8v25.9h6.4
		c3.8,0,6.9-0.2,9.4-0.7s4.5-1.4,6.2-2.8c1.4-1.2,2.5-2.7,3.1-4.4s1-3.8,1-6.3C-2986.7,28.5-2987.3,26.4-2988.7,24.6z M-2728.7,25.3
		l-10.7,31h21.3L-2728.7,25.3z M-2728.7,25.3l-10.7,31h21.3L-2728.7,25.3z M-2988.7,24.6c-1.3-1.8-2.8-3-4.6-3.7
		c-2.3-0.9-4.6-1.4-6.8-1.5s-5.2-0.2-8.8-0.2h-3.8v25.9h6.4c3.8,0,6.9-0.2,9.4-0.7s4.5-1.4,6.2-2.8c1.4-1.2,2.5-2.7,3.1-4.4
		s1-3.8,1-6.3C-2986.7,28.5-2987.3,26.4-2988.7,24.6z M-3092.5,25.3l-10.7,31h21.3L-3092.5,25.3z M-3092.5,25.3l-10.7,31h21.3
		L-3092.5,25.3z M-2988.7,24.6c-1.3-1.8-2.8-3-4.6-3.7c-2.3-0.9-4.6-1.4-6.8-1.5s-5.2-0.2-8.8-0.2h-3.8v25.9h6.4
		c3.8,0,6.9-0.2,9.4-0.7s4.5-1.4,6.2-2.8c1.4-1.2,2.5-2.7,3.1-4.4s1-3.8,1-6.3C-2986.7,28.5-2987.3,26.4-2988.7,24.6z M-2988.7,24.6
		c-1.3-1.8-2.8-3-4.6-3.7c-2.3-0.9-4.6-1.4-6.8-1.5s-5.2-0.2-8.8-0.2h-3.8v25.9h6.4c3.8,0,6.9-0.2,9.4-0.7s4.5-1.4,6.2-2.8
		c1.4-1.2,2.5-2.7,3.1-4.4s1-3.8,1-6.3C-2986.7,28.5-2987.3,26.4-2988.7,24.6z M-3092.5,25.3l-10.7,31h21.3L-3092.5,25.3z
		 M-3092.5,25.3l-10.7,31h21.3L-3092.5,25.3z M-3092.5,25.3l-10.7,31h21.3L-3092.5,25.3z"/>
	<path class="st15" d="M-3274.7-1920.8"/>
	<path class="st15" d="M-3172.9-1911.5"/>
	<path class="st15" d="M-3414-1725.9"/>
	<path class="st16" d="M-3274.7-1920.8"/>
	<path class="st16" d="M-3172.9-1911.5"/>
	<path class="st15" d="M-3450-1793.1"/>
	<path class="st15" d="M-3491.8-1911.6C-3491.9-1911.5-3491.9-1911.5-3491.8-1911.6"/>
	<path class="st15" d="M-3461.5-1859.5L-3461.5-1859.5"/>
	<g class="st18">
		<path class="st19" d="M-3426.2-2639.9c10.7,0,19.3,8.7,19.3,19.4s-8.7,19.4-19.3,19.4c-10.7,0-19.4-8.8-19.4-19.4
			C-3445.6-2631.2-3437-2639.9-3426.2-2639.9z"/>
		<path class="st19" d="M-4104.3-2332.4l-10.7,31h21.3L-4104.3-2332.4z M-4000.4-2333c-1.3-1.8-2.9-3-4.6-3.7
			c-2.3-0.9-4.6-1.4-6.8-1.5c-2.2-0.1-5.1-0.2-8.8-0.2h-3.8v25.9h6.4c3.8,0,6.9-0.2,9.4-0.7s4.5-1.4,6.2-2.8
			c1.4-1.2,2.5-2.7,3.1-4.4c0.6-1.7,1-3.8,1-6.3C-3998.5-2329.2-3999.1-2331.3-4000.4-2333z M-4000.4-2333c-1.3-1.8-2.9-3-4.6-3.7
			c-2.3-0.9-4.6-1.4-6.8-1.5c-2.2-0.1-5.1-0.2-8.8-0.2h-3.8v25.9h6.4c3.8,0,6.9-0.2,9.4-0.7s4.5-1.4,6.2-2.8
			c1.4-1.2,2.5-2.7,3.1-4.4c0.6-1.7,1-3.8,1-6.3C-3998.5-2329.2-3999.1-2331.3-4000.4-2333z M-4104.3-2332.4l-10.7,31h21.3
			L-4104.3-2332.4z M-4104.3-2332.4l-10.7,31h21.3L-4104.3-2332.4z M-4000.4-2333c-1.3-1.8-2.9-3-4.6-3.7c-2.3-0.9-4.6-1.4-6.8-1.5
			c-2.2-0.1-5.1-0.2-8.8-0.2h-3.8v25.9h6.4c3.8,0,6.9-0.2,9.4-0.7s4.5-1.4,6.2-2.8c1.4-1.2,2.5-2.7,3.1-4.4c0.6-1.7,1-3.8,1-6.3
			C-3998.5-2329.2-3999.1-2331.3-4000.4-2333z M-4000.4-2333c-1.3-1.8-2.9-3-4.6-3.7c-2.3-0.9-4.6-1.4-6.8-1.5
			c-2.2-0.1-5.1-0.2-8.8-0.2h-3.8v25.9h6.4c3.8,0,6.9-0.2,9.4-0.7s4.5-1.4,6.2-2.8c1.4-1.2,2.5-2.7,3.1-4.4c0.6-1.7,1-3.8,1-6.3
			C-3998.5-2329.2-3999.1-2331.3-4000.4-2333z M-4104.3-2332.4l-10.7,31h21.3L-4104.3-2332.4z M-4104.3-2332.4l-10.7,31h21.3
			L-4104.3-2332.4z M-4000.4-2333c-1.3-1.8-2.9-3-4.6-3.7c-2.3-0.9-4.6-1.4-6.8-1.5c-2.2-0.1-5.1-0.2-8.8-0.2h-3.8v25.9h6.4
			c3.8,0,6.9-0.2,9.4-0.7s4.5-1.4,6.2-2.8c1.4-1.2,2.5-2.7,3.1-4.4c0.6-1.7,1-3.8,1-6.3C-3998.5-2329.2-3999.1-2331.3-4000.4-2333z
			 M-3740.5-2332.4l-10.6,31h21.3L-3740.5-2332.4z M-3635.8-2333.6c-0.9-1.6-2.4-2.8-4.6-3.7c-1.5-0.6-3.3-1-5.3-1.1
			c-2-0.1-4.4-0.2-7-0.2h-8.1v23.3h6.9c3.6,0,6.5-0.2,8.9-0.5c2.4-0.4,4.4-1.2,6-2.4c1.6-1.2,2.7-2.5,3.4-4c0.7-1.4,1.1-3.4,1.1-5.8
			C-3634.5-2330.2-3634.9-2332.1-3635.8-2333.6z M-3740.5-2332.4l-10.6,31h21.3L-3740.5-2332.4z M-3635.8-2333.6
			c-0.9-1.6-2.4-2.8-4.6-3.7c-1.5-0.6-3.3-1-5.3-1.1c-2-0.1-4.4-0.2-7-0.2h-8.1v23.3h6.9c3.6,0,6.5-0.2,8.9-0.5
			c2.4-0.4,4.4-1.2,6-2.4c1.6-1.2,2.7-2.5,3.4-4c0.7-1.4,1.1-3.4,1.1-5.8C-3634.5-2330.2-3634.9-2332.1-3635.8-2333.6z
			 M-4000.4-2333c-1.3-1.8-2.9-3-4.6-3.7c-2.3-0.9-4.6-1.4-6.8-1.5c-2.2-0.1-5.1-0.2-8.8-0.2h-3.8v25.9h6.4c3.8,0,6.9-0.2,9.4-0.7
			s4.5-1.4,6.2-2.8c1.4-1.2,2.5-2.7,3.1-4.4c0.6-1.7,1-3.8,1-6.3C-3998.5-2329.2-3999.1-2331.3-4000.4-2333z M-4104.3-2332.4
			l-10.7,31h21.3L-4104.3-2332.4z M-4504-2755v610.1h1291.8c-1.4-6.5-2.7-13-3.8-19.5c0,0,0,0,0-0.1c0-0.1,0-0.2,0-0.3
			c-0.2-0.8-0.5-2.7-1-5.6c-146.1,4.4-171.1-54.5-171.7-55.9c0,0,0,0,0.1,0c68.2-7.7,57.1-43.6,57.1-43.6c-0.1-0.2-0.1-0.3-0.2-0.5
			c-18.1-4.1-48.9,0.6-48.9,0.6l37.7-25.9c-0.7-1.4-1.4-2.7-2-4.1c-1.3-2.5-2.5-4.9-3.8-7.3c-16.3-9.9-51.7,6.9-52.5,7.3l35.1-36.1
			c-1.2-1.8-2.5-3.6-3.8-5.4c-0.1-0.1-0.2-0.3-0.3-0.4c-0.1-0.1-0.1-0.2-0.2-0.3c-9.9-13-48.2,9.7-48.2,9.7l27.6-35.3
			c-2.2-2.5-4.5-4.8-6.7-7.2c-17-0.5-36.5,16.9-37.1,17.4l18.5-34.7c-3.6-3.1-7.2-6-10.8-8.7c-8.5-6.8-39.6,17.5-39.6,17.5l11-27.1
			l3.1-7.7l0,0c-3.5-2.1-6.9-4-10.4-5.8c-0.4-0.2-0.7-0.4-1.1-0.5c-17.8-1.3-37.2,17.9-37.6,18.2l10.7-30.6
			c-5.1-2-10.2-3.8-15.2-5.5c-0.6-0.2-1.2-0.4-1.9-0.6l-8.3-2.1c-15.1,3.2-25.2,16.6-25.2,16.6l2.3-22.4l-0.3-0.1
			c-3.7-0.7-7.3-1.3-10.7-1.9l-8.1-0.8c-11.5,2.4-20.7,9.9-20.7,9.9l-1.4-12l-0.8-0.1c-10-0.3-15.8,0.1-15.8,0.1
			c-127.9-159.1-95-231.9-95-231.9s37.8-41.3,208-3.9l17-6.5c0,0,44.5-15.7,70.7,10.5c0,0,0.2,0.2,0.6,0.6
			c14.2,12.7,75.4,24.2,138.1,32.2c65.5,8.3,132.6,12.7,149.1,10.4c55-7.9,273.6-124.3,463.3,45.8c-1.8-0.5-90-25.1-193.6,86.4
			c0,0-17,26.1,51.1,102.1c68.1,75.9,104.6,164.9,107.3,247.3c0,0,0.6,6.4,0.4,17.8h90.1V-2755H-4504L-4504-2755z M-3589.9-2354.6
			h22.3v39.2l30.9-39.2h25.9l-33.8,40l35.5,46.5h-27.4l-25.9-34.6l-5.2,6.4v28.2h-22.3V-2354.6z M-4336.5-2328.1h-2.6
			c-1.1-0.9-2.5-2-4.1-3.3c-1.6-1.3-3.5-2.5-5.6-3.8c-2.1-1.2-4.4-2.3-6.9-3.1c-2.5-0.8-5.1-1.3-8-1.3c-3.1,0-6.1,0.5-8.9,1.5
			s-5.4,2.6-7.8,4.9c-2.3,2.2-4.1,5.1-5.5,8.8c-1.4,3.6-2.1,8-2.1,13.2c0,5.4,0.8,9.9,2.3,13.6c1.5,3.6,3.5,6.5,5.8,8.6
			c2.4,2.1,5,3.6,7.9,4.6c2.9,0.9,5.8,1.4,8.6,1.4c2.7,0,5.4-0.4,8-1.2c2.7-0.8,5.1-1.9,7.4-3.3c1.9-1.1,3.7-2.3,5.3-3.6
			c1.6-1.3,3-2.4,4-3.3h2.3v20.7c-2.2,1-4.2,1.9-6.2,2.7c-2,0.9-4,1.6-6.2,2.2c-2.8,0.8-5.5,1.4-8,1.9c-2.5,0.4-5.9,0.6-10.2,0.6
			c-6.4,0-12.4-1-17.8-2.8c-5.4-1.9-10.1-4.7-14-8.5s-6.9-8.4-9.1-14.1c-2.1-5.6-3.2-12.1-3.2-19.5c0-6.9,1-13.1,3.1-18.7
			c2.1-5.6,5-10.4,8.9-14.4c3.8-3.8,8.4-6.8,14-8.9c5.6-2.1,11.6-3.1,18.2-3.1c3.6,0,6.9,0.2,9.8,0.6c2.9,0.4,5.6,0.9,8.1,1.6
			c2.6,0.7,4.9,1.6,7.1,2.5c2.1,0.9,4,1.8,5.5,2.5L-4336.5-2328.1L-4336.5-2328.1z M-4242.6-2268h-22.3v-38.2h-32.9v38.1h-22.3
			v-86.5h22.3v31.7h32.9v-31.7h22.3V-2268z M-4157.9-2337.8h-40.4v14.9h37.5v16.7h-37.5v21.4h40.4v16.7h-62.6v-86.5h62.6V-2337.8z
			 M-4082.3-2268l-6-17.5h-32l-6,17.5h-22.5l32-86.5h25.7l32,86.5H-4082.3z M-3977.4-2315.9c-1.4,3.7-3.3,6.8-5.8,9.3
			c-3.4,3.4-7.3,6-11.5,7.7c-4.2,1.7-9.5,2.6-15.8,2.6h-13.9v28.2h-22.3v-86.5h36.7c5.5,0,10.1,0.5,13.9,1.4c3.8,0.9,7.1,2.4,10,4.3
			c3.5,2.3,6.1,5.2,8,8.8c1.8,3.6,2.8,7.8,2.8,12.8C-3975.4-2323.4-3976.1-2319.6-3977.4-2315.9z M-3901.2-2274.5
			c-7.2,5.3-17,8-29.4,8c-7.2,0-13.4-0.6-18.7-1.9c-5.3-1.3-10.3-2.9-15-4.8v-20.7h2.4c4.6,3.7,9.8,6.5,15.5,8.5s11.2,3,16.5,3
			c1.4,0,3.1-0.1,5.3-0.3c2.2-0.2,4-0.6,5.4-1.2c1.7-0.7,3.1-1.6,4.2-2.6s1.7-2.6,1.7-4.7c0-1.9-0.8-3.5-2.4-4.9
			c-1.6-1.4-4-2.4-7.1-3.2c-3.3-0.8-6.7-1.5-10.3-2.2c-3.6-0.7-7-1.5-10.2-2.6c-7.3-2.4-12.5-5.6-15.7-9.6
			c-3.2-4.1-4.8-9.1-4.8-15.1c0-8.1,3.6-14.6,10.8-19.7c7.2-5.1,16.5-7.6,27.9-7.6c5.7,0,11.3,0.6,16.9,1.7
			c5.6,1.1,10.4,2.5,14.4,4.2v19.9h-2.4c-3.5-2.8-7.8-5.1-12.8-7c-5.1-1.9-10.2-2.8-15.5-2.8c-1.9,0-3.7,0.1-5.6,0.4
			c-1.8,0.3-3.6,0.7-5.3,1.4c-1.5,0.6-2.8,1.5-3.9,2.7s-1.6,2.5-1.6,4c0,2.3,0.9,4,2.6,5.3c1.7,1.2,5,2.3,9.9,3.3
			c3.2,0.7,6.2,1.3,9.1,1.9s6.1,1.5,9.4,2.6c6.6,2.2,11.5,5.1,14.7,8.9c3.2,3.7,4.7,8.6,4.7,14.5
			C-3890.3-2286.7-3893.9-2279.8-3901.2-2274.5z M-3797.5-2268h-22.3v-38.2h-33v38.1h-22.3v-86.5h22.3v31.7h33v-31.7h22.3V-2268z
			 M-3683-2354.6h37.4c5.1,0,9.5,0.3,13.2,0.9c3.7,0.6,7.1,1.8,10.3,3.8c3.3,1.9,5.8,4.4,7.8,7.5c1.9,3.1,2.9,6.9,2.9,11.6
			c0,6.4-1.5,11.6-4.4,15.6c-3,4-7.2,7.4-12.7,10.1l28.9,37.1h-27.3l-23.5-31.7h-10.3v31.7h-22.2L-3683-2354.6L-3683-2354.6z
			 M-3695.4-2268h-23l-6-17.5h-32l-6,17.5h-22.5l32-86.5h25.7L-3695.4-2268z M-3645-2315.9c2.4-0.4,4.4-1.2,6-2.4s2.7-2.5,3.4-4
			c0.7-1.4,1.1-3.4,1.1-5.8c0-2.2-0.4-4-1.3-5.6c-0.9-1.6-2.4-2.8-4.6-3.7c-1.5-0.6-3.3-1-5.3-1.1c-2-0.1-4.4-0.2-7-0.2h-8.1v23.3
			h6.9C-3650.4-2315.3-3647.4-2315.5-3645-2315.9z M-3751.2-2301.4h21.3l-10.6-31L-3751.2-2301.4z M-4005-2336.7
			c-2.3-0.9-4.6-1.4-6.8-1.5c-2.2-0.1-5.1-0.2-8.8-0.2h-3.8v25.9h6.4c3.8,0,6.9-0.2,9.4-0.7s4.5-1.4,6.2-2.8
			c1.4-1.2,2.5-2.7,3.1-4.4c0.6-1.7,1-3.8,1-6.3c0-2.4-0.7-4.5-2-6.3C-4001.8-2334.8-4003.3-2336-4005-2336.7z M-4115-2301.4h21.3
			l-10.6-31L-4115-2301.4z M-4104.3-2332.4l-10.7,31h21.3L-4104.3-2332.4z M-4000.4-2333c-1.3-1.8-2.9-3-4.6-3.7
			c-2.3-0.9-4.6-1.4-6.8-1.5c-2.2-0.1-5.1-0.2-8.8-0.2h-3.8v25.9h6.4c3.8,0,6.9-0.2,9.4-0.7s4.5-1.4,6.2-2.8
			c1.4-1.2,2.5-2.7,3.1-4.4c0.6-1.7,1-3.8,1-6.3C-3998.5-2329.2-3999.1-2331.3-4000.4-2333z M-3740.5-2332.4l-10.6,31h21.3
			L-3740.5-2332.4z M-3740.5-2332.4l-10.6,31h21.3L-3740.5-2332.4z M-4000.4-2333c-1.3-1.8-2.9-3-4.6-3.7c-2.3-0.9-4.6-1.4-6.8-1.5
			c-2.2-0.1-5.1-0.2-8.8-0.2h-3.8v25.9h6.4c3.8,0,6.9-0.2,9.4-0.7s4.5-1.4,6.2-2.8c1.4-1.2,2.5-2.7,3.1-4.4c0.6-1.7,1-3.8,1-6.3
			C-3998.5-2329.2-3999.1-2331.3-4000.4-2333z M-4104.3-2332.4l-10.7,31h21.3L-4104.3-2332.4z M-4104.3-2332.4l-10.7,31h21.3
			L-4104.3-2332.4z M-4000.4-2333c-1.3-1.8-2.9-3-4.6-3.7c-2.3-0.9-4.6-1.4-6.8-1.5c-2.2-0.1-5.1-0.2-8.8-0.2h-3.8v25.9h6.4
			c3.8,0,6.9-0.2,9.4-0.7s4.5-1.4,6.2-2.8c1.4-1.2,2.5-2.7,3.1-4.4c0.6-1.7,1-3.8,1-6.3C-3998.5-2329.2-3999.1-2331.3-4000.4-2333z
			 M-4000.4-2333c-1.3-1.8-2.9-3-4.6-3.7c-2.3-0.9-4.6-1.4-6.8-1.5c-2.2-0.1-5.1-0.2-8.8-0.2h-3.8v25.9h6.4c3.8,0,6.9-0.2,9.4-0.7
			s4.5-1.4,6.2-2.8c1.4-1.2,2.5-2.7,3.1-4.4c0.6-1.7,1-3.8,1-6.3C-3998.5-2329.2-3999.1-2331.3-4000.4-2333z M-4104.3-2332.4
			l-10.7,31h21.3L-4104.3-2332.4z M-4104.3-2332.4l-10.7,31h21.3L-4104.3-2332.4z M-4104.3-2332.4l-10.7,31h21.3L-4104.3-2332.4z"/>
	</g>
</g>
</svg>
