<?xml version="1.0" encoding="utf-8"?>
<!-- Generator: Adobe Illustrator 23.0.1, SVG Export Plug-In . SVG Version: 6.00 Build 0)  -->
<svg version="1.1" id="Layer_1" xmlns="http://www.w3.org/2000/svg" xmlns:xlink="http://www.w3.org/1999/xlink" x="0px" y="0px"
	 viewBox="0 0 1273 470" style="enable-background:new 0 0 1273 470;" xml:space="preserve">
<style type="text/css">
	.st0{fill:#0C566D;}
	.st1{fill:url(#SVGID_1_);}
	.st2{fill:#12769E;}
	.st3{opacity:0.54;}
	.st4{fill:#FFFFFF;}
</style>
<g>
	<path class="st0" d="M1273,281.6V428H0V272.2c24.3-6.5,51-8,76.2-8.9c8.7-0.3,17.4-0.7,26.2-0.9c38.3-1.2,76.7-1.3,114.5,4.6
		c35.4,5.5,70.2,16.2,105.2,23.8c24.5,5.3,49.1,9.2,74.2,8.7c41.1-0.8,81-13.3,121.8-18.4c8.7-1.1,17.4-1.8,26.1-2.3
		c8.5-0.4,17-0.6,25.6-0.5c0,0,0,0,0,0c116.4,1,234,45.6,348.3,21.3c47.1-10,91.2-31.4,138.3-41.3c3.3-0.7,6.6-1.3,9.9-1.9
		c60.2-10.5,121.9-2.1,180.8,16.4C1255.8,275.5,1264.4,278.4,1273,281.6z"/>
</g>
<linearGradient id="SVGID_1_" gradientUnits="userSpaceOnUse" x1="414" y1="174" x2="892" y2="174">
	<stop  offset="0.3655" style="stop-color:#909090"/>
	<stop  offset="0.9746" style="stop-color:#0F0F0F"/>
</linearGradient>
<path class="st1" d="M892,348H414c0,0,59-345.3,387-348C801,0,643,165.1,892,348z"/>
<g>
	<path class="st2" d="M1273,268.3V470H0V201.8c27.3,13.6,53.6,29.3,78.5,45.3c7.8,5,15.8,10.2,23.9,15.2
		c46.1,28.9,96.4,55.8,151.7,49.7c23.9-2.6,46.2-11.3,68.1-21.3c39.8-18.1,78-40.1,121.8-36.5c32.9,2.7,62,19.9,94.7,24
		c1.9,0.2,3.7,0.4,5.6,0.6c8.6,0.7,17.1,0.4,25.6-0.5c0,0,0,0,0,0c31.6-3.6,62-17.7,88.2-34c34.8-21.6,66-48,104.5-64.4
		c54.6-23.2,121.6-23.8,176.7-1.6c40.6,16.4,73.5,43.7,109.1,67c5.8,3.8,11.8,7.5,17.9,11.1c31.4,18.3,66.9,32.3,104.5,31
		c26.2-0.9,51-9.2,76.4-14.6c0,0,0.1,0,0.1,0C1255.7,270.9,1264.3,269.4,1273,268.3z"/>
</g>
<g id="text">
	<g class="st3">
		<path d="M253.8,431.5v31.7c-6.4,2.1-12.1,3.1-17.2,3.1c-17.6,0-31.8-6.6-42.7-19.8c-10.9-13.2-16.4-30.5-16.4-52
			c0-20,5.5-36.4,16.5-49.4s24.9-19.5,41.7-19.5c6.5,0,12.5,0.9,18,2.6V360c-5.8-1.9-11.3-2.9-16.4-2.9c-7.9,0-14.4,3.6-19.6,10.8
			s-7.8,16.4-7.8,27.5c0,12,2.6,21.5,7.9,28.5c5.2,7,12.2,10.5,21,10.5C243.1,434.5,248.1,433.5,253.8,431.5z"/>
		<path d="M266.9,329.4h30.3V379h26.9v-49.5h30.3V463h-30.3v-55.6h-26.9V463h-30.3V329.4z"/>
		<path d="M376.6,329.4H438v28.4h-31v24.6h26.9v27.7H407v24.3h31.2V463h-61.6V329.4z"/>
		<path d="M549,463h-31.5l-5.1-22.3h-32L475,463h-30.9l35.4-133.6h34L549,463z M506.5,416.7c-4.5-19.9-7.9-38.8-10.2-56.8h-0.4
			c-2.4,18.5-5.8,37.4-10.1,56.8H506.5z"/>
		<path d="M557.7,329.4h37.5c13.2,0,23.8,3.8,31.8,11.3s12,17.5,12,29.8c0,13-4.1,23.2-12.2,30.6c-8.1,7.4-19.3,11.1-33.7,11.1h-5.2
			V463h-30.3V329.4H557.7z M588.1,355v31.5c6.8-0.1,11.8-1.4,15.1-3.9c3.2-2.5,4.9-6.4,4.9-11.7c0-5.7-1.6-9.8-4.7-12.2
			C600.1,356.4,595.1,355.2,588.1,355z"/>
		<path d="M655.5,460.5v-31.1c9.6,5.6,17.7,8.4,24.2,8.4c3.8,0,6.8-1.1,9-3.2s3.3-4.9,3.3-8.4c0-2.7-0.9-5.2-2.7-7.5
			s-4.8-5.2-9.2-8.5c-10.5-8-18.1-15.5-22.8-22.4s-7.1-14.6-7.1-23.1c0-11.5,3.6-21,10.9-28.2c7.3-7.3,16.7-10.9,28.2-10.9
			c8.5,0,17,1.8,25.4,5.5V361c-9-4.9-16.3-7.4-21.9-7.4c-3.7,0-6.7,0.9-8.9,2.8c-2.2,1.8-3.3,4.4-3.3,7.6c0,5.6,5,11.9,15.1,18.9
			c6,4.1,12.1,10,18.3,17.5s9.3,16.2,9.3,26.1c0,11.5-4,21.1-12.1,28.7s-18.3,11.4-30.7,11.4C672.2,466.5,663.8,464.5,655.5,460.5z"
			/>
		<path d="M738.7,329.4H769V379h27v-49.5h30.3V463H796v-55.6h-27V463h-30.3V329.4z"/>
		<path d="M941.8,463h-31.5l-5.1-22.3h-32l-5.3,22.3H837l35.4-133.6h34L941.8,463z M899.4,416.7c-4.5-19.9-7.9-38.8-10.2-56.8h-0.4
			c-2.4,18.5-5.8,37.4-10.1,56.8H899.4z"/>
		<path d="M950.6,329.4h35.3c14.3,0,25.6,3.7,33.8,11c8.3,7.3,12.4,17.3,12.4,29.9c0,6.5-1.6,12.7-4.7,18.8
			c-3.1,6-7.7,10.6-13.7,13.7L1038,463h-32l-24.5-60.9H981V463h-30.3V329.4H950.6z M980.9,355.2V387c13.4-0.3,20.1-5,20.1-14.1
			c0-6.2-1.6-10.6-4.7-13.3C993.3,356.9,988.1,355.4,980.9,355.2z"/>
		<path d="M1048.5,329.4h30.3v62.9h0.5l28.6-62.9h31.8l-31,68.3l29.7,65.4h-33.3l-25.8-55.6h-0.5V463h-30.3L1048.5,329.4
			L1048.5,329.4z"/>
	</g>
	<g>
		<g>
			<g>
				<path class="st4" d="M246.8,424.5v31.7c-6.4,2.1-12.1,3.1-17.2,3.1c-17.6,0-31.8-6.6-42.7-19.8c-10.9-13.2-16.4-30.5-16.4-52
					c0-20,5.5-36.4,16.5-49.4s24.9-19.5,41.7-19.5c6.5,0,12.5,0.9,18,2.6V353c-5.8-1.9-11.3-2.9-16.4-2.9c-7.9,0-14.4,3.6-19.6,10.8
					s-7.8,16.4-7.8,27.5c0,12,2.6,21.5,7.9,28.5c5.2,7,12.2,10.5,21,10.5C236.1,427.5,241.1,426.5,246.8,424.5z"/>
				<path class="st4" d="M259.9,322.4h30.3V372h26.9v-49.5h30.3V456h-30.3v-55.6h-26.9V456h-30.3V322.4z"/>
				<path class="st4" d="M369.6,322.4H431v28.4h-31v24.6h26.9v27.7H400v24.3h31.2V456h-61.6V322.4z"/>
				<path class="st4" d="M542,456h-31.5l-5.1-22.3h-32L468,456h-30.9l35.4-133.6h34L542,456z M499.5,409.7
					c-4.5-19.9-7.9-38.8-10.2-56.8h-0.4c-2.4,18.5-5.8,37.4-10.1,56.8H499.5z"/>
				<path class="st4" d="M550.7,322.4h37.5c13.2,0,23.8,3.8,31.8,11.3s12,17.5,12,29.8c0,13-4.1,23.2-12.2,30.6
					c-8.1,7.4-19.3,11.1-33.7,11.1h-5.2V456h-30.3V322.4H550.7z M581.1,348v31.5c6.8-0.1,11.8-1.4,15.1-3.9
					c3.2-2.5,4.9-6.4,4.9-11.7c0-5.7-1.6-9.8-4.7-12.2C593.1,349.4,588.1,348.2,581.1,348z"/>
				<path class="st4" d="M648.5,453.5v-31.1c9.6,5.6,17.7,8.4,24.2,8.4c3.8,0,6.8-1.1,9-3.2s3.3-4.9,3.3-8.4c0-2.7-0.9-5.2-2.7-7.5
					s-4.8-5.2-9.2-8.5c-10.5-8-18.1-15.5-22.8-22.4s-7.1-14.6-7.1-23.1c0-11.5,3.6-21,10.9-28.2c7.3-7.3,16.7-10.9,28.2-10.9
					c8.5,0,17,1.8,25.4,5.5V354c-9-4.9-16.3-7.4-21.9-7.4c-3.7,0-6.7,0.9-8.9,2.8c-2.2,1.8-3.3,4.4-3.3,7.6c0,5.6,5,11.9,15.1,18.9
					c6,4.1,12.1,10,18.3,17.5s9.3,16.2,9.3,26.1c0,11.5-4,21.1-12.1,28.7s-18.3,11.4-30.7,11.4C665.2,459.5,656.8,457.5,648.5,453.5
					z"/>
				<path class="st4" d="M731.7,322.4H762V372h27v-49.5h30.3V456H789v-55.6h-27V456h-30.3V322.4z"/>
				<path class="st4" d="M934.8,456h-31.5l-5.1-22.3h-32l-5.3,22.3H830l35.4-133.6h34L934.8,456z M892.4,409.7
					c-4.5-19.9-7.9-38.8-10.2-56.8h-0.4c-2.4,18.5-5.8,37.4-10.1,56.8H892.4z"/>
				<path class="st4" d="M943.6,322.4h35.3c14.3,0,25.6,3.7,33.8,11c8.3,7.3,12.4,17.3,12.4,29.9c0,6.5-1.6,12.7-4.7,18.8
					c-3.1,6-7.7,10.6-13.7,13.7L1031,456h-32l-24.5-60.9H974V456h-30.3V322.4H943.6z M973.9,348.2V380c13.4-0.3,20.1-5,20.1-14.1
					c0-6.2-1.6-10.6-4.7-13.3C986.3,349.9,981.1,348.4,973.9,348.2z"/>
				<path class="st4" d="M1041.5,322.4h30.3v62.9h0.5l28.6-62.9h31.8l-31,68.3l29.7,65.4h-33.3l-25.8-55.6h-0.5V456h-30.3
					L1041.5,322.4L1041.5,322.4z"/>
			</g>
		</g>
	</g>
</g>
</svg>
