<?xml version="1.0" encoding="utf-8"?>
<!-- Generator: Adobe Illustrator 23.0.1, SVG Export Plug-In . SVG Version: 6.00 Build 0)  -->
<svg version="1.1" xmlns="http://www.w3.org/2000/svg" xmlns:xlink="http://www.w3.org/1999/xlink" x="0px" y="0px"
	 viewBox="0 0 1273 470" style="enable-background:new 0 0 1273 470;" xml:space="preserve">
<style type="text/css">
	.st0{fill:#9B9B9B;}
	.st1{fill:#12769E;}
	.st2{fill:#FFFFFF;}
</style>
<g id="Layer_1">
	<path class="st0" d="M892,348H414c0,0,59-345.3,387-348C801,0,643,165.1,892,348z"/>
	<g>
		<path class="st1" d="M0,201.8L0,470h1273V268.3c-8.7,1.1-17.3,2.6-25.8,4.4c-25.4,5.4-50.3,13.7-76.5,14.6
			c-44.9,1.6-86.8-18.8-122.4-42.1c-35.6-23.3-68.5-50.6-109.1-67c-55.1-22.2-122.1-21.6-176.7,1.6c-38.5,16.4-69.7,42.8-104.5,64.4
			c-34.8,21.7-76.8,39.3-119.4,34c-32.7-4.1-61.8-21.3-94.7-24c-67.7-5.5-122.3,50.4-189.8,57.8c-65,7.2-123.2-31.3-175.6-64.9
			C53.6,231.1,27.3,215.4,0,201.8z"/>
	</g>
</g>
<g id="text">
	<g>
		<path class="st2" d="M246.8,424.5v31.7c-6.4,2.1-12.1,3.1-17.2,3.1c-17.6,0-31.8-6.6-42.7-19.8c-10.9-13.2-16.4-30.5-16.4-52
			c0-20,5.5-36.4,16.5-49.4c11-13,24.9-19.5,41.7-19.5c6.5,0,12.5,0.9,18,2.6v31.8c-5.8-1.9-11.3-2.9-16.4-2.9
			c-7.9,0-14.4,3.6-19.6,10.8s-7.8,16.4-7.8,27.5c0,12,2.6,21.5,7.9,28.5c5.2,7,12.2,10.5,21,10.5
			C236.1,427.5,241.1,426.5,246.8,424.5z"/>
		<path class="st2" d="M259.9,322.4h30.3V372h26.9v-49.5h30.3V456h-30.3v-55.6h-26.9V456h-30.3V322.4z"/>
		<path class="st2" d="M369.6,322.4h61.4v28.4h-31v24.6h26.9v27.7h-26.9v24.3h31.2V456h-61.6V322.4z"/>
		<path class="st2" d="M542,456h-31.5l-5.1-22.3h-32L468,456h-30.9l35.4-133.6h34L542,456z M499.5,409.7
			c-4.5-19.9-7.9-38.8-10.2-56.8h-0.4c-2.4,18.5-5.8,37.4-10.1,56.8H499.5z"/>
		<path class="st2" d="M550.7,322.4h37.5c13.2,0,23.8,3.8,31.8,11.3c8,7.5,12,17.5,12,29.8c0,13-4.1,23.2-12.2,30.6
			c-8.1,7.4-19.3,11.1-33.7,11.1h-5.2V456h-30.3V322.4z M581.1,348v31.5c6.8-0.1,11.8-1.4,15.1-3.9c3.2-2.5,4.9-6.4,4.9-11.7
			c0-5.7-1.6-9.8-4.7-12.2C593.1,349.4,588.1,348.2,581.1,348z"/>
		<path class="st2" d="M648.5,453.5v-31.1c9.6,5.6,17.7,8.4,24.2,8.4c3.8,0,6.8-1.1,9-3.2c2.2-2.1,3.3-4.9,3.3-8.4
			c0-2.7-0.9-5.2-2.7-7.5c-1.8-2.3-4.8-5.2-9.2-8.5c-10.5-8-18.1-15.5-22.8-22.4c-4.7-6.9-7.1-14.6-7.1-23.1
			c0-11.5,3.6-21,10.9-28.2c7.3-7.3,16.7-10.9,28.2-10.9c8.5,0,17,1.8,25.4,5.5v29.9c-9-4.9-16.3-7.4-21.9-7.4
			c-3.7,0-6.7,0.9-8.9,2.8c-2.2,1.8-3.3,4.4-3.3,7.6c0,5.6,5,11.9,15.1,18.9c6,4.1,12.1,10,18.3,17.5c6.2,7.5,9.3,16.2,9.3,26.1
			c0,11.5-4,21.1-12.1,28.7c-8.1,7.6-18.3,11.4-30.7,11.4C665.2,459.5,656.8,457.5,648.5,453.5z"/>
		<path class="st2" d="M731.7,322.4H762V372H789v-49.5h30.3V456H789v-55.6H762V456h-30.3V322.4z"/>
		<path class="st2" d="M934.8,456h-31.5l-5.1-22.3h-32l-5.3,22.3h-30.9l35.4-133.6h34L934.8,456z M892.4,409.7
			c-4.5-19.9-7.9-38.8-10.2-56.8h-0.4c-2.4,18.5-5.8,37.4-10.1,56.8H892.4z"/>
		<path class="st2" d="M943.6,322.4h35.3c14.3,0,25.6,3.7,33.8,11c8.3,7.3,12.4,17.3,12.4,29.9c0,6.5-1.6,12.7-4.7,18.8
			c-3.1,6-7.7,10.6-13.7,13.7L1031,456h-32l-24.5-60.9h-0.5V456h-30.3V322.4z M973.9,348.2V380c13.4-0.3,20.1-5,20.1-14.1
			c0-6.2-1.6-10.6-4.7-13.3C986.3,349.9,981.1,348.4,973.9,348.2z"/>
		<path class="st2" d="M1041.5,322.4h30.3v62.9h0.5l28.6-62.9h31.8l-31,68.3l29.7,65.4h-33.3l-25.8-55.6h-0.5V456h-30.3V322.4z"/>
	</g>
</g>
</svg>
