<?xml version="1.0" encoding="utf-8"?>
<!-- Generator: Adobe Illustrator 23.0.1, SVG Export Plug-In . SVG Version: 6.00 Build 0)  -->
<svg version="1.1" id="Layer_1" xmlns="http://www.w3.org/2000/svg" xmlns:xlink="http://www.w3.org/1999/xlink" x="0px" y="0px"
	 viewBox="0 0 112.7 61.9" style="enable-background:new 0 0 112.7 61.9;" xml:space="preserve">
<style type="text/css">
	.st0{fill:#FFFF00;stroke:#000000;stroke-width:0.2;stroke-miterlimit:10;}
</style>
<g>
	<path class="st0" d="M13.3,26.5L0.1,20.9L9,0.1l2.8,1.2L3.9,19.6L14.3,24L13.3,26.5z"/>
	<path class="st0" d="M32.4,34.6l-2.9-1.2l0.4-6.6l-9-3.8l-4.5,4.9l-2.8-1.2L30,9.1l3.7,1.6L32.4,34.6z M30,24l0.7-11.7l-8,8.6
		L30,24z"/>
	<path class="st0" d="M56.4,23.2L49,20.1l-7.8,18.3l-2.8-1.2l7.8-18.3l-7.4-3.2l1-2.5l17.6,7.5L56.4,23.2z"/>
	<path class="st0" d="M65.1,48.5l-13.7-5.8l8.8-20.7l13.7,5.8l-1,2.5L62,25.6l-2.4,5.7l10.9,4.6l-1,2.5l-10.9-4.6l-3.3,7.7L66.1,46
		L65.1,48.5z"/>
	<path class="st0" d="M87,50.8c-0.3,0.8-0.9,1.5-1.6,2.2c-0.7,0.6-1.5,1.1-2.4,1.3c-1,0.3-2.1,0.4-3.2,0.3c-1.1-0.1-2.4-0.4-3.8-1
		c-1.5-0.6-2.8-1.3-3.9-2.1c-1.1-0.8-2.1-1.7-3.1-2.8l1.5-3.5l0.2,0.1c0.7,1.3,1.6,2.5,2.8,3.6c1.2,1.1,2.4,1.8,3.6,2.4
		c1.7,0.7,3.2,1,4.4,0.7c1.2-0.2,2.1-0.9,2.5-2c0.4-0.9,0.5-1.7,0.2-2.3c-0.3-0.6-0.8-1.3-1.6-1.9c-0.6-0.5-1.3-1-2.1-1.4
		c-0.8-0.5-1.6-1-2.4-1.6c-1.7-1.2-2.8-2.4-3.2-3.7c-0.5-1.3-0.4-2.7,0.2-4.3c0.7-1.7,2.1-2.8,4-3.3c1.9-0.5,4-0.2,6.3,0.7
		c1.5,0.6,2.7,1.3,3.8,2.1c1.1,0.8,2,1.6,2.8,2.4L90.7,40l-0.2-0.1c-0.5-1-1.3-2-2.4-3c-1.1-1-2.3-1.8-3.7-2.3
		c-1.5-0.6-2.8-0.8-4-0.6c-1.2,0.2-1.9,0.8-2.4,1.8c-0.4,0.9-0.4,1.6-0.2,2.3c0.2,0.7,0.9,1.4,1.9,2.1c0.5,0.4,1.3,0.9,2.3,1.6
		c1,0.7,1.9,1.2,2.5,1.8c1.4,1.1,2.3,2.2,2.7,3.3C87.8,48,87.7,49.4,87,50.8z"/>
	<path class="st0" d="M111.5,46.6l-7.4-3.2l-7.8,18.3l-2.8-1.2l7.8-18.3L94,39.2l1-2.5l17.6,7.5L111.5,46.6z"/>
</g>
</svg>
