<?xml version="1.0" encoding="utf-8"?>
<!-- Generator: Adobe Illustrator 23.0.1, SVG Export Plug-In . SVG Version: 6.00 Build 0)  -->
<svg version="1.1" xmlns="http://www.w3.org/2000/svg" xmlns:xlink="http://www.w3.org/1999/xlink" x="0px" y="0px"
	 viewBox="0 0 2305 541" style="enable-background:new 0 0 2305 541;" xml:space="preserve">
<style type="text/css">
	.st0{display:none;}
	.st1{display:inline;}
	.st2{fill:#008CFF;}
	.st3{fill:#FFFFFF;}
	.st4{fill:#999999;}
</style>
<g id="Layer_1" class="st0">
	<g class="st1">
		<rect x="-2347.5" y="1066.5" class="st2" width="1146" height="677"/>
		<path d="M-1202,1067v676h-1145v-676H-1202 M-1201,1066h-1147v678h1147V1066L-1201,1066z"/>
	</g>
</g>
<g id="Layer_2">
	<path class="st3" d="M-1970.5,1362.2c-0.1-3.1-0.7-5.7-1.7-7.9c-1-2.2-2.4-4.1-4.2-5.4c-1.8-1.4-3.7-2.4-5.9-3
		c-2.2-0.6-4.4-0.8-6.5-0.6c-2.2,0.2-4.3,1-6.4,2.3c-2,1.2-3.9,3.2-5.7,5.9c-1.8,2.7-3.3,6-4.4,9.9c-1.1,4-1.7,7.5-1.6,10.6
		c0.1,3.1,0.7,5.7,1.7,7.9c1,2.2,2.4,4,4.1,5.4c1.8,1.4,3.8,2.4,6,3.1c2.2,0.6,4.5,0.8,6.7,0.6c2.3-0.3,4.4-1.1,6.4-2.5
		c2.3-1.6,4.2-3.6,5.8-6.2c1.6-2.5,3-5.7,4-9.4C-1970.9,1368.9-1970.4,1365.3-1970.5,1362.2z M-1970.5,1362.2
		c-0.1-3.1-0.7-5.7-1.7-7.9c-1-2.2-2.4-4.1-4.2-5.4c-1.8-1.4-3.7-2.4-5.9-3c-2.2-0.6-4.4-0.8-6.5-0.6c-2.2,0.2-4.3,1-6.4,2.3
		c-2,1.2-3.9,3.2-5.7,5.9c-1.8,2.7-3.3,6-4.4,9.9c-1.1,4-1.7,7.5-1.6,10.6c0.1,3.1,0.7,5.7,1.7,7.9c1,2.2,2.4,4,4.1,5.4
		c1.8,1.4,3.8,2.4,6,3.1c2.2,0.6,4.5,0.8,6.7,0.6c2.3-0.3,4.4-1.1,6.4-2.5c2.3-1.6,4.2-3.6,5.8-6.2c1.6-2.5,3-5.7,4-9.4
		C-1970.9,1368.9-1970.4,1365.3-1970.5,1362.2z M-2082,1114l-69,421l345,119l8-409L-2082,1114z M-2053.8,1386.1l-15.2-54.2l-13.3,46
		l-15.8-4.6l19.3-67.1l20.7,6l13.4,45.5l11.1-38.4l15.9,4.6l-19.3,67.1L-2053.8,1386.1z M-1954.2,1378.1
		c-3.1,10.7-8.6,18.3-16.5,22.8c-7.9,4.5-17.3,5.2-28.1,2.1c-10.8-3.1-18.3-8.7-22.6-16.8c-4.3-8.1-4.9-17.4-1.8-28.1
		c3.1-10.8,8.6-18.4,16.6-22.9c7.9-4.5,17.3-5.2,28.1-2.1c10.8,3.1,18.3,8.7,22.6,16.7C-1951.7,1357.9-1951,1367.3-1954.2,1378.1z
		 M-1927.1,1423.5l-17.3-5l15.6-54.1l-20.9-6l3.7-13l59.2,17.1l-3.7,13l-20.9-6L-1927.1,1423.5z M-1838.6,1390.5l-31.3-9l-3.3,11.6
		l29.1,8.4l-3.7,13l-29.1-8.4l-4.8,16.6l31.3,9l-3.7,13l-48.5-14l19.3-67.1l48.5,14L-1838.6,1390.5z M-1972.2,1354.3
		c-1-2.2-2.4-4.1-4.2-5.4c-1.8-1.4-3.7-2.4-5.9-3c-2.2-0.6-4.4-0.8-6.5-0.6c-2.2,0.2-4.3,1-6.4,2.3c-2,1.2-3.9,3.2-5.7,5.9
		c-1.8,2.7-3.3,6-4.4,9.9c-1.1,4-1.7,7.5-1.6,10.6c0.1,3.1,0.7,5.7,1.7,7.9c1,2.2,2.4,4,4.1,5.4c1.8,1.4,3.8,2.4,6,3.1
		c2.2,0.6,4.5,0.8,6.7,0.6c2.3-0.3,4.4-1.1,6.4-2.5c2.3-1.6,4.2-3.6,5.8-6.2c1.6-2.5,3-5.7,4-9.4c1.2-4,1.7-7.6,1.6-10.7
		C-1970.7,1359.1-1971.2,1356.5-1972.2,1354.3z M-1970.5,1362.2c-0.1-3.1-0.7-5.7-1.7-7.9c-1-2.2-2.4-4.1-4.2-5.4
		c-1.8-1.4-3.7-2.4-5.9-3c-2.2-0.6-4.4-0.8-6.5-0.6c-2.2,0.2-4.3,1-6.4,2.3c-2,1.2-3.9,3.2-5.7,5.9c-1.8,2.7-3.3,6-4.4,9.9
		c-1.1,4-1.7,7.5-1.6,10.6c0.1,3.1,0.7,5.7,1.7,7.9c1,2.2,2.4,4,4.1,5.4c1.8,1.4,3.8,2.4,6,3.1c2.2,0.6,4.5,0.8,6.7,0.6
		c2.3-0.3,4.4-1.1,6.4-2.5c2.3-1.6,4.2-3.6,5.8-6.2c1.6-2.5,3-5.7,4-9.4C-1970.9,1368.9-1970.4,1365.3-1970.5,1362.2z
		 M-1970.5,1362.2c-0.1-3.1-0.7-5.7-1.7-7.9c-1-2.2-2.4-4.1-4.2-5.4c-1.8-1.4-3.7-2.4-5.9-3c-2.2-0.6-4.4-0.8-6.5-0.6
		c-2.2,0.2-4.3,1-6.4,2.3c-2,1.2-3.9,3.2-5.7,5.9c-1.8,2.7-3.3,6-4.4,9.9c-1.1,4-1.7,7.5-1.6,10.6c0.1,3.1,0.7,5.7,1.7,7.9
		c1,2.2,2.4,4,4.1,5.4c1.8,1.4,3.8,2.4,6,3.1c2.2,0.6,4.5,0.8,6.7,0.6c2.3-0.3,4.4-1.1,6.4-2.5c2.3-1.6,4.2-3.6,5.8-6.2
		c1.6-2.5,3-5.7,4-9.4C-1970.9,1368.9-1970.4,1365.3-1970.5,1362.2z"/>
	<path class="st3" d="M-1652,1379.4l-2.4,26.3l16.7-4.1L-1652,1379.4z M-1652,1379.4l-2.4,26.3l16.7-4.1L-1652,1379.4z
		 M-1652,1379.4l-2.4,26.3l16.7-4.1L-1652,1379.4z M-1652,1379.4l-2.4,26.3l16.7-4.1L-1652,1379.4z M-1409,1156l-363,90v409l445-119
		L-1409,1156z M-1698.6,1444.3l-17.5,4.3l-13.4-54.7l-21.2,5.2l-3.2-13.1l59.8-14.7l3.2,13.1l-21.2,5.2L-1698.6,1444.3z
		 M-1622.3,1425.6l-8.1-12.5l-25.1,6.1l-1.4,14.9l-17.6,4.3l8.4-73.9l20.1-4.9l41.7,61.6L-1622.3,1425.6z M-1552.7,1408.5
		l-26.9-22.2l-2.8,6l5.4,22.1l-17.5,4.3l-16.6-67.8l17.5-4.3l7.5,30.7l16.7-36.6l20.3-5l-18.8,37.9l36.8,29.6L-1552.7,1408.5z
		 M-1522.7,1401.1l-16.6-67.8l49-12l3.2,13.1l-31.6,7.8l2.9,11.7l29.4-7.2l3.2,13.1l-29.4,7.2l4.1,16.8l31.6-7.8l3.2,13.1
		L-1522.7,1401.1z M-1439.6,1354.4l-8.1,2l6.1,24.9l-17.4,4.3l-16.6-67.8l29.3-7.2c4-1,7.5-1.6,10.5-1.9c3-0.3,5.9,0.1,8.8,1
		c2.9,0.9,5.4,2.4,7.5,4.4c2.1,2,3.6,4.9,4.5,8.5c1.2,5,1.1,9.4-0.5,13.1c-1.6,3.7-4.2,7.2-8,10.3l29.7,23.5l-21.4,5.2
		L-1439.6,1354.4z M-1434.6,1325.1c-1-1-2.4-1.7-4.3-2c-1.3-0.2-2.8-0.2-4.4,0.1c-1.6,0.3-3.4,0.7-5.6,1.2l-6.3,1.5l4.5,18.3
		l5.4-1.3c2.8-0.7,5.1-1.4,6.9-2.1c1.8-0.7,3.2-1.7,4.3-3c1-1.2,1.6-2.5,1.9-3.8c0.3-1.3,0.2-2.9-0.3-4.8
		C-1432.9,1327.5-1433.6,1326.1-1434.6,1325.1z M-1654.3,1405.7l16.7-4.1l-14.3-22.2L-1654.3,1405.7z M-1652,1379.4l-2.4,26.3
		l16.7-4.1L-1652,1379.4z M-1652,1379.4l-2.4,26.3l16.7-4.1L-1652,1379.4z"/>
	<g>
		<g>
		</g>
	</g>
	<polygon class="st3" points="-760,1466 -1105,1347 -1036,926 -752,1057 	"/>
	<path class="st3" d="M-363,968l-363,90v409l445-119L-363,968z M-670,1121.6c0-3.6,2.9-6.5,6.5-6.5c3.6,0,6.5,2.9,6.5,6.5
		c0,3.6-2.9,6.5-6.5,6.5C-667.1,1128.1-670,1125.2-670,1121.6z M-666,1195.6c0-3.6,2.9-6.5,6.5-6.5c3.6,0,6.5,2.9,6.5,6.5
		c0,3.6-2.9,6.5-6.5,6.5C-663.1,1202.1-666,1199.2-666,1195.6z M-657,1270.6c0-3.6,2.9-6.5,6.5-6.5c3.6,0,6.5,2.9,6.5,6.5
		c0,3.6-2.9,6.5-6.5,6.5C-654.1,1277.1-657,1274.2-657,1270.6z M-644.5,1359.1c-3.6,0-6.5-2.9-6.5-6.5c0-3.6,2.9-6.5,6.5-6.5
		c3.6,0,6.5,2.9,6.5,6.5C-638.1,1356.2-641,1359.1-644.5,1359.1z M-635,1113.4l230-62.4l1,3.5l-230.1,62.4L-635,1113.4z
		 M-629.3,1189.1l-0.1,0l-0.3-1.1l0.1,0l-0.4-1.6l230-62.4l1,3.5l-230.1,62.4L-629.3,1189.1z M-622,1263.4l230-62.4l1,3.5
		l-230.1,62.4L-622,1263.4z M-611.4,1346.9l-0.9-3.4l246.9-66.6l0.9,3.4L-611.4,1346.9z"/>
	<rect x="-1105" y="1481.5" style="fill:none;" width="824" height="173.5"/>
	<text transform="matrix(1 0 0 1 -1104.9346 1569.3291)" class="st3" style="font-family:'Verdana-Bold'; font-size:116px;">NOTE TAKER</text>
	<g>
		<g>
		</g>
	</g>
	<polygon class="st4" points="345,540 0,421 69,0 353,131 	"/>
	<path class="st3" d="M742,42l-363,90v409l445-119L742,42z M435,195.6c0-3.6,2.9-6.5,6.5-6.5c3.6,0,6.5,2.9,6.5,6.5
		c0,3.6-2.9,6.5-6.5,6.5C437.9,202.1,435,199.2,435,195.6z M439,269.6c0-3.6,2.9-6.5,6.5-6.5c3.6,0,6.5,2.9,6.5,6.5
		c0,3.6-2.9,6.5-6.5,6.5C441.9,276.1,439,273.2,439,269.6z M448,344.6c0-3.6,2.9-6.5,6.5-6.5c3.6,0,6.5,2.9,6.5,6.5
		c0,3.6-2.9,6.5-6.5,6.5C450.9,351.1,448,348.2,448,344.6z M460.5,433.1c-3.6,0-6.5-2.9-6.5-6.5c0-3.6,2.9-6.5,6.5-6.5
		c3.6,0,6.5,2.9,6.5,6.5C466.9,430.2,464,433.1,460.5,433.1z M470,187.4L700,125l1,3.5l-230.1,62.4L470,187.4z M475.7,263.1l-0.1,0
		l-0.3-1.1l0.1,0l-0.4-1.6L705,198l1,3.5l-230.1,62.4L475.7,263.1z M483,337.4L713,275l1,3.5l-230.1,62.4L483,337.4z M493.6,421
		l-0.9-3.4L739.6,351l0.9,3.5L493.6,421z"/>
	<g>
		<path class="st3" d="M1040.1,333.4h-36l-61.4-99.3v99.3h-34.2V188.7h44.6l52.8,82.9v-82.9h34.2V333.4z"/>
		<path class="st3" d="M1217.7,261.1c0,23.1-6.6,41.4-19.8,54.9c-13.2,13.6-31.5,20.4-54.8,20.4c-23.3,0-41.5-6.8-54.7-20.4
			c-13.2-13.6-19.8-31.9-19.8-54.9c0-23.3,6.6-41.6,19.8-55.1c13.2-13.5,31.4-20.3,54.7-20.3c23.2,0,41.4,6.8,54.7,20.3
			C1211.1,219.5,1217.7,237.9,1217.7,261.1z M1168.3,297.7c3.6-4.4,6.3-9.6,8.1-15.6c1.7-6,2.6-13,2.6-21.1c0-8.7-1-16.1-3-22.2
			c-2-6.1-4.6-11-7.9-14.8c-3.3-3.9-7.1-6.7-11.4-8.5c-4.3-1.7-8.8-2.6-13.5-2.6c-4.7,0-9.2,0.8-13.4,2.5c-4.2,1.7-8,4.5-11.5,8.4
			c-3.2,3.6-5.9,8.6-7.9,15c-2,6.4-3.1,13.8-3.1,22.2c0,8.6,1,16,3,22c2,6.1,4.6,11,7.8,14.8c3.2,3.8,7,6.6,11.4,8.5
			c4.3,1.8,8.9,2.7,13.7,2.7s9.4-0.9,13.7-2.8C1161.2,304.5,1165,301.6,1168.3,297.7z"/>
		<path class="st3" d="M1359.4,216.7h-45.2v116.7h-37.3V216.7h-45.2v-28h127.7V216.7z"/>
		<path class="st3" d="M1486.5,333.4h-104.6V188.7h104.6v28h-67.5v25h62.7v28h-62.7v35.8h67.5V333.4z"/>
		<path class="st3" d="M1699,216.7h-45.2v116.7h-37.3V216.7h-45.2v-28H1699V216.7z"/>
		<path class="st3" d="M1855.1,333.4h-38.5l-10.1-29.2H1753l-10.1,29.2h-37.6l53.4-144.7h42.9L1855.1,333.4z M1797.6,277.6
			l-17.8-51.8l-17.8,51.8H1797.6z"/>
		<path class="st3" d="M2011,333.4h-45.8l-43.2-57.9l-8.7,10.7v47.2h-37.3V188.7h37.3v65.6l51.7-65.6h43.2l-56.6,66.9L2011,333.4z"
			/>
		<path class="st3" d="M2134,333.4h-104.6V188.7H2134v28h-67.5v25h62.7v28h-62.7v35.8h67.5V333.4z"/>
		<path class="st3" d="M2304.6,333.4h-45.6l-39.4-53.1h-17.3v53.1h-37.1V188.7h62.6c8.6,0,15.9,0.5,22.1,1.5
			c6.2,1,11.9,3.1,17.3,6.3c5.4,3.2,9.8,7.4,13,12.6c3.2,5.1,4.8,11.6,4.8,19.4c0,10.7-2.5,19.4-7.4,26.1c-5,6.7-12,12.3-21.2,16.8
			L2304.6,333.4z M2246.4,233c0-3.6-0.7-6.7-2.2-9.3c-1.5-2.6-4-4.6-7.7-6.1c-2.5-1-5.5-1.7-8.8-1.9c-3.4-0.2-7.3-0.3-11.8-0.3
			h-13.5v39h11.5c6,0,10.9-0.3,15-0.9c4-0.6,7.4-1.9,10.1-4c2.6-2,4.5-4.2,5.7-6.7C2245.8,240.4,2246.4,237.1,2246.4,233z"/>
	</g>
	<rect x="909" y="361" class="st3" width="1396" height="9"/>
</g>
<g id="original">
	<polygon class="st3" points="-1901,1003 -2246,884 -2177,463 -1893,594 	"/>
	<polygon class="st3" points="-1422,885 -1867,1004 -1867,595 -1504,505 	"/>
	<g>
		<g>
		</g>
	</g>
	<g>
		<g>
			<path d="M-1262.9,793.6h-9.7l-34.6-53.6c-0.9-1.3-1.6-2.7-2.2-4.2h-0.3c0.3,1.4,0.4,4.5,0.4,9.2v48.6h-7.9v-67.2h10.2l33.7,52.7
				c1.4,2.2,2.3,3.7,2.7,4.5h0.2c-0.3-1.9-0.5-5.2-0.5-9.9v-47.3h7.9V793.6z"/>
			<path d="M-1218.2,794.7c-9.5,0-17.2-3.1-22.9-9.4s-8.6-14.5-8.6-24.5c0-10.8,2.9-19.4,8.8-25.9c5.8-6.4,13.8-9.7,23.9-9.7
				c9.3,0,16.8,3.1,22.4,9.4c5.7,6.3,8.5,14.4,8.5,24.5c0,11-2.9,19.6-8.7,26S-1208.4,794.7-1218.2,794.7z M-1217.6,732.3
				c-7.1,0-12.8,2.5-17.2,7.6c-4.4,5.1-6.6,11.8-6.6,20.1c0,8.3,2.1,14.9,6.4,20c4.3,5,9.9,7.6,16.8,7.6c7.4,0,13.2-2.4,17.4-7.2
				c4.3-4.8,6.4-11.5,6.4-20.2c0-8.9-2.1-15.7-6.2-20.6C-1204.7,734.8-1210.3,732.3-1217.6,732.3z"/>
			<path d="M-1133.1,733.5h-19.4v60.1h-7.9v-60.1h-19.4v-7.1h46.6V733.5z"/>
			<path d="M-1087,793.6h-35.6v-67.2h34.1v7.1h-26.3v22.4h24.3v7.1h-24.3v23.5h27.8V793.6z"/>
		</g>
	</g>
	<g>
		<g>
			<path d="M-978,736.6h-19.4v60.1h-7.9v-60.1h-19.4v-7.1h46.6V736.6z"/>
			<path d="M-915.4,796.7h-8.7l-7.1-18.8h-28.5l-6.7,18.8h-8.8l25.8-67.2h8.2L-915.4,796.7z M-933.9,770.8l-10.5-28.6
				c-0.3-0.9-0.7-2.4-1-4.5h-0.2c-0.3,1.9-0.7,3.4-1.1,4.5l-10.5,28.6H-933.9z"/>
			<path d="M-858.8,796.7h-11l-26-30.8c-1-1.2-1.6-1.9-1.8-2.3h-0.2v33.1h-7.9v-67.2h7.9v31.6h0.2c0.4-0.7,1-1.5,1.8-2.3l25.1-29.3
				h9.8l-28.8,32.3L-858.8,796.7z"/>
			<path d="M-814.2,796.7h-35.6v-67.2h34.1v7.1H-842V759h24.3v7.1H-842v23.5h27.8V796.7z"/>
			<path d="M-753.1,796.7h-9.4l-11.3-18.8c-1-1.8-2-3.2-3-4.5c-1-1.2-2-2.2-3-3c-1-0.8-2.1-1.4-3.3-1.7c-1.2-0.4-2.5-0.5-4-0.5h-6.5
				v28.6h-7.9v-67.2h20.1c2.9,0,5.6,0.4,8.1,1.1c2.5,0.7,4.6,1.9,6.5,3.4s3.3,3.4,4.3,5.6c1,2.2,1.5,4.9,1.5,7.9
				c0,2.3-0.4,4.5-1.1,6.4c-0.7,2-1.7,3.7-3,5.2c-1.3,1.5-2.9,2.8-4.7,3.9s-3.9,1.9-6.2,2.5v0.2c1.1,0.5,2.1,1.1,2.9,1.7
				c0.8,0.6,1.6,1.4,2.4,2.3c0.8,0.9,1.5,1.9,2.2,3c0.7,1.1,1.6,2.4,2.5,3.9L-753.1,796.7z M-793.4,736.6V761h10.7
				c2,0,3.8-0.3,5.5-0.9c1.7-0.6,3.1-1.4,4.3-2.6c1.2-1.1,2.2-2.5,2.9-4.1c0.7-1.6,1-3.4,1-5.4c0-3.6-1.2-6.4-3.5-8.4s-5.7-3-10.1-3
				H-793.4z"/>
		</g>
	</g>
</g>
<g id="Layer_4">
</g>
</svg>
