<?xml version="1.0" encoding="utf-8"?>
<!-- Generator: Adobe Illustrator 23.0.1, SVG Export Plug-In . SVG Version: 6.00 Build 0)  -->
<svg version="1.1" id="Layer_1" xmlns="http://www.w3.org/2000/svg" xmlns:xlink="http://www.w3.org/1999/xlink" x="0px" y="0px"
	 viewBox="0 0 54.7 17.3" style="enable-background:new 0 0 54.7 17.3;" xml:space="preserve">
<style type="text/css">
	.st0{fill:#FFFFFF;}
	.st1{fill:#506F8E;}
</style>
<path class="st0" d="M8,3.1c0,0.4-0.1,0.8-0.2,1.1S7.4,5,7.2,5.2C6.8,5.6,6.4,5.8,6,6S5,6.3,4.4,6.3H3v2.8H0.8V0.4h3.7
	c0.6,0,1,0,1.4,0.1s0.7,0.2,1,0.4c0.4,0.2,0.6,0.5,0.8,0.9S8,2.6,8,3.1z M5.6,3.2c0-0.2-0.1-0.5-0.2-0.6C5.3,2.4,5.1,2.3,5,2.2
	C4.7,2.1,4.5,2,4.3,2S3.8,2,3.4,2H3v2.6h0.6c0.4,0,0.7,0,0.9-0.1c0.2,0,0.5-0.1,0.6-0.3C5.4,4.2,5.5,4,5.5,3.8S5.6,3.4,5.6,3.2z"/>
<path class="st0" d="M14.2,4.5H14c-0.1,0-0.2-0.1-0.4-0.1s-0.4,0-0.5,0c-0.3,0-0.6,0-0.8,0.1s-0.5,0.1-0.7,0.2v4.4H9.4V2.5h2.1v1
	c0.5-0.4,0.9-0.7,1.2-0.8c0.3-0.1,0.7-0.2,0.9-0.2c0.1,0,0.2,0,0.3,0c0.1,0,0.2,0,0.2,0V4.5z"/>
<path class="st0" d="M22.1,5.8c0,1.1-0.3,1.9-0.9,2.6s-1.5,0.9-2.7,0.9s-2-0.3-2.7-0.9s-0.9-1.5-0.9-2.6c0-1.1,0.3-1.9,1-2.6
	s1.5-0.9,2.7-0.9c1.1,0,2,0.3,2.7,0.9S22.1,4.7,22.1,5.8z M19.5,7.4c0.1-0.2,0.2-0.4,0.3-0.6s0.1-0.6,0.1-1c0-0.4,0-0.7-0.1-1
	s-0.2-0.5-0.3-0.6c-0.1-0.2-0.3-0.3-0.5-0.3s-0.4-0.1-0.6-0.1s-0.4,0-0.5,0.1S17.7,4,17.5,4.2c-0.1,0.2-0.2,0.4-0.3,0.6
	s-0.1,0.6-0.1,1c0,0.4,0,0.7,0.1,0.9s0.2,0.5,0.3,0.6c0.1,0.2,0.3,0.3,0.4,0.3s0.4,0.1,0.6,0.1c0.2,0,0.4,0,0.5-0.1
	S19.4,7.6,19.5,7.4z"/>
<path class="st0" d="M26.5,9.2c0,0.7-0.2,1.3-0.7,1.7s-1,0.6-1.8,0.6c-0.4,0-0.7,0-1,0s-0.5-0.1-0.7-0.1V9.9h0.2
	c0.1,0,0.3,0.1,0.4,0.1c0.2,0,0.3,0,0.4,0c0.4,0,0.7-0.1,0.8-0.4s0.2-0.6,0.2-1.2V4h-1.2V2.5h3.4V9.2z M26.5,1.6h-2.3V0h2.3V1.6z"/>
<path class="st0" d="M35,6.2h-4.8c0,0.5,0.2,0.9,0.6,1.2s0.9,0.4,1.6,0.4c0.4,0,0.9-0.1,1.3-0.2s0.7-0.3,1-0.5h0.2v1.7
	c-0.5,0.2-0.9,0.3-1.3,0.4s-0.9,0.1-1.4,0.1c-1.3,0-2.3-0.3-3-0.9S28,7,28,5.9c0-1.1,0.3-1.9,1-2.6s1.6-1,2.7-1
	c1.1,0,1.9,0.3,2.4,0.8S35,4.5,35,5.5V6.2z M32.9,5c0-0.4-0.1-0.8-0.3-1s-0.5-0.3-1-0.3c-0.4,0-0.7,0.1-1,0.3s-0.4,0.5-0.4,1H32.9z"
	/>
<path class="st0" d="M39.9,9.3c-0.6,0-1.1-0.1-1.6-0.2s-0.9-0.3-1.2-0.6c-0.3-0.3-0.6-0.6-0.8-1.1S36,6.4,36,5.9
	c0-0.6,0.1-1.1,0.3-1.6s0.5-0.8,0.9-1.1c0.4-0.3,0.8-0.5,1.2-0.6s0.9-0.2,1.4-0.2c0.4,0,0.9,0,1.2,0.1s0.7,0.2,1.1,0.4v1.8h-0.3
	c-0.1-0.1-0.2-0.2-0.3-0.2c-0.1-0.1-0.3-0.2-0.4-0.3c-0.2-0.1-0.3-0.2-0.5-0.2c-0.2-0.1-0.4-0.1-0.7-0.1c-0.6,0-1,0.2-1.3,0.5
	c-0.3,0.4-0.5,0.8-0.5,1.5c0,0.6,0.2,1.1,0.5,1.4c0.3,0.3,0.8,0.5,1.3,0.5c0.3,0,0.5,0,0.7-0.1c0.2-0.1,0.4-0.1,0.5-0.2
	c0.1-0.1,0.2-0.2,0.4-0.2c0.1-0.1,0.2-0.2,0.3-0.3h0.3v1.8c-0.3,0.2-0.7,0.3-1,0.4S40.3,9.3,39.9,9.3z"/>
<path class="st0" d="M47.7,9.1c-0.2,0.1-0.5,0.1-0.7,0.1s-0.6,0-0.9,0c-0.8,0-1.4-0.2-1.8-0.5S43.6,7.8,43.6,7V4h-0.9V2.5h0.9V0.7
	h2.1v1.9h2V4h-2v2.3c0,0.2,0,0.4,0,0.6c0,0.2,0,0.3,0.1,0.5c0.1,0.1,0.2,0.2,0.3,0.3c0.1,0.1,0.3,0.1,0.6,0.1c0.1,0,0.3,0,0.4-0.1
	s0.3-0.1,0.4-0.1h0.2V9.1z"/>
<path class="st0" d="M54.7,7c0,0.7-0.3,1.2-0.9,1.6s-1.4,0.6-2.5,0.6c-0.6,0-1.1-0.1-1.6-0.2s-0.9-0.2-1.1-0.4V7h0.2
	c0.1,0.1,0.2,0.2,0.4,0.2s0.3,0.2,0.6,0.3c0.2,0.1,0.5,0.2,0.7,0.2s0.6,0.1,0.9,0.1c0.4,0,0.7,0,0.9-0.1s0.3-0.2,0.3-0.4
	c0-0.2-0.1-0.3-0.2-0.3S52,6.9,51.7,6.8c-0.2,0-0.4-0.1-0.6-0.1s-0.5-0.1-0.7-0.1c-0.6-0.2-1-0.4-1.3-0.7s-0.4-0.7-0.4-1.2
	c0-0.6,0.3-1.2,0.9-1.6s1.4-0.6,2.5-0.6c0.5,0,1,0,1.4,0.1s0.8,0.2,1.1,0.3v1.7h-0.2c-0.3-0.2-0.7-0.4-1.1-0.5s-0.8-0.2-1.2-0.2
	c-0.3,0-0.6,0-0.9,0.1s-0.3,0.2-0.3,0.4c0,0.2,0.1,0.3,0.2,0.4s0.4,0.2,0.7,0.2c0.2,0,0.4,0.1,0.7,0.1s0.5,0.1,0.7,0.2
	c0.6,0.1,1,0.4,1.2,0.7S54.7,6.6,54.7,7z"/>
<path class="st1" d="M4.9,16.1H3.5l-0.4-0.4c-0.2,0.2-0.4,0.3-0.6,0.3S2,16.2,1.7,16.2c-0.5,0-1-0.1-1.3-0.4c-0.3-0.2-0.5-0.6-0.5-1
	c0-0.2,0-0.3,0.1-0.4s0.1-0.2,0.2-0.3c0.1-0.1,0.2-0.2,0.3-0.2s0.2-0.1,0.3-0.2c-0.1-0.1-0.2-0.1-0.2-0.2s-0.1-0.1-0.2-0.2
	c-0.1-0.1-0.1-0.2-0.1-0.2s0-0.2,0-0.3c0-0.1,0-0.3,0.1-0.4s0.1-0.2,0.3-0.3c0.1-0.1,0.3-0.2,0.5-0.2s0.4-0.1,0.7-0.1
	c0.2,0,0.4,0,0.6,0.1s0.3,0.1,0.5,0.2C3,12,3.1,12.1,3.2,12.2c0.1,0.1,0.1,0.2,0.1,0.4c0,0.1,0,0.2,0,0.3s-0.1,0.2-0.1,0.3
	c-0.1,0.1-0.2,0.2-0.3,0.3s-0.3,0.2-0.5,0.2l0.9,0.8v-0.9h1.1v0.3c0,0.2,0,0.5-0.1,0.7c-0.1,0.2-0.2,0.4-0.3,0.5L4.9,16.1L4.9,16.1z
	 M2.6,15.3l-1.2-1.1c0,0-0.1,0.1-0.1,0.2c-0.1,0.1-0.1,0.2-0.1,0.3c0,0.1,0,0.2,0.1,0.3c0.1,0.1,0.1,0.2,0.2,0.2
	c0.1,0.1,0.2,0.1,0.3,0.1s0.2,0,0.3,0c0.1,0,0.3,0,0.4,0S2.5,15.3,2.6,15.3z M2.2,12.7c0-0.1,0-0.2,0-0.2S2,12.4,2,12.4
	c0,0-0.1-0.1-0.1-0.1s-0.1,0-0.1,0c0,0-0.1,0-0.1,0s-0.1,0-0.1,0.1c0,0-0.1,0.1-0.1,0.1s0,0.1,0,0.2c0,0.1,0,0.2,0.1,0.3
	s0.2,0.2,0.4,0.3c0.1-0.1,0.2-0.2,0.2-0.3S2.2,12.9,2.2,12.7z"/>
<path class="st1" d="M10.6,16.1H7.4v-4.4h3.2v0.8h-2v0.8h1.9v0.8H8.5v1.1h2V16.1z"/>
<path class="st1" d="M14.9,16.1h-1.2l-0.7-1l-0.7,1H11l1.3-1.6l-1.3-1.6h1.2l0.7,1l0.7-1h1.2l-1.3,1.6L14.9,16.1z"/>
<path class="st1" d="M18.9,14.4c0,0.3,0,0.5-0.1,0.7c-0.1,0.2-0.2,0.4-0.3,0.6c-0.1,0.2-0.3,0.3-0.5,0.3c-0.2,0.1-0.4,0.1-0.6,0.1
	c-0.2,0-0.3,0-0.5-0.1S16.7,16,16.5,16v1.4h-1.1v-4.5h1.1v0.3c0.2-0.1,0.3-0.2,0.5-0.3c0.2-0.1,0.4-0.1,0.6-0.1c0.4,0,0.7,0.2,1,0.5
	C18.8,13.5,18.9,13.9,18.9,14.4z M17.8,14.4c0-0.3-0.1-0.6-0.2-0.7c-0.1-0.1-0.3-0.2-0.5-0.2c-0.1,0-0.2,0-0.3,0
	c-0.1,0-0.2,0.1-0.3,0.1v1.7c0.1,0,0.1,0,0.2,0.1s0.2,0,0.2,0c0.3,0,0.5-0.1,0.6-0.2C17.8,15,17.8,14.8,17.8,14.4z"/>
<path class="st1" d="M22.9,14.7h-2.4c0,0.3,0.1,0.5,0.3,0.6s0.4,0.2,0.8,0.2c0.2,0,0.4,0,0.6-0.1s0.4-0.2,0.5-0.3h0.1v0.8
	c-0.2,0.1-0.5,0.2-0.7,0.2s-0.4,0.1-0.7,0.1c-0.7,0-1.2-0.1-1.5-0.4s-0.5-0.7-0.5-1.3c0-0.5,0.2-1,0.5-1.3s0.8-0.5,1.4-0.5
	c0.5,0,0.9,0.1,1.2,0.4s0.4,0.7,0.4,1.2V14.7z M21.9,14c0-0.2-0.1-0.4-0.2-0.5s-0.3-0.2-0.5-0.2c-0.2,0-0.4,0.1-0.5,0.2
	s-0.2,0.3-0.2,0.5H21.9z"/>
<path class="st1" d="M26,13.8L26,13.8c-0.1,0-0.2,0-0.3,0c-0.1,0-0.2,0-0.2,0c-0.2,0-0.3,0-0.4,0c-0.1,0-0.2,0.1-0.4,0.1v2.2h-1.1
	v-3.3h1.1v0.5c0.2-0.2,0.4-0.3,0.6-0.4s0.3-0.1,0.5-0.1c0,0,0.1,0,0.1,0c0,0,0.1,0,0.1,0V13.8z"/>
<path class="st1" d="M27.7,12.4h-1.1v-0.8h1.1V12.4z M27.7,16.1h-1.1v-3.3h1.1V16.1z"/>
<path class="st1" d="M31.9,14.7h-2.4c0,0.3,0.1,0.5,0.3,0.6s0.4,0.2,0.8,0.2c0.2,0,0.4,0,0.6-0.1s0.4-0.2,0.5-0.3h0.1v0.8
	c-0.2,0.1-0.5,0.2-0.7,0.2s-0.4,0.1-0.7,0.1c-0.7,0-1.2-0.1-1.5-0.4s-0.5-0.7-0.5-1.3c0-0.5,0.2-1,0.5-1.3s0.8-0.5,1.4-0.5
	c0.5,0,0.9,0.1,1.2,0.4s0.4,0.7,0.4,1.2V14.7z M30.9,14c0-0.2-0.1-0.4-0.2-0.5s-0.3-0.2-0.5-0.2c-0.2,0-0.4,0.1-0.5,0.2
	s-0.2,0.3-0.2,0.5H30.9z"/>
<path class="st1" d="M36,16.1h-1.1v-1.6c0-0.1,0-0.3,0-0.4s0-0.2-0.1-0.3c0-0.1-0.1-0.1-0.2-0.2s-0.2,0-0.3,0c-0.1,0-0.2,0-0.3,0
	s-0.2,0.1-0.3,0.1v2.3h-1.1v-3.3h1.1v0.4c0.2-0.1,0.4-0.3,0.5-0.3c0.2-0.1,0.4-0.1,0.6-0.1c0.4,0,0.6,0.1,0.8,0.3
	c0.2,0.2,0.3,0.5,0.3,0.9V16.1z"/>
<path class="st1" d="M38.7,16.2c-0.3,0-0.5,0-0.8-0.1s-0.4-0.2-0.6-0.3c-0.2-0.1-0.3-0.3-0.4-0.5s-0.1-0.5-0.1-0.8
	c0-0.3,0.1-0.6,0.2-0.8s0.2-0.4,0.4-0.6c0.2-0.1,0.4-0.2,0.6-0.3s0.5-0.1,0.7-0.1c0.2,0,0.4,0,0.6,0.1s0.4,0.1,0.5,0.2v0.9h-0.1
	c0,0-0.1-0.1-0.1-0.1s-0.1-0.1-0.2-0.1c-0.1,0-0.2-0.1-0.3-0.1c-0.1,0-0.2,0-0.3,0c-0.3,0-0.5,0.1-0.6,0.3c-0.2,0.2-0.2,0.4-0.2,0.7
	c0,0.3,0.1,0.6,0.2,0.7c0.2,0.2,0.4,0.2,0.7,0.2c0.1,0,0.3,0,0.4,0s0.2-0.1,0.3-0.1c0.1,0,0.1-0.1,0.2-0.1s0.1-0.1,0.1-0.1h0.1V16
	c-0.2,0.1-0.3,0.1-0.5,0.2S38.9,16.2,38.7,16.2z"/>
<path class="st1" d="M43.7,14.7h-2.4c0,0.3,0.1,0.5,0.3,0.6s0.4,0.2,0.8,0.2c0.2,0,0.4,0,0.6-0.1s0.4-0.2,0.5-0.3h0.1v0.8
	c-0.2,0.1-0.5,0.2-0.7,0.2s-0.4,0.1-0.7,0.1c-0.7,0-1.2-0.1-1.5-0.4s-0.5-0.7-0.5-1.3c0-0.5,0.2-1,0.5-1.3s0.8-0.5,1.4-0.5
	c0.5,0,0.9,0.1,1.2,0.4s0.4,0.7,0.4,1.2V14.7z M42.7,14c0-0.2-0.1-0.4-0.2-0.5s-0.3-0.2-0.5-0.2c-0.2,0-0.4,0.1-0.5,0.2
	s-0.2,0.3-0.2,0.5H42.7z"/>
<g>
	<path class="st0" d="M-17,46.1c0,0.4-0.1,0.8-0.2,1.1s-0.3,0.7-0.6,0.9c-0.3,0.3-0.7,0.6-1.2,0.8s-1,0.3-1.6,0.3H-22v2.8h-2.3v-8.7
		h3.7c0.6,0,1,0,1.4,0.1s0.7,0.2,1,0.4c0.4,0.2,0.6,0.5,0.8,0.9S-17,45.6-17,46.1z M-19.4,46.2c0-0.2-0.1-0.5-0.2-0.6
		c-0.1-0.2-0.3-0.3-0.5-0.4c-0.2-0.1-0.5-0.1-0.7-0.2s-0.5,0-0.9,0H-22v2.6h0.6c0.4,0,0.7,0,0.9-0.1c0.2,0,0.5-0.1,0.6-0.3
		c0.1-0.1,0.2-0.3,0.3-0.4S-19.4,46.4-19.4,46.2z"/>
	<path class="st0" d="M-10.8,47.5H-11c-0.1,0-0.2-0.1-0.4-0.1s-0.4,0-0.5,0c-0.3,0-0.6,0-0.8,0.1s-0.5,0.1-0.7,0.2v4.4h-2.1v-6.6
		h2.1v1c0.5-0.4,0.9-0.7,1.2-0.8c0.3-0.1,0.7-0.2,0.9-0.2c0.1,0,0.2,0,0.3,0c0.1,0,0.2,0,0.2,0V47.5z"/>
	<path class="st0" d="M-2.9,48.8c0,1.1-0.3,1.9-0.9,2.6s-1.5,0.9-2.7,0.9s-2-0.3-2.7-0.9s-0.9-1.5-0.9-2.6c0-1.1,0.3-1.9,1-2.6
		s1.5-0.9,2.7-0.9c1.1,0,2,0.3,2.7,0.9S-2.9,47.7-2.9,48.8z M-5.5,50.4c0.1-0.2,0.2-0.4,0.3-0.6s0.1-0.6,0.1-1c0-0.4,0-0.7-0.1-1
		s-0.2-0.5-0.3-0.6c-0.1-0.2-0.3-0.3-0.5-0.3s-0.4-0.1-0.6-0.1s-0.4,0-0.5,0.1s-0.3,0.2-0.5,0.3c-0.1,0.2-0.2,0.4-0.3,0.6
		s-0.1,0.6-0.1,1c0,0.4,0,0.7,0.1,0.9s0.2,0.5,0.3,0.6c0.1,0.2,0.3,0.3,0.4,0.3s0.4,0.1,0.6,0.1c0.2,0,0.4,0,0.5-0.1
		S-5.6,50.6-5.5,50.4z"/>
	<path class="st0" d="M1.5,52.2c0,0.7-0.2,1.3-0.7,1.7s-1,0.6-1.8,0.6c-0.4,0-0.7,0-1,0s-0.5-0.1-0.7-0.1v-1.5h0.2
		c0.1,0,0.3,0.1,0.4,0.1c0.2,0,0.3,0,0.4,0c0.4,0,0.7-0.1,0.8-0.4s0.2-0.6,0.2-1.2V47h-1.2v-1.4h3.4V52.2z M1.5,44.6h-2.3V43h2.3
		V44.6z"/>
	<path class="st0" d="M10,49.2H5.1c0,0.5,0.2,0.9,0.6,1.2s0.9,0.4,1.6,0.4c0.4,0,0.9-0.1,1.3-0.2s0.7-0.3,1-0.5h0.2v1.7
		c-0.5,0.2-0.9,0.3-1.3,0.4s-0.9,0.1-1.4,0.1c-1.3,0-2.3-0.3-3-0.9S3,50,3,48.9c0-1.1,0.3-1.9,1-2.6s1.6-1,2.7-1
		c1.1,0,1.9,0.3,2.4,0.8s0.8,1.3,0.8,2.3V49.2z M7.9,48c0-0.4-0.1-0.8-0.3-1s-0.5-0.3-1-0.3c-0.4,0-0.7,0.1-1,0.3s-0.4,0.5-0.4,1
		H7.9z"/>
	<path class="st0" d="M14.9,52.3c-0.6,0-1.1-0.1-1.6-0.2s-0.9-0.3-1.2-0.6c-0.3-0.3-0.6-0.6-0.8-1.1S11,49.4,11,48.9
		c0-0.6,0.1-1.1,0.3-1.6s0.5-0.8,0.9-1.1c0.4-0.3,0.8-0.5,1.2-0.6s0.9-0.2,1.4-0.2c0.4,0,0.9,0,1.2,0.1s0.7,0.2,1.1,0.4v1.8h-0.3
		c-0.1-0.1-0.2-0.2-0.3-0.2c-0.1-0.1-0.3-0.2-0.4-0.3c-0.2-0.1-0.3-0.2-0.5-0.2c-0.2-0.1-0.4-0.1-0.7-0.1c-0.6,0-1,0.2-1.3,0.5
		c-0.3,0.4-0.5,0.8-0.5,1.5c0,0.6,0.2,1.1,0.5,1.4c0.3,0.3,0.8,0.5,1.3,0.5c0.3,0,0.5,0,0.7-0.1c0.2-0.1,0.4-0.1,0.5-0.2
		c0.1-0.1,0.2-0.2,0.4-0.2c0.1-0.1,0.2-0.2,0.3-0.3h0.3v1.8c-0.3,0.2-0.7,0.3-1,0.4S15.3,52.3,14.9,52.3z"/>
	<path class="st0" d="M22.7,52.1c-0.2,0.1-0.5,0.1-0.7,0.1s-0.6,0-0.9,0c-0.8,0-1.4-0.2-1.8-0.5s-0.6-0.9-0.6-1.7V47h-0.9v-1.4h0.9
		v-1.9h2.1v1.9h2V47h-2v2.3c0,0.2,0,0.4,0,0.6c0,0.2,0,0.3,0.1,0.5c0.1,0.1,0.2,0.2,0.3,0.3c0.1,0.1,0.3,0.1,0.6,0.1
		c0.1,0,0.3,0,0.4-0.1s0.3-0.1,0.4-0.1h0.2V52.1z"/>
	<path class="st0" d="M29.7,50c0,0.7-0.3,1.2-0.9,1.6s-1.4,0.6-2.5,0.6c-0.6,0-1.1-0.1-1.6-0.2s-0.9-0.2-1.1-0.4V50h0.2
		c0.1,0.1,0.2,0.2,0.4,0.2s0.3,0.2,0.6,0.3c0.2,0.1,0.5,0.2,0.7,0.2s0.6,0.1,0.9,0.1c0.4,0,0.7,0,0.9-0.1s0.3-0.2,0.3-0.4
		c0-0.2-0.1-0.3-0.2-0.3s-0.3-0.1-0.7-0.2c-0.2,0-0.4-0.1-0.6-0.1s-0.5-0.1-0.7-0.1c-0.6-0.2-1-0.4-1.3-0.7s-0.4-0.7-0.4-1.2
		c0-0.6,0.3-1.2,0.9-1.6s1.4-0.6,2.5-0.6c0.5,0,1,0,1.4,0.1s0.8,0.2,1.1,0.3v1.7h-0.2c-0.3-0.2-0.7-0.4-1.1-0.5s-0.8-0.2-1.2-0.2
		c-0.3,0-0.6,0-0.9,0.1s-0.3,0.2-0.3,0.4c0,0.2,0.1,0.3,0.2,0.4s0.4,0.2,0.7,0.2c0.2,0,0.4,0.1,0.7,0.1s0.5,0.1,0.7,0.2
		c0.6,0.1,1,0.4,1.2,0.7S29.7,49.6,29.7,50z"/>
	<path class="st1" d="M35.4,52.1H34l-0.4-0.4c-0.2,0.2-0.4,0.3-0.6,0.3s-0.5,0.1-0.7,0.1c-0.5,0-1-0.1-1.3-0.4
		c-0.3-0.2-0.5-0.6-0.5-1c0-0.2,0-0.3,0.1-0.4s0.1-0.2,0.2-0.3c0.1-0.1,0.2-0.2,0.3-0.2s0.2-0.1,0.3-0.2c-0.1-0.1-0.2-0.1-0.2-0.2
		s-0.1-0.1-0.2-0.2c-0.1-0.1-0.1-0.2-0.1-0.2s0-0.2,0-0.3c0-0.1,0-0.3,0.1-0.4s0.1-0.2,0.3-0.3c0.1-0.1,0.3-0.2,0.5-0.2
		s0.4-0.1,0.7-0.1c0.2,0,0.4,0,0.6,0.1s0.3,0.1,0.5,0.2c0.1,0.1,0.2,0.2,0.3,0.3c0.1,0.1,0.1,0.2,0.1,0.4c0,0.1,0,0.2,0,0.3
		s-0.1,0.2-0.1,0.3c-0.1,0.1-0.2,0.2-0.3,0.3s-0.3,0.2-0.5,0.2l0.9,0.8v-0.9h1.1v0.3c0,0.2,0,0.5-0.1,0.7c-0.1,0.2-0.2,0.4-0.3,0.5
		L35.4,52.1L35.4,52.1z M33.1,51.3l-1.2-1.1c0,0-0.1,0.1-0.1,0.2c-0.1,0.1-0.1,0.2-0.1,0.3c0,0.1,0,0.2,0.1,0.3
		c0.1,0.1,0.1,0.2,0.2,0.2c0.1,0.1,0.2,0.1,0.3,0.1s0.2,0,0.3,0c0.1,0,0.3,0,0.4,0S33,51.3,33.1,51.3z M32.6,48.7c0-0.1,0-0.2,0-0.2
		s-0.1-0.1-0.1-0.1c0,0-0.1-0.1-0.1-0.1s-0.1,0-0.1,0c0,0-0.1,0-0.1,0s-0.1,0-0.1,0.1c0,0-0.1,0.1-0.1,0.1s0,0.1,0,0.2
		c0,0.1,0,0.2,0.1,0.3s0.2,0.2,0.4,0.3c0.1-0.1,0.2-0.2,0.2-0.3S32.6,48.9,32.6,48.7z"/>
	<path class="st1" d="M41,52.1h-3.2v-4.4H41v0.8h-2v0.8h1.9v0.8H39v1.1h2V52.1z"/>
	<path class="st1" d="M45.4,52.1h-1.2l-0.7-1l-0.7,1h-1.2l1.3-1.6l-1.3-1.6h1.2l0.7,1l0.7-1h1.2l-1.3,1.6L45.4,52.1z"/>
	<path class="st1" d="M49.4,50.4c0,0.3,0,0.5-0.1,0.7c-0.1,0.2-0.2,0.4-0.3,0.6c-0.1,0.2-0.3,0.3-0.5,0.3c-0.2,0.1-0.4,0.1-0.6,0.1
		c-0.2,0-0.3,0-0.5-0.1S47.1,52,47,52v1.4h-1.1v-4.5H47v0.3c0.2-0.1,0.3-0.2,0.5-0.3c0.2-0.1,0.4-0.1,0.6-0.1c0.4,0,0.7,0.2,1,0.5
		C49.2,49.5,49.4,49.9,49.4,50.4z M48.3,50.4c0-0.3-0.1-0.6-0.2-0.7c-0.1-0.1-0.3-0.2-0.5-0.2c-0.1,0-0.2,0-0.3,0
		c-0.1,0-0.2,0.1-0.3,0.1v1.7c0.1,0,0.1,0,0.2,0.1s0.2,0,0.2,0c0.3,0,0.5-0.1,0.6-0.2C48.2,51,48.3,50.8,48.3,50.4z"/>
	<path class="st1" d="M53.4,50.7h-2.4c0,0.3,0.1,0.5,0.3,0.6s0.4,0.2,0.8,0.2c0.2,0,0.4,0,0.6-0.1s0.4-0.2,0.5-0.3h0.1v0.8
		c-0.2,0.1-0.5,0.2-0.7,0.2s-0.4,0.1-0.7,0.1c-0.7,0-1.2-0.1-1.5-0.4s-0.5-0.7-0.5-1.3c0-0.5,0.2-1,0.5-1.3s0.8-0.5,1.4-0.5
		c0.5,0,0.9,0.1,1.2,0.4s0.4,0.7,0.4,1.2V50.7z M52.3,50c0-0.2-0.1-0.4-0.2-0.5s-0.3-0.2-0.5-0.2c-0.2,0-0.4,0.1-0.5,0.2
		S51,49.8,50.9,50H52.3z"/>
	<path class="st1" d="M56.5,49.8L56.5,49.8c-0.1,0-0.2,0-0.3,0c-0.1,0-0.2,0-0.2,0c-0.2,0-0.3,0-0.4,0c-0.1,0-0.2,0.1-0.4,0.1v2.2
		h-1.1v-3.3h1.1v0.5c0.2-0.2,0.4-0.3,0.6-0.4s0.3-0.1,0.5-0.1c0,0,0.1,0,0.1,0c0,0,0.1,0,0.1,0V49.8z"/>
	<path class="st1" d="M58.2,48.4h-1.1v-0.8h1.1V48.4z M58.1,52.1h-1.1v-3.3h1.1V52.1z"/>
	<path class="st1" d="M62.4,50.7H60c0,0.3,0.1,0.5,0.3,0.6s0.4,0.2,0.8,0.2c0.2,0,0.4,0,0.6-0.1s0.4-0.2,0.5-0.3h0.1v0.8
		c-0.2,0.1-0.5,0.2-0.7,0.2s-0.4,0.1-0.7,0.1c-0.7,0-1.2-0.1-1.5-0.4s-0.5-0.7-0.5-1.3c0-0.5,0.2-1,0.5-1.3s0.8-0.5,1.4-0.5
		c0.5,0,0.9,0.1,1.2,0.4s0.4,0.7,0.4,1.2V50.7z M61.3,50c0-0.2-0.1-0.4-0.2-0.5s-0.3-0.2-0.5-0.2c-0.2,0-0.4,0.1-0.5,0.2
		S60,49.8,60,50H61.3z"/>
	<path class="st1" d="M66.4,52.1h-1.1v-1.6c0-0.1,0-0.3,0-0.4s0-0.2-0.1-0.3c0-0.1-0.1-0.1-0.2-0.2s-0.2,0-0.3,0c-0.1,0-0.2,0-0.3,0
		s-0.2,0.1-0.3,0.1v2.3h-1.1v-3.3h1.1v0.4c0.2-0.1,0.4-0.3,0.5-0.3c0.2-0.1,0.4-0.1,0.6-0.1c0.4,0,0.6,0.1,0.8,0.3
		c0.2,0.2,0.3,0.5,0.3,0.9V52.1z"/>
	<path class="st1" d="M69.1,52.2c-0.3,0-0.5,0-0.8-0.1s-0.4-0.2-0.6-0.3c-0.2-0.1-0.3-0.3-0.4-0.5s-0.1-0.5-0.1-0.8
		c0-0.3,0.1-0.6,0.2-0.8s0.2-0.4,0.4-0.6c0.2-0.1,0.4-0.2,0.6-0.3s0.5-0.1,0.7-0.1c0.2,0,0.4,0,0.6,0.1s0.4,0.1,0.5,0.2v0.9h-0.1
		c0,0-0.1-0.1-0.1-0.1s-0.1-0.1-0.2-0.1c-0.1,0-0.2-0.1-0.3-0.1c-0.1,0-0.2,0-0.3,0c-0.3,0-0.5,0.1-0.6,0.3
		c-0.2,0.2-0.2,0.4-0.2,0.7c0,0.3,0.1,0.6,0.2,0.7c0.2,0.2,0.4,0.2,0.7,0.2c0.1,0,0.3,0,0.4,0s0.2-0.1,0.3-0.1
		c0.1,0,0.1-0.1,0.2-0.1s0.1-0.1,0.1-0.1h0.1V52c-0.2,0.1-0.3,0.1-0.5,0.2S69.3,52.2,69.1,52.2z"/>
	<path class="st1" d="M74.2,50.7h-2.4c0,0.3,0.1,0.5,0.3,0.6s0.4,0.2,0.8,0.2c0.2,0,0.4,0,0.6-0.1s0.4-0.2,0.5-0.3h0.1v0.8
		c-0.2,0.1-0.5,0.2-0.7,0.2s-0.4,0.1-0.7,0.1c-0.7,0-1.2-0.1-1.5-0.4s-0.5-0.7-0.5-1.3c0-0.5,0.2-1,0.5-1.3s0.8-0.5,1.4-0.5
		c0.5,0,0.9,0.1,1.2,0.4s0.4,0.7,0.4,1.2V50.7z M73.1,50c0-0.2-0.1-0.4-0.2-0.5s-0.3-0.2-0.5-0.2c-0.2,0-0.4,0.1-0.5,0.2
		s-0.2,0.3-0.2,0.5H73.1z"/>
</g>
</svg>
