<?xml version="1.0" encoding="utf-8"?>
<!-- Generator: Adobe Illustrator 23.0.1, SVG Export Plug-In . SVG Version: 6.00 Build 0)  -->
<svg version="1.1" id="Layer_1" xmlns="http://www.w3.org/2000/svg" xmlns:xlink="http://www.w3.org/1999/xlink" x="0px" y="0px"
	 viewBox="0 0 278.6 84" style="enable-background:new 0 0 278.6 84;" xml:space="preserve">
<style type="text/css">
	.st0{fill:#506F8E;}
	.st1{fill:#FFFFFF;}
</style>
<path class="st0" d="M76.4,18.2h-4.5V6.6l-3.2,7.6h-3.1l-3.2-7.6v11.7h-4.2V0.8h5.2l3.9,8.8l3.9-8.8h5.2V18.2z"/>
<path class="st0" d="M86.5,13.6l3-8.5h4.3l-7.3,18H82l2.1-4.9L79,5.1h4.4L86.5,13.6z"/>
<path class="st0" d="M118.2,11.5c0,1.1-0.2,2.1-0.5,3s-0.8,1.6-1.3,2.2c-0.6,0.6-1.2,1.1-1.9,1.4c-0.7,0.3-1.5,0.5-2.3,0.5
	c-0.7,0-1.4-0.1-1.9-0.2c-0.5-0.2-1.1-0.4-1.6-0.7v5.5h-4.2v-18h4.2v1.4c0.6-0.5,1.3-0.9,2-1.3c0.7-0.3,1.5-0.5,2.3-0.5
	c1.6,0,2.9,0.6,3.8,1.8C117.7,7.7,118.2,9.4,118.2,11.5z M113.8,11.6c0-1.3-0.2-2.2-0.7-2.8s-1.1-0.9-2.1-0.9
	c-0.4,0-0.8,0.1-1.2,0.2c-0.4,0.1-0.8,0.3-1.2,0.5v6.6c0.3,0.1,0.6,0.2,0.9,0.2c0.3,0,0.6,0,0.9,0c1.1,0,1.9-0.3,2.5-1
	C113.5,13.9,113.8,12.9,113.8,11.6z"/>
<path class="st0" d="M134.2,12.4h-9.7c0.1,1,0.5,1.8,1.2,2.4s1.8,0.8,3.2,0.8c0.9,0,1.8-0.2,2.6-0.5s1.5-0.7,2-1h0.5v3.4
	c-1,0.4-1.9,0.7-2.7,0.8s-1.8,0.3-2.8,0.3c-2.6,0-4.7-0.6-6.1-1.8s-2.1-2.9-2.1-5.1c0-2.2,0.7-3.9,2-5.2s3.2-1.9,5.5-1.9
	c2.1,0,3.8,0.5,4.8,1.6s1.6,2.6,1.6,4.7V12.4z M130,10c0-0.9-0.2-1.5-0.7-2s-1.1-0.7-1.9-0.7c-0.8,0-1.5,0.2-2,0.6s-0.8,1.1-0.9,2
	H130z"/>
<path class="st0" d="M146.7,9.1h-0.4C146.1,9,145.8,9,145.4,9c-0.4,0-0.7,0-1,0c-0.6,0-1.1,0-1.6,0.1s-1,0.2-1.5,0.4v8.8h-4.2V5.1
	h4.2V7c0.9-0.8,1.7-1.3,2.4-1.6c0.7-0.3,1.3-0.4,1.9-0.4c0.1,0,0.3,0,0.5,0s0.4,0,0.5,0V9.1z"/>
<path class="st0" d="M160.5,14.1c0,1.4-0.6,2.5-1.8,3.3s-2.9,1.2-5,1.2c-1.2,0-2.2-0.1-3.2-0.3s-1.7-0.5-2.3-0.7v-3.5h0.4
	c0.2,0.1,0.5,0.3,0.7,0.5s0.7,0.4,1.2,0.6c0.4,0.2,0.9,0.3,1.5,0.5s1.1,0.2,1.8,0.2c0.8,0,1.4-0.1,1.8-0.3s0.6-0.5,0.6-0.8
	c0-0.3-0.1-0.6-0.4-0.7s-0.7-0.3-1.3-0.4c-0.3-0.1-0.7-0.1-1.3-0.2s-1-0.2-1.5-0.3c-1.2-0.3-2.1-0.8-2.7-1.5s-0.9-1.5-0.9-2.5
	c0-1.3,0.6-2.3,1.8-3.2s2.8-1.3,4.9-1.3c1,0,1.9,0.1,2.8,0.3s1.6,0.4,2.1,0.6V9h-0.4c-0.6-0.4-1.3-0.8-2.1-1s-1.6-0.4-2.4-0.4
	c-0.7,0-1.3,0.1-1.7,0.3s-0.7,0.5-0.7,0.8c0,0.3,0.1,0.6,0.3,0.7s0.7,0.3,1.5,0.5c0.4,0.1,0.9,0.2,1.4,0.3s1,0.2,1.5,0.3
	c1.1,0.3,1.9,0.7,2.5,1.4S160.5,13.1,160.5,14.1z"/>
<path class="st0" d="M176.8,11.7c0,2.2-0.6,3.9-1.9,5.1s-3,1.9-5.3,1.9s-4.1-0.6-5.3-1.9s-1.9-3-1.9-5.1c0-2.2,0.6-3.9,1.9-5.1
	s3-1.9,5.3-1.9c2.3,0,4.1,0.6,5.3,1.9S176.8,9.5,176.8,11.7z M171.6,14.9c0.3-0.3,0.5-0.7,0.6-1.2s0.2-1.1,0.2-2
	c0-0.8-0.1-1.4-0.2-1.9s-0.3-0.9-0.6-1.3c-0.3-0.3-0.6-0.5-0.9-0.7s-0.7-0.2-1.1-0.2s-0.8,0.1-1.1,0.2s-0.6,0.3-0.9,0.7
	c-0.3,0.3-0.5,0.7-0.6,1.3s-0.2,1.2-0.2,2c0,0.7,0.1,1.3,0.2,1.9s0.3,1,0.6,1.3c0.3,0.3,0.5,0.5,0.9,0.7s0.7,0.2,1.2,0.2
	c0.4,0,0.7-0.1,1.1-0.2S171.3,15.2,171.6,14.9z"/>
<path class="st0" d="M193,18.2h-4.2v-6.5c0-0.5,0-1.1-0.1-1.6s-0.1-0.9-0.3-1.2c-0.2-0.3-0.4-0.5-0.7-0.6s-0.7-0.2-1.3-0.2
	c-0.4,0-0.8,0.1-1.2,0.2s-0.8,0.3-1.3,0.6v9.3h-4.2V5.1h4.2v1.5c0.7-0.6,1.5-1,2.2-1.3s1.5-0.5,2.3-0.5c1.4,0,2.5,0.4,3.3,1.2
	S193,8,193,9.7V18.2z"/>
<path class="st0" d="M204.8,16.8c-0.2,0.2-0.5,0.4-0.8,0.6s-0.7,0.4-0.9,0.6c-0.4,0.2-0.8,0.3-1.3,0.4s-0.9,0.1-1.5,0.1
	c-1.3,0-2.3-0.4-3.1-1.2s-1.3-1.8-1.3-3c0-1,0.2-1.7,0.6-2.4s1-1.1,1.8-1.4c0.8-0.4,1.8-0.6,2.9-0.8s2.4-0.3,3.6-0.3V9.5
	c0-0.7-0.3-1.2-0.9-1.5s-1.5-0.4-2.6-0.4c-0.7,0-1.4,0.1-2.2,0.4s-1.4,0.4-1.7,0.6H197V5.4c0.4-0.1,1.2-0.3,2.2-0.4s2-0.2,3-0.2
	c2.4,0,4.1,0.4,5.2,1.1s1.6,1.9,1.6,3.5v9h-4.2V16.8z M204.8,14.8v-2.7c-0.6,0-1.2,0.1-1.9,0.2s-1.2,0.2-1.5,0.3
	c-0.4,0.1-0.7,0.3-1,0.6c-0.2,0.3-0.3,0.6-0.3,1c0,0.3,0,0.5,0.1,0.7s0.2,0.3,0.4,0.5c0.2,0.2,0.4,0.3,0.6,0.3
	c0.3,0.1,0.6,0.1,1.2,0.1c0.4,0,0.8-0.1,1.3-0.3S204.5,15.1,204.8,14.8z"/>
<path class="st0" d="M217.1,18.2h-4.2V0h4.2V18.2z"/>
<path class="st1" d="M37.2,40.4c0,2-0.4,4-1.1,5.9c-0.7,1.9-1.7,3.5-3,4.9c-1.8,1.8-3.8,3.1-6,4s-5,1.4-8.2,1.4h-7.2v14.7H0V26.2
	h19.1c2.9,0,5.3,0.2,7.3,0.7c2,0.5,3.7,1.2,5.2,2.2c1.8,1.2,3.2,2.7,4.2,4.6C36.7,35.6,37.2,37.8,37.2,40.4z M25.2,40.6
	c0-1.3-0.3-2.4-1-3.3c-0.7-0.9-1.5-1.6-2.4-1.9c-1.2-0.5-2.4-0.8-3.5-0.8s-2.7-0.1-4.6-0.1h-2V48H15c2,0,3.6-0.1,4.9-0.4
	c1.3-0.2,2.4-0.7,3.2-1.4c0.7-0.6,1.3-1.4,1.6-2.3C25,43,25.2,41.9,25.2,40.6z"/>
<path class="st1" d="M69.5,47.6h-1c-0.5-0.2-1.2-0.3-2.2-0.4c-1-0.1-1.9-0.1-2.6-0.1c-1.6,0-2.9,0.1-4.1,0.3c-1.2,0.2-2.5,0.5-3.8,1
	v22.8H44.8v-34h10.9v5c2.4-2.1,4.5-3.4,6.3-4.1c1.8-0.7,3.4-1,4.9-1c0.4,0,0.8,0,1.3,0c0.5,0,0.9,0.1,1.3,0.1V47.6z"/>
<path class="st1" d="M110.4,54.3c0,5.6-1.6,10-4.9,13.2c-3.3,3.2-7.8,4.8-13.7,4.8c-5.9,0-10.5-1.6-13.7-4.8
	c-3.3-3.2-4.9-7.6-4.9-13.2c0-5.6,1.6-10.1,4.9-13.3c3.3-3.2,7.8-4.8,13.7-4.8c5.9,0,10.5,1.6,13.8,4.8
	C108.8,44.3,110.4,48.7,110.4,54.3z M97,62.5c0.7-0.9,1.2-1.9,1.6-3.1c0.4-1.2,0.5-2.9,0.5-5.1c0-2-0.2-3.7-0.5-5
	c-0.4-1.4-0.9-2.4-1.5-3.2c-0.6-0.8-1.4-1.4-2.3-1.8c-0.9-0.3-1.9-0.5-2.9-0.5c-1,0-2,0.1-2.8,0.4c-0.8,0.3-1.6,0.8-2.3,1.7
	c-0.7,0.8-1.2,1.9-1.6,3.2c-0.4,1.4-0.6,3.1-0.6,5.2c0,1.9,0.2,3.5,0.5,4.8c0.3,1.4,0.8,2.5,1.5,3.3c0.6,0.8,1.4,1.4,2.3,1.7
	c0.9,0.4,1.9,0.5,3.1,0.5c1,0,1.9-0.2,2.8-0.5C95.6,63.9,96.4,63.3,97,62.5z"/>
<path class="st1" d="M132.9,71.8c0,3.8-1.2,6.8-3.5,9S124,84,120.3,84c-2,0-3.8-0.1-5.4-0.3c-1.6-0.2-2.8-0.3-3.6-0.5v-7.8h0.8
	c0.6,0.2,1.4,0.4,2.3,0.5c0.9,0.1,1.6,0.2,2.1,0.2c2.1,0,3.5-0.6,4.3-1.9c0.8-1.3,1.1-3.3,1.1-6.2V44.6h-6.4v-7.4h17.4V71.8z
	 M132.9,32.4h-11.6v-8.3h11.6V32.4z"/>
<path class="st1" d="M176.7,56.2h-24.9c0.2,2.7,1.2,4.7,3,6.1c1.9,1.4,4.6,2.1,8.2,2.1c2.3,0,4.5-0.4,6.7-1.2
	c2.2-0.8,3.9-1.7,5.1-2.7h1.2v8.7c-2.5,1-4.8,1.7-7,2.1s-4.6,0.7-7.2,0.7c-6.8,0-12-1.5-15.7-4.6c-3.6-3.1-5.4-7.4-5.4-13.1
	c0-5.6,1.7-10.1,5.2-13.3c3.4-3.3,8.2-4.9,14.2-4.9c5.5,0,9.7,1.4,12.5,4.2c2.8,2.8,4.2,6.8,4.2,12.1V56.2z M165.8,49.9
	c-0.1-2.3-0.6-4-1.7-5.1s-2.7-1.7-5-1.7c-2.1,0-3.8,0.5-5.2,1.6s-2.1,2.8-2.3,5.2H165.8z"/>
<path class="st1" d="M202.1,72.1c-3,0-5.7-0.4-8.1-1.1s-4.6-1.8-6.4-3.3c-1.8-1.5-3.2-3.3-4.2-5.6s-1.5-4.9-1.5-7.9
	c0-3.2,0.5-5.9,1.6-8.2s2.5-4.2,4.4-5.7c1.8-1.4,4-2.5,6.4-3.1s4.9-1,7.5-1c2.3,0,4.5,0.3,6.4,0.8c2,0.5,3.8,1.2,5.5,2v9.3h-1.5
	c-0.4-0.4-0.9-0.8-1.5-1.3s-1.3-1-2.2-1.4c-0.8-0.4-1.7-0.8-2.7-1.1c-1-0.3-2.1-0.4-3.4-0.4c-2.9,0-5.1,0.9-6.7,2.8
	c-1.6,1.8-2.3,4.4-2.3,7.5c0,3.3,0.8,5.8,2.4,7.4c1.6,1.7,3.9,2.5,6.8,2.5c1.4,0,2.6-0.2,3.7-0.5c1.1-0.3,2-0.7,2.7-1.1
	c0.7-0.4,1.3-0.8,1.8-1.3c0.5-0.4,1-0.9,1.5-1.3h1.5v9.3c-1.7,0.8-3.5,1.4-5.4,1.9C206.4,71.9,204.3,72.1,202.1,72.1z"/>
<path class="st1" d="M242.6,70.9c-1.2,0.3-2.4,0.5-3.7,0.7c-1.3,0.2-2.9,0.3-4.8,0.3c-4.2,0-7.4-0.9-9.5-2.6
	c-2.1-1.7-3.1-4.7-3.1-8.8V44.6H217v-7.4h4.5v-9.7h10.9v9.7h10.2v7.4h-10.2v12.1c0,1.2,0,2.2,0,3.1c0,0.9,0.2,1.7,0.5,2.4
	c0.3,0.7,0.8,1.3,1.5,1.7c0.7,0.4,1.8,0.6,3.1,0.6c0.6,0,1.3-0.1,2.2-0.4s1.6-0.5,1.9-0.7h0.9V70.9z"/>
<path class="st1" d="M278.6,60.5c0,3.5-1.6,6.3-4.7,8.5s-7.5,3.2-12.9,3.2c-3,0-5.8-0.3-8.2-0.8s-4.4-1.2-5.9-1.9v-9h1
	c0.5,0.4,1.2,0.8,1.9,1.3c0.7,0.5,1.7,0.9,3,1.5c1.1,0.5,2.4,0.9,3.8,1.2s3,0.5,4.6,0.5c2.1,0,3.7-0.2,4.8-0.7
	c1-0.5,1.5-1.2,1.5-2.1c0-0.8-0.3-1.4-0.9-1.8c-0.6-0.4-1.8-0.7-3.5-1.1c-0.8-0.2-1.9-0.4-3.3-0.6c-1.4-0.2-2.6-0.5-3.8-0.8
	c-3.1-0.8-5.4-2.1-6.9-3.8c-1.5-1.7-2.2-3.8-2.2-6.4c0-3.3,1.5-6,4.6-8.2c3.1-2.2,7.3-3.3,12.7-3.3c2.5,0,5,0.3,7.3,0.8
	s4.2,1.1,5.5,1.6v8.6h-0.9c-1.6-1.1-3.5-2-5.5-2.7c-2.1-0.7-4.2-1-6.3-1c-1.8,0-3.2,0.2-4.4,0.7c-1.2,0.5-1.8,1.2-1.8,2.1
	c0,0.8,0.3,1.4,0.8,1.8s1.8,0.8,3.8,1.3c1.1,0.2,2.3,0.4,3.6,0.7c1.3,0.2,2.6,0.5,3.9,0.8c2.9,0.7,5,1.9,6.4,3.5
	S278.6,58.1,278.6,60.5z"/>
</svg>
