<?xml version="1.0" encoding="utf-8"?>
<!-- Generator: Adobe Illustrator 23.0.1, SVG Export Plug-In . SVG Version: 6.00 Build 0)  -->
<svg version="1.1" id="Layer_1" xmlns="http://www.w3.org/2000/svg" xmlns:xlink="http://www.w3.org/1999/xlink" x="0px" y="0px"
	 viewBox="0 0 143.3 48.8" style="enable-background:new 0 0 143.3 48.8;" xml:space="preserve">
<style type="text/css">
	.st0{fill:#FFFFFF;}
</style>
<g>
	<path class="st0" d="M45.9,4c0,0.5-0.1,1-0.3,1.4c-0.2,0.4-0.4,0.8-0.8,1.1C44.5,7,44,7.3,43.5,7.5c-0.5,0.2-1.2,0.3-2.1,0.3h-1.5
		v4.3h-1.5V0.5h3.2c0.7,0,1.3,0.1,1.8,0.2s0.9,0.3,1.3,0.6c0.4,0.3,0.8,0.7,1,1.1C45.8,2.8,45.9,3.4,45.9,4z M44.3,4.1
		c0-0.4-0.1-0.8-0.2-1s-0.4-0.5-0.6-0.7C43.2,2.1,42.9,2,42.6,2s-0.7-0.1-1.2-0.1h-1.5v4.6h1.3c0.6,0,1.1-0.1,1.5-0.2
		c0.4-0.1,0.7-0.3,1-0.5C43.9,5.5,44,5.3,44.1,5C44.2,4.7,44.3,4.4,44.3,4.1z"/>
	<path class="st0" d="M54.7,7.9h-6.4c0,0.5,0.1,1,0.2,1.4c0.2,0.4,0.4,0.7,0.7,1c0.3,0.3,0.6,0.4,1,0.6c0.4,0.1,0.8,0.2,1.2,0.2
		c0.6,0,1.2-0.1,1.8-0.4c0.6-0.2,1-0.5,1.3-0.7h0.1v1.6c-0.5,0.2-1,0.4-1.5,0.5s-1.1,0.2-1.6,0.2c-1.4,0-2.6-0.4-3.4-1.2
		c-0.8-0.8-1.2-1.9-1.2-3.3c0-1.4,0.4-2.6,1.2-3.4c0.8-0.8,1.8-1.3,3.1-1.3c1.2,0,2.1,0.3,2.7,1c0.6,0.7,1,1.7,1,2.9V7.9z M53.3,6.8
		c0-0.8-0.2-1.4-0.6-1.8s-1-0.6-1.7-0.6c-0.8,0-1.4,0.2-1.9,0.7c-0.5,0.5-0.7,1-0.8,1.7H53.3z"/>
	<path class="st0" d="M62.4,5L62.4,5c-0.3-0.1-0.5-0.1-0.7-0.1c-0.2,0-0.4,0-0.7,0c-0.5,0-0.9,0.1-1.3,0.3c-0.4,0.2-0.8,0.5-1.2,0.8
		v6.2H57V3.4h1.5v1.3c0.6-0.5,1.1-0.8,1.5-1s0.9-0.3,1.4-0.3c0.3,0,0.4,0,0.6,0c0.1,0,0.3,0,0.5,0.1V5z"/>
	<path class="st0" d="M70,9.6c0,0.8-0.3,1.5-1,2c-0.7,0.5-1.6,0.8-2.7,0.8c-0.6,0-1.2-0.1-1.8-0.2s-1-0.3-1.4-0.5V10h0.1
		c0.5,0.3,1,0.6,1.5,0.8c0.6,0.2,1.1,0.3,1.6,0.3c0.6,0,1.2-0.1,1.5-0.3c0.4-0.2,0.5-0.5,0.5-1c0-0.3-0.1-0.6-0.3-0.8
		c-0.2-0.2-0.6-0.3-1.1-0.5c-0.2,0-0.5-0.1-0.8-0.2s-0.6-0.1-0.9-0.2C64.6,8,64,7.7,63.7,7.3c-0.3-0.4-0.5-0.9-0.5-1.4
		c0-0.4,0.1-0.7,0.2-1c0.1-0.3,0.4-0.6,0.7-0.9c0.3-0.2,0.7-0.4,1.1-0.6c0.5-0.1,1-0.2,1.5-0.2c0.5,0,1,0.1,1.6,0.2
		c0.5,0.1,1,0.3,1.3,0.5v1.6h-0.1c-0.4-0.3-0.8-0.5-1.4-0.7c-0.5-0.2-1.1-0.3-1.6-0.3c-0.5,0-1,0.1-1.4,0.3
		c-0.4,0.2-0.6,0.5-0.6,0.9c0,0.4,0.1,0.6,0.3,0.8c0.2,0.2,0.6,0.3,1.1,0.4c0.3,0.1,0.6,0.1,0.9,0.2s0.6,0.1,0.8,0.2
		c0.7,0.2,1.2,0.4,1.6,0.8C69.8,8.5,70,9,70,9.6z"/>
	<path class="st0" d="M79.6,7.8c0,1.4-0.4,2.5-1.1,3.4c-0.7,0.8-1.7,1.2-2.9,1.2c-1.2,0-2.2-0.4-2.9-1.2c-0.7-0.8-1.1-1.9-1.1-3.4
		s0.4-2.5,1.1-3.4c0.7-0.8,1.7-1.2,2.9-1.2c1.2,0,2.2,0.4,2.9,1.2C79.2,5.3,79.6,6.4,79.6,7.8z M78,7.8c0-1.1-0.2-2-0.7-2.5
		c-0.4-0.5-1.1-0.8-1.8-0.8c-0.8,0-1.4,0.3-1.9,0.8C73.2,5.8,73,6.7,73,7.8c0,1.1,0.2,1.9,0.7,2.5c0.4,0.6,1.1,0.8,1.9,0.8
		c0.8,0,1.4-0.3,1.8-0.8C77.8,9.7,78,8.9,78,7.8z"/>
	<path class="st0" d="M89.1,12.2h-1.5v-5c0-0.4,0-0.8-0.1-1.1s-0.1-0.6-0.3-0.8C87.2,5,87,4.9,86.8,4.7c-0.2-0.1-0.6-0.2-1-0.2
		c-0.4,0-0.8,0.1-1.3,0.3c-0.4,0.2-0.9,0.5-1.3,0.8v6.5h-1.5V3.4h1.5v1c0.5-0.4,0.9-0.7,1.4-0.9c0.5-0.2,1-0.3,1.5-0.3
		c0.9,0,1.7,0.3,2.2,0.9c0.5,0.6,0.7,1.4,0.7,2.5V12.2z"/>
	<path class="st0" d="M98.7,12.2h-1.5v-0.9c-0.1,0.1-0.3,0.2-0.5,0.4c-0.2,0.2-0.4,0.3-0.6,0.4c-0.2,0.1-0.5,0.2-0.8,0.3
		c-0.3,0.1-0.7,0.1-1.1,0.1c-0.8,0-1.5-0.3-2-0.8c-0.5-0.5-0.8-1.2-0.8-2c0-0.7,0.1-1.2,0.4-1.6c0.3-0.4,0.7-0.7,1.2-1
		c0.5-0.2,1.2-0.4,1.9-0.5c0.7-0.1,1.5-0.1,2.4-0.2V6.2c0-0.3-0.1-0.6-0.2-0.8s-0.3-0.4-0.5-0.5c-0.2-0.1-0.5-0.2-0.8-0.2
		c-0.3,0-0.6-0.1-0.9-0.1c-0.4,0-0.8,0.1-1.3,0.2c-0.5,0.1-1,0.2-1.5,0.4h-0.1V3.6c0.3-0.1,0.7-0.2,1.2-0.3c0.5-0.1,1.1-0.1,1.6-0.1
		c0.6,0,1.1,0.1,1.6,0.2c0.5,0.1,0.9,0.3,1.2,0.5c0.3,0.2,0.6,0.5,0.8,0.9c0.2,0.4,0.3,0.9,0.3,1.4V12.2z M97.3,10V7.6
		c-0.4,0-1,0.1-1.6,0.1c-0.6,0.1-1.1,0.1-1.4,0.2c-0.4,0.1-0.8,0.3-1,0.6c-0.3,0.3-0.4,0.6-0.4,1c0,0.5,0.2,0.9,0.5,1.1
		c0.3,0.3,0.8,0.4,1.4,0.4c0.5,0,1-0.1,1.4-0.3C96.5,10.5,96.9,10.3,97.3,10z"/>
	<path class="st0" d="M103.1,12.2h-1.5V0h1.5V12.2z"/>
	<path class="st0" d="M17.6,22.4c0,1.2-0.2,2.3-0.6,3.3c-0.4,1-1,1.9-1.7,2.6c-0.9,0.9-2,1.6-3.3,2.1c-1.3,0.5-2.9,0.7-4.8,0.7H3.6
		v10H0V14.3h7.3c1.6,0,3,0.1,4.1,0.4c1.1,0.3,2.1,0.7,3,1.3c1,0.7,1.8,1.5,2.4,2.6C17.3,19.5,17.6,20.8,17.6,22.4z M13.9,22.5
		c0-0.9-0.2-1.7-0.5-2.4s-0.8-1.2-1.5-1.7c-0.6-0.4-1.2-0.6-2-0.8c-0.7-0.2-1.7-0.2-2.8-0.2H3.6v10.7h3c1.4,0,2.6-0.1,3.5-0.4
		c0.9-0.3,1.6-0.7,2.2-1.2c0.6-0.6,1-1.2,1.2-1.8C13.8,24,13.9,23.3,13.9,22.5z"/>
	<path class="st0" d="M34.6,24.7h-0.2c-0.5-0.1-1-0.2-1.5-0.3c-0.5-0.1-1-0.1-1.7-0.1c-1,0-2.1,0.2-3,0.7c-1,0.5-1.9,1.1-2.8,1.8
		v14.3H22V21h3.4v3c1.3-1.1,2.5-1.9,3.6-2.3c1-0.5,2.1-0.7,3.2-0.7c0.6,0,1,0,1.3,0c0.3,0,0.7,0.1,1.2,0.2V24.7z"/>
	<path class="st0" d="M55,31.1c0,3.3-0.8,5.9-2.5,7.8c-1.7,1.9-3.9,2.9-6.8,2.9c-2.9,0-5.1-1-6.8-2.9c-1.7-1.9-2.5-4.5-2.5-7.8
		s0.8-5.9,2.5-7.8c1.7-1.9,3.9-2.9,6.8-2.9c2.8,0,5.1,1,6.8,2.9C54.2,25.2,55,27.8,55,31.1z M51.5,31.1c0-2.6-0.5-4.6-1.5-5.8
		c-1-1.3-2.4-1.9-4.3-1.9c-1.8,0-3.3,0.6-4.3,1.9c-1,1.3-1.5,3.2-1.5,5.8c0,2.5,0.5,4.4,1.5,5.8c1,1.3,2.5,2,4.3,2
		c1.8,0,3.2-0.6,4.3-1.9C51,35.6,51.5,33.6,51.5,31.1z"/>
	<path class="st0" d="M66.4,41.6c0,2.4-0.6,4.1-1.8,5.3c-1.2,1.2-2.8,1.8-4.8,1.8c-0.5,0-1.1,0-1.9-0.1c-0.8-0.1-1.4-0.2-2-0.4v-3.2
		H56c0.3,0.1,0.8,0.3,1.4,0.5c0.6,0.2,1.1,0.3,1.7,0.3c0.9,0,1.6-0.1,2.1-0.4c0.5-0.2,0.9-0.6,1.2-1.1c0.3-0.5,0.4-1.1,0.5-1.7
		c0.1-0.7,0.1-1.5,0.1-2.5V23.8h-4.2V21h7.6V41.6z M66.6,17.6h-3.8v-3.5h3.8V17.6z"/>
	<path class="st0" d="M89.9,31.4H75c0,1.2,0.2,2.3,0.6,3.2c0.4,0.9,0.9,1.7,1.5,2.3c0.6,0.6,1.4,1,2.2,1.3c0.9,0.3,1.8,0.4,2.8,0.4
		c1.4,0,2.8-0.3,4.1-0.8c1.4-0.5,2.4-1.1,3-1.6h0.2v3.7c-1.1,0.5-2.3,0.9-3.5,1.2s-2.4,0.5-3.8,0.5c-3.3,0-6-0.9-7.8-2.7
		c-1.9-1.8-2.8-4.4-2.8-7.7c0-3.3,0.9-5.9,2.7-7.9c1.8-1.9,4.2-2.9,7.1-2.9c2.7,0,4.8,0.8,6.3,2.4c1.5,1.6,2.2,3.8,2.2,6.8V31.4z
		 M86.6,28.8c0-1.8-0.5-3.2-1.3-4.1c-0.9-1-2.2-1.5-4-1.5c-1.8,0-3.3,0.5-4.3,1.6c-1.1,1.1-1.7,2.4-1.8,4H86.6z"/>
	<path class="st0" d="M110,39.9c-1.1,0.5-2.2,1-3.2,1.3c-1,0.3-2.1,0.5-3.2,0.5c-1.5,0-2.8-0.2-4-0.6c-1.2-0.4-2.3-1.1-3.1-1.9
		c-0.9-0.9-1.6-2-2-3.3c-0.5-1.3-0.7-2.9-0.7-4.6c0-3.3,0.9-5.9,2.7-7.8c1.8-1.9,4.2-2.8,7.2-2.8c1.2,0,2.3,0.2,3.4,0.5
		c1.1,0.3,2.1,0.7,3.1,1.2V26h-0.2c-1-0.8-2.1-1.4-3.2-1.9c-1.1-0.4-2.2-0.7-3.2-0.7c-1.9,0-3.4,0.6-4.6,1.9
		c-1.1,1.3-1.7,3.2-1.7,5.7c0,2.4,0.5,4.3,1.6,5.6c1.1,1.3,2.6,2,4.6,2c0.7,0,1.4-0.1,2.1-0.3c0.7-0.2,1.3-0.4,1.9-0.7
		c0.5-0.3,1-0.5,1.4-0.8c0.4-0.3,0.8-0.5,1-0.7h0.2V39.9z"/>
	<path class="st0" d="M124.8,41c-0.6,0.2-1.3,0.3-2.1,0.4c-0.8,0.1-1.4,0.2-2,0.2c-2.1,0-3.6-0.6-4.7-1.7c-1.1-1.1-1.6-2.9-1.6-5.3
		V23.8h-2.3V21h2.3v-5.8h3.4V21h7v2.9h-7V33c0,1.1,0,1.9,0.1,2.5c0,0.6,0.2,1.2,0.5,1.7c0.3,0.5,0.6,0.8,1.1,1.1
		c0.5,0.2,1.2,0.3,2.1,0.3c0.6,0,1.1-0.1,1.7-0.2c0.6-0.2,1-0.3,1.3-0.4h0.2V41z"/>
	<path class="st0" d="M143.3,35.3c0,1.8-0.8,3.4-2.3,4.5c-1.5,1.2-3.6,1.8-6.2,1.8c-1.5,0-2.9-0.2-4.1-0.5c-1.2-0.4-2.3-0.7-3.1-1.2
		v-3.8h0.2c1.1,0.8,2.3,1.4,3.6,1.9c1.3,0.5,2.6,0.7,3.8,0.7c1.5,0,2.7-0.2,3.5-0.7c0.8-0.5,1.3-1.2,1.3-2.3c0-0.8-0.2-1.4-0.7-1.8
		c-0.5-0.4-1.3-0.8-2.6-1c-0.5-0.1-1.1-0.2-1.9-0.4c-0.8-0.1-1.5-0.3-2.1-0.5c-1.8-0.5-3-1.2-3.8-2.1c-0.7-0.9-1.1-2-1.1-3.4
		c0-0.8,0.2-1.6,0.5-2.3c0.3-0.7,0.9-1.4,1.6-2c0.7-0.6,1.5-1,2.6-1.3c1-0.3,2.2-0.5,3.5-0.5c1.2,0,2.4,0.1,3.7,0.4
		c1.2,0.3,2.3,0.7,3.1,1.1v3.6h-0.2c-0.9-0.6-1.9-1.2-3.2-1.6c-1.2-0.4-2.5-0.7-3.6-0.7c-1.2,0-2.3,0.2-3.1,0.7
		c-0.9,0.5-1.3,1.2-1.3,2.1c0,0.8,0.3,1.5,0.8,1.9c0.5,0.4,1.3,0.8,2.5,1c0.6,0.1,1.3,0.3,2.1,0.4c0.8,0.1,1.4,0.3,1.9,0.4
		c1.6,0.4,2.8,1,3.6,1.9C142.9,32.7,143.3,33.9,143.3,35.3z"/>
</g>
</svg>
